var dialup = {
    "header": {
      "keySignatures": [],
      "meta": [],
      "name": "",
      "ppq": 43,
      "tempos": [
        {
          "bpm": 120,
          "ticks": 0
        }
      ],
      "timeSignatures": []
    },
    "tracks": [
      {
        "channel": 0,
        "controlChanges": {},
        "pitchBends": [],
        "instrument": {
          "family": "piano",
          "name": "acoustic grand piano",
          "number": 0
        },
        "name": "",
        "notes": [
          {
            "duration": 0.11627906976744186,
            "durationTicks": 10,
            "midi": 77,
            "name": "F5",
            "ticks": 0,
            "time": 0,
            "velocity": 0.5275590551181102
          },
          {
            "duration": 0.11627906976744186,
            "durationTicks": 10,
            "midi": 90,
            "name": "F#6",
            "ticks": 0,
            "time": 0,
            "velocity": 0.5669291338582677
          },
          {
            "duration": 0.11627906976744187,
            "durationTicks": 10,
            "midi": 79,
            "name": "G5",
            "ticks": 15,
            "time": 0.1744186046511628,
            "velocity": 0.5354330708661418
          },
          {
            "duration": 0.11627906976744187,
            "durationTicks": 10,
            "midi": 86,
            "name": "D6",
            "ticks": 15,
            "time": 0.1744186046511628,
            "velocity": 0.5826771653543307
          },
          {
            "duration": 0.034883720930232565,
            "durationTicks": 3,
            "midi": 86,
            "name": "D6",
            "ticks": 29,
            "time": 0.3372093023255814,
            "velocity": 0.5748031496062992
          },
          {
            "duration": 0.10465116279069764,
            "durationTicks": 9,
            "midi": 79,
            "name": "G5",
            "ticks": 30,
            "time": 0.3488372093023256,
            "velocity": 0.5354330708661418
          },
          {
            "duration": 0.011627906976744207,
            "durationTicks": 1,
            "midi": 87,
            "name": "D#6",
            "ticks": 32,
            "time": 0.37209302325581395,
            "velocity": 0.5826771653543307
          },
          {
            "duration": 0.06976744186046507,
            "durationTicks": 6,
            "midi": 86,
            "name": "D6",
            "ticks": 33,
            "time": 0.38372093023255816,
            "velocity": 0.5826771653543307
          },
          {
            "duration": 0.11627906976744184,
            "durationTicks": 10,
            "midi": 82,
            "name": "A#5",
            "ticks": 43,
            "time": 0.5,
            "velocity": 0.5275590551181102
          },
          {
            "duration": 0.12790697674418605,
            "durationTicks": 11,
            "midi": 88,
            "name": "E6",
            "ticks": 43,
            "time": 0.5,
            "velocity": 0.5826771653543307
          },
          {
            "duration": 0.046511627906976716,
            "durationTicks": 4,
            "midi": 90,
            "name": "F#6",
            "ticks": 45,
            "time": 0.5232558139534884,
            "velocity": 0.18110236220472442
          },
          {
            "duration": 0.11627906976744184,
            "durationTicks": 10,
            "midi": 77,
            "name": "F5",
            "ticks": 58,
            "time": 0.6744186046511628,
            "velocity": 0.5275590551181102
          },
          {
            "duration": 0.11627906976744184,
            "durationTicks": 10,
            "midi": 88,
            "name": "E6",
            "ticks": 58,
            "time": 0.6744186046511628,
            "velocity": 0.5826771653543307
          },
          {
            "duration": 0.12790697674418605,
            "durationTicks": 11,
            "midi": 82,
            "name": "A#5",
            "ticks": 72,
            "time": 0.8372093023255814,
            "velocity": 0.5354330708661418
          },
          {
            "duration": 0.12790697674418605,
            "durationTicks": 11,
            "midi": 88,
            "name": "E6",
            "ticks": 72,
            "time": 0.8372093023255814,
            "velocity": 0.5826771653543307
          },
          {
            "duration": 0.11627906976744184,
            "durationTicks": 10,
            "midi": 88,
            "name": "E6",
            "ticks": 87,
            "time": 1.0116279069767442,
            "velocity": 0.5826771653543307
          },
          {
            "duration": 0.06976744186046502,
            "durationTicks": 6,
            "midi": 80,
            "name": "G#5",
            "ticks": 89,
            "time": 1.0348837209302326,
            "velocity": 0.5196850393700787
          },
          {
            "duration": 0.023255813953488413,
            "durationTicks": 2,
            "midi": 81,
            "name": "A5",
            "ticks": 95,
            "time": 1.1046511627906976,
            "velocity": 0.4645669291338583
          },
          {
            "duration": 0.03488372093023262,
            "durationTicks": 3,
            "midi": 81,
            "name": "A5",
            "ticks": 179,
            "time": 2.0813953488372094,
            "velocity": 0.25984251968503935
          },
          {
            "duration": 0.09302325581395321,
            "durationTicks": 8,
            "midi": 96,
            "name": "C7",
            "ticks": 179,
            "time": 2.0813953488372094,
            "velocity": 0.25984251968503935
          },
          {
            "duration": 0.09302325581395321,
            "durationTicks": 8,
            "midi": 97,
            "name": "C#7",
            "ticks": 179,
            "time": 2.0813953488372094,
            "velocity": 0.36220472440944884
          },
          {
            "duration": 0.09302325581395321,
            "durationTicks": 8,
            "midi": 98,
            "name": "D7",
            "ticks": 179,
            "time": 2.0813953488372094,
            "velocity": 0.2440944881889764
          },
          {
            "duration": 0.09302325581395321,
            "durationTicks": 8,
            "midi": 100,
            "name": "E7",
            "ticks": 179,
            "time": 2.0813953488372094,
            "velocity": 0.2125984251968504
          },
          {
            "duration": 0.04651162790697638,
            "durationTicks": 4,
            "midi": 79,
            "name": "G5",
            "ticks": 180,
            "time": 2.0930232558139537,
            "velocity": 0.2440944881889764
          },
          {
            "duration": 0.04651162790697638,
            "durationTicks": 4,
            "midi": 83,
            "name": "B5",
            "ticks": 180,
            "time": 2.0930232558139537,
            "velocity": 0.2755905511811024
          },
          {
            "duration": 0.05813953488372059,
            "durationTicks": 5,
            "midi": 86,
            "name": "D6",
            "ticks": 180,
            "time": 2.0930232558139537,
            "velocity": 0.2755905511811024
          },
          {
            "duration": 0.034883720930232176,
            "durationTicks": 3,
            "midi": 89,
            "name": "F6",
            "ticks": 180,
            "time": 2.0930232558139537,
            "velocity": 0.28346456692913385
          },
          {
            "duration": 0.09302325581395321,
            "durationTicks": 8,
            "midi": 91,
            "name": "G6",
            "ticks": 180,
            "time": 2.0930232558139537,
            "velocity": 0.2755905511811024
          },
          {
            "duration": 0.081395348837209,
            "durationTicks": 7,
            "midi": 99,
            "name": "D#7",
            "ticks": 180,
            "time": 2.0930232558139537,
            "velocity": 0.25196850393700787
          },
          {
            "duration": 0.0697674418604648,
            "durationTicks": 6,
            "midi": 102,
            "name": "F#7",
            "ticks": 180,
            "time": 2.0930232558139537,
            "velocity": 0.18110236220472442
          },
          {
            "duration": 0.034883720930232176,
            "durationTicks": 3,
            "midi": 72,
            "name": "C5",
            "ticks": 181,
            "time": 2.104651162790698,
            "velocity": 0.25196850393700787
          },
          {
            "duration": 0.0697674418604648,
            "durationTicks": 6,
            "midi": 80,
            "name": "G#5",
            "ticks": 181,
            "time": 2.104651162790698,
            "velocity": 0.2677165354330709
          },
          {
            "duration": 0.0697674418604648,
            "durationTicks": 6,
            "midi": 82,
            "name": "A#5",
            "ticks": 181,
            "time": 2.104651162790698,
            "velocity": 0.2283464566929134
          },
          {
            "duration": 0.05813953488372059,
            "durationTicks": 5,
            "midi": 90,
            "name": "F#6",
            "ticks": 181,
            "time": 2.104651162790698,
            "velocity": 0.2440944881889764
          },
          {
            "duration": 0.034883720930232176,
            "durationTicks": 3,
            "midi": 61,
            "name": "C#4",
            "ticks": 182,
            "time": 2.116279069767442,
            "velocity": 0.11023622047244094
          },
          {
            "duration": 0.05813953488372059,
            "durationTicks": 5,
            "midi": 76,
            "name": "E5",
            "ticks": 182,
            "time": 2.116279069767442,
            "velocity": 0.12598425196850394
          },
          {
            "duration": 0.023255813953488413,
            "durationTicks": 2,
            "midi": 56,
            "name": "G#3",
            "ticks": 183,
            "time": 2.127906976744186,
            "velocity": 0.2677165354330709
          },
          {
            "duration": 0.058139534883721034,
            "durationTicks": 5,
            "midi": 74,
            "name": "D5",
            "ticks": 183,
            "time": 2.127906976744186,
            "velocity": 0.2125984251968504
          },
          {
            "duration": 0.04651162790697683,
            "durationTicks": 4,
            "midi": 88,
            "name": "E6",
            "ticks": 183,
            "time": 2.127906976744186,
            "velocity": 0.2440944881889764
          },
          {
            "duration": 0.03488372093023262,
            "durationTicks": 3,
            "midi": 78,
            "name": "F#5",
            "ticks": 184,
            "time": 2.13953488372093,
            "velocity": 0.15748031496062992
          },
          {
            "duration": 0.03488372093023262,
            "durationTicks": 3,
            "midi": 87,
            "name": "D#6",
            "ticks": 184,
            "time": 2.13953488372093,
            "velocity": 0.2204724409448819
          },
          {
            "duration": 0.03488372093023262,
            "durationTicks": 3,
            "midi": 64,
            "name": "E4",
            "ticks": 185,
            "time": 2.1511627906976742,
            "velocity": 0.1968503937007874
          },
          {
            "duration": 0.03488372093023262,
            "durationTicks": 3,
            "midi": 67,
            "name": "G4",
            "ticks": 185,
            "time": 2.1511627906976742,
            "velocity": 0.2204724409448819
          },
          {
            "duration": 0.03488372093023262,
            "durationTicks": 3,
            "midi": 85,
            "name": "C#6",
            "ticks": 185,
            "time": 2.1511627906976742,
            "velocity": 0.14960629921259844
          },
          {
            "duration": 0.03488372093023262,
            "durationTicks": 3,
            "midi": 89,
            "name": "F6",
            "ticks": 185,
            "time": 2.1511627906976742,
            "velocity": 0.29133858267716534
          },
          {
            "duration": 0.2441860465116279,
            "durationTicks": 21,
            "midi": 92,
            "name": "G#6",
            "ticks": 303,
            "time": 3.5232558139534884,
            "velocity": 0.48031496062992124
          },
          {
            "duration": 0.19767441860465151,
            "durationTicks": 17,
            "midi": 93,
            "name": "A6",
            "ticks": 313,
            "time": 3.63953488372093,
            "velocity": 0.4094488188976378
          },
          {
            "duration": 0.31395348837209314,
            "durationTicks": 27,
            "midi": 94,
            "name": "A#6",
            "ticks": 313,
            "time": 3.63953488372093,
            "velocity": 0.3700787401574803
          },
          {
            "duration": 0.10465116279069786,
            "durationTicks": 9,
            "midi": 91,
            "name": "G6",
            "ticks": 318,
            "time": 3.697674418604651,
            "velocity": 0.33858267716535434
          },
          {
            "duration": 0.19767441860465107,
            "durationTicks": 17,
            "midi": 92,
            "name": "G#6",
            "ticks": 325,
            "time": 3.7790697674418605,
            "velocity": 0.4881889763779528
          },
          {
            "duration": 0.11627906976744162,
            "durationTicks": 10,
            "midi": 93,
            "name": "A6",
            "ticks": 331,
            "time": 3.8488372093023258,
            "velocity": 0.3228346456692913
          },
          {
            "duration": 0.4651162790697674,
            "durationTicks": 40,
            "midi": 91,
            "name": "G6",
            "ticks": 388,
            "time": 4.511627906976744,
            "velocity": 0.48031496062992124
          },
          {
            "duration": 0.4651162790697674,
            "durationTicks": 40,
            "midi": 97,
            "name": "C#7",
            "ticks": 388,
            "time": 4.511627906976744,
            "velocity": 0.48031496062992124
          },
          {
            "duration": 0.1627906976744189,
            "durationTicks": 14,
            "midi": 94,
            "name": "A#6",
            "ticks": 423,
            "time": 4.9186046511627906,
            "velocity": 0.5275590551181102
          },
          {
            "duration": 0.3023255813953494,
            "durationTicks": 26,
            "midi": 83,
            "name": "B5",
            "ticks": 458,
            "time": 5.325581395348837,
            "velocity": 0.29133858267716534
          },
          {
            "duration": 0.08139534883720945,
            "durationTicks": 7,
            "midi": 86,
            "name": "D6",
            "ticks": 471,
            "time": 5.476744186046512,
            "velocity": 0.10236220472440945
          },
          {
            "duration": 0.06976744186046524,
            "durationTicks": 6,
            "midi": 85,
            "name": "C#6",
            "ticks": 478,
            "time": 5.558139534883721,
            "velocity": 0.2283464566929134
          },
          {
            "duration": 0.1511627906976738,
            "durationTicks": 13,
            "midi": 86,
            "name": "D6",
            "ticks": 483,
            "time": 5.616279069767442,
            "velocity": 0.2677165354330709
          },
          {
            "duration": 0.03488372093023262,
            "durationTicks": 3,
            "midi": 87,
            "name": "D#6",
            "ticks": 490,
            "time": 5.6976744186046515,
            "velocity": 0.10236220472440945
          },
          {
            "duration": 0.04651162790697594,
            "durationTicks": 4,
            "midi": 83,
            "name": "B5",
            "ticks": 491,
            "time": 5.709302325581396,
            "velocity": 0.18110236220472442
          },
          {
            "duration": 0.03488372093023173,
            "durationTicks": 3,
            "midi": 85,
            "name": "C#6",
            "ticks": 492,
            "time": 5.72093023255814,
            "velocity": 0.18110236220472442
          },
          {
            "duration": 0.03488372093023262,
            "durationTicks": 3,
            "midi": 82,
            "name": "A#5",
            "ticks": 495,
            "time": 5.755813953488372,
            "velocity": 0.15748031496062992
          },
          {
            "duration": 0.03488372093023262,
            "durationTicks": 3,
            "midi": 84,
            "name": "C6",
            "ticks": 495,
            "time": 5.755813953488372,
            "velocity": 0.23622047244094488
          },
          {
            "duration": 0.20930232558139572,
            "durationTicks": 18,
            "midi": 86,
            "name": "D6",
            "ticks": 497,
            "time": 5.77906976744186,
            "velocity": 0.30708661417322836
          },
          {
            "duration": 0.03488372093023262,
            "durationTicks": 3,
            "midi": 85,
            "name": "C#6",
            "ticks": 502,
            "time": 5.837209302325581,
            "velocity": 0.1889763779527559
          },
          {
            "duration": 0.3604651162790704,
            "durationTicks": 31,
            "midi": 83,
            "name": "B5",
            "ticks": 504,
            "time": 5.8604651162790695,
            "velocity": 0.2677165354330709
          },
          {
            "duration": 0.08139534883720945,
            "durationTicks": 7,
            "midi": 85,
            "name": "C#6",
            "ticks": 509,
            "time": 5.9186046511627906,
            "velocity": 0.2204724409448819
          },
          {
            "duration": 0.04651162790697683,
            "durationTicks": 4,
            "midi": 84,
            "name": "C6",
            "ticks": 510,
            "time": 5.930232558139535,
            "velocity": 0.1732283464566929
          },
          {
            "duration": 0.06976744186046524,
            "durationTicks": 6,
            "midi": 86,
            "name": "D6",
            "ticks": 516,
            "time": 6,
            "velocity": 0.2677165354330709
          },
          {
            "duration": 0.058139534883721034,
            "durationTicks": 5,
            "midi": 85,
            "name": "C#6",
            "ticks": 519,
            "time": 6.034883720930233,
            "velocity": 0.10236220472440945
          },
          {
            "duration": 0.04651162790697683,
            "durationTicks": 4,
            "midi": 86,
            "name": "D6",
            "ticks": 523,
            "time": 6.0813953488372094,
            "velocity": 0.11023622047244094
          },
          {
            "duration": 0.058139534883721034,
            "durationTicks": 5,
            "midi": 86,
            "name": "D6",
            "ticks": 528,
            "time": 6.1395348837209305,
            "velocity": 0.11023622047244094
          },
          {
            "duration": 0.24418604651162745,
            "durationTicks": 21,
            "midi": 92,
            "name": "G#6",
            "ticks": 536,
            "time": 6.232558139534884,
            "velocity": 0.47244094488188976
          },
          {
            "duration": 0.03488372093023262,
            "durationTicks": 3,
            "midi": 93,
            "name": "A6",
            "ticks": 547,
            "time": 6.3604651162790695,
            "velocity": 0.2677165354330709
          },
          {
            "duration": 0.44186046511627897,
            "durationTicks": 38,
            "midi": 94,
            "name": "A#6",
            "ticks": 549,
            "time": 6.383720930232558,
            "velocity": 0.4645669291338583
          },
          {
            "duration": 0.04651162790697683,
            "durationTicks": 4,
            "midi": 91,
            "name": "G6",
            "ticks": 551,
            "time": 6.406976744186046,
            "velocity": 0.2204724409448819
          },
          {
            "duration": 0.20930232558139572,
            "durationTicks": 18,
            "midi": 93,
            "name": "A6",
            "ticks": 551,
            "time": 6.406976744186046,
            "velocity": 0.3937007874015748
          },
          {
            "duration": 0.058139534883721034,
            "durationTicks": 5,
            "midi": 90,
            "name": "F#6",
            "ticks": 554,
            "time": 6.441860465116279,
            "velocity": 0.07874015748031496
          },
          {
            "duration": 0.058139534883721034,
            "durationTicks": 5,
            "midi": 91,
            "name": "G6",
            "ticks": 557,
            "time": 6.476744186046512,
            "velocity": 0.16535433070866143
          },
          {
            "duration": 0.3488372093023253,
            "durationTicks": 30,
            "midi": 92,
            "name": "G#6",
            "ticks": 558,
            "time": 6.488372093023256,
            "velocity": 0.48031496062992124
          },
          {
            "duration": 0.04651162790697683,
            "durationTicks": 4,
            "midi": 91,
            "name": "G6",
            "ticks": 563,
            "time": 6.546511627906977,
            "velocity": 0.2283464566929134
          },
          {
            "duration": 0.20930232558139483,
            "durationTicks": 18,
            "midi": 93,
            "name": "A6",
            "ticks": 570,
            "time": 6.627906976744186,
            "velocity": 0.3228346456692913
          },
          {
            "duration": 0.023255813953488413,
            "durationTicks": 2,
            "midi": 91,
            "name": "G6",
            "ticks": 584,
            "time": 6.790697674418604,
            "velocity": 0.29133858267716534
          },
          {
            "duration": 0.2790697674418601,
            "durationTicks": 24,
            "midi": 83,
            "name": "B5",
            "ticks": 600,
            "time": 6.976744186046512,
            "velocity": 0.29133858267716534
          },
          {
            "duration": 0.03488372093023262,
            "durationTicks": 3,
            "midi": 85,
            "name": "C#6",
            "ticks": 613,
            "time": 7.127906976744186,
            "velocity": 0.09448818897637795
          },
          {
            "duration": 0.09302325581395365,
            "durationTicks": 8,
            "midi": 86,
            "name": "D6",
            "ticks": 614,
            "time": 7.1395348837209305,
            "velocity": 0.16535433070866143
          },
          {
            "duration": 0.06976744186046435,
            "durationTicks": 6,
            "midi": 84,
            "name": "C6",
            "ticks": 621,
            "time": 7.22093023255814,
            "velocity": 0.2204724409448819
          },
          {
            "duration": 0.04651162790697594,
            "durationTicks": 4,
            "midi": 85,
            "name": "C#6",
            "ticks": 621,
            "time": 7.22093023255814,
            "velocity": 0.1968503937007874
          },
          {
            "duration": 0.03488372093023173,
            "durationTicks": 3,
            "midi": 86,
            "name": "D6",
            "ticks": 623,
            "time": 7.244186046511628,
            "velocity": 0.15748031496062992
          },
          {
            "duration": 0.04651162790697683,
            "durationTicks": 4,
            "midi": 82,
            "name": "A#5",
            "ticks": 624,
            "time": 7.255813953488372,
            "velocity": 0.2125984251968504
          },
          {
            "duration": 0.08139534883720945,
            "durationTicks": 7,
            "midi": 85,
            "name": "C#6",
            "ticks": 627,
            "time": 7.290697674418604,
            "velocity": 0.1968503937007874
          },
          {
            "duration": 0.1627906976744189,
            "durationTicks": 14,
            "midi": 83,
            "name": "B5",
            "ticks": 628,
            "time": 7.3023255813953485,
            "velocity": 0.2755905511811024
          },
          {
            "duration": 0.058139534883721034,
            "durationTicks": 5,
            "midi": 86,
            "name": "D6",
            "ticks": 634,
            "time": 7.372093023255814,
            "velocity": 0.10236220472440945
          },
          {
            "duration": 2.267441860465116,
            "durationTicks": 195,
            "midi": 96,
            "name": "C7",
            "ticks": 663,
            "time": 7.709302325581396,
            "velocity": 0.28346456692913385
          },
          {
            "duration": 0.12790697674418539,
            "durationTicks": 11,
            "midi": 83,
            "name": "B5",
            "ticks": 761,
            "time": 8.848837209302326,
            "velocity": 0.47244094488188976
          },
          {
            "duration": 0.04651162790697683,
            "durationTicks": 4,
            "midi": 84,
            "name": "C6",
            "ticks": 762,
            "time": 8.86046511627907,
            "velocity": 0.2125984251968504
          },
          {
            "duration": 0.09302325581395365,
            "durationTicks": 8,
            "midi": 86,
            "name": "D6",
            "ticks": 764,
            "time": 8.883720930232558,
            "velocity": 0.4251968503937008
          },
          {
            "duration": 0.19767441860465063,
            "durationTicks": 17,
            "midi": 85,
            "name": "C#6",
            "ticks": 765,
            "time": 8.895348837209303,
            "velocity": 0.4094488188976378
          },
          {
            "duration": 0.19767441860465063,
            "durationTicks": 17,
            "midi": 82,
            "name": "A#5",
            "ticks": 768,
            "time": 8.930232558139535,
            "velocity": 0.3464566929133858
          },
          {
            "duration": 0.03488372093023351,
            "durationTicks": 3,
            "midi": 84,
            "name": "C6",
            "ticks": 768,
            "time": 8.930232558139535,
            "velocity": 0.31496062992125984
          },
          {
            "duration": 0.04651162790697505,
            "durationTicks": 4,
            "midi": 87,
            "name": "D#6",
            "ticks": 771,
            "time": 8.965116279069768,
            "velocity": 0.33858267716535434
          },
          {
            "duration": 0.08139534883720856,
            "durationTicks": 7,
            "midi": 84,
            "name": "C6",
            "ticks": 772,
            "time": 8.976744186046512,
            "velocity": 0.3937007874015748
          },
          {
            "duration": 0.058139534883720145,
            "durationTicks": 5,
            "midi": 83,
            "name": "B5",
            "ticks": 773,
            "time": 8.988372093023257,
            "velocity": 0.33070866141732286
          },
          {
            "duration": 0.058139534883720145,
            "durationTicks": 5,
            "midi": 86,
            "name": "D6",
            "ticks": 773,
            "time": 8.988372093023257,
            "velocity": 0.36220472440944884
          },
          {
            "duration": 0.10465116279069875,
            "durationTicks": 9,
            "midi": 87,
            "name": "D#6",
            "ticks": 777,
            "time": 9.034883720930232,
            "velocity": 0.3543307086614173
          },
          {
            "duration": 0.023255813953488413,
            "durationTicks": 2,
            "midi": 83,
            "name": "B5",
            "ticks": 779,
            "time": 9.05813953488372,
            "velocity": 0.33070866141732286
          },
          {
            "duration": 0.05813953488372192,
            "durationTicks": 5,
            "midi": 84,
            "name": "C6",
            "ticks": 781,
            "time": 9.081395348837209,
            "velocity": 0.3858267716535433
          },
          {
            "duration": 0.1860465116279073,
            "durationTicks": 16,
            "midi": 86,
            "name": "D6",
            "ticks": 782,
            "time": 9.093023255813954,
            "velocity": 0.4330708661417323
          },
          {
            "duration": 0.11627906976744207,
            "durationTicks": 10,
            "midi": 83,
            "name": "B5",
            "ticks": 784,
            "time": 9.116279069767442,
            "velocity": 0.48031496062992124
          },
          {
            "duration": 0.05813953488372192,
            "durationTicks": 5,
            "midi": 85,
            "name": "C#6",
            "ticks": 785,
            "time": 9.127906976744185,
            "velocity": 0.4094488188976378
          },
          {
            "duration": 0.023255813953488413,
            "durationTicks": 2,
            "midi": 82,
            "name": "A#5",
            "ticks": 786,
            "time": 9.13953488372093,
            "velocity": 0.31496062992125984
          },
          {
            "duration": 0.03488372093023351,
            "durationTicks": 3,
            "midi": 87,
            "name": "D#6",
            "ticks": 787,
            "time": 9.151162790697674,
            "velocity": 0.2755905511811024
          },
          {
            "duration": 0.023255813953488413,
            "durationTicks": 2,
            "midi": 84,
            "name": "C6",
            "ticks": 791,
            "time": 9.19767441860465,
            "velocity": 0.23622047244094488
          },
          {
            "duration": 0.023255813953488413,
            "durationTicks": 2,
            "midi": 82,
            "name": "A#5",
            "ticks": 793,
            "time": 9.220930232558139,
            "velocity": 0.30708661417322836
          },
          {
            "duration": 0.1860465116279073,
            "durationTicks": 16,
            "midi": 85,
            "name": "C#6",
            "ticks": 793,
            "time": 9.220930232558139,
            "velocity": 0.4094488188976378
          },
          {
            "duration": 0.10465116279069697,
            "durationTicks": 9,
            "midi": 84,
            "name": "C6",
            "ticks": 794,
            "time": 9.232558139534884,
            "velocity": 0.3858267716535433
          },
          {
            "duration": 0.023255813953488413,
            "durationTicks": 2,
            "midi": 83,
            "name": "B5",
            "ticks": 795,
            "time": 9.244186046511627,
            "velocity": 0.33070866141732286
          },
          {
            "duration": 0.1627906976744189,
            "durationTicks": 14,
            "midi": 82,
            "name": "A#5",
            "ticks": 796,
            "time": 9.255813953488373,
            "velocity": 0.3464566929133858
          },
          {
            "duration": 0.04651162790697683,
            "durationTicks": 4,
            "midi": 87,
            "name": "D#6",
            "ticks": 797,
            "time": 9.267441860465116,
            "velocity": 0.33858267716535434
          },
          {
            "duration": 0.08139534883720856,
            "durationTicks": 7,
            "midi": 83,
            "name": "B5",
            "ticks": 800,
            "time": 9.30232558139535,
            "velocity": 0.3228346456692913
          },
          {
            "duration": 0.03488372093023351,
            "durationTicks": 3,
            "midi": 80,
            "name": "G#5",
            "ticks": 801,
            "time": 9.313953488372093,
            "velocity": 0.07874015748031496
          },
          {
            "duration": 0.03488372093023351,
            "durationTicks": 3,
            "midi": 86,
            "name": "D6",
            "ticks": 801,
            "time": 9.313953488372093,
            "velocity": 0.36220472440944884
          },
          {
            "duration": 0.15116279069767558,
            "durationTicks": 13,
            "midi": 87,
            "name": "D#6",
            "ticks": 803,
            "time": 9.337209302325581,
            "velocity": 0.36220472440944884
          },
          {
            "duration": 0.05813953488372192,
            "durationTicks": 5,
            "midi": 84,
            "name": "C6",
            "ticks": 807,
            "time": 9.383720930232558,
            "velocity": 0.3937007874015748
          },
          {
            "duration": 0.04651162790697683,
            "durationTicks": 4,
            "midi": 86,
            "name": "D6",
            "ticks": 808,
            "time": 9.395348837209303,
            "velocity": 0.3700787401574803
          },
          {
            "duration": 0.11627906976744029,
            "durationTicks": 10,
            "midi": 83,
            "name": "B5",
            "ticks": 810,
            "time": 9.418604651162791,
            "velocity": 0.48031496062992124
          },
          {
            "duration": 0.04651162790697683,
            "durationTicks": 4,
            "midi": 82,
            "name": "A#5",
            "ticks": 811,
            "time": 9.430232558139535,
            "velocity": 0.31496062992125984
          },
          {
            "duration": 0.05813953488372192,
            "durationTicks": 5,
            "midi": 85,
            "name": "C#6",
            "ticks": 811,
            "time": 9.430232558139535,
            "velocity": 0.41732283464566927
          },
          {
            "duration": 0.10465116279069697,
            "durationTicks": 9,
            "midi": 86,
            "name": "D6",
            "ticks": 816,
            "time": 9.488372093023257,
            "velocity": 0.4409448818897638
          },
          {
            "duration": 0.023255813953488413,
            "durationTicks": 2,
            "midi": 84,
            "name": "C6",
            "ticks": 817,
            "time": 9.5,
            "velocity": 0.2440944881889764
          },
          {
            "duration": 0.023255813953488413,
            "durationTicks": 2,
            "midi": 82,
            "name": "A#5",
            "ticks": 819,
            "time": 9.523255813953488,
            "velocity": 0.2992125984251969
          },
          {
            "duration": 0.1860465116279073,
            "durationTicks": 16,
            "midi": 85,
            "name": "C#6",
            "ticks": 819,
            "time": 9.523255813953488,
            "velocity": 0.4015748031496063
          },
          {
            "duration": 0.023255813953488413,
            "durationTicks": 2,
            "midi": 84,
            "name": "C6",
            "ticks": 820,
            "time": 9.534883720930232,
            "velocity": 0.33070866141732286
          },
          {
            "duration": 0.04651162790697683,
            "durationTicks": 4,
            "midi": 83,
            "name": "B5",
            "ticks": 821,
            "time": 9.546511627906977,
            "velocity": 0.33858267716535434
          },
          {
            "duration": 0.1976744186046524,
            "durationTicks": 17,
            "midi": 82,
            "name": "A#5",
            "ticks": 822,
            "time": 9.55813953488372,
            "velocity": 0.3464566929133858
          },
          {
            "duration": 0.04651162790697683,
            "durationTicks": 4,
            "midi": 87,
            "name": "D#6",
            "ticks": 823,
            "time": 9.569767441860465,
            "velocity": 0.33070866141732286
          },
          {
            "duration": 0.03488372093023351,
            "durationTicks": 3,
            "midi": 84,
            "name": "C6",
            "ticks": 824,
            "time": 9.581395348837209,
            "velocity": 0.3858267716535433
          },
          {
            "duration": 0.08139534883721034,
            "durationTicks": 7,
            "midi": 83,
            "name": "B5",
            "ticks": 826,
            "time": 9.604651162790697,
            "velocity": 0.3228346456692913
          },
          {
            "duration": 0.03488372093023173,
            "durationTicks": 3,
            "midi": 86,
            "name": "D6",
            "ticks": 827,
            "time": 9.616279069767442,
            "velocity": 0.3543307086614173
          },
          {
            "duration": 0.06976744186046524,
            "durationTicks": 6,
            "midi": 87,
            "name": "D#6",
            "ticks": 829,
            "time": 9.63953488372093,
            "velocity": 0.3543307086614173
          },
          {
            "duration": 0.058139534883720145,
            "durationTicks": 5,
            "midi": 84,
            "name": "C6",
            "ticks": 833,
            "time": 9.686046511627907,
            "velocity": 0.3937007874015748
          },
          {
            "duration": 0.04651162790697683,
            "durationTicks": 4,
            "midi": 86,
            "name": "D6",
            "ticks": 833,
            "time": 9.686046511627907,
            "velocity": 0.36220472440944884
          },
          {
            "duration": 0.10465116279069697,
            "durationTicks": 9,
            "midi": 83,
            "name": "B5",
            "ticks": 837,
            "time": 9.732558139534884,
            "velocity": 0.48031496062992124
          },
          {
            "duration": 0.058139534883720145,
            "durationTicks": 5,
            "midi": 85,
            "name": "C#6",
            "ticks": 837,
            "time": 9.732558139534884,
            "velocity": 0.41732283464566927
          },
          {
            "duration": 0.058139534883720145,
            "durationTicks": 5,
            "midi": 87,
            "name": "D#6",
            "ticks": 837,
            "time": 9.732558139534884,
            "velocity": 0.3228346456692913
          },
          {
            "duration": 0.023255813953488413,
            "durationTicks": 2,
            "midi": 84,
            "name": "C6",
            "ticks": 842,
            "time": 9.790697674418604,
            "velocity": 0.23622047244094488
          },
          {
            "duration": 0.10465116279069875,
            "durationTicks": 9,
            "midi": 86,
            "name": "D6",
            "ticks": 842,
            "time": 9.790697674418604,
            "velocity": 0.4409448818897638
          },
          {
            "duration": 0.20930232558139394,
            "durationTicks": 18,
            "midi": 85,
            "name": "C#6",
            "ticks": 843,
            "time": 9.80232558139535,
            "velocity": 0.4094488188976378
          },
          {
            "duration": 0.023255813953488413,
            "durationTicks": 2,
            "midi": 82,
            "name": "A#5",
            "ticks": 845,
            "time": 9.825581395348838,
            "velocity": 0.29133858267716534
          },
          {
            "duration": 0.023255813953488413,
            "durationTicks": 2,
            "midi": 84,
            "name": "C6",
            "ticks": 846,
            "time": 9.837209302325581,
            "velocity": 0.3228346456692913
          },
          {
            "duration": 0.023255813953488413,
            "durationTicks": 2,
            "midi": 83,
            "name": "B5",
            "ticks": 847,
            "time": 9.848837209302326,
            "velocity": 0.33070866141732286
          },
          {
            "duration": 0.19767441860465063,
            "durationTicks": 17,
            "midi": 82,
            "name": "A#5",
            "ticks": 848,
            "time": 9.86046511627907,
            "velocity": 0.3464566929133858
          },
          {
            "duration": 0.05813953488372192,
            "durationTicks": 5,
            "midi": 87,
            "name": "D#6",
            "ticks": 848,
            "time": 9.86046511627907,
            "velocity": 0.3464566929133858
          },
          {
            "duration": 0.04651162790697683,
            "durationTicks": 4,
            "midi": 84,
            "name": "C6",
            "ticks": 849,
            "time": 9.872093023255815,
            "velocity": 0.3700787401574803
          },
          {
            "duration": 0.03488372093023351,
            "durationTicks": 3,
            "midi": 83,
            "name": "B5",
            "ticks": 852,
            "time": 9.906976744186046,
            "velocity": 0.31496062992125984
          },
          {
            "duration": 0.03488372093023173,
            "durationTicks": 3,
            "midi": 86,
            "name": "D6",
            "ticks": 853,
            "time": 9.918604651162791,
            "velocity": 0.33858267716535434
          },
          {
            "duration": 0.023255813953488413,
            "durationTicks": 2,
            "midi": 84,
            "name": "C6",
            "ticks": 854,
            "time": 9.930232558139535,
            "velocity": 0.36220472440944884
          },
          {
            "duration": 0.06976744186046346,
            "durationTicks": 6,
            "midi": 87,
            "name": "D#6",
            "ticks": 855,
            "time": 9.94186046511628,
            "velocity": 0.3543307086614173
          },
          {
            "duration": 0.023255813953488413,
            "durationTicks": 2,
            "midi": 83,
            "name": "B5",
            "ticks": 856,
            "time": 9.953488372093023,
            "velocity": 0.33070866141732286
          },
          {
            "duration": 0.06976744186046524,
            "durationTicks": 6,
            "midi": 84,
            "name": "C6",
            "ticks": 858,
            "time": 9.976744186046512,
            "velocity": 0.3937007874015748
          },
          {
            "duration": 0.06976744186046524,
            "durationTicks": 6,
            "midi": 86,
            "name": "D6",
            "ticks": 858,
            "time": 9.976744186046512,
            "velocity": 0.36220472440944884
          },
          {
            "duration": 0.24418604651162745,
            "durationTicks": 21,
            "midi": 92,
            "name": "G#6",
            "ticks": 858,
            "time": 9.976744186046512,
            "velocity": 0.36220472440944884
          },
          {
            "duration": 0.06976744186046524,
            "durationTicks": 6,
            "midi": 85,
            "name": "C#6",
            "ticks": 862,
            "time": 10.023255813953488,
            "velocity": 0.4094488188976378
          },
          {
            "duration": 0.23255813953488413,
            "durationTicks": 20,
            "midi": 93,
            "name": "A6",
            "ticks": 862,
            "time": 10.023255813953488,
            "velocity": 0.3228346456692913
          },
          {
            "duration": 0.13953488372093048,
            "durationTicks": 12,
            "midi": 83,
            "name": "B5",
            "ticks": 863,
            "time": 10.034883720930232,
            "velocity": 0.4881889763779528
          },
          {
            "duration": 0.023255813953488413,
            "durationTicks": 2,
            "midi": 87,
            "name": "D#6",
            "ticks": 864,
            "time": 10.046511627906977,
            "velocity": 0.31496062992125984
          },
          {
            "duration": 0.15116279069767558,
            "durationTicks": 13,
            "midi": 86,
            "name": "D6",
            "ticks": 865,
            "time": 10.05813953488372,
            "velocity": 0.4409448818897638
          },
          {
            "duration": 0.1627906976744189,
            "durationTicks": 14,
            "midi": 91,
            "name": "G6",
            "ticks": 868,
            "time": 10.093023255813954,
            "velocity": 0.2204724409448819
          },
          {
            "duration": 0.1976744186046524,
            "durationTicks": 17,
            "midi": 85,
            "name": "C#6",
            "ticks": 869,
            "time": 10.104651162790697,
            "velocity": 0.4094488188976378
          },
          {
            "duration": 0.023255813953488413,
            "durationTicks": 2,
            "midi": 82,
            "name": "A#5",
            "ticks": 871,
            "time": 10.127906976744185,
            "velocity": 0.2755905511811024
          },
          {
            "duration": 0.03488372093023351,
            "durationTicks": 3,
            "midi": 84,
            "name": "C6",
            "ticks": 871,
            "time": 10.127906976744185,
            "velocity": 0.3228346456692913
          },
          {
            "duration": 0.19767441860465063,
            "durationTicks": 17,
            "midi": 82,
            "name": "A#5",
            "ticks": 874,
            "time": 10.162790697674419,
            "velocity": 0.3464566929133858
          },
          {
            "duration": 0.058139534883720145,
            "durationTicks": 5,
            "midi": 87,
            "name": "D#6",
            "ticks": 874,
            "time": 10.162790697674419,
            "velocity": 0.36220472440944884
          },
          {
            "duration": 0.04651162790697683,
            "durationTicks": 4,
            "midi": 84,
            "name": "C6",
            "ticks": 875,
            "time": 10.174418604651162,
            "velocity": 0.3700787401574803
          },
          {
            "duration": 0.058139534883720145,
            "durationTicks": 5,
            "midi": 83,
            "name": "B5",
            "ticks": 876,
            "time": 10.186046511627907,
            "velocity": 0.33858267716535434
          },
          {
            "duration": 0.023255813953488413,
            "durationTicks": 2,
            "midi": 86,
            "name": "D6",
            "ticks": 879,
            "time": 10.220930232558139,
            "velocity": 0.33070866141732286
          },
          {
            "duration": 0.023255813953488413,
            "durationTicks": 2,
            "midi": 84,
            "name": "C6",
            "ticks": 880,
            "time": 10.232558139534884,
            "velocity": 0.36220472440944884
          },
          {
            "duration": 0.06976744186046524,
            "durationTicks": 6,
            "midi": 87,
            "name": "D#6",
            "ticks": 881,
            "time": 10.244186046511627,
            "velocity": 0.3543307086614173
          },
          {
            "duration": 0.1860465116279073,
            "durationTicks": 16,
            "midi": 92,
            "name": "G#6",
            "ticks": 881,
            "time": 10.244186046511627,
            "velocity": 0.3700787401574803
          },
          {
            "duration": 0.023255813953488413,
            "durationTicks": 2,
            "midi": 83,
            "name": "B5",
            "ticks": 882,
            "time": 10.255813953488373,
            "velocity": 0.33070866141732286
          },
          {
            "duration": 0.05813953488372192,
            "durationTicks": 5,
            "midi": 93,
            "name": "A6",
            "ticks": 883,
            "time": 10.267441860465116,
            "velocity": 0.25984251968503935
          },
          {
            "duration": 0.06976744186046524,
            "durationTicks": 6,
            "midi": 84,
            "name": "C6",
            "ticks": 884,
            "time": 10.279069767441861,
            "velocity": 0.3937007874015748
          },
          {
            "duration": 0.05813953488372192,
            "durationTicks": 5,
            "midi": 86,
            "name": "D6",
            "ticks": 885,
            "time": 10.290697674418604,
            "velocity": 0.3779527559055118
          },
          {
            "duration": 0.26744186046511587,
            "durationTicks": 23,
            "midi": 85,
            "name": "C#6",
            "ticks": 888,
            "time": 10.325581395348838,
            "velocity": 0.41732283464566927
          },
          {
            "duration": 0.03488372093023351,
            "durationTicks": 3,
            "midi": 80,
            "name": "G#5",
            "ticks": 889,
            "time": 10.337209302325581,
            "velocity": 0.08661417322834646
          },
          {
            "duration": 0.12790697674418716,
            "durationTicks": 11,
            "midi": 83,
            "name": "B5",
            "ticks": 889,
            "time": 10.337209302325581,
            "velocity": 0.48031496062992124
          },
          {
            "duration": 0.023255813953488413,
            "durationTicks": 2,
            "midi": 87,
            "name": "D#6",
            "ticks": 890,
            "time": 10.348837209302326,
            "velocity": 0.2992125984251969
          },
          {
            "duration": 0.11627906976744207,
            "durationTicks": 10,
            "midi": 86,
            "name": "D6",
            "ticks": 891,
            "time": 10.36046511627907,
            "velocity": 0.4330708661417323
          },
          {
            "duration": 0.2906976744186043,
            "durationTicks": 25,
            "midi": 93,
            "name": "A6",
            "ticks": 892,
            "time": 10.372093023255815,
            "velocity": 0.3228346456692913
          },
          {
            "duration": 0.10465116279069697,
            "durationTicks": 9,
            "midi": 82,
            "name": "A#5",
            "ticks": 897,
            "time": 10.430232558139535,
            "velocity": 0.3464566929133858
          },
          {
            "duration": 0.03488372093023351,
            "durationTicks": 3,
            "midi": 84,
            "name": "C6",
            "ticks": 897,
            "time": 10.430232558139535,
            "velocity": 0.31496062992125984
          },
          {
            "duration": 0.05813953488372192,
            "durationTicks": 5,
            "midi": 91,
            "name": "G6",
            "ticks": 897,
            "time": 10.430232558139535,
            "velocity": 0.2283464566929134
          },
          {
            "duration": 0.09302325581395365,
            "durationTicks": 8,
            "midi": 92,
            "name": "G#6",
            "ticks": 899,
            "time": 10.453488372093023,
            "velocity": 0.23622047244094488
          },
          {
            "duration": 0.058139534883720145,
            "durationTicks": 5,
            "midi": 87,
            "name": "D#6",
            "ticks": 900,
            "time": 10.465116279069768,
            "velocity": 0.3700787401574803
          },
          {
            "duration": 0.08139534883720856,
            "durationTicks": 7,
            "midi": 84,
            "name": "C6",
            "ticks": 901,
            "time": 10.476744186046512,
            "velocity": 0.3779527559055118
          },
          {
            "duration": 0.058139534883720145,
            "durationTicks": 5,
            "midi": 83,
            "name": "B5",
            "ticks": 902,
            "time": 10.488372093023257,
            "velocity": 0.3464566929133858
          },
          {
            "duration": 0.023255813953486637,
            "durationTicks": 2,
            "midi": 86,
            "name": "D6",
            "ticks": 902,
            "time": 10.488372093023257,
            "velocity": 0.29133858267716534
          },
          {
            "duration": 0.08139534883721034,
            "durationTicks": 7,
            "midi": 91,
            "name": "G6",
            "ticks": 904,
            "time": 10.511627906976743,
            "velocity": 0.18110236220472442
          },
          {
            "duration": 0.023255813953488413,
            "durationTicks": 2,
            "midi": 86,
            "name": "D6",
            "ticks": 905,
            "time": 10.523255813953488,
            "velocity": 0.3228346456692913
          },
          {
            "duration": 0.11627906976744207,
            "durationTicks": 10,
            "midi": 82,
            "name": "A#5",
            "ticks": 907,
            "time": 10.546511627906977,
            "velocity": 0.3228346456692913
          },
          {
            "duration": 0.09302325581395365,
            "durationTicks": 8,
            "midi": 87,
            "name": "D#6",
            "ticks": 907,
            "time": 10.546511627906977,
            "velocity": 0.3543307086614173
          },
          {
            "duration": 0.023255813953488413,
            "durationTicks": 2,
            "midi": 83,
            "name": "B5",
            "ticks": 908,
            "time": 10.55813953488372,
            "velocity": 0.3228346456692913
          },
          {
            "duration": 0.05813953488372192,
            "durationTicks": 5,
            "midi": 84,
            "name": "C6",
            "ticks": 910,
            "time": 10.581395348837209,
            "velocity": 0.3858267716535433
          },
          {
            "duration": 0.1976744186046524,
            "durationTicks": 17,
            "midi": 92,
            "name": "G#6",
            "ticks": 910,
            "time": 10.581395348837209,
            "velocity": 0.3700787401574803
          },
          {
            "duration": 0.058139534883720145,
            "durationTicks": 5,
            "midi": 86,
            "name": "D6",
            "ticks": 911,
            "time": 10.593023255813954,
            "velocity": 0.3779527559055118
          },
          {
            "duration": 0.05813953488372192,
            "durationTicks": 5,
            "midi": 85,
            "name": "C#6",
            "ticks": 914,
            "time": 10.627906976744185,
            "velocity": 0.41732283464566927
          },
          {
            "duration": 0.12790697674418539,
            "durationTicks": 11,
            "midi": 83,
            "name": "B5",
            "ticks": 915,
            "time": 10.63953488372093,
            "velocity": 0.4881889763779528
          },
          {
            "duration": 0.03488372093023351,
            "durationTicks": 3,
            "midi": 87,
            "name": "D#6",
            "ticks": 916,
            "time": 10.651162790697674,
            "velocity": 0.28346456692913385
          },
          {
            "duration": 0.11627906976744207,
            "durationTicks": 10,
            "midi": 86,
            "name": "D6",
            "ticks": 917,
            "time": 10.662790697674419,
            "velocity": 0.4251968503937008
          },
          {
            "duration": 0.06976744186046524,
            "durationTicks": 6,
            "midi": 93,
            "name": "A6",
            "ticks": 919,
            "time": 10.686046511627907,
            "velocity": 0.2047244094488189
          },
          {
            "duration": 0.1976744186046524,
            "durationTicks": 17,
            "midi": 85,
            "name": "C#6",
            "ticks": 920,
            "time": 10.69767441860465,
            "velocity": 0.41732283464566927
          },
          {
            "duration": 0.03488372093023351,
            "durationTicks": 3,
            "midi": 87,
            "name": "D#6",
            "ticks": 920,
            "time": 10.69767441860465,
            "velocity": 0.1889763779527559
          },
          {
            "duration": 0.3139534883720927,
            "durationTicks": 27,
            "midi": 94,
            "name": "A#6",
            "ticks": 920,
            "time": 10.69767441860465,
            "velocity": 0.31496062992125984
          },
          {
            "duration": 0.19767441860465063,
            "durationTicks": 17,
            "midi": 82,
            "name": "A#5",
            "ticks": 923,
            "time": 10.732558139534884,
            "velocity": 0.3464566929133858
          },
          {
            "duration": 0.023255813953488413,
            "durationTicks": 2,
            "midi": 84,
            "name": "C6",
            "ticks": 923,
            "time": 10.732558139534884,
            "velocity": 0.31496062992125984
          },
          {
            "duration": 0.058139534883720145,
            "durationTicks": 5,
            "midi": 87,
            "name": "D#6",
            "ticks": 925,
            "time": 10.755813953488373,
            "velocity": 0.33858267716535434
          },
          {
            "duration": 0.23255813953488413,
            "durationTicks": 20,
            "midi": 93,
            "name": "A6",
            "ticks": 926,
            "time": 10.767441860465116,
            "velocity": 0.31496062992125984
          },
          {
            "duration": 0.08139534883720856,
            "durationTicks": 7,
            "midi": 84,
            "name": "C6",
            "ticks": 927,
            "time": 10.779069767441861,
            "velocity": 0.3858267716535433
          },
          {
            "duration": 0.1511627906976738,
            "durationTicks": 13,
            "midi": 91,
            "name": "G6",
            "ticks": 927,
            "time": 10.779069767441861,
            "velocity": 0.2047244094488189
          },
          {
            "duration": 0.05813953488372192,
            "durationTicks": 5,
            "midi": 83,
            "name": "B5",
            "ticks": 928,
            "time": 10.790697674418604,
            "velocity": 0.33858267716535434
          },
          {
            "duration": 0.05813953488372192,
            "durationTicks": 5,
            "midi": 86,
            "name": "D6",
            "ticks": 928,
            "time": 10.790697674418604,
            "velocity": 0.3700787401574803
          },
          {
            "duration": 0.05813953488372192,
            "durationTicks": 5,
            "midi": 92,
            "name": "G#6",
            "ticks": 928,
            "time": 10.790697674418604,
            "velocity": 0.2047244094488189
          },
          {
            "duration": 0.10465116279069875,
            "durationTicks": 9,
            "midi": 87,
            "name": "D#6",
            "ticks": 932,
            "time": 10.837209302325581,
            "velocity": 0.3543307086614173
          },
          {
            "duration": 0.023255813953488413,
            "durationTicks": 2,
            "midi": 83,
            "name": "B5",
            "ticks": 934,
            "time": 10.86046511627907,
            "velocity": 0.3228346456692913
          },
          {
            "duration": 0.04651162790697683,
            "durationTicks": 4,
            "midi": 92,
            "name": "G#6",
            "ticks": 934,
            "time": 10.86046511627907,
            "velocity": 0.25196850393700787
          },
          {
            "duration": 0.05813953488372192,
            "durationTicks": 5,
            "midi": 84,
            "name": "C6",
            "ticks": 936,
            "time": 10.883720930232558,
            "velocity": 0.3937007874015748
          },
          {
            "duration": 0.08139534883720856,
            "durationTicks": 7,
            "midi": 86,
            "name": "D6",
            "ticks": 937,
            "time": 10.895348837209303,
            "velocity": 0.3779527559055118
          },
          {
            "duration": 0.11627906976744029,
            "durationTicks": 10,
            "midi": 83,
            "name": "B5",
            "ticks": 939,
            "time": 10.918604651162791,
            "velocity": 0.48031496062992124
          },
          {
            "duration": 0.19767441860465063,
            "durationTicks": 17,
            "midi": 92,
            "name": "G#6",
            "ticks": 939,
            "time": 10.918604651162791,
            "velocity": 0.3700787401574803
          },
          {
            "duration": 0.05813953488372192,
            "durationTicks": 5,
            "midi": 85,
            "name": "C#6",
            "ticks": 940,
            "time": 10.930232558139535,
            "velocity": 0.41732283464566927
          },
          {
            "duration": 0.023255813953488413,
            "durationTicks": 2,
            "midi": 82,
            "name": "A#5",
            "ticks": 941,
            "time": 10.94186046511628,
            "velocity": 0.30708661417322836
          },
          {
            "duration": 0.03488372093023351,
            "durationTicks": 3,
            "midi": 87,
            "name": "D#6",
            "ticks": 942,
            "time": 10.953488372093023,
            "velocity": 0.2755905511811024
          },
          {
            "duration": 0.19767441860465063,
            "durationTicks": 17,
            "midi": 86,
            "name": "D6",
            "ticks": 945,
            "time": 10.988372093023257,
            "velocity": 0.49606299212598426
          },
          {
            "duration": 0.023255813953488413,
            "durationTicks": 2,
            "midi": 84,
            "name": "C6",
            "ticks": 946,
            "time": 11,
            "velocity": 0.2283464566929134
          },
          {
            "duration": 0.03488372093023173,
            "durationTicks": 3,
            "midi": 82,
            "name": "A#5",
            "ticks": 948,
            "time": 11.023255813953488,
            "velocity": 0.31496062992125984
          },
          {
            "duration": 0.058139534883720145,
            "durationTicks": 5,
            "midi": 85,
            "name": "C#6",
            "ticks": 948,
            "time": 11.023255813953488,
            "velocity": 0.2755905511811024
          },
          {
            "duration": 0.22093023255814082,
            "durationTicks": 19,
            "midi": 94,
            "name": "A#6",
            "ticks": 949,
            "time": 11.034883720930232,
            "velocity": 0.33070866141732286
          },
          {
            "duration": 0.11627906976744207,
            "durationTicks": 10,
            "midi": 83,
            "name": "B5",
            "ticks": 950,
            "time": 11.046511627906977,
            "velocity": 0.3543307086614173
          },
          {
            "duration": 0.9883720930232549,
            "durationTicks": 85,
            "midi": 93,
            "name": "A6",
            "ticks": 950,
            "time": 11.046511627906977,
            "velocity": 0.49606299212598426
          },
          {
            "duration": 0.09302325581395365,
            "durationTicks": 8,
            "midi": 84,
            "name": "C6",
            "ticks": 952,
            "time": 11.069767441860465,
            "velocity": 0.2204724409448819
          },
          {
            "duration": 0.058139534883720145,
            "durationTicks": 5,
            "midi": 91,
            "name": "G6",
            "ticks": 956,
            "time": 11.116279069767442,
            "velocity": 0.2204724409448819
          },
          {
            "duration": 0.08139534883721034,
            "durationTicks": 7,
            "midi": 92,
            "name": "G#6",
            "ticks": 959,
            "time": 11.151162790697674,
            "velocity": 0.23622047244094488
          },
          {
            "duration": 0.04651162790697683,
            "durationTicks": 4,
            "midi": 91,
            "name": "G6",
            "ticks": 962,
            "time": 11.186046511627907,
            "velocity": 0.14173228346456693
          },
          {
            "duration": 0.08139534883720856,
            "durationTicks": 7,
            "midi": 96,
            "name": "C7",
            "ticks": 966,
            "time": 11.232558139534884,
            "velocity": 0.2440944881889764
          },
          {
            "duration": 0.10465116279069697,
            "durationTicks": 9,
            "midi": 97,
            "name": "C#7",
            "ticks": 966,
            "time": 11.232558139534884,
            "velocity": 0.25984251968503935
          },
          {
            "duration": 0.09302325581395365,
            "durationTicks": 8,
            "midi": 99,
            "name": "D#7",
            "ticks": 966,
            "time": 11.232558139534884,
            "velocity": 0.1968503937007874
          },
          {
            "duration": 0.10465116279069697,
            "durationTicks": 9,
            "midi": 100,
            "name": "E7",
            "ticks": 966,
            "time": 11.232558139534884,
            "velocity": 0.2677165354330709
          },
          {
            "duration": 0.09302325581395365,
            "durationTicks": 8,
            "midi": 101,
            "name": "F7",
            "ticks": 966,
            "time": 11.232558139534884,
            "velocity": 0.1968503937007874
          },
          {
            "duration": 0.7906976744186043,
            "durationTicks": 68,
            "midi": 98,
            "name": "D7",
            "ticks": 967,
            "time": 11.244186046511627,
            "velocity": 0.4881889763779528
          },
          {
            "duration": 0.04651162790697683,
            "durationTicks": 4,
            "midi": 95,
            "name": "B6",
            "ticks": 970,
            "time": 11.279069767441861,
            "velocity": 0.16535433070866143
          },
          {
            "duration": 0.08139534883721034,
            "durationTicks": 7,
            "midi": 81,
            "name": "A5",
            "ticks": 975,
            "time": 11.337209302325581,
            "velocity": 0.1968503937007874
          },
          {
            "duration": 0.03488372093023351,
            "durationTicks": 3,
            "midi": 82,
            "name": "A#5",
            "ticks": 975,
            "time": 11.337209302325581,
            "velocity": 0.1889763779527559
          },
          {
            "duration": 0.08139534883721034,
            "durationTicks": 7,
            "midi": 90,
            "name": "F#6",
            "ticks": 975,
            "time": 11.337209302325581,
            "velocity": 0.18110236220472442
          },
          {
            "duration": 0.03488372093023351,
            "durationTicks": 3,
            "midi": 91,
            "name": "G6",
            "ticks": 975,
            "time": 11.337209302325581,
            "velocity": 0.14173228346456693
          },
          {
            "duration": 0.11627906976744207,
            "durationTicks": 10,
            "midi": 86,
            "name": "D6",
            "ticks": 978,
            "time": 11.372093023255815,
            "velocity": 0.25196850393700787
          },
          {
            "duration": 0.058139534883720145,
            "durationTicks": 5,
            "midi": 87,
            "name": "D#6",
            "ticks": 978,
            "time": 11.372093023255815,
            "velocity": 0.13385826771653545
          },
          {
            "duration": 0.03488372093023351,
            "durationTicks": 3,
            "midi": 82,
            "name": "A#5",
            "ticks": 979,
            "time": 11.383720930232558,
            "velocity": 0.10236220472440945
          },
          {
            "duration": 0.06976744186046524,
            "durationTicks": 6,
            "midi": 88,
            "name": "E6",
            "ticks": 979,
            "time": 11.383720930232558,
            "velocity": 0.10236220472440945
          },
          {
            "duration": 0.04651162790697683,
            "durationTicks": 4,
            "midi": 83,
            "name": "B5",
            "ticks": 980,
            "time": 11.395348837209303,
            "velocity": 0.14960629921259844
          },
          {
            "duration": 0.058139534883720145,
            "durationTicks": 5,
            "midi": 85,
            "name": "C#6",
            "ticks": 980,
            "time": 11.395348837209303,
            "velocity": 0.09448818897637795
          },
          {
            "duration": 0.04651162790697683,
            "durationTicks": 4,
            "midi": 89,
            "name": "F6",
            "ticks": 980,
            "time": 11.395348837209303,
            "velocity": 0.1732283464566929
          },
          {
            "duration": 0.06976744186046524,
            "durationTicks": 6,
            "midi": 82,
            "name": "A#5",
            "ticks": 983,
            "time": 11.430232558139535,
            "velocity": 0.1889763779527559
          },
          {
            "duration": 0.09302325581395365,
            "durationTicks": 8,
            "midi": 90,
            "name": "F#6",
            "ticks": 983,
            "time": 11.430232558139535,
            "velocity": 0.18110236220472442
          },
          {
            "duration": 0.06976744186046346,
            "durationTicks": 6,
            "midi": 81,
            "name": "A5",
            "ticks": 986,
            "time": 11.465116279069768,
            "velocity": 0.1732283464566929
          },
          {
            "duration": 0.06976744186046524,
            "durationTicks": 6,
            "midi": 86,
            "name": "D6",
            "ticks": 989,
            "time": 11.5,
            "velocity": 0.14960629921259844
          },
          {
            "duration": 0.04651162790697683,
            "durationTicks": 4,
            "midi": 87,
            "name": "D#6",
            "ticks": 989,
            "time": 11.5,
            "velocity": 0.13385826771653545
          },
          {
            "duration": 0.24418604651162923,
            "durationTicks": 21,
            "midi": 82,
            "name": "A#5",
            "ticks": 990,
            "time": 11.511627906976743,
            "velocity": 0.2047244094488189
          },
          {
            "duration": 0.04651162790697683,
            "durationTicks": 4,
            "midi": 85,
            "name": "C#6",
            "ticks": 990,
            "time": 11.511627906976743,
            "velocity": 0.08661417322834646
          },
          {
            "duration": 0.06976744186046524,
            "durationTicks": 6,
            "midi": 88,
            "name": "E6",
            "ticks": 990,
            "time": 11.511627906976743,
            "velocity": 0.09448818897637795
          },
          {
            "duration": 0.04651162790697683,
            "durationTicks": 4,
            "midi": 89,
            "name": "F6",
            "ticks": 990,
            "time": 11.511627906976743,
            "velocity": 0.1732283464566929
          },
          {
            "duration": 0.058139534883720145,
            "durationTicks": 5,
            "midi": 83,
            "name": "B5",
            "ticks": 991,
            "time": 11.523255813953488,
            "velocity": 0.1732283464566929
          },
          {
            "duration": 0.06976744186046524,
            "durationTicks": 6,
            "midi": 90,
            "name": "F#6",
            "ticks": 994,
            "time": 11.55813953488372,
            "velocity": 0.1968503937007874
          },
          {
            "duration": 0.03488372093023351,
            "durationTicks": 3,
            "midi": 91,
            "name": "G6",
            "ticks": 994,
            "time": 11.55813953488372,
            "velocity": 0.12598425196850394
          },
          {
            "duration": 0.09302325581395365,
            "durationTicks": 8,
            "midi": 96,
            "name": "C7",
            "ticks": 994,
            "time": 11.55813953488372,
            "velocity": 0.2992125984251969
          },
          {
            "duration": 0.27906976744186096,
            "durationTicks": 24,
            "midi": 100,
            "name": "E7",
            "ticks": 994,
            "time": 11.55813953488372,
            "velocity": 0.3228346456692913
          },
          {
            "duration": 0.26744186046511587,
            "durationTicks": 23,
            "midi": 97,
            "name": "C#7",
            "ticks": 995,
            "time": 11.569767441860465,
            "velocity": 0.30708661417322836
          },
          {
            "duration": 0.03488372093023173,
            "durationTicks": 3,
            "midi": 99,
            "name": "D#7",
            "ticks": 995,
            "time": 11.569767441860465,
            "velocity": 0.2125984251968504
          },
          {
            "duration": 0.023255813953488413,
            "durationTicks": 2,
            "midi": 101,
            "name": "F7",
            "ticks": 995,
            "time": 11.569767441860465,
            "velocity": 0.2283464566929134
          },
          {
            "duration": 0.09302325581395365,
            "durationTicks": 8,
            "midi": 89,
            "name": "F6",
            "ticks": 996,
            "time": 11.581395348837209,
            "velocity": 0.18110236220472442
          },
          {
            "duration": 0.06976744186046524,
            "durationTicks": 6,
            "midi": 86,
            "name": "D6",
            "ticks": 998,
            "time": 11.604651162790697,
            "velocity": 0.14173228346456693
          },
          {
            "duration": 0.04651162790697683,
            "durationTicks": 4,
            "midi": 87,
            "name": "D#6",
            "ticks": 998,
            "time": 11.604651162790697,
            "velocity": 0.12598425196850394
          },
          {
            "duration": 0.04651162790697683,
            "durationTicks": 4,
            "midi": 101,
            "name": "F7",
            "ticks": 998,
            "time": 11.604651162790697,
            "velocity": 0.2125984251968504
          },
          {
            "duration": 0.1627906976744189,
            "durationTicks": 14,
            "midi": 83,
            "name": "B5",
            "ticks": 999,
            "time": 11.616279069767442,
            "velocity": 0.1732283464566929
          },
          {
            "duration": 0.09302325581395365,
            "durationTicks": 8,
            "midi": 85,
            "name": "C#6",
            "ticks": 999,
            "time": 11.616279069767442,
            "velocity": 0.10236220472440945
          },
          {
            "duration": 0.058139534883720145,
            "durationTicks": 5,
            "midi": 88,
            "name": "E6",
            "ticks": 999,
            "time": 11.616279069767442,
            "velocity": 0.09448818897637795
          },
          {
            "duration": 0.22093023255813904,
            "durationTicks": 19,
            "midi": 99,
            "name": "D#7",
            "ticks": 999,
            "time": 11.616279069767442,
            "velocity": 0.23622047244094488
          },
          {
            "duration": 0.06976744186046524,
            "durationTicks": 6,
            "midi": 90,
            "name": "F#6",
            "ticks": 1003,
            "time": 11.662790697674419,
            "velocity": 0.1889763779527559
          },
          {
            "duration": 0.1860465116279073,
            "durationTicks": 16,
            "midi": 96,
            "name": "C7",
            "ticks": 1003,
            "time": 11.662790697674419,
            "velocity": 0.29133858267716534
          },
          {
            "duration": 0.03488372093023351,
            "durationTicks": 3,
            "midi": 91,
            "name": "G6",
            "ticks": 1004,
            "time": 11.674418604651162,
            "velocity": 0.16535433070866143
          },
          {
            "duration": 0.09302325581395365,
            "durationTicks": 8,
            "midi": 89,
            "name": "F6",
            "ticks": 1005,
            "time": 11.686046511627907,
            "velocity": 0.1889763779527559
          },
          {
            "duration": 0.04651162790697683,
            "durationTicks": 4,
            "midi": 101,
            "name": "F7",
            "ticks": 1005,
            "time": 11.686046511627907,
            "velocity": 0.2047244094488189
          },
          {
            "duration": 0.04651162790697683,
            "durationTicks": 4,
            "midi": 86,
            "name": "D6",
            "ticks": 1007,
            "time": 11.709302325581396,
            "velocity": 0.14960629921259844
          },
          {
            "duration": 0.058139534883720145,
            "durationTicks": 5,
            "midi": 87,
            "name": "D#6",
            "ticks": 1007,
            "time": 11.709302325581396,
            "velocity": 0.11811023622047244
          },
          {
            "duration": 0.06976744186046524,
            "durationTicks": 6,
            "midi": 85,
            "name": "C#6",
            "ticks": 1008,
            "time": 11.720930232558139,
            "velocity": 0.09448818897637795
          },
          {
            "duration": 0.04651162790697683,
            "durationTicks": 4,
            "midi": 88,
            "name": "E6",
            "ticks": 1009,
            "time": 11.732558139534884,
            "velocity": 0.09448818897637795
          },
          {
            "duration": 0.03488372093023351,
            "durationTicks": 3,
            "midi": 91,
            "name": "G6",
            "ticks": 1010,
            "time": 11.744186046511627,
            "velocity": 0.07874015748031496
          },
          {
            "duration": 0.10465116279069875,
            "durationTicks": 9,
            "midi": 101,
            "name": "F7",
            "ticks": 1010,
            "time": 11.744186046511627,
            "velocity": 0.23622047244094488
          },
          {
            "duration": 0.22093023255814082,
            "durationTicks": 19,
            "midi": 86,
            "name": "D6",
            "ticks": 1012,
            "time": 11.767441860465116,
            "velocity": 0.30708661417322836
          },
          {
            "duration": 0.1860465116279073,
            "durationTicks": 16,
            "midi": 84,
            "name": "C6",
            "ticks": 1030,
            "time": 11.976744186046512,
            "velocity": 0.2992125984251969
          },
          {
            "duration": 0.44186046511627985,
            "durationTicks": 38,
            "midi": 88,
            "name": "E6",
            "ticks": 1030,
            "time": 11.976744186046512,
            "velocity": 0.3543307086614173
          },
          {
            "duration": 0.41860465116279144,
            "durationTicks": 36,
            "midi": 97,
            "name": "C#7",
            "ticks": 1030,
            "time": 11.976744186046512,
            "velocity": 0.30708661417322836
          },
          {
            "duration": 0.023255813953486637,
            "durationTicks": 2,
            "midi": 50,
            "name": "D3",
            "ticks": 1031,
            "time": 11.988372093023257,
            "velocity": 0.28346456692913385
          },
          {
            "duration": 0.023255813953486637,
            "durationTicks": 2,
            "midi": 63,
            "name": "D#4",
            "ticks": 1031,
            "time": 11.988372093023257,
            "velocity": 0.2755905511811024
          },
          {
            "duration": 0.40697674418604635,
            "durationTicks": 35,
            "midi": 74,
            "name": "D5",
            "ticks": 1031,
            "time": 11.988372093023257,
            "velocity": 0.2992125984251969
          },
          {
            "duration": 0.41860465116278966,
            "durationTicks": 36,
            "midi": 78,
            "name": "F#5",
            "ticks": 1031,
            "time": 11.988372093023257,
            "velocity": 0.3543307086614173
          },
          {
            "duration": 0.41860465116278966,
            "durationTicks": 36,
            "midi": 92,
            "name": "G#6",
            "ticks": 1031,
            "time": 11.988372093023257,
            "velocity": 0.28346456692913385
          },
          {
            "duration": 0.43023255813953476,
            "durationTicks": 37,
            "midi": 95,
            "name": "B6",
            "ticks": 1031,
            "time": 11.988372093023257,
            "velocity": 0.3228346456692913
          },
          {
            "duration": 0.1744186046511622,
            "durationTicks": 15,
            "midi": 96,
            "name": "C7",
            "ticks": 1031,
            "time": 11.988372093023257,
            "velocity": 0.30708661417322836
          },
          {
            "duration": 0.43023255813953476,
            "durationTicks": 37,
            "midi": 99,
            "name": "D#7",
            "ticks": 1031,
            "time": 11.988372093023257,
            "velocity": 0.33070866141732286
          },
          {
            "duration": 0.43023255813953476,
            "durationTicks": 37,
            "midi": 101,
            "name": "F7",
            "ticks": 1031,
            "time": 11.988372093023257,
            "velocity": 0.3700787401574803
          },
          {
            "duration": 0.43023255813953476,
            "durationTicks": 37,
            "midi": 102,
            "name": "F#7",
            "ticks": 1031,
            "time": 11.988372093023257,
            "velocity": 0.3858267716535433
          },
          {
            "duration": 0.1744186046511622,
            "durationTicks": 15,
            "midi": 103,
            "name": "G7",
            "ticks": 1031,
            "time": 11.988372093023257,
            "velocity": 0.18110236220472442
          },
          {
            "duration": 0.39534883720930303,
            "durationTicks": 34,
            "midi": 69,
            "name": "A4",
            "ticks": 1032,
            "time": 12,
            "velocity": 0.2755905511811024
          },
          {
            "duration": 0.023255813953488413,
            "durationTicks": 2,
            "midi": 51,
            "name": "D#3",
            "ticks": 1033,
            "time": 12.011627906976743,
            "velocity": 0.30708661417322836
          },
          {
            "duration": 0.39534883720930303,
            "durationTicks": 34,
            "midi": 62,
            "name": "D4",
            "ticks": 1033,
            "time": 12.011627906976743,
            "velocity": 0.3464566929133858
          },
          {
            "duration": 0.12790697674418716,
            "durationTicks": 11,
            "midi": 50,
            "name": "D3",
            "ticks": 1035,
            "time": 12.034883720930232,
            "velocity": 0.3228346456692913
          },
          {
            "duration": 0.20930232558139572,
            "durationTicks": 18,
            "midi": 50,
            "name": "D3",
            "ticks": 1047,
            "time": 12.174418604651162,
            "velocity": 0.2204724409448819
          },
          {
            "duration": 0.22093023255813904,
            "durationTicks": 19,
            "midi": 84,
            "name": "C6",
            "ticks": 1048,
            "time": 12.186046511627907,
            "velocity": 0.11023622047244094
          },
          {
            "duration": 0.1860465116279073,
            "durationTicks": 16,
            "midi": 86,
            "name": "D6",
            "ticks": 1065,
            "time": 12.383720930232558,
            "velocity": 0.30708661417322836
          },
          {
            "duration": 0.10465116279069875,
            "durationTicks": 9,
            "midi": 98,
            "name": "D7",
            "ticks": 1065,
            "time": 12.383720930232558,
            "velocity": 0.4645669291338583
          },
          {
            "duration": 0.09302325581395365,
            "durationTicks": 8,
            "midi": 93,
            "name": "A6",
            "ticks": 1066,
            "time": 12.395348837209303,
            "velocity": 0.4881889763779528
          },
          {
            "duration": 0.04651162790697683,
            "durationTicks": 4,
            "midi": 99,
            "name": "D#7",
            "ticks": 1070,
            "time": 12.44186046511628,
            "velocity": 0.29133858267716534
          },
          {
            "duration": 0.5116279069767451,
            "durationTicks": 44,
            "midi": 74,
            "name": "D5",
            "ticks": 1080,
            "time": 12.55813953488372,
            "velocity": 0.2047244094488189
          },
          {
            "duration": 0.5116279069767451,
            "durationTicks": 44,
            "midi": 78,
            "name": "F#5",
            "ticks": 1080,
            "time": 12.55813953488372,
            "velocity": 0.1889763779527559
          },
          {
            "duration": 0.5116279069767451,
            "durationTicks": 44,
            "midi": 84,
            "name": "C6",
            "ticks": 1080,
            "time": 12.55813953488372,
            "velocity": 0.18110236220472442
          },
          {
            "duration": 0.5581395348837219,
            "durationTicks": 48,
            "midi": 90,
            "name": "F#6",
            "ticks": 1080,
            "time": 12.55813953488372,
            "velocity": 0.2283464566929134
          },
          {
            "duration": 0.5,
            "durationTicks": 43,
            "midi": 92,
            "name": "G#6",
            "ticks": 1080,
            "time": 12.55813953488372,
            "velocity": 0.15748031496062992
          },
          {
            "duration": 0.4883720930232567,
            "durationTicks": 42,
            "midi": 95,
            "name": "B6",
            "ticks": 1080,
            "time": 12.55813953488372,
            "velocity": 0.14173228346456693
          },
          {
            "duration": 0.31395348837209447,
            "durationTicks": 27,
            "midi": 97,
            "name": "C#7",
            "ticks": 1080,
            "time": 12.55813953488372,
            "velocity": 0.13385826771653545
          },
          {
            "duration": 0.5,
            "durationTicks": 43,
            "midi": 50,
            "name": "D3",
            "ticks": 1081,
            "time": 12.569767441860465,
            "velocity": 0.2125984251968504
          },
          {
            "duration": 0.5,
            "durationTicks": 43,
            "midi": 69,
            "name": "A4",
            "ticks": 1081,
            "time": 12.569767441860465,
            "velocity": 0.1968503937007874
          },
          {
            "duration": 0.5,
            "durationTicks": 43,
            "midi": 88,
            "name": "E6",
            "ticks": 1081,
            "time": 12.569767441860465,
            "velocity": 0.18110236220472442
          },
          {
            "duration": 0.1744186046511622,
            "durationTicks": 15,
            "midi": 99,
            "name": "D#7",
            "ticks": 1081,
            "time": 12.569767441860465,
            "velocity": 0.13385826771653545
          },
          {
            "duration": 0.19767441860465063,
            "durationTicks": 17,
            "midi": 101,
            "name": "F7",
            "ticks": 1081,
            "time": 12.569767441860465,
            "velocity": 0.12598425196850394
          },
          {
            "duration": 0.4418604651162781,
            "durationTicks": 38,
            "midi": 93,
            "name": "A6",
            "ticks": 1117,
            "time": 12.988372093023257,
            "velocity": 0.49606299212598426
          },
          {
            "duration": 0.43023255813953476,
            "durationTicks": 37,
            "midi": 98,
            "name": "D7",
            "ticks": 1117,
            "time": 12.988372093023257,
            "velocity": 0.4881889763779528
          },
          {
            "duration": 0.03488372093023351,
            "durationTicks": 3,
            "midi": 81,
            "name": "A5",
            "ticks": 1125,
            "time": 13.081395348837209,
            "velocity": 0.25196850393700787
          },
          {
            "duration": 0.12790697674418716,
            "durationTicks": 11,
            "midi": 86,
            "name": "D6",
            "ticks": 1127,
            "time": 13.104651162790697,
            "velocity": 0.2755905511811024
          },
          {
            "duration": 0.09302325581395365,
            "durationTicks": 8,
            "midi": 87,
            "name": "D#6",
            "ticks": 1130,
            "time": 13.13953488372093,
            "velocity": 0.18110236220472442
          },
          {
            "duration": 0.04651162790697683,
            "durationTicks": 4,
            "midi": 84,
            "name": "C6",
            "ticks": 1133,
            "time": 13.174418604651162,
            "velocity": 0.11811023622047244
          },
          {
            "duration": 0.04651162790697683,
            "durationTicks": 4,
            "midi": 89,
            "name": "F6",
            "ticks": 1133,
            "time": 13.174418604651162,
            "velocity": 0.11023622047244094
          },
          {
            "duration": 0.03488372093023173,
            "durationTicks": 3,
            "midi": 83,
            "name": "B5",
            "ticks": 1134,
            "time": 13.186046511627907,
            "velocity": 0.10236220472440945
          },
          {
            "duration": 0.03488372093023173,
            "durationTicks": 3,
            "midi": 82,
            "name": "A#5",
            "ticks": 1136,
            "time": 13.209302325581396,
            "velocity": 0.1732283464566929
          },
          {
            "duration": 0.06976744186046524,
            "durationTicks": 6,
            "midi": 90,
            "name": "F#6",
            "ticks": 1136,
            "time": 13.209302325581396,
            "velocity": 0.18110236220472442
          },
          {
            "duration": 0.04651162790697683,
            "durationTicks": 4,
            "midi": 89,
            "name": "F6",
            "ticks": 1138,
            "time": 13.232558139534884,
            "velocity": 0.1889763779527559
          },
          {
            "duration": 0.03488372093023351,
            "durationTicks": 3,
            "midi": 81,
            "name": "A5",
            "ticks": 1139,
            "time": 13.244186046511627,
            "velocity": 0.14173228346456693
          },
          {
            "duration": 0.1627906976744189,
            "durationTicks": 14,
            "midi": 96,
            "name": "C7",
            "ticks": 1141,
            "time": 13.267441860465116,
            "velocity": 0.23622047244094488
          },
          {
            "duration": 0.1627906976744189,
            "durationTicks": 14,
            "midi": 100,
            "name": "E7",
            "ticks": 1141,
            "time": 13.267441860465116,
            "velocity": 0.25984251968503935
          },
          {
            "duration": 0.1511627906976738,
            "durationTicks": 13,
            "midi": 97,
            "name": "C#7",
            "ticks": 1142,
            "time": 13.279069767441861,
            "velocity": 0.28346456692913385
          },
          {
            "duration": 0.08139534883720856,
            "durationTicks": 7,
            "midi": 101,
            "name": "F7",
            "ticks": 1142,
            "time": 13.279069767441861,
            "velocity": 0.2283464566929134
          },
          {
            "duration": 0.11627906976744207,
            "durationTicks": 10,
            "midi": 99,
            "name": "D#7",
            "ticks": 1144,
            "time": 13.30232558139535,
            "velocity": 0.3228346456692913
          },
          {
            "duration": 0.03488372093023173,
            "durationTicks": 3,
            "midi": 101,
            "name": "F7",
            "ticks": 1152,
            "time": 13.395348837209303,
            "velocity": 0.07874015748031496
          },
          {
            "duration": 0.04651162790697505,
            "durationTicks": 4,
            "midi": 58,
            "name": "A#3",
            "ticks": 1158,
            "time": 13.465116279069768,
            "velocity": 0.1968503937007874
          },
          {
            "duration": 0.06976744186046346,
            "durationTicks": 6,
            "midi": 94,
            "name": "A#6",
            "ticks": 1158,
            "time": 13.465116279069768,
            "velocity": 0.2677165354330709
          },
          {
            "duration": 0.03488372093023173,
            "durationTicks": 3,
            "midi": 58,
            "name": "A#3",
            "ticks": 1163,
            "time": 13.523255813953488,
            "velocity": 0.14173228346456693
          },
          {
            "duration": 0.03488372093023173,
            "durationTicks": 3,
            "midi": 62,
            "name": "D4",
            "ticks": 1163,
            "time": 13.523255813953488,
            "velocity": 0.07086614173228346
          },
          {
            "duration": 0.06976744186046524,
            "durationTicks": 6,
            "midi": 102,
            "name": "F#7",
            "ticks": 1163,
            "time": 13.523255813953488,
            "velocity": 0.11811023622047244
          },
          {
            "duration": 0.09302325581395365,
            "durationTicks": 8,
            "midi": 78,
            "name": "F#5",
            "ticks": 1164,
            "time": 13.534883720930232,
            "velocity": 0.2047244094488189
          },
          {
            "duration": 0.06976744186046524,
            "durationTicks": 6,
            "midi": 91,
            "name": "G6",
            "ticks": 1165,
            "time": 13.546511627906977,
            "velocity": 0.15748031496062992
          },
          {
            "duration": 0.40697674418604635,
            "durationTicks": 35,
            "midi": 97,
            "name": "C#7",
            "ticks": 1165,
            "time": 13.546511627906977,
            "velocity": 0.2125984251968504
          },
          {
            "duration": 0.39534883720930303,
            "durationTicks": 34,
            "midi": 100,
            "name": "E7",
            "ticks": 1165,
            "time": 13.546511627906977,
            "velocity": 0.1889763779527559
          },
          {
            "duration": 0.04651162790697683,
            "durationTicks": 4,
            "midi": 101,
            "name": "F7",
            "ticks": 1165,
            "time": 13.546511627906977,
            "velocity": 0.14960629921259844
          },
          {
            "duration": 0.03488372093023351,
            "durationTicks": 3,
            "midi": 85,
            "name": "C#6",
            "ticks": 1166,
            "time": 13.55813953488372,
            "velocity": 0.07874015748031496
          },
          {
            "duration": 0.11627906976744207,
            "durationTicks": 10,
            "midi": 86,
            "name": "D6",
            "ticks": 1166,
            "time": 13.55813953488372,
            "velocity": 0.16535433070866143
          },
          {
            "duration": 0.03488372093023351,
            "durationTicks": 3,
            "midi": 87,
            "name": "D#6",
            "ticks": 1166,
            "time": 13.55813953488372,
            "velocity": 0.15748031496062992
          },
          {
            "duration": 0.04651162790697683,
            "durationTicks": 4,
            "midi": 89,
            "name": "F6",
            "ticks": 1167,
            "time": 13.569767441860465,
            "velocity": 0.14960629921259844
          },
          {
            "duration": 0.09302325581395365,
            "durationTicks": 8,
            "midi": 94,
            "name": "A#6",
            "ticks": 1167,
            "time": 13.569767441860465,
            "velocity": 0.10236220472440945
          },
          {
            "duration": 0.12790697674418539,
            "durationTicks": 11,
            "midi": 99,
            "name": "D#7",
            "ticks": 1167,
            "time": 13.569767441860465,
            "velocity": 0.2047244094488189
          },
          {
            "duration": 0.06976744186046524,
            "durationTicks": 6,
            "midi": 88,
            "name": "E6",
            "ticks": 1168,
            "time": 13.581395348837209,
            "velocity": 0.2125984251968504
          },
          {
            "duration": 0.04651162790697683,
            "durationTicks": 4,
            "midi": 95,
            "name": "B6",
            "ticks": 1168,
            "time": 13.581395348837209,
            "velocity": 0.11811023622047244
          },
          {
            "duration": 0.1627906976744189,
            "durationTicks": 14,
            "midi": 103,
            "name": "G7",
            "ticks": 1168,
            "time": 13.581395348837209,
            "velocity": 0.2047244094488189
          },
          {
            "duration": 0.03488372093023173,
            "durationTicks": 3,
            "midi": 93,
            "name": "A6",
            "ticks": 1169,
            "time": 13.593023255813954,
            "velocity": 0.14173228346456693
          },
          {
            "duration": 0.13953488372093048,
            "durationTicks": 12,
            "midi": 84,
            "name": "C6",
            "ticks": 1170,
            "time": 13.604651162790697,
            "velocity": 0.15748031496062992
          },
          {
            "duration": 0.10465116279069875,
            "durationTicks": 9,
            "midi": 92,
            "name": "G#6",
            "ticks": 1170,
            "time": 13.604651162790697,
            "velocity": 0.11023622047244094
          },
          {
            "duration": 0.174418604651164,
            "durationTicks": 15,
            "midi": 96,
            "name": "C7",
            "ticks": 1170,
            "time": 13.604651162790697,
            "velocity": 0.18110236220472442
          },
          {
            "duration": 0.23255813953488413,
            "durationTicks": 20,
            "midi": 101,
            "name": "F7",
            "ticks": 1170,
            "time": 13.604651162790697,
            "velocity": 0.14960629921259844
          },
          {
            "duration": 0.03488372093023173,
            "durationTicks": 3,
            "midi": 80,
            "name": "G#5",
            "ticks": 1171,
            "time": 13.616279069767442,
            "velocity": 0.09448818897637795
          },
          {
            "duration": 0.3255813953488378,
            "durationTicks": 28,
            "midi": 102,
            "name": "F#7",
            "ticks": 1171,
            "time": 13.616279069767442,
            "velocity": 0.2047244094488189
          },
          {
            "duration": 0.05813953488372192,
            "durationTicks": 5,
            "midi": 89,
            "name": "F6",
            "ticks": 1172,
            "time": 13.627906976744185,
            "velocity": 0.10236220472440945
          },
          {
            "duration": 0.03488372093023173,
            "durationTicks": 3,
            "midi": 77,
            "name": "F5",
            "ticks": 1173,
            "time": 13.63953488372093,
            "velocity": 0.13385826771653545
          },
          {
            "duration": 0.06976744186046524,
            "durationTicks": 6,
            "midi": 87,
            "name": "D#6",
            "ticks": 1173,
            "time": 13.63953488372093,
            "velocity": 0.11023622047244094
          },
          {
            "duration": 0.03488372093023351,
            "durationTicks": 3,
            "midi": 71,
            "name": "B4",
            "ticks": 1174,
            "time": 13.651162790697674,
            "velocity": 0.11023622047244094
          },
          {
            "duration": 0.8139534883720945,
            "durationTicks": 70,
            "midi": 95,
            "name": "B6",
            "ticks": 1174,
            "time": 13.651162790697674,
            "velocity": 0.15748031496062992
          },
          {
            "duration": 0.24418604651162745,
            "durationTicks": 21,
            "midi": 93,
            "name": "A6",
            "ticks": 1175,
            "time": 13.662790697674419,
            "velocity": 0.16535433070866143
          },
          {
            "duration": 0.06976744186046524,
            "durationTicks": 6,
            "midi": 91,
            "name": "G6",
            "ticks": 1176,
            "time": 13.674418604651162,
            "velocity": 0.15748031496062992
          },
          {
            "duration": 0.04651162790697683,
            "durationTicks": 4,
            "midi": 94,
            "name": "A#6",
            "ticks": 1176,
            "time": 13.674418604651162,
            "velocity": 0.10236220472440945
          },
          {
            "duration": 0.10465116279069697,
            "durationTicks": 9,
            "midi": 86,
            "name": "D6",
            "ticks": 1177,
            "time": 13.686046511627907,
            "velocity": 0.1968503937007874
          },
          {
            "duration": 0.03488372093023351,
            "durationTicks": 3,
            "midi": 75,
            "name": "D#5",
            "ticks": 1178,
            "time": 13.69767441860465,
            "velocity": 0.10236220472440945
          },
          {
            "duration": 0.03488372093023173,
            "durationTicks": 3,
            "midi": 90,
            "name": "F#6",
            "ticks": 1179,
            "time": 13.709302325581396,
            "velocity": 0.09448818897637795
          },
          {
            "duration": 0.12790697674418716,
            "durationTicks": 11,
            "midi": 89,
            "name": "F6",
            "ticks": 1180,
            "time": 13.720930232558139,
            "velocity": 0.12598425196850394
          },
          {
            "duration": 0.12790697674418539,
            "durationTicks": 11,
            "midi": 92,
            "name": "G#6",
            "ticks": 1181,
            "time": 13.732558139534884,
            "velocity": 0.15748031496062992
          },
          {
            "duration": 0.10465116279069875,
            "durationTicks": 9,
            "midi": 73,
            "name": "C#5",
            "ticks": 1182,
            "time": 13.744186046511627,
            "velocity": 0.14960629921259844
          },
          {
            "duration": 0.03488372093023351,
            "durationTicks": 3,
            "midi": 77,
            "name": "F5",
            "ticks": 1182,
            "time": 13.744186046511627,
            "velocity": 0.12598425196850394
          },
          {
            "duration": 0.05813953488372192,
            "durationTicks": 5,
            "midi": 83,
            "name": "B5",
            "ticks": 1182,
            "time": 13.744186046511627,
            "velocity": 0.11023622047244094
          },
          {
            "duration": 0.05813953488372192,
            "durationTicks": 5,
            "midi": 87,
            "name": "D#6",
            "ticks": 1182,
            "time": 13.744186046511627,
            "velocity": 0.12598425196850394
          },
          {
            "duration": 0.3023255813953494,
            "durationTicks": 26,
            "midi": 99,
            "name": "D#7",
            "ticks": 1182,
            "time": 13.744186046511627,
            "velocity": 0.1889763779527559
          },
          {
            "duration": 0.10465116279069875,
            "durationTicks": 9,
            "midi": 81,
            "name": "A5",
            "ticks": 1184,
            "time": 13.767441860465116,
            "velocity": 0.15748031496062992
          },
          {
            "duration": 0.10465116279069875,
            "durationTicks": 9,
            "midi": 91,
            "name": "G6",
            "ticks": 1184,
            "time": 13.767441860465116,
            "velocity": 0.12598425196850394
          },
          {
            "duration": 0.08139534883721034,
            "durationTicks": 7,
            "midi": 94,
            "name": "A#6",
            "ticks": 1184,
            "time": 13.767441860465116,
            "velocity": 0.13385826771653545
          },
          {
            "duration": 0.12790697674418716,
            "durationTicks": 11,
            "midi": 103,
            "name": "G7",
            "ticks": 1184,
            "time": 13.767441860465116,
            "velocity": 0.1732283464566929
          },
          {
            "duration": 0.058139534883720145,
            "durationTicks": 5,
            "midi": 80,
            "name": "G#5",
            "ticks": 1185,
            "time": 13.779069767441861,
            "velocity": 0.11023622047244094
          },
          {
            "duration": 0.058139534883720145,
            "durationTicks": 5,
            "midi": 85,
            "name": "C#6",
            "ticks": 1185,
            "time": 13.779069767441861,
            "velocity": 0.1889763779527559
          },
          {
            "duration": 0.03488372093023173,
            "durationTicks": 3,
            "midi": 98,
            "name": "D7",
            "ticks": 1189,
            "time": 13.825581395348838,
            "velocity": 0.14960629921259844
          },
          {
            "duration": 0.03488372093023351,
            "durationTicks": 3,
            "midi": 88,
            "name": "E6",
            "ticks": 1190,
            "time": 13.837209302325581,
            "velocity": 0.11811023622047244
          },
          {
            "duration": 0.3255813953488378,
            "durationTicks": 28,
            "midi": 101,
            "name": "F7",
            "ticks": 1192,
            "time": 13.86046511627907,
            "velocity": 0.16535433070866143
          },
          {
            "duration": 0.06976744186046524,
            "durationTicks": 6,
            "midi": 87,
            "name": "D#6",
            "ticks": 1193,
            "time": 13.872093023255815,
            "velocity": 0.14173228346456693
          },
          {
            "duration": 0.03488372093023173,
            "durationTicks": 3,
            "midi": 89,
            "name": "F6",
            "ticks": 1193,
            "time": 13.872093023255815,
            "velocity": 0.11811023622047244
          },
          {
            "duration": 0.1511627906976738,
            "durationTicks": 13,
            "midi": 98,
            "name": "D7",
            "ticks": 1193,
            "time": 13.872093023255815,
            "velocity": 0.14960629921259844
          },
          {
            "duration": 0.08139534883720856,
            "durationTicks": 7,
            "midi": 78,
            "name": "F#5",
            "ticks": 1195,
            "time": 13.895348837209303,
            "velocity": 0.2047244094488189
          },
          {
            "duration": 0.06976744186046524,
            "durationTicks": 6,
            "midi": 91,
            "name": "G6",
            "ticks": 1195,
            "time": 13.895348837209303,
            "velocity": 0.14960629921259844
          },
          {
            "duration": 0.03488372093023173,
            "durationTicks": 3,
            "midi": 80,
            "name": "G#5",
            "ticks": 1197,
            "time": 13.918604651162791,
            "velocity": 0.07086614173228346
          },
          {
            "duration": 0.10465116279069697,
            "durationTicks": 9,
            "midi": 86,
            "name": "D6",
            "ticks": 1197,
            "time": 13.918604651162791,
            "velocity": 0.14960629921259844
          },
          {
            "duration": 0.06976744186046524,
            "durationTicks": 6,
            "midi": 88,
            "name": "E6",
            "ticks": 1198,
            "time": 13.930232558139535,
            "velocity": 0.2047244094488189
          },
          {
            "duration": 0.03488372093023351,
            "durationTicks": 3,
            "midi": 89,
            "name": "F6",
            "ticks": 1198,
            "time": 13.930232558139535,
            "velocity": 0.13385826771653545
          },
          {
            "duration": 0.3720930232558146,
            "durationTicks": 32,
            "midi": 94,
            "name": "A#6",
            "ticks": 1198,
            "time": 13.930232558139535,
            "velocity": 0.25984251968503935
          },
          {
            "duration": 0.1744186046511622,
            "durationTicks": 15,
            "midi": 103,
            "name": "G7",
            "ticks": 1198,
            "time": 13.930232558139535,
            "velocity": 0.2047244094488189
          },
          {
            "duration": 0.13953488372093048,
            "durationTicks": 12,
            "midi": 84,
            "name": "C6",
            "ticks": 1200,
            "time": 13.953488372093023,
            "velocity": 0.15748031496062992
          },
          {
            "duration": 0.11627906976744207,
            "durationTicks": 10,
            "midi": 92,
            "name": "G#6",
            "ticks": 1200,
            "time": 13.953488372093023,
            "velocity": 0.12598425196850394
          },
          {
            "duration": 0.1744186046511622,
            "durationTicks": 15,
            "midi": 96,
            "name": "C7",
            "ticks": 1200,
            "time": 13.953488372093023,
            "velocity": 0.1889763779527559
          },
          {
            "duration": 0.26744186046511587,
            "durationTicks": 23,
            "midi": 97,
            "name": "C#7",
            "ticks": 1201,
            "time": 13.965116279069768,
            "velocity": 0.18110236220472442
          },
          {
            "duration": 0.058139534883720145,
            "durationTicks": 5,
            "midi": 89,
            "name": "F6",
            "ticks": 1202,
            "time": 13.976744186046512,
            "velocity": 0.08661417322834646
          },
          {
            "duration": 0.27906976744186096,
            "durationTicks": 24,
            "midi": 100,
            "name": "E7",
            "ticks": 1202,
            "time": 13.976744186046512,
            "velocity": 0.2204724409448819
          },
          {
            "duration": 0.03488372093023173,
            "durationTicks": 3,
            "midi": 77,
            "name": "F5",
            "ticks": 1203,
            "time": 13.988372093023257,
            "velocity": 0.16535433070866143
          },
          {
            "duration": 0.06976744186046346,
            "durationTicks": 6,
            "midi": 87,
            "name": "D#6",
            "ticks": 1203,
            "time": 13.988372093023257,
            "velocity": 0.10236220472440945
          },
          {
            "duration": 0.04651162790697683,
            "durationTicks": 4,
            "midi": 71,
            "name": "B4",
            "ticks": 1204,
            "time": 14,
            "velocity": 0.11023622047244094
          },
          {
            "duration": 0.24418604651162745,
            "durationTicks": 21,
            "midi": 102,
            "name": "F#7",
            "ticks": 1204,
            "time": 14,
            "velocity": 0.2125984251968504
          },
          {
            "duration": 0.12790697674418716,
            "durationTicks": 11,
            "midi": 93,
            "name": "A6",
            "ticks": 1205,
            "time": 14.011627906976743,
            "velocity": 0.16535433070866143
          },
          {
            "duration": 0.06976744186046524,
            "durationTicks": 6,
            "midi": 91,
            "name": "G6",
            "ticks": 1206,
            "time": 14.023255813953488,
            "velocity": 0.14960629921259844
          },
          {
            "duration": 0.03488372093023351,
            "durationTicks": 3,
            "midi": 80,
            "name": "G#5",
            "ticks": 1207,
            "time": 14.034883720930232,
            "velocity": 0.11811023622047244
          },
          {
            "duration": 0.11627906976744207,
            "durationTicks": 10,
            "midi": 98,
            "name": "D7",
            "ticks": 1207,
            "time": 14.034883720930232,
            "velocity": 0.14960629921259844
          },
          {
            "duration": 0.03488372093023173,
            "durationTicks": 3,
            "midi": 75,
            "name": "D#5",
            "ticks": 1208,
            "time": 14.046511627906977,
            "velocity": 0.07086614173228346
          },
          {
            "duration": 0.09302325581395365,
            "durationTicks": 8,
            "midi": 86,
            "name": "D6",
            "ticks": 1208,
            "time": 14.046511627906977,
            "velocity": 0.16535433070866143
          },
          {
            "duration": 0.04651162790697683,
            "durationTicks": 4,
            "midi": 79,
            "name": "G5",
            "ticks": 1209,
            "time": 14.05813953488372,
            "velocity": 0.11023622047244094
          },
          {
            "duration": 0.11627906976744207,
            "durationTicks": 10,
            "midi": 92,
            "name": "G#6",
            "ticks": 1211,
            "time": 14.081395348837209,
            "velocity": 0.13385826771653545
          },
          {
            "duration": 0.08139534883720856,
            "durationTicks": 7,
            "midi": 83,
            "name": "B5",
            "ticks": 1212,
            "time": 14.093023255813954,
            "velocity": 0.14173228346456693
          },
          {
            "duration": 0.08139534883721034,
            "durationTicks": 7,
            "midi": 73,
            "name": "C#5",
            "ticks": 1213,
            "time": 14.104651162790697,
            "velocity": 0.16535433070866143
          },
          {
            "duration": 0.06976744186046524,
            "durationTicks": 6,
            "midi": 81,
            "name": "A5",
            "ticks": 1214,
            "time": 14.116279069767442,
            "velocity": 0.12598425196850394
          },
          {
            "duration": 0.25581395348837255,
            "durationTicks": 22,
            "midi": 103,
            "name": "G7",
            "ticks": 1214,
            "time": 14.116279069767442,
            "velocity": 0.18110236220472442
          },
          {
            "duration": 0.09302325581395365,
            "durationTicks": 8,
            "midi": 85,
            "name": "C#6",
            "ticks": 1215,
            "time": 14.127906976744185,
            "velocity": 0.2047244094488189
          },
          {
            "duration": 0.05813953488372192,
            "durationTicks": 5,
            "midi": 91,
            "name": "G6",
            "ticks": 1215,
            "time": 14.127906976744185,
            "velocity": 0.10236220472440945
          },
          {
            "duration": 0.058139534883720145,
            "durationTicks": 5,
            "midi": 89,
            "name": "F6",
            "ticks": 1216,
            "time": 14.13953488372093,
            "velocity": 0.11023622047244094
          },
          {
            "duration": 0.05813953488372192,
            "durationTicks": 5,
            "midi": 93,
            "name": "A6",
            "ticks": 1217,
            "time": 14.151162790697674,
            "velocity": 0.14173228346456693
          },
          {
            "duration": 0.09302325581395365,
            "durationTicks": 8,
            "midi": 99,
            "name": "D#7",
            "ticks": 1217,
            "time": 14.151162790697674,
            "velocity": 0.14960629921259844
          },
          {
            "duration": 0.06976744186046524,
            "durationTicks": 6,
            "midi": 98,
            "name": "D7",
            "ticks": 1219,
            "time": 14.174418604651162,
            "velocity": 0.12598425196850394
          },
          {
            "duration": 0.05813953488372192,
            "durationTicks": 5,
            "midi": 58,
            "name": "A#3",
            "ticks": 1223,
            "time": 14.220930232558139,
            "velocity": 0.1732283464566929
          },
          {
            "duration": 0.06976744186046524,
            "durationTicks": 6,
            "midi": 88,
            "name": "E6",
            "ticks": 1229,
            "time": 14.290697674418604,
            "velocity": 0.10236220472440945
          },
          {
            "duration": 0.05813953488372192,
            "durationTicks": 5,
            "midi": 93,
            "name": "A6",
            "ticks": 1229,
            "time": 14.290697674418604,
            "velocity": 0.12598425196850394
          },
          {
            "duration": 0.08139534883721034,
            "durationTicks": 7,
            "midi": 97,
            "name": "C#7",
            "ticks": 1229,
            "time": 14.290697674418604,
            "velocity": 0.12598425196850394
          },
          {
            "duration": 0.4534883720930232,
            "durationTicks": 39,
            "midi": 99,
            "name": "D#7",
            "ticks": 1229,
            "time": 14.290697674418604,
            "velocity": 0.13385826771653545
          },
          {
            "duration": 0.5,
            "durationTicks": 43,
            "midi": 100,
            "name": "E7",
            "ticks": 1229,
            "time": 14.290697674418604,
            "velocity": 0.16535433070866143
          },
          {
            "duration": 0.4534883720930232,
            "durationTicks": 39,
            "midi": 101,
            "name": "F7",
            "ticks": 1229,
            "time": 14.290697674418604,
            "velocity": 0.1889763779527559
          },
          {
            "duration": 0.1627906976744189,
            "durationTicks": 14,
            "midi": 102,
            "name": "F#7",
            "ticks": 1229,
            "time": 14.290697674418604,
            "velocity": 0.11023622047244094
          },
          {
            "duration": 0.04651162790697683,
            "durationTicks": 4,
            "midi": 75,
            "name": "D#5",
            "ticks": 1230,
            "time": 14.30232558139535,
            "velocity": 0.07874015748031496
          },
          {
            "duration": 0.058139534883720145,
            "durationTicks": 5,
            "midi": 85,
            "name": "C#6",
            "ticks": 1230,
            "time": 14.30232558139535,
            "velocity": 0.11023622047244094
          },
          {
            "duration": 0.04651162790697683,
            "durationTicks": 4,
            "midi": 91,
            "name": "G6",
            "ticks": 1231,
            "time": 14.313953488372093,
            "velocity": 0.11023622047244094
          },
          {
            "duration": 0.03488372093023173,
            "durationTicks": 3,
            "midi": 69,
            "name": "A4",
            "ticks": 1232,
            "time": 14.325581395348838,
            "velocity": 0.07086614173228346
          },
          {
            "duration": 0.04651162790697683,
            "durationTicks": 4,
            "midi": 89,
            "name": "F6",
            "ticks": 1233,
            "time": 14.337209302325581,
            "velocity": 0.15748031496062992
          },
          {
            "duration": 0.03488372093023173,
            "durationTicks": 3,
            "midi": 96,
            "name": "C7",
            "ticks": 1238,
            "time": 14.395348837209303,
            "velocity": 0.07086614173228346
          },
          {
            "duration": 0.23255813953488236,
            "durationTicks": 20,
            "midi": 98,
            "name": "D7",
            "ticks": 1238,
            "time": 14.395348837209303,
            "velocity": 0.14960629921259844
          },
          {
            "duration": 0.03488372093023351,
            "durationTicks": 3,
            "midi": 88,
            "name": "E6",
            "ticks": 1239,
            "time": 14.406976744186046,
            "velocity": 0.11811023622047244
          },
          {
            "duration": 0.03488372093023351,
            "durationTicks": 3,
            "midi": 90,
            "name": "F#6",
            "ticks": 1239,
            "time": 14.406976744186046,
            "velocity": 0.07874015748031496
          },
          {
            "duration": 0.058139534883720145,
            "durationTicks": 5,
            "midi": 84,
            "name": "C6",
            "ticks": 1240,
            "time": 14.418604651162791,
            "velocity": 0.11811023622047244
          },
          {
            "duration": 0.03488372093023173,
            "durationTicks": 3,
            "midi": 97,
            "name": "C#7",
            "ticks": 1240,
            "time": 14.418604651162791,
            "velocity": 0.11023622047244094
          },
          {
            "duration": 0.04651162790697683,
            "durationTicks": 4,
            "midi": 85,
            "name": "C#6",
            "ticks": 1243,
            "time": 14.453488372093023,
            "velocity": 0.11023622047244094
          },
          {
            "duration": 0.03488372093023173,
            "durationTicks": 3,
            "midi": 93,
            "name": "A6",
            "ticks": 1245,
            "time": 14.476744186046512,
            "velocity": 0.11023622047244094
          },
          {
            "duration": 0.03488372093023173,
            "durationTicks": 3,
            "midi": 97,
            "name": "C#7",
            "ticks": 1245,
            "time": 14.476744186046512,
            "velocity": 0.11023622047244094
          },
          {
            "duration": 0.04651162790697505,
            "durationTicks": 4,
            "midi": 86,
            "name": "D6",
            "ticks": 1246,
            "time": 14.488372093023257,
            "velocity": 0.10236220472440945
          },
          {
            "duration": 0.08139534883720856,
            "durationTicks": 7,
            "midi": 94,
            "name": "A#6",
            "ticks": 1246,
            "time": 14.488372093023257,
            "velocity": 0.10236220472440945
          },
          {
            "duration": 0.03488372093023173,
            "durationTicks": 3,
            "midi": 102,
            "name": "F#7",
            "ticks": 1246,
            "time": 14.488372093023257,
            "velocity": 0.11811023622047244
          },
          {
            "duration": 0.1395348837209287,
            "durationTicks": 12,
            "midi": 103,
            "name": "G7",
            "ticks": 1246,
            "time": 14.488372093023257,
            "velocity": 0.13385826771653545
          },
          {
            "duration": 0.08139534883720856,
            "durationTicks": 7,
            "midi": 82,
            "name": "A#5",
            "ticks": 1247,
            "time": 14.5,
            "velocity": 0.10236220472440945
          },
          {
            "duration": 0.03488372093023351,
            "durationTicks": 3,
            "midi": 95,
            "name": "B6",
            "ticks": 1250,
            "time": 14.534883720930232,
            "velocity": 0.08661417322834646
          },
          {
            "duration": 0.058139534883720145,
            "durationTicks": 5,
            "midi": 84,
            "name": "C6",
            "ticks": 1251,
            "time": 14.546511627906977,
            "velocity": 0.13385826771653545
          },
          {
            "duration": 0.174418604651164,
            "durationTicks": 15,
            "midi": 90,
            "name": "F#6",
            "ticks": 1252,
            "time": 14.55813953488372,
            "velocity": 0.14173228346456693
          },
          {
            "duration": 0.06976744186046524,
            "durationTicks": 6,
            "midi": 96,
            "name": "C7",
            "ticks": 1253,
            "time": 14.569767441860465,
            "velocity": 0.13385826771653545
          },
          {
            "duration": 0.11627906976744207,
            "durationTicks": 10,
            "midi": 102,
            "name": "F#7",
            "ticks": 1253,
            "time": 14.569767441860465,
            "velocity": 0.15748031496062992
          },
          {
            "duration": 0.03488372093023351,
            "durationTicks": 3,
            "midi": 92,
            "name": "G#6",
            "ticks": 1254,
            "time": 14.581395348837209,
            "velocity": 0.10236220472440945
          },
          {
            "duration": 0.04651162790697683,
            "durationTicks": 4,
            "midi": 94,
            "name": "A#6",
            "ticks": 1255,
            "time": 14.593023255813954,
            "velocity": 0.09448818897637795
          },
          {
            "duration": 0.11627906976744207,
            "durationTicks": 10,
            "midi": 95,
            "name": "B6",
            "ticks": 1255,
            "time": 14.593023255813954,
            "velocity": 0.13385826771653545
          },
          {
            "duration": 0.12790697674418716,
            "durationTicks": 11,
            "midi": 97,
            "name": "C#7",
            "ticks": 1258,
            "time": 14.627906976744185,
            "velocity": 0.11811023622047244
          },
          {
            "duration": 0.1627906976744189,
            "durationTicks": 14,
            "midi": 98,
            "name": "D7",
            "ticks": 1259,
            "time": 14.63953488372093,
            "velocity": 0.13385826771653545
          },
          {
            "duration": 0.03488372093023351,
            "durationTicks": 3,
            "midi": 83,
            "name": "B5",
            "ticks": 1260,
            "time": 14.651162790697674,
            "velocity": 0.07874015748031496
          },
          {
            "duration": 0.11627906976744207,
            "durationTicks": 10,
            "midi": 96,
            "name": "C7",
            "ticks": 1261,
            "time": 14.662790697674419,
            "velocity": 0.11811023622047244
          },
          {
            "duration": 0.08139534883720856,
            "durationTicks": 7,
            "midi": 93,
            "name": "A6",
            "ticks": 1263,
            "time": 14.686046511627907,
            "velocity": 0.11023622047244094
          },
          {
            "duration": 0.22093023255814082,
            "durationTicks": 19,
            "midi": 102,
            "name": "F#7",
            "ticks": 1266,
            "time": 14.720930232558139,
            "velocity": 0.14960629921259844
          },
          {
            "duration": 0.058139534883720145,
            "durationTicks": 5,
            "midi": 91,
            "name": "G6",
            "ticks": 1267,
            "time": 14.732558139534884,
            "velocity": 0.1732283464566929
          },
          {
            "duration": 0.05813953488372192,
            "durationTicks": 5,
            "midi": 92,
            "name": "G#6",
            "ticks": 1268,
            "time": 14.744186046511627,
            "velocity": 0.10236220472440945
          },
          {
            "duration": 0.03488372093023173,
            "durationTicks": 3,
            "midi": 81,
            "name": "A5",
            "ticks": 1269,
            "time": 14.755813953488373,
            "velocity": 0.07086614173228346
          },
          {
            "duration": 0.058139534883720145,
            "durationTicks": 5,
            "midi": 99,
            "name": "D#7",
            "ticks": 1269,
            "time": 14.755813953488373,
            "velocity": 0.10236220472440945
          },
          {
            "duration": 0.03488372093023173,
            "durationTicks": 3,
            "midi": 94,
            "name": "A#6",
            "ticks": 1271,
            "time": 14.779069767441861,
            "velocity": 0.08661417322834646
          },
          {
            "duration": 0.04651162790697683,
            "durationTicks": 4,
            "midi": 96,
            "name": "C7",
            "ticks": 1272,
            "time": 14.790697674418604,
            "velocity": 0.10236220472440945
          },
          {
            "duration": 0.1627906976744189,
            "durationTicks": 14,
            "midi": 101,
            "name": "F7",
            "ticks": 1273,
            "time": 14.80232558139535,
            "velocity": 0.14173228346456693
          },
          {
            "duration": 0.12790697674418716,
            "durationTicks": 11,
            "midi": 82,
            "name": "A#5",
            "ticks": 1274,
            "time": 14.813953488372093,
            "velocity": 0.11023622047244094
          },
          {
            "duration": 0.11627906976744207,
            "durationTicks": 10,
            "midi": 95,
            "name": "B6",
            "ticks": 1275,
            "time": 14.825581395348838,
            "velocity": 0.14173228346456693
          },
          {
            "duration": 0.03488372093023173,
            "durationTicks": 3,
            "midi": 83,
            "name": "B5",
            "ticks": 1277,
            "time": 14.848837209302326,
            "velocity": 0.10236220472440945
          },
          {
            "duration": 0.20930232558139394,
            "durationTicks": 18,
            "midi": 92,
            "name": "G#6",
            "ticks": 1279,
            "time": 14.872093023255815,
            "velocity": 0.11023622047244094
          },
          {
            "duration": 0.09302325581395365,
            "durationTicks": 8,
            "midi": 93,
            "name": "A6",
            "ticks": 1279,
            "time": 14.872093023255815,
            "velocity": 0.11023622047244094
          },
          {
            "duration": 0.04651162790697683,
            "durationTicks": 4,
            "midi": 103,
            "name": "G7",
            "ticks": 1279,
            "time": 14.872093023255815,
            "velocity": 0.14960629921259844
          },
          {
            "duration": 0.03488372093023351,
            "durationTicks": 3,
            "midi": 97,
            "name": "C#7",
            "ticks": 1280,
            "time": 14.883720930232558,
            "velocity": 0.12598425196850394
          },
          {
            "duration": 0.09302325581395365,
            "durationTicks": 8,
            "midi": 98,
            "name": "D7",
            "ticks": 1280,
            "time": 14.883720930232558,
            "velocity": 0.12598425196850394
          },
          {
            "duration": 0.05813953488372192,
            "durationTicks": 5,
            "midi": 85,
            "name": "C#6",
            "ticks": 1284,
            "time": 14.930232558139535,
            "velocity": 0.08661417322834646
          },
          {
            "duration": 0.1511627906976738,
            "durationTicks": 13,
            "midi": 97,
            "name": "C#7",
            "ticks": 1284,
            "time": 14.930232558139535,
            "velocity": 0.14173228346456693
          },
          {
            "duration": 0.24418604651162745,
            "durationTicks": 21,
            "midi": 99,
            "name": "D#7",
            "ticks": 1284,
            "time": 14.930232558139535,
            "velocity": 0.13385826771653545
          },
          {
            "duration": 0.3604651162790695,
            "durationTicks": 31,
            "midi": 100,
            "name": "E7",
            "ticks": 1284,
            "time": 14.930232558139535,
            "velocity": 0.14960629921259844
          },
          {
            "duration": 0.1627906976744189,
            "durationTicks": 14,
            "midi": 103,
            "name": "G7",
            "ticks": 1284,
            "time": 14.930232558139535,
            "velocity": 0.1732283464566929
          },
          {
            "duration": 0.04651162790697683,
            "durationTicks": 4,
            "midi": 72,
            "name": "C5",
            "ticks": 1285,
            "time": 14.94186046511628,
            "velocity": 0.12598425196850394
          },
          {
            "duration": 0.03488372093023351,
            "durationTicks": 3,
            "midi": 90,
            "name": "F#6",
            "ticks": 1286,
            "time": 14.953488372093023,
            "velocity": 0.11811023622047244
          },
          {
            "duration": 0.25581395348837255,
            "durationTicks": 22,
            "midi": 95,
            "name": "B6",
            "ticks": 1286,
            "time": 14.953488372093023,
            "velocity": 0.13385826771653545
          },
          {
            "duration": 0.08139534883720856,
            "durationTicks": 7,
            "midi": 102,
            "name": "F#7",
            "ticks": 1286,
            "time": 14.953488372093023,
            "velocity": 0.14173228346456693
          },
          {
            "duration": 0.058139534883720145,
            "durationTicks": 5,
            "midi": 94,
            "name": "A#6",
            "ticks": 1287,
            "time": 14.965116279069768,
            "velocity": 0.11023622047244094
          },
          {
            "duration": 0.08139534883720856,
            "durationTicks": 7,
            "midi": 88,
            "name": "E6",
            "ticks": 1288,
            "time": 14.976744186046512,
            "velocity": 0.09448818897637795
          },
          {
            "duration": 0.1860465116279073,
            "durationTicks": 16,
            "midi": 98,
            "name": "D7",
            "ticks": 1291,
            "time": 15.011627906976743,
            "velocity": 0.11023622047244094
          },
          {
            "duration": 0.06976744186046524,
            "durationTicks": 6,
            "midi": 86,
            "name": "D6",
            "ticks": 1293,
            "time": 15.034883720930232,
            "velocity": 0.09448818897637795
          },
          {
            "duration": 0.10465116279069875,
            "durationTicks": 9,
            "midi": 101,
            "name": "F7",
            "ticks": 1293,
            "time": 15.034883720930232,
            "velocity": 0.16535433070866143
          },
          {
            "duration": 0.03488372093023351,
            "durationTicks": 3,
            "midi": 73,
            "name": "C#5",
            "ticks": 1295,
            "time": 15.05813953488372,
            "velocity": 0.13385826771653545
          },
          {
            "duration": 0.04651162790697683,
            "durationTicks": 4,
            "midi": 93,
            "name": "A6",
            "ticks": 1295,
            "time": 15.05813953488372,
            "velocity": 0.09448818897637795
          },
          {
            "duration": 0.15116279069767558,
            "durationTicks": 13,
            "midi": 102,
            "name": "F#7",
            "ticks": 1295,
            "time": 15.05813953488372,
            "velocity": 0.16535433070866143
          },
          {
            "duration": 0.09302325581395365,
            "durationTicks": 8,
            "midi": 90,
            "name": "F#6",
            "ticks": 1296,
            "time": 15.069767441860465,
            "velocity": 0.08661417322834646
          },
          {
            "duration": 0.06976744186046524,
            "durationTicks": 6,
            "midi": 96,
            "name": "C7",
            "ticks": 1296,
            "time": 15.069767441860465,
            "velocity": 0.09448818897637795
          },
          {
            "duration": 0.058139534883720145,
            "durationTicks": 5,
            "midi": 92,
            "name": "G#6",
            "ticks": 1298,
            "time": 15.093023255813954,
            "velocity": 0.10236220472440945
          },
          {
            "duration": 0.10465116279069697,
            "durationTicks": 9,
            "midi": 97,
            "name": "C#7",
            "ticks": 1298,
            "time": 15.093023255813954,
            "velocity": 0.10236220472440945
          },
          {
            "duration": 0.13953488372093048,
            "durationTicks": 12,
            "midi": 103,
            "name": "G7",
            "ticks": 1299,
            "time": 15.104651162790697,
            "velocity": 0.12598425196850394
          },
          {
            "duration": 0.04651162790697683,
            "durationTicks": 4,
            "midi": 94,
            "name": "A#6",
            "ticks": 1300,
            "time": 15.116279069767442,
            "velocity": 0.13385826771653545
          },
          {
            "duration": 0.06976744186046524,
            "durationTicks": 6,
            "midi": 91,
            "name": "G6",
            "ticks": 1301,
            "time": 15.127906976744185,
            "velocity": 0.11023622047244094
          },
          {
            "duration": 0.13953488372093048,
            "durationTicks": 12,
            "midi": 101,
            "name": "F7",
            "ticks": 1303,
            "time": 15.151162790697674,
            "velocity": 0.16535433070866143
          },
          {
            "duration": 0.03488372093023173,
            "durationTicks": 3,
            "midi": 84,
            "name": "C6",
            "ticks": 1304,
            "time": 15.162790697674419,
            "velocity": 0.07874015748031496
          },
          {
            "duration": 0.03488372093023351,
            "durationTicks": 3,
            "midi": 94,
            "name": "A#6",
            "ticks": 1305,
            "time": 15.174418604651162,
            "velocity": 0.09448818897637795
          },
          {
            "duration": 0.11627906976744207,
            "durationTicks": 10,
            "midi": 96,
            "name": "C7",
            "ticks": 1305,
            "time": 15.174418604651162,
            "velocity": 0.14960629921259844
          },
          {
            "duration": 0.23255813953488413,
            "durationTicks": 20,
            "midi": 99,
            "name": "D#7",
            "ticks": 1306,
            "time": 15.186046511627907,
            "velocity": 0.15748031496062992
          },
          {
            "duration": 0.05813953488372192,
            "durationTicks": 5,
            "midi": 91,
            "name": "G6",
            "ticks": 1309,
            "time": 15.220930232558139,
            "velocity": 0.09448818897637795
          },
          {
            "duration": 0.13953488372093048,
            "durationTicks": 12,
            "midi": 97,
            "name": "C#7",
            "ticks": 1309,
            "time": 15.220930232558139,
            "velocity": 0.1968503937007874
          },
          {
            "duration": 0.058139534883720145,
            "durationTicks": 5,
            "midi": 86,
            "name": "D6",
            "ticks": 1310,
            "time": 15.232558139534884,
            "velocity": 0.11023622047244094
          },
          {
            "duration": 0.03488372093023351,
            "durationTicks": 3,
            "midi": 95,
            "name": "B6",
            "ticks": 1311,
            "time": 15.244186046511627,
            "velocity": 0.10236220472440945
          },
          {
            "duration": 0.04651162790697683,
            "durationTicks": 4,
            "midi": 102,
            "name": "F#7",
            "ticks": 1311,
            "time": 15.244186046511627,
            "velocity": 0.09448818897637795
          },
          {
            "duration": 0.03488372093023173,
            "durationTicks": 3,
            "midi": 80,
            "name": "G#5",
            "ticks": 1314,
            "time": 15.279069767441861,
            "velocity": 0.12598425196850394
          },
          {
            "duration": 0.06976744186046524,
            "durationTicks": 6,
            "midi": 88,
            "name": "E6",
            "ticks": 1314,
            "time": 15.279069767441861,
            "velocity": 0.10236220472440945
          },
          {
            "duration": 0.04651162790697683,
            "durationTicks": 4,
            "midi": 95,
            "name": "B6",
            "ticks": 1315,
            "time": 15.290697674418604,
            "velocity": 0.10236220472440945
          },
          {
            "duration": 0.03488372093023351,
            "durationTicks": 3,
            "midi": 103,
            "name": "G7",
            "ticks": 1315,
            "time": 15.290697674418604,
            "velocity": 0.13385826771653545
          },
          {
            "duration": 0.19767441860465063,
            "durationTicks": 17,
            "midi": 101,
            "name": "F7",
            "ticks": 1317,
            "time": 15.313953488372093,
            "velocity": 0.13385826771653545
          },
          {
            "duration": 0.03488372093023351,
            "durationTicks": 3,
            "midi": 94,
            "name": "A#6",
            "ticks": 1319,
            "time": 15.337209302325581,
            "velocity": 0.11811023622047244
          },
          {
            "duration": 0.03488372093023173,
            "durationTicks": 3,
            "midi": 72,
            "name": "C5",
            "ticks": 1320,
            "time": 15.348837209302326,
            "velocity": 0.11811023622047244
          },
          {
            "duration": 0.03488372093023173,
            "durationTicks": 3,
            "midi": 96,
            "name": "C7",
            "ticks": 1320,
            "time": 15.348837209302326,
            "velocity": 0.12598425196850394
          },
          {
            "duration": 0.06976744186046524,
            "durationTicks": 6,
            "midi": 88,
            "name": "E6",
            "ticks": 1321,
            "time": 15.36046511627907,
            "velocity": 0.12598425196850394
          },
          {
            "duration": 0.03488372093023173,
            "durationTicks": 3,
            "midi": 79,
            "name": "G5",
            "ticks": 1322,
            "time": 15.372093023255815,
            "velocity": 0.11023622047244094
          },
          {
            "duration": 0.18604651162790553,
            "durationTicks": 16,
            "midi": 92,
            "name": "G#6",
            "ticks": 1322,
            "time": 15.372093023255815,
            "velocity": 0.10236220472440945
          },
          {
            "duration": 0.11627906976744207,
            "durationTicks": 10,
            "midi": 102,
            "name": "F#7",
            "ticks": 1322,
            "time": 15.372093023255815,
            "velocity": 0.11811023622047244
          },
          {
            "duration": 0.1511627906976738,
            "durationTicks": 13,
            "midi": 103,
            "name": "G7",
            "ticks": 1323,
            "time": 15.383720930232558,
            "velocity": 0.11811023622047244
          },
          {
            "duration": 0.058139534883720145,
            "durationTicks": 5,
            "midi": 100,
            "name": "E7",
            "ticks": 1324,
            "time": 15.395348837209303,
            "velocity": 0.12598425196850394
          },
          {
            "duration": 0.03488372093023351,
            "durationTicks": 3,
            "midi": 83,
            "name": "B5",
            "ticks": 1327,
            "time": 15.430232558139535,
            "velocity": 0.09448818897637795
          },
          {
            "duration": 0.04651162790697683,
            "durationTicks": 4,
            "midi": 86,
            "name": "D6",
            "ticks": 1327,
            "time": 15.430232558139535,
            "velocity": 0.14173228346456693
          },
          {
            "duration": 0.03488372093023351,
            "durationTicks": 3,
            "midi": 87,
            "name": "D#6",
            "ticks": 1327,
            "time": 15.430232558139535,
            "velocity": 0.12598425196850394
          },
          {
            "duration": 0.03488372093023351,
            "durationTicks": 3,
            "midi": 88,
            "name": "E6",
            "ticks": 1329,
            "time": 15.453488372093023,
            "velocity": 0.14173228346456693
          },
          {
            "duration": 0.06976744186046346,
            "durationTicks": 6,
            "midi": 93,
            "name": "A6",
            "ticks": 1330,
            "time": 15.465116279069768,
            "velocity": 0.11023622047244094
          },
          {
            "duration": 0.04651162790697505,
            "durationTicks": 4,
            "midi": 90,
            "name": "F#6",
            "ticks": 1332,
            "time": 15.488372093023257,
            "velocity": 0.10236220472440945
          },
          {
            "duration": 0.058139534883720145,
            "durationTicks": 5,
            "midi": 94,
            "name": "A#6",
            "ticks": 1332,
            "time": 15.488372093023257,
            "velocity": 0.11811023622047244
          },
          {
            "duration": 0.04651162790697683,
            "durationTicks": 4,
            "midi": 84,
            "name": "C6",
            "ticks": 1333,
            "time": 15.5,
            "velocity": 0.09448818897637795
          },
          {
            "duration": 0.20930232558139572,
            "durationTicks": 18,
            "midi": 102,
            "name": "F#7",
            "ticks": 1333,
            "time": 15.5,
            "velocity": 0.16535433070866143
          },
          {
            "duration": 0.06976744186046524,
            "durationTicks": 6,
            "midi": 88,
            "name": "E6",
            "ticks": 1334,
            "time": 15.511627906976743,
            "velocity": 0.07874015748031496
          },
          {
            "duration": 0.09302325581395365,
            "durationTicks": 8,
            "midi": 97,
            "name": "C#7",
            "ticks": 1334,
            "time": 15.511627906976743,
            "velocity": 0.14960629921259844
          },
          {
            "duration": 0.12790697674418716,
            "durationTicks": 11,
            "midi": 98,
            "name": "D7",
            "ticks": 1334,
            "time": 15.511627906976743,
            "velocity": 0.13385826771653545
          },
          {
            "duration": 0.27906976744186096,
            "durationTicks": 24,
            "midi": 100,
            "name": "E7",
            "ticks": 1334,
            "time": 15.511627906976743,
            "velocity": 0.15748031496062992
          },
          {
            "duration": 0.03488372093023173,
            "durationTicks": 3,
            "midi": 76,
            "name": "E5",
            "ticks": 1335,
            "time": 15.523255813953488,
            "velocity": 0.08661417322834646
          },
          {
            "duration": 0.13953488372093048,
            "durationTicks": 12,
            "midi": 101,
            "name": "F7",
            "ticks": 1335,
            "time": 15.523255813953488,
            "velocity": 0.11811023622047244
          },
          {
            "duration": 0.09302325581395365,
            "durationTicks": 8,
            "midi": 99,
            "name": "D#7",
            "ticks": 1337,
            "time": 15.546511627906977,
            "velocity": 0.11023622047244094
          },
          {
            "duration": 0.03488372093023173,
            "durationTicks": 3,
            "midi": 79,
            "name": "G5",
            "ticks": 1339,
            "time": 15.569767441860465,
            "velocity": 0.09448818897637795
          },
          {
            "duration": 0.03488372093023351,
            "durationTicks": 3,
            "midi": 91,
            "name": "G6",
            "ticks": 1340,
            "time": 15.581395348837209,
            "velocity": 0.10236220472440945
          },
          {
            "duration": 0.04651162790697683,
            "durationTicks": 4,
            "midi": 82,
            "name": "A#5",
            "ticks": 1341,
            "time": 15.593023255813954,
            "velocity": 0.12598425196850394
          },
          {
            "duration": 0.12790697674418539,
            "durationTicks": 11,
            "midi": 95,
            "name": "B6",
            "ticks": 1341,
            "time": 15.593023255813954,
            "velocity": 0.13385826771653545
          },
          {
            "duration": 0.11627906976744207,
            "durationTicks": 10,
            "midi": 96,
            "name": "C7",
            "ticks": 1341,
            "time": 15.593023255813954,
            "velocity": 0.08661417322834646
          },
          {
            "duration": 0.04651162790697683,
            "durationTicks": 4,
            "midi": 80,
            "name": "G#5",
            "ticks": 1342,
            "time": 15.604651162790697,
            "velocity": 0.08661417322834646
          },
          {
            "duration": 0.06976744186046524,
            "durationTicks": 6,
            "midi": 85,
            "name": "C#6",
            "ticks": 1344,
            "time": 15.627906976744185,
            "velocity": 0.07086614173228346
          },
          {
            "duration": 0.03488372093023351,
            "durationTicks": 3,
            "midi": 89,
            "name": "F6",
            "ticks": 1344,
            "time": 15.627906976744185,
            "velocity": 0.11811023622047244
          },
          {
            "duration": 0.058139534883720145,
            "durationTicks": 5,
            "midi": 90,
            "name": "F#6",
            "ticks": 1345,
            "time": 15.63953488372093,
            "velocity": 0.08661417322834646
          },
          {
            "duration": 0.09302325581395365,
            "durationTicks": 8,
            "midi": 93,
            "name": "A6",
            "ticks": 1345,
            "time": 15.63953488372093,
            "velocity": 0.15748031496062992
          },
          {
            "duration": 0.04651162790697683,
            "durationTicks": 4,
            "midi": 103,
            "name": "G7",
            "ticks": 1346,
            "time": 15.651162790697674,
            "velocity": 0.07874015748031496
          },
          {
            "duration": 0.058139534883720145,
            "durationTicks": 5,
            "midi": 99,
            "name": "D#7",
            "ticks": 1347,
            "time": 15.662790697674419,
            "velocity": 0.11023622047244094
          },
          {
            "duration": 0.06976744186046524,
            "durationTicks": 6,
            "midi": 92,
            "name": "G#6",
            "ticks": 1348,
            "time": 15.674418604651162,
            "velocity": 0.11811023622047244
          },
          {
            "duration": 0.13953488372093048,
            "durationTicks": 12,
            "midi": 97,
            "name": "C#7",
            "ticks": 1349,
            "time": 15.686046511627907,
            "velocity": 0.13385826771653545
          },
          {
            "duration": 0.03488372093023173,
            "durationTicks": 3,
            "midi": 77,
            "name": "F5",
            "ticks": 1351,
            "time": 15.709302325581396,
            "velocity": 0.15748031496062992
          },
          {
            "duration": 0.03488372093023173,
            "durationTicks": 3,
            "midi": 87,
            "name": "D#6",
            "ticks": 1351,
            "time": 15.709302325581396,
            "velocity": 0.11811023622047244
          },
          {
            "duration": 0.03488372093023173,
            "durationTicks": 3,
            "midi": 101,
            "name": "F7",
            "ticks": 1351,
            "time": 15.709302325581396,
            "velocity": 0.08661417322834646
          },
          {
            "duration": 0.06976744186046524,
            "durationTicks": 6,
            "midi": 85,
            "name": "C#6",
            "ticks": 1352,
            "time": 15.720930232558139,
            "velocity": 0.09448818897637795
          },
          {
            "duration": 0.058139534883720145,
            "durationTicks": 5,
            "midi": 94,
            "name": "A#6",
            "ticks": 1353,
            "time": 15.732558139534884,
            "velocity": 0.10236220472440945
          },
          {
            "duration": 0.09302325581395365,
            "durationTicks": 8,
            "midi": 99,
            "name": "D#7",
            "ticks": 1353,
            "time": 15.732558139534884,
            "velocity": 0.15748031496062992
          },
          {
            "duration": 0.04651162790697683,
            "durationTicks": 4,
            "midi": 96,
            "name": "C7",
            "ticks": 1354,
            "time": 15.744186046511627,
            "velocity": 0.10236220472440945
          },
          {
            "duration": 0.03488372093023173,
            "durationTicks": 3,
            "midi": 93,
            "name": "A6",
            "ticks": 1355,
            "time": 15.755813953488373,
            "velocity": 0.09448818897637795
          },
          {
            "duration": 0.12790697674418539,
            "durationTicks": 11,
            "midi": 102,
            "name": "F#7",
            "ticks": 1355,
            "time": 15.755813953488373,
            "velocity": 0.14173228346456693
          },
          {
            "duration": 0.06976744186046524,
            "durationTicks": 6,
            "midi": 83,
            "name": "B5",
            "ticks": 1357,
            "time": 15.779069767441861,
            "velocity": 0.08661417322834646
          },
          {
            "duration": 0.08139534883720856,
            "durationTicks": 7,
            "midi": 101,
            "name": "F7",
            "ticks": 1357,
            "time": 15.779069767441861,
            "velocity": 0.12598425196850394
          },
          {
            "duration": 0.03488372093023351,
            "durationTicks": 3,
            "midi": 68,
            "name": "G#4",
            "ticks": 1358,
            "time": 15.790697674418604,
            "velocity": 0.10236220472440945
          },
          {
            "duration": 0.11627906976744207,
            "durationTicks": 10,
            "midi": 98,
            "name": "D7",
            "ticks": 1358,
            "time": 15.790697674418604,
            "velocity": 0.11023622047244094
          },
          {
            "duration": 0.04651162790697683,
            "durationTicks": 4,
            "midi": 96,
            "name": "C7",
            "ticks": 1359,
            "time": 15.80232558139535,
            "velocity": 0.11811023622047244
          },
          {
            "duration": 0.03488372093023351,
            "durationTicks": 3,
            "midi": 71,
            "name": "B4",
            "ticks": 1360,
            "time": 15.813953488372093,
            "velocity": 0.09448818897637795
          },
          {
            "duration": 0.23255813953488413,
            "durationTicks": 20,
            "midi": 100,
            "name": "E7",
            "ticks": 1361,
            "time": 15.825581395348838,
            "velocity": 0.1889763779527559
          },
          {
            "duration": 0.10465116279069697,
            "durationTicks": 9,
            "midi": 103,
            "name": "G7",
            "ticks": 1361,
            "time": 15.825581395348838,
            "velocity": 0.11811023622047244
          },
          {
            "duration": 0.058139534883720145,
            "durationTicks": 5,
            "midi": 97,
            "name": "C#7",
            "ticks": 1363,
            "time": 15.848837209302326,
            "velocity": 0.13385826771653545
          },
          {
            "duration": 0.08139534883720856,
            "durationTicks": 7,
            "midi": 99,
            "name": "D#7",
            "ticks": 1363,
            "time": 15.848837209302326,
            "velocity": 0.09448818897637795
          },
          {
            "duration": 0.11627906976744207,
            "durationTicks": 10,
            "midi": 88,
            "name": "E6",
            "ticks": 1364,
            "time": 15.86046511627907,
            "velocity": 0.11811023622047244
          },
          {
            "duration": 0.04651162790697683,
            "durationTicks": 4,
            "midi": 95,
            "name": "B6",
            "ticks": 1364,
            "time": 15.86046511627907,
            "velocity": 0.07874015748031496
          },
          {
            "duration": 0.03488372093023173,
            "durationTicks": 3,
            "midi": 78,
            "name": "F#5",
            "ticks": 1365,
            "time": 15.872093023255815,
            "velocity": 0.11023622047244094
          },
          {
            "duration": 0.2790697674418592,
            "durationTicks": 24,
            "midi": 92,
            "name": "G#6",
            "ticks": 1366,
            "time": 15.883720930232558,
            "velocity": 0.14960629921259844
          },
          {
            "duration": 0.17441860465116044,
            "durationTicks": 15,
            "midi": 91,
            "name": "G6",
            "ticks": 1367,
            "time": 15.895348837209303,
            "velocity": 0.11811023622047244
          },
          {
            "duration": 0.11627906976744207,
            "durationTicks": 10,
            "midi": 96,
            "name": "C7",
            "ticks": 1367,
            "time": 15.895348837209303,
            "velocity": 0.16535433070866143
          },
          {
            "duration": 0.03488372093023351,
            "durationTicks": 3,
            "midi": 89,
            "name": "F6",
            "ticks": 1370,
            "time": 15.930232558139535,
            "velocity": 0.12598425196850394
          },
          {
            "duration": 0.08139534883720856,
            "durationTicks": 7,
            "midi": 98,
            "name": "D7",
            "ticks": 1372,
            "time": 15.953488372093023,
            "velocity": 0.10236220472440945
          },
          {
            "duration": 0.03488372093023173,
            "durationTicks": 3,
            "midi": 94,
            "name": "A#6",
            "ticks": 1373,
            "time": 15.965116279069768,
            "velocity": 0.13385826771653545
          },
          {
            "duration": 0.03488372093023173,
            "durationTicks": 3,
            "midi": 99,
            "name": "D#7",
            "ticks": 1373,
            "time": 15.965116279069768,
            "velocity": 0.10236220472440945
          },
          {
            "duration": 0.13953488372093048,
            "durationTicks": 12,
            "midi": 101,
            "name": "F7",
            "ticks": 1373,
            "time": 15.965116279069768,
            "velocity": 0.11811023622047244
          },
          {
            "duration": 0.058139534883720145,
            "durationTicks": 5,
            "midi": 87,
            "name": "D#6",
            "ticks": 1374,
            "time": 15.976744186046512,
            "velocity": 0.07086614173228346
          },
          {
            "duration": 0.09302325581395365,
            "durationTicks": 8,
            "midi": 93,
            "name": "A6",
            "ticks": 1376,
            "time": 16,
            "velocity": 0.10236220472440945
          },
          {
            "duration": 0.1860465116279073,
            "durationTicks": 16,
            "midi": 95,
            "name": "B6",
            "ticks": 1376,
            "time": 16,
            "velocity": 0.12598425196850394
          },
          {
            "duration": 0.03488372093023173,
            "durationTicks": 3,
            "midi": 102,
            "name": "F#7",
            "ticks": 1376,
            "time": 16,
            "velocity": 0.11023622047244094
          },
          {
            "duration": 0.03488372093023173,
            "durationTicks": 3,
            "midi": 74,
            "name": "D5",
            "ticks": 1377,
            "time": 16.011627906976745,
            "velocity": 0.07874015748031496
          },
          {
            "duration": 0.034883720930235285,
            "durationTicks": 3,
            "midi": 81,
            "name": "A5",
            "ticks": 1378,
            "time": 16.023255813953487,
            "velocity": 0.09448818897637795
          },
          {
            "duration": 0.17441860465116577,
            "durationTicks": 15,
            "midi": 83,
            "name": "B5",
            "ticks": 1378,
            "time": 16.023255813953487,
            "velocity": 0.16535433070866143
          },
          {
            "duration": 0.12790697674418894,
            "durationTicks": 11,
            "midi": 86,
            "name": "D6",
            "ticks": 1378,
            "time": 16.023255813953487,
            "velocity": 0.13385826771653545
          },
          {
            "duration": 0.06976744186046702,
            "durationTicks": 6,
            "midi": 99,
            "name": "D#7",
            "ticks": 1379,
            "time": 16.03488372093023,
            "velocity": 0.09448818897637795
          },
          {
            "duration": 0.03488372093023173,
            "durationTicks": 3,
            "midi": 87,
            "name": "D#6",
            "ticks": 1381,
            "time": 16.058139534883722,
            "velocity": 0.11811023622047244
          },
          {
            "duration": 0.15116279069767202,
            "durationTicks": 13,
            "midi": 102,
            "name": "F#7",
            "ticks": 1381,
            "time": 16.058139534883722,
            "velocity": 0.12598425196850394
          },
          {
            "duration": 0.11627906976744384,
            "durationTicks": 10,
            "midi": 94,
            "name": "A#6",
            "ticks": 1382,
            "time": 16.069767441860463,
            "velocity": 0.14960629921259844
          },
          {
            "duration": 0.11627906976744029,
            "durationTicks": 10,
            "midi": 97,
            "name": "C#7",
            "ticks": 1385,
            "time": 16.1046511627907,
            "velocity": 0.14960629921259844
          },
          {
            "duration": 0.03488372093023173,
            "durationTicks": 3,
            "midi": 100,
            "name": "E7",
            "ticks": 1385,
            "time": 16.1046511627907,
            "velocity": 0.13385826771653545
          },
          {
            "duration": 0.08139534883721211,
            "durationTicks": 7,
            "midi": 103,
            "name": "G7",
            "ticks": 1386,
            "time": 16.11627906976744,
            "velocity": 0.14173228346456693
          },
          {
            "duration": 0.03488372093023173,
            "durationTicks": 3,
            "midi": 89,
            "name": "F6",
            "ticks": 1387,
            "time": 16.127906976744185,
            "velocity": 0.07086614173228346
          },
          {
            "duration": 0.03488372093023173,
            "durationTicks": 3,
            "midi": 73,
            "name": "C#5",
            "ticks": 1389,
            "time": 16.151162790697676,
            "velocity": 0.07086614173228346
          },
          {
            "duration": 0.05813953488371837,
            "durationTicks": 5,
            "midi": 100,
            "name": "E7",
            "ticks": 1389,
            "time": 16.151162790697676,
            "velocity": 0.13385826771653545
          },
          {
            "duration": 0.05813953488372192,
            "durationTicks": 5,
            "midi": 88,
            "name": "E6",
            "ticks": 1390,
            "time": 16.162790697674417,
            "velocity": 0.4330708661417323
          },
          {
            "duration": 0.04651162790697683,
            "durationTicks": 4,
            "midi": 98,
            "name": "D7",
            "ticks": 1390,
            "time": 16.162790697674417,
            "velocity": 0.12598425196850394
          },
          {
            "duration": 0.034883720930235285,
            "durationTicks": 3,
            "midi": 99,
            "name": "D#7",
            "ticks": 1390,
            "time": 16.162790697674417,
            "velocity": 0.13385826771653545
          },
          {
            "duration": 0.05813953488372192,
            "durationTicks": 5,
            "midi": 85,
            "name": "C#6",
            "ticks": 1394,
            "time": 16.209302325581394,
            "velocity": 0.16535433070866143
          },
          {
            "duration": 0.04651162790697683,
            "durationTicks": 4,
            "midi": 76,
            "name": "E5",
            "ticks": 1395,
            "time": 16.22093023255814,
            "velocity": 0.11811023622047244
          },
          {
            "duration": 0.08139534883720856,
            "durationTicks": 7,
            "midi": 78,
            "name": "F#5",
            "ticks": 1395,
            "time": 16.22093023255814,
            "velocity": 0.14173228346456693
          },
          {
            "duration": 0.12790697674418539,
            "durationTicks": 11,
            "midi": 87,
            "name": "D#6",
            "ticks": 1395,
            "time": 16.22093023255814,
            "velocity": 0.25984251968503935
          },
          {
            "duration": 0.04651162790697683,
            "durationTicks": 4,
            "midi": 89,
            "name": "F6",
            "ticks": 1395,
            "time": 16.22093023255814,
            "velocity": 0.25984251968503935
          },
          {
            "duration": 0.03488372093023173,
            "durationTicks": 3,
            "midi": 71,
            "name": "B4",
            "ticks": 1396,
            "time": 16.232558139534884,
            "velocity": 0.2047244094488189
          },
          {
            "duration": 0.06976744186046346,
            "durationTicks": 6,
            "midi": 80,
            "name": "G#5",
            "ticks": 1396,
            "time": 16.232558139534884,
            "velocity": 0.2204724409448819
          },
          {
            "duration": 0.034883720930235285,
            "durationTicks": 3,
            "midi": 61,
            "name": "C#4",
            "ticks": 1398,
            "time": 16.25581395348837,
            "velocity": 0.14960629921259844
          },
          {
            "duration": 0.09302325581395365,
            "durationTicks": 8,
            "midi": 90,
            "name": "F#6",
            "ticks": 1398,
            "time": 16.25581395348837,
            "velocity": 0.14960629921259844
          },
          {
            "duration": 0.08139534883721211,
            "durationTicks": 7,
            "midi": 94,
            "name": "A#6",
            "ticks": 1398,
            "time": 16.25581395348837,
            "velocity": 0.12598425196850394
          },
          {
            "duration": 0.03488372093023173,
            "durationTicks": 3,
            "midi": 68,
            "name": "G#4",
            "ticks": 1399,
            "time": 16.267441860465116,
            "velocity": 0.1968503937007874
          },
          {
            "duration": 0.08139534883720856,
            "durationTicks": 7,
            "midi": 75,
            "name": "D#5",
            "ticks": 1399,
            "time": 16.267441860465116,
            "velocity": 0.1968503937007874
          },
          {
            "duration": 0.15116279069767558,
            "durationTicks": 13,
            "midi": 84,
            "name": "C6",
            "ticks": 1399,
            "time": 16.267441860465116,
            "velocity": 0.2047244094488189
          },
          {
            "duration": 0.03488372093023173,
            "durationTicks": 3,
            "midi": 56,
            "name": "G#3",
            "ticks": 1400,
            "time": 16.27906976744186,
            "velocity": 0.1968503937007874
          },
          {
            "duration": 0.03488372093023173,
            "durationTicks": 3,
            "midi": 89,
            "name": "F6",
            "ticks": 1401,
            "time": 16.290697674418606,
            "velocity": 0.13385826771653545
          },
          {
            "duration": 0.03488372093023173,
            "durationTicks": 3,
            "midi": 80,
            "name": "G#5",
            "ticks": 1403,
            "time": 16.313953488372093,
            "velocity": 0.16535433070866143
          },
          {
            "duration": 0.04651162790697683,
            "durationTicks": 4,
            "midi": 86,
            "name": "D6",
            "ticks": 1403,
            "time": 16.313953488372093,
            "velocity": 0.13385826771653545
          },
          {
            "duration": 0.04651162790697683,
            "durationTicks": 4,
            "midi": 91,
            "name": "G6",
            "ticks": 1404,
            "time": 16.325581395348838,
            "velocity": 0.08661417322834646
          },
          {
            "duration": 0.03488372093023173,
            "durationTicks": 3,
            "midi": 93,
            "name": "A6",
            "ticks": 1404,
            "time": 16.325581395348838,
            "velocity": 0.14960629921259844
          },
          {
            "duration": 0.04651162790697683,
            "durationTicks": 4,
            "midi": 77,
            "name": "F5",
            "ticks": 1405,
            "time": 16.337209302325583,
            "velocity": 0.14960629921259844
          },
          {
            "duration": 0.04651162790697683,
            "durationTicks": 4,
            "midi": 81,
            "name": "A5",
            "ticks": 1405,
            "time": 16.337209302325583,
            "velocity": 0.09448818897637795
          },
          {
            "duration": 0.034883720930235285,
            "durationTicks": 3,
            "midi": 88,
            "name": "E6",
            "ticks": 1406,
            "time": 16.348837209302324,
            "velocity": 0.14173228346456693
          },
          {
            "duration": 0.03488372093023173,
            "durationTicks": 3,
            "midi": 87,
            "name": "D#6",
            "ticks": 1407,
            "time": 16.36046511627907,
            "velocity": 0.07874015748031496
          },
          {
            "duration": 0.03488372093023173,
            "durationTicks": 3,
            "midi": 83,
            "name": "B5",
            "ticks": 1408,
            "time": 16.372093023255815,
            "velocity": 0.13385826771653545
          },
          {
            "duration": 0.03488372093023173,
            "durationTicks": 3,
            "midi": 74,
            "name": "D5",
            "ticks": 1409,
            "time": 16.38372093023256,
            "velocity": 0.16535433070866143
          },
          {
            "duration": 0.08139534883720856,
            "durationTicks": 7,
            "midi": 90,
            "name": "F#6",
            "ticks": 1409,
            "time": 16.38372093023256,
            "velocity": 0.13385826771653545
          },
          {
            "duration": 0.05813953488371837,
            "durationTicks": 5,
            "midi": 94,
            "name": "A#6",
            "ticks": 1409,
            "time": 16.38372093023256,
            "velocity": 0.10236220472440945
          },
          {
            "duration": 0.04651162790697683,
            "durationTicks": 4,
            "midi": 95,
            "name": "B6",
            "ticks": 1409,
            "time": 16.38372093023256,
            "velocity": 0.16535433070866143
          },
          {
            "duration": 0.06976744186046346,
            "durationTicks": 6,
            "midi": 99,
            "name": "D#7",
            "ticks": 1409,
            "time": 16.38372093023256,
            "velocity": 0.14173228346456693
          },
          {
            "duration": 0.034883720930235285,
            "durationTicks": 3,
            "midi": 73,
            "name": "C#5",
            "ticks": 1410,
            "time": 16.3953488372093,
            "velocity": 0.13385826771653545
          },
          {
            "duration": 0.04651162790697683,
            "durationTicks": 4,
            "midi": 78,
            "name": "F#5",
            "ticks": 1410,
            "time": 16.3953488372093,
            "velocity": 0.11811023622047244
          },
          {
            "duration": 0.03488372093023173,
            "durationTicks": 3,
            "midi": 70,
            "name": "A#4",
            "ticks": 1411,
            "time": 16.406976744186046,
            "velocity": 0.12598425196850394
          },
          {
            "duration": 0.15116279069767558,
            "durationTicks": 13,
            "midi": 89,
            "name": "F6",
            "ticks": 1411,
            "time": 16.406976744186046,
            "velocity": 0.14173228346456693
          },
          {
            "duration": 0.04651162790697683,
            "durationTicks": 4,
            "midi": 92,
            "name": "G#6",
            "ticks": 1411,
            "time": 16.406976744186046,
            "velocity": 0.12598425196850394
          },
          {
            "duration": 0.06976744186046346,
            "durationTicks": 6,
            "midi": 81,
            "name": "A5",
            "ticks": 1412,
            "time": 16.41860465116279,
            "velocity": 0.13385826771653545
          },
          {
            "duration": 0.1046511627906952,
            "durationTicks": 9,
            "midi": 91,
            "name": "G6",
            "ticks": 1412,
            "time": 16.41860465116279,
            "velocity": 0.15748031496062992
          },
          {
            "duration": 0.03488372093023173,
            "durationTicks": 3,
            "midi": 97,
            "name": "C#7",
            "ticks": 1413,
            "time": 16.430232558139537,
            "velocity": 0.10236220472440945
          },
          {
            "duration": 0.034883720930235285,
            "durationTicks": 3,
            "midi": 53,
            "name": "F3",
            "ticks": 1414,
            "time": 16.441860465116278,
            "velocity": 0.14173228346456693
          },
          {
            "duration": 0.034883720930235285,
            "durationTicks": 3,
            "midi": 76,
            "name": "E5",
            "ticks": 1414,
            "time": 16.441860465116278,
            "velocity": 0.18110236220472442
          },
          {
            "duration": 0.06976744186046702,
            "durationTicks": 6,
            "midi": 79,
            "name": "G5",
            "ticks": 1414,
            "time": 16.441860465116278,
            "velocity": 0.14173228346456693
          },
          {
            "duration": 0.03488372093023173,
            "durationTicks": 3,
            "midi": 45,
            "name": "A2",
            "ticks": 1415,
            "time": 16.453488372093023,
            "velocity": 0.16535433070866143
          },
          {
            "duration": 0.05813953488372192,
            "durationTicks": 5,
            "midi": 61,
            "name": "C#4",
            "ticks": 1415,
            "time": 16.453488372093023,
            "velocity": 0.16535433070866143
          },
          {
            "duration": 0.03488372093023173,
            "durationTicks": 3,
            "midi": 77,
            "name": "F5",
            "ticks": 1416,
            "time": 16.46511627906977,
            "velocity": 0.09448818897637795
          },
          {
            "duration": 0.1046511627906952,
            "durationTicks": 9,
            "midi": 94,
            "name": "A#6",
            "ticks": 1416,
            "time": 16.46511627906977,
            "velocity": 0.08661417322834646
          },
          {
            "duration": 0.05813953488371837,
            "durationTicks": 5,
            "midi": 71,
            "name": "B4",
            "ticks": 1417,
            "time": 16.476744186046513,
            "velocity": 0.1732283464566929
          },
          {
            "duration": 0.03488372093023173,
            "durationTicks": 3,
            "midi": 84,
            "name": "C6",
            "ticks": 1418,
            "time": 16.488372093023255,
            "velocity": 0.13385826771653545
          },
          {
            "duration": 0.13953488372093048,
            "durationTicks": 12,
            "midi": 95,
            "name": "B6",
            "ticks": 1418,
            "time": 16.488372093023255,
            "velocity": 0.10236220472440945
          },
          {
            "duration": 0.04651162790697683,
            "durationTicks": 4,
            "midi": 87,
            "name": "D#6",
            "ticks": 1419,
            "time": 16.5,
            "velocity": 0.13385826771653545
          },
          {
            "duration": 0.05813953488372192,
            "durationTicks": 5,
            "midi": 90,
            "name": "F#6",
            "ticks": 1419,
            "time": 16.5,
            "velocity": 0.13385826771653545
          },
          {
            "duration": 0.10465116279069875,
            "durationTicks": 9,
            "midi": 98,
            "name": "D7",
            "ticks": 1419,
            "time": 16.5,
            "velocity": 0.10236220472440945
          },
          {
            "duration": 0.03488372093023173,
            "durationTicks": 3,
            "midi": 100,
            "name": "E7",
            "ticks": 1420,
            "time": 16.511627906976745,
            "velocity": 0.11811023622047244
          },
          {
            "duration": 0.11627906976744384,
            "durationTicks": 10,
            "midi": 85,
            "name": "C#6",
            "ticks": 1421,
            "time": 16.523255813953487,
            "velocity": 0.14173228346456693
          },
          {
            "duration": 0.05813953488372192,
            "durationTicks": 5,
            "midi": 88,
            "name": "E6",
            "ticks": 1421,
            "time": 16.523255813953487,
            "velocity": 0.11811023622047244
          },
          {
            "duration": 0.03488372093023173,
            "durationTicks": 3,
            "midi": 63,
            "name": "D#4",
            "ticks": 1422,
            "time": 16.53488372093023,
            "velocity": 0.1732283464566929
          },
          {
            "duration": 0.05813953488372192,
            "durationTicks": 5,
            "midi": 76,
            "name": "E5",
            "ticks": 1422,
            "time": 16.53488372093023,
            "velocity": 0.14960629921259844
          },
          {
            "duration": 0.04651162790697683,
            "durationTicks": 4,
            "midi": 86,
            "name": "D6",
            "ticks": 1422,
            "time": 16.53488372093023,
            "velocity": 0.09448818897637795
          },
          {
            "duration": 0.06976744186046346,
            "durationTicks": 6,
            "midi": 92,
            "name": "G#6",
            "ticks": 1423,
            "time": 16.546511627906977,
            "velocity": 0.12598425196850394
          },
          {
            "duration": 0.03488372093023173,
            "durationTicks": 3,
            "midi": 68,
            "name": "G#4",
            "ticks": 1424,
            "time": 16.558139534883722,
            "velocity": 0.13385826771653545
          },
          {
            "duration": 0.06976744186046346,
            "durationTicks": 6,
            "midi": 87,
            "name": "D#6",
            "ticks": 1424,
            "time": 16.558139534883722,
            "velocity": 0.11023622047244094
          },
          {
            "duration": 0.034883720930235285,
            "durationTicks": 3,
            "midi": 71,
            "name": "B4",
            "ticks": 1425,
            "time": 16.569767441860463,
            "velocity": 0.10236220472440945
          },
          {
            "duration": 0.04651162790697683,
            "durationTicks": 4,
            "midi": 77,
            "name": "F5",
            "ticks": 1425,
            "time": 16.569767441860463,
            "velocity": 0.07086614173228346
          },
          {
            "duration": 0.27906976744186096,
            "durationTicks": 24,
            "midi": 94,
            "name": "A#6",
            "ticks": 1426,
            "time": 16.58139534883721,
            "velocity": 0.13385826771653545
          },
          {
            "duration": 0.13953488372093048,
            "durationTicks": 12,
            "midi": 101,
            "name": "F7",
            "ticks": 1426,
            "time": 16.58139534883721,
            "velocity": 0.08661417322834646
          },
          {
            "duration": 0.04651162790697683,
            "durationTicks": 4,
            "midi": 91,
            "name": "G6",
            "ticks": 1427,
            "time": 16.593023255813954,
            "velocity": 0.11811023622047244
          },
          {
            "duration": 0.03488372093023173,
            "durationTicks": 3,
            "midi": 80,
            "name": "G#5",
            "ticks": 1428,
            "time": 16.6046511627907,
            "velocity": 0.10236220472440945
          },
          {
            "duration": 0.03488372093023173,
            "durationTicks": 3,
            "midi": 81,
            "name": "A5",
            "ticks": 1428,
            "time": 16.6046511627907,
            "velocity": 0.10236220472440945
          },
          {
            "duration": 0.034883720930235285,
            "durationTicks": 3,
            "midi": 74,
            "name": "D5",
            "ticks": 1429,
            "time": 16.61627906976744,
            "velocity": 0.11811023622047244
          },
          {
            "duration": 0.04651162790697683,
            "durationTicks": 4,
            "midi": 88,
            "name": "E6",
            "ticks": 1429,
            "time": 16.61627906976744,
            "velocity": 0.11023622047244094
          },
          {
            "duration": 0.06976744186046702,
            "durationTicks": 6,
            "midi": 96,
            "name": "C7",
            "ticks": 1429,
            "time": 16.61627906976744,
            "velocity": 0.10236220472440945
          },
          {
            "duration": 0.04651162790697683,
            "durationTicks": 4,
            "midi": 52,
            "name": "E3",
            "ticks": 1430,
            "time": 16.627906976744185,
            "velocity": 0.09448818897637795
          },
          {
            "duration": 0.08139534883720856,
            "durationTicks": 7,
            "midi": 90,
            "name": "F#6",
            "ticks": 1430,
            "time": 16.627906976744185,
            "velocity": 0.10236220472440945
          },
          {
            "duration": 0.08139534883720856,
            "durationTicks": 7,
            "midi": 84,
            "name": "C6",
            "ticks": 1431,
            "time": 16.63953488372093,
            "velocity": 0.12598425196850394
          },
          {
            "duration": 0.04651162790697683,
            "durationTicks": 4,
            "midi": 92,
            "name": "G#6",
            "ticks": 1431,
            "time": 16.63953488372093,
            "velocity": 0.08661417322834646
          },
          {
            "duration": 0.06976744186046346,
            "durationTicks": 6,
            "midi": 98,
            "name": "D7",
            "ticks": 1431,
            "time": 16.63953488372093,
            "velocity": 0.12598425196850394
          },
          {
            "duration": 0.08139534883721211,
            "durationTicks": 7,
            "midi": 83,
            "name": "B5",
            "ticks": 1433,
            "time": 16.662790697674417,
            "velocity": 0.15748031496062992
          },
          {
            "duration": 0.11627906976744384,
            "durationTicks": 10,
            "midi": 99,
            "name": "D#7",
            "ticks": 1433,
            "time": 16.662790697674417,
            "velocity": 0.09448818897637795
          },
          {
            "duration": 0.04651162790697683,
            "durationTicks": 4,
            "midi": 63,
            "name": "D#4",
            "ticks": 1434,
            "time": 16.674418604651162,
            "velocity": 0.13385826771653545
          },
          {
            "duration": 0.04651162790697683,
            "durationTicks": 4,
            "midi": 80,
            "name": "G#5",
            "ticks": 1434,
            "time": 16.674418604651162,
            "velocity": 0.13385826771653545
          },
          {
            "duration": 0.03488372093023173,
            "durationTicks": 3,
            "midi": 86,
            "name": "D6",
            "ticks": 1434,
            "time": 16.674418604651162,
            "velocity": 0.15748031496062992
          },
          {
            "duration": 0.13953488372093048,
            "durationTicks": 12,
            "midi": 89,
            "name": "F6",
            "ticks": 1434,
            "time": 16.674418604651162,
            "velocity": 0.11023622047244094
          },
          {
            "duration": 0.04651162790697683,
            "durationTicks": 4,
            "midi": 88,
            "name": "E6",
            "ticks": 1435,
            "time": 16.686046511627907,
            "velocity": 0.07086614173228346
          },
          {
            "duration": 0.10465116279069875,
            "durationTicks": 9,
            "midi": 91,
            "name": "G6",
            "ticks": 1435,
            "time": 16.686046511627907,
            "velocity": 0.13385826771653545
          },
          {
            "duration": 0.034883720930235285,
            "durationTicks": 3,
            "midi": 76,
            "name": "E5",
            "ticks": 1437,
            "time": 16.709302325581394,
            "velocity": 0.12598425196850394
          },
          {
            "duration": 0.05813953488372192,
            "durationTicks": 5,
            "midi": 85,
            "name": "C#6",
            "ticks": 1437,
            "time": 16.709302325581394,
            "velocity": 0.10236220472440945
          },
          {
            "duration": 0.04651162790697683,
            "durationTicks": 4,
            "midi": 87,
            "name": "D#6",
            "ticks": 1437,
            "time": 16.709302325581394,
            "velocity": 0.11023622047244094
          },
          {
            "duration": 0.08139534883721211,
            "durationTicks": 7,
            "midi": 93,
            "name": "A6",
            "ticks": 1437,
            "time": 16.709302325581394,
            "velocity": 0.15748031496062992
          },
          {
            "duration": 0.03488372093023173,
            "durationTicks": 3,
            "midi": 73,
            "name": "C#5",
            "ticks": 1439,
            "time": 16.732558139534884,
            "velocity": 0.14173228346456693
          },
          {
            "duration": 0.03488372093023173,
            "durationTicks": 3,
            "midi": 78,
            "name": "F#5",
            "ticks": 1439,
            "time": 16.732558139534884,
            "velocity": 0.11023622047244094
          },
          {
            "duration": 0.05813953488372192,
            "durationTicks": 5,
            "midi": 86,
            "name": "D6",
            "ticks": 1439,
            "time": 16.732558139534884,
            "velocity": 0.12598425196850394
          },
          {
            "duration": 0.03488372093023173,
            "durationTicks": 3,
            "midi": 64,
            "name": "E4",
            "ticks": 1440,
            "time": 16.74418604651163,
            "velocity": 0.12598425196850394
          },
          {
            "duration": 0.03488372093023173,
            "durationTicks": 3,
            "midi": 75,
            "name": "D#5",
            "ticks": 1440,
            "time": 16.74418604651163,
            "velocity": 0.11811023622047244
          },
          {
            "duration": 0.03488372093023173,
            "durationTicks": 3,
            "midi": 96,
            "name": "C7",
            "ticks": 1440,
            "time": 16.74418604651163,
            "velocity": 0.10236220472440945
          },
          {
            "duration": 0.03488372093023173,
            "durationTicks": 3,
            "midi": 80,
            "name": "G#5",
            "ticks": 1442,
            "time": 16.767441860465116,
            "velocity": 0.10236220472440945
          },
          {
            "duration": 0.03488372093023173,
            "durationTicks": 3,
            "midi": 70,
            "name": "A#4",
            "ticks": 1443,
            "time": 16.77906976744186,
            "velocity": 0.07086614173228346
          },
          {
            "duration": 0.06976744186046346,
            "durationTicks": 6,
            "midi": 72,
            "name": "C5",
            "ticks": 1444,
            "time": 16.790697674418606,
            "velocity": 0.14960629921259844
          },
          {
            "duration": 0.03488372093023173,
            "durationTicks": 3,
            "midi": 81,
            "name": "A5",
            "ticks": 1444,
            "time": 16.790697674418606,
            "velocity": 0.07874015748031496
          },
          {
            "duration": 0.05813953488371837,
            "durationTicks": 5,
            "midi": 96,
            "name": "C7",
            "ticks": 1444,
            "time": 16.790697674418606,
            "velocity": 0.11023622047244094
          },
          {
            "duration": 0.034883720930235285,
            "durationTicks": 3,
            "midi": 74,
            "name": "D5",
            "ticks": 1445,
            "time": 16.802325581395348,
            "velocity": 0.18110236220472442
          },
          {
            "duration": 0.11627906976744384,
            "durationTicks": 10,
            "midi": 97,
            "name": "C#7",
            "ticks": 1445,
            "time": 16.802325581395348,
            "velocity": 0.10236220472440945
          },
          {
            "duration": 0.04651162790697683,
            "durationTicks": 4,
            "midi": 99,
            "name": "D#7",
            "ticks": 1445,
            "time": 16.802325581395348,
            "velocity": 0.07874015748031496
          },
          {
            "duration": 0.03488372093023173,
            "durationTicks": 3,
            "midi": 86,
            "name": "D6",
            "ticks": 1446,
            "time": 16.813953488372093,
            "velocity": 0.2047244094488189
          },
          {
            "duration": 0.06976744186046346,
            "durationTicks": 6,
            "midi": 79,
            "name": "G5",
            "ticks": 1448,
            "time": 16.837209302325583,
            "velocity": 0.14960629921259844
          },
          {
            "duration": 0.06976744186046346,
            "durationTicks": 6,
            "midi": 87,
            "name": "D#6",
            "ticks": 1448,
            "time": 16.837209302325583,
            "velocity": 0.13385826771653545
          },
          {
            "duration": 0.11627906976744029,
            "durationTicks": 10,
            "midi": 89,
            "name": "F6",
            "ticks": 1448,
            "time": 16.837209302325583,
            "velocity": 0.15748031496062992
          },
          {
            "duration": 0.04651162790697683,
            "durationTicks": 4,
            "midi": 92,
            "name": "G#6",
            "ticks": 1448,
            "time": 16.837209302325583,
            "velocity": 0.13385826771653545
          },
          {
            "duration": 0.09302325581395365,
            "durationTicks": 8,
            "midi": 95,
            "name": "B6",
            "ticks": 1448,
            "time": 16.837209302325583,
            "velocity": 0.14173228346456693
          },
          {
            "duration": 0.04651162790697683,
            "durationTicks": 4,
            "midi": 103,
            "name": "G7",
            "ticks": 1448,
            "time": 16.837209302325583,
            "velocity": 0.12598425196850394
          },
          {
            "duration": 0.13953488372093048,
            "durationTicks": 12,
            "midi": 93,
            "name": "A6",
            "ticks": 1451,
            "time": 16.872093023255815,
            "velocity": 0.12598425196850394
          },
          {
            "duration": 0.16279069767441712,
            "durationTicks": 14,
            "midi": 88,
            "name": "E6",
            "ticks": 1452,
            "time": 16.88372093023256,
            "velocity": 0.11023622047244094
          },
          {
            "duration": 0.05813953488371837,
            "durationTicks": 5,
            "midi": 90,
            "name": "F#6",
            "ticks": 1452,
            "time": 16.88372093023256,
            "velocity": 0.11023622047244094
          },
          {
            "duration": 0.04651162790697683,
            "durationTicks": 4,
            "midi": 69,
            "name": "A4",
            "ticks": 1454,
            "time": 16.906976744186046,
            "velocity": 0.12598425196850394
          },
          {
            "duration": 0.10465116279069875,
            "durationTicks": 9,
            "midi": 91,
            "name": "G6",
            "ticks": 1454,
            "time": 16.906976744186046,
            "velocity": 0.13385826771653545
          },
          {
            "duration": 0.05813953488372192,
            "durationTicks": 5,
            "midi": 67,
            "name": "G4",
            "ticks": 1455,
            "time": 16.91860465116279,
            "velocity": 0.12598425196850394
          },
          {
            "duration": 0.08139534883720856,
            "durationTicks": 7,
            "midi": 92,
            "name": "G#6",
            "ticks": 1455,
            "time": 16.91860465116279,
            "velocity": 0.11811023622047244
          },
          {
            "duration": 0.11627906976744029,
            "durationTicks": 10,
            "midi": 96,
            "name": "C7",
            "ticks": 1455,
            "time": 16.91860465116279,
            "velocity": 0.11811023622047244
          },
          {
            "duration": 0.08139534883720856,
            "durationTicks": 7,
            "midi": 81,
            "name": "A5",
            "ticks": 1456,
            "time": 16.930232558139537,
            "velocity": 0.18110236220472442
          },
          {
            "duration": 0.12790697674418539,
            "durationTicks": 11,
            "midi": 85,
            "name": "C#6",
            "ticks": 1456,
            "time": 16.930232558139537,
            "velocity": 0.16535433070866143
          },
          {
            "duration": 0.03488372093023173,
            "durationTicks": 3,
            "midi": 87,
            "name": "D#6",
            "ticks": 1456,
            "time": 16.930232558139537,
            "velocity": 0.11023622047244094
          },
          {
            "duration": 0.034883720930235285,
            "durationTicks": 3,
            "midi": 76,
            "name": "E5",
            "ticks": 1457,
            "time": 16.941860465116278,
            "velocity": 0.11023622047244094
          },
          {
            "duration": 0.04651162790697683,
            "durationTicks": 4,
            "midi": 83,
            "name": "B5",
            "ticks": 1457,
            "time": 16.941860465116278,
            "velocity": 0.13385826771653545
          },
          {
            "duration": 0.03488372093023173,
            "durationTicks": 3,
            "midi": 60,
            "name": "C4",
            "ticks": 1459,
            "time": 16.96511627906977,
            "velocity": 0.09448818897637795
          },
          {
            "duration": 0.1046511627906952,
            "durationTicks": 9,
            "midi": 94,
            "name": "A#6",
            "ticks": 1459,
            "time": 16.96511627906977,
            "velocity": 0.11023622047244094
          },
          {
            "duration": 0.046511627906973274,
            "durationTicks": 4,
            "midi": 77,
            "name": "F5",
            "ticks": 1460,
            "time": 16.976744186046513,
            "velocity": 0.12598425196850394
          },
          {
            "duration": 0.03488372093023173,
            "durationTicks": 3,
            "midi": 80,
            "name": "G#5",
            "ticks": 1460,
            "time": 16.976744186046513,
            "velocity": 0.11811023622047244
          },
          {
            "duration": 0.03488372093023173,
            "durationTicks": 3,
            "midi": 86,
            "name": "D6",
            "ticks": 1460,
            "time": 16.976744186046513,
            "velocity": 0.09448818897637795
          },
          {
            "duration": 0.03488372093023173,
            "durationTicks": 3,
            "midi": 102,
            "name": "F#7",
            "ticks": 1460,
            "time": 16.976744186046513,
            "velocity": 0.08661417322834646
          },
          {
            "duration": 0.05813953488372192,
            "durationTicks": 5,
            "midi": 101,
            "name": "F7",
            "ticks": 1462,
            "time": 17,
            "velocity": 0.07874015748031496
          },
          {
            "duration": 0.03488372093023173,
            "durationTicks": 3,
            "midi": 50,
            "name": "D3",
            "ticks": 1463,
            "time": 17.011627906976745,
            "velocity": 0.14173228346456693
          },
          {
            "duration": 0.04651162790697683,
            "durationTicks": 4,
            "midi": 98,
            "name": "D7",
            "ticks": 1463,
            "time": 17.011627906976745,
            "velocity": 0.09448818897637795
          },
          {
            "duration": 0.1046511627906952,
            "durationTicks": 9,
            "midi": 99,
            "name": "D#7",
            "ticks": 1463,
            "time": 17.011627906976745,
            "velocity": 0.08661417322834646
          },
          {
            "duration": 0.10465116279069875,
            "durationTicks": 9,
            "midi": 86,
            "name": "D6",
            "ticks": 1464,
            "time": 17.023255813953487,
            "velocity": 0.12598425196850394
          },
          {
            "duration": 0.034883720930235285,
            "durationTicks": 3,
            "midi": 95,
            "name": "B6",
            "ticks": 1464,
            "time": 17.023255813953487,
            "velocity": 0.14960629921259844
          },
          {
            "duration": 0.03488372093023173,
            "durationTicks": 3,
            "midi": 89,
            "name": "F6",
            "ticks": 1465,
            "time": 17.03488372093023,
            "velocity": 0.12598425196850394
          },
          {
            "duration": 0.03488372093023173,
            "durationTicks": 3,
            "midi": 64,
            "name": "E4",
            "ticks": 1466,
            "time": 17.046511627906977,
            "velocity": 0.12598425196850394
          },
          {
            "duration": 0.03488372093023173,
            "durationTicks": 3,
            "midi": 81,
            "name": "A5",
            "ticks": 1466,
            "time": 17.046511627906977,
            "velocity": 0.07874015748031496
          },
          {
            "duration": 0.13953488372093048,
            "durationTicks": 12,
            "midi": 91,
            "name": "G6",
            "ticks": 1466,
            "time": 17.046511627906977,
            "velocity": 0.16535433070866143
          },
          {
            "duration": 0.12790697674418539,
            "durationTicks": 11,
            "midi": 93,
            "name": "A6",
            "ticks": 1466,
            "time": 17.046511627906977,
            "velocity": 0.14960629921259844
          },
          {
            "duration": 0.08139534883720856,
            "durationTicks": 7,
            "midi": 76,
            "name": "E5",
            "ticks": 1467,
            "time": 17.058139534883722,
            "velocity": 0.1732283464566929
          },
          {
            "duration": 0.034883720930235285,
            "durationTicks": 3,
            "midi": 101,
            "name": "F7",
            "ticks": 1468,
            "time": 17.069767441860463,
            "velocity": 0.11811023622047244
          },
          {
            "duration": 0.23255813953488413,
            "durationTicks": 20,
            "midi": 95,
            "name": "B6",
            "ticks": 1470,
            "time": 17.093023255813954,
            "velocity": 0.12598425196850394
          },
          {
            "duration": 0.04651162790697683,
            "durationTicks": 4,
            "midi": 90,
            "name": "F#6",
            "ticks": 1471,
            "time": 17.1046511627907,
            "velocity": 0.11023622047244094
          },
          {
            "duration": 0.08139534883720856,
            "durationTicks": 7,
            "midi": 96,
            "name": "C7",
            "ticks": 1471,
            "time": 17.1046511627907,
            "velocity": 0.14960629921259844
          },
          {
            "duration": 0.06976744186046702,
            "durationTicks": 6,
            "midi": 70,
            "name": "A#4",
            "ticks": 1472,
            "time": 17.11627906976744,
            "velocity": 0.11023622047244094
          },
          {
            "duration": 0.034883720930235285,
            "durationTicks": 3,
            "midi": 87,
            "name": "D#6",
            "ticks": 1472,
            "time": 17.11627906976744,
            "velocity": 0.14960629921259844
          },
          {
            "duration": 0.08139534883720856,
            "durationTicks": 7,
            "midi": 89,
            "name": "F6",
            "ticks": 1473,
            "time": 17.127906976744185,
            "velocity": 0.14173228346456693
          },
          {
            "duration": 0.15116279069767558,
            "durationTicks": 13,
            "midi": 98,
            "name": "D7",
            "ticks": 1473,
            "time": 17.127906976744185,
            "velocity": 0.13385826771653545
          },
          {
            "duration": 0.05813953488372192,
            "durationTicks": 5,
            "midi": 77,
            "name": "F5",
            "ticks": 1474,
            "time": 17.13953488372093,
            "velocity": 0.13385826771653545
          },
          {
            "duration": 0.10465116279069875,
            "durationTicks": 9,
            "midi": 92,
            "name": "G#6",
            "ticks": 1474,
            "time": 17.13953488372093,
            "velocity": 0.12598425196850394
          },
          {
            "duration": 0.03488372093023173,
            "durationTicks": 3,
            "midi": 86,
            "name": "D6",
            "ticks": 1475,
            "time": 17.151162790697676,
            "velocity": 0.11811023622047244
          },
          {
            "duration": 0.03488372093023173,
            "durationTicks": 3,
            "midi": 76,
            "name": "E5",
            "ticks": 1477,
            "time": 17.174418604651162,
            "velocity": 0.13385826771653545
          },
          {
            "duration": 0.05813953488372192,
            "durationTicks": 5,
            "midi": 82,
            "name": "A#5",
            "ticks": 1477,
            "time": 17.174418604651162,
            "velocity": 0.15748031496062992
          },
          {
            "duration": 0.06976744186046702,
            "durationTicks": 6,
            "midi": 88,
            "name": "E6",
            "ticks": 1477,
            "time": 17.174418604651162,
            "velocity": 0.13385826771653545
          },
          {
            "duration": 0.13953488372093048,
            "durationTicks": 12,
            "midi": 90,
            "name": "F#6",
            "ticks": 1477,
            "time": 17.174418604651162,
            "velocity": 0.11023622047244094
          },
          {
            "duration": 0.03488372093023173,
            "durationTicks": 3,
            "midi": 71,
            "name": "B4",
            "ticks": 1478,
            "time": 17.186046511627907,
            "velocity": 0.14173228346456693
          },
          {
            "duration": 0.03488372093023173,
            "durationTicks": 3,
            "midi": 85,
            "name": "C#6",
            "ticks": 1478,
            "time": 17.186046511627907,
            "velocity": 0.08661417322834646
          },
          {
            "duration": 0.03488372093023173,
            "durationTicks": 3,
            "midi": 34,
            "name": "A#1",
            "ticks": 1479,
            "time": 17.197674418604652,
            "velocity": 0.09448818897637795
          },
          {
            "duration": 0.03488372093023173,
            "durationTicks": 3,
            "midi": 55,
            "name": "G3",
            "ticks": 1479,
            "time": 17.197674418604652,
            "velocity": 0.09448818897637795
          },
          {
            "duration": 0.03488372093023173,
            "durationTicks": 3,
            "midi": 84,
            "name": "C6",
            "ticks": 1479,
            "time": 17.197674418604652,
            "velocity": 0.13385826771653545
          },
          {
            "duration": 0.08139534883721211,
            "durationTicks": 7,
            "midi": 91,
            "name": "G6",
            "ticks": 1480,
            "time": 17.209302325581394,
            "velocity": 0.12598425196850394
          },
          {
            "duration": 0.04651162790697683,
            "durationTicks": 4,
            "midi": 66,
            "name": "F#4",
            "ticks": 1481,
            "time": 17.22093023255814,
            "velocity": 0.07874015748031496
          },
          {
            "duration": 0.04651162790697683,
            "durationTicks": 4,
            "midi": 79,
            "name": "G5",
            "ticks": 1481,
            "time": 17.22093023255814,
            "velocity": 0.11023622047244094
          },
          {
            "duration": 0.03488372093023173,
            "durationTicks": 3,
            "midi": 87,
            "name": "D#6",
            "ticks": 1481,
            "time": 17.22093023255814,
            "velocity": 0.11023622047244094
          },
          {
            "duration": 0.04651162790697683,
            "durationTicks": 4,
            "midi": 77,
            "name": "F5",
            "ticks": 1482,
            "time": 17.232558139534884,
            "velocity": 0.14173228346456693
          },
          {
            "duration": 0.11627906976744029,
            "durationTicks": 10,
            "midi": 96,
            "name": "C7",
            "ticks": 1482,
            "time": 17.232558139534884,
            "velocity": 0.10236220472440945
          },
          {
            "duration": 0.05813953488371837,
            "durationTicks": 5,
            "midi": 93,
            "name": "A6",
            "ticks": 1483,
            "time": 17.24418604651163,
            "velocity": 0.14173228346456693
          },
          {
            "duration": 0.03488372093023173,
            "durationTicks": 3,
            "midi": 100,
            "name": "E7",
            "ticks": 1483,
            "time": 17.24418604651163,
            "velocity": 0.11811023622047244
          },
          {
            "duration": 0.034883720930235285,
            "durationTicks": 3,
            "midi": 57,
            "name": "A3",
            "ticks": 1484,
            "time": 17.25581395348837,
            "velocity": 0.11023622047244094
          },
          {
            "duration": 0.034883720930235285,
            "durationTicks": 3,
            "midi": 80,
            "name": "G#5",
            "ticks": 1484,
            "time": 17.25581395348837,
            "velocity": 0.18110236220472442
          },
          {
            "duration": 0.05813953488372192,
            "durationTicks": 5,
            "midi": 89,
            "name": "F6",
            "ticks": 1484,
            "time": 17.25581395348837,
            "velocity": 0.14173228346456693
          },
          {
            "duration": 0.03488372093023173,
            "durationTicks": 3,
            "midi": 84,
            "name": "C6",
            "ticks": 1486,
            "time": 17.27906976744186,
            "velocity": 0.10236220472440945
          },
          {
            "duration": 0.04651162790697683,
            "durationTicks": 4,
            "midi": 79,
            "name": "G5",
            "ticks": 1487,
            "time": 17.290697674418606,
            "velocity": 0.11023622047244094
          },
          {
            "duration": 0.04651162790697683,
            "durationTicks": 4,
            "midi": 85,
            "name": "C#6",
            "ticks": 1487,
            "time": 17.290697674418606,
            "velocity": 0.11023622047244094
          },
          {
            "duration": 0.06976744186046346,
            "durationTicks": 6,
            "midi": 88,
            "name": "E6",
            "ticks": 1487,
            "time": 17.290697674418606,
            "velocity": 0.09448818897637795
          },
          {
            "duration": 0.2790697674418574,
            "durationTicks": 24,
            "midi": 99,
            "name": "D#7",
            "ticks": 1487,
            "time": 17.290697674418606,
            "velocity": 0.10236220472440945
          },
          {
            "duration": 0.034883720930235285,
            "durationTicks": 3,
            "midi": 69,
            "name": "A4",
            "ticks": 1488,
            "time": 17.302325581395348,
            "velocity": 0.13385826771653545
          },
          {
            "duration": 0.034883720930235285,
            "durationTicks": 3,
            "midi": 74,
            "name": "D5",
            "ticks": 1488,
            "time": 17.302325581395348,
            "velocity": 0.07086614173228346
          },
          {
            "duration": 0.04651162790697683,
            "durationTicks": 4,
            "midi": 87,
            "name": "D#6",
            "ticks": 1488,
            "time": 17.302325581395348,
            "velocity": 0.14960629921259844
          },
          {
            "duration": 0.05813953488372192,
            "durationTicks": 5,
            "midi": 102,
            "name": "F#7",
            "ticks": 1489,
            "time": 17.313953488372093,
            "velocity": 0.12598425196850394
          },
          {
            "duration": 0.06976744186046346,
            "durationTicks": 6,
            "midi": 93,
            "name": "A6",
            "ticks": 1490,
            "time": 17.325581395348838,
            "velocity": 0.16535433070866143
          },
          {
            "duration": 0.09302325581395365,
            "durationTicks": 8,
            "midi": 77,
            "name": "F5",
            "ticks": 1491,
            "time": 17.337209302325583,
            "velocity": 0.14173228346456693
          },
          {
            "duration": 0.03488372093023173,
            "durationTicks": 3,
            "midi": 84,
            "name": "C6",
            "ticks": 1491,
            "time": 17.337209302325583,
            "velocity": 0.12598425196850394
          },
          {
            "duration": 0.04651162790697683,
            "durationTicks": 4,
            "midi": 79,
            "name": "G5",
            "ticks": 1492,
            "time": 17.348837209302324,
            "velocity": 0.13385826771653545
          },
          {
            "duration": 0.23255813953488413,
            "durationTicks": 20,
            "midi": 94,
            "name": "A#6",
            "ticks": 1492,
            "time": 17.348837209302324,
            "velocity": 0.11811023622047244
          },
          {
            "duration": 0.10465116279069875,
            "durationTicks": 9,
            "midi": 90,
            "name": "F#6",
            "ticks": 1493,
            "time": 17.36046511627907,
            "velocity": 0.07874015748031496
          },
          {
            "duration": 0.10465116279069875,
            "durationTicks": 9,
            "midi": 92,
            "name": "G#6",
            "ticks": 1493,
            "time": 17.36046511627907,
            "velocity": 0.12598425196850394
          },
          {
            "duration": 0.05813953488372192,
            "durationTicks": 5,
            "midi": 95,
            "name": "B6",
            "ticks": 1493,
            "time": 17.36046511627907,
            "velocity": 0.10236220472440945
          },
          {
            "duration": 0.03488372093023173,
            "durationTicks": 3,
            "midi": 82,
            "name": "A#5",
            "ticks": 1494,
            "time": 17.372093023255815,
            "velocity": 0.14960629921259844
          },
          {
            "duration": 0.10465116279069875,
            "durationTicks": 9,
            "midi": 85,
            "name": "C#6",
            "ticks": 1494,
            "time": 17.372093023255815,
            "velocity": 0.16535433070866143
          },
          {
            "duration": 0.03488372093023173,
            "durationTicks": 3,
            "midi": 76,
            "name": "E5",
            "ticks": 1495,
            "time": 17.38372093023256,
            "velocity": 0.09448818897637795
          },
          {
            "duration": 0.06976744186046346,
            "durationTicks": 6,
            "midi": 96,
            "name": "C7",
            "ticks": 1495,
            "time": 17.38372093023256,
            "velocity": 0.13385826771653545
          },
          {
            "duration": 0.06976744186046346,
            "durationTicks": 6,
            "midi": 100,
            "name": "E7",
            "ticks": 1495,
            "time": 17.38372093023256,
            "velocity": 0.10236220472440945
          },
          {
            "duration": 0.15116279069767558,
            "durationTicks": 13,
            "midi": 91,
            "name": "G6",
            "ticks": 1496,
            "time": 17.3953488372093,
            "velocity": 0.14173228346456693
          },
          {
            "duration": 0.04651162790697683,
            "durationTicks": 4,
            "midi": 72,
            "name": "C5",
            "ticks": 1497,
            "time": 17.406976744186046,
            "velocity": 0.14173228346456693
          },
          {
            "duration": 0.03488372093023173,
            "durationTicks": 3,
            "midi": 86,
            "name": "D6",
            "ticks": 1497,
            "time": 17.406976744186046,
            "velocity": 0.1732283464566929
          },
          {
            "duration": 0.03488372093023173,
            "durationTicks": 3,
            "midi": 70,
            "name": "A#4",
            "ticks": 1498,
            "time": 17.41860465116279,
            "velocity": 0.09448818897637795
          },
          {
            "duration": 0.06976744186046346,
            "durationTicks": 6,
            "midi": 93,
            "name": "A6",
            "ticks": 1498,
            "time": 17.41860465116279,
            "velocity": 0.14960629921259844
          },
          {
            "duration": 0.04651162790697683,
            "durationTicks": 4,
            "midi": 84,
            "name": "C6",
            "ticks": 1499,
            "time": 17.430232558139537,
            "velocity": 0.14173228346456693
          },
          {
            "duration": 0.05813953488372192,
            "durationTicks": 5,
            "midi": 76,
            "name": "E5",
            "ticks": 1500,
            "time": 17.441860465116278,
            "velocity": 0.11023622047244094
          },
          {
            "duration": 0.034883720930235285,
            "durationTicks": 3,
            "midi": 79,
            "name": "G5",
            "ticks": 1500,
            "time": 17.441860465116278,
            "velocity": 0.13385826771653545
          },
          {
            "duration": 0.03488372093023173,
            "durationTicks": 3,
            "midi": 83,
            "name": "B5",
            "ticks": 1502,
            "time": 17.46511627906977,
            "velocity": 0.13385826771653545
          },
          {
            "duration": 0.046511627906973274,
            "durationTicks": 4,
            "midi": 73,
            "name": "C#5",
            "ticks": 1503,
            "time": 17.476744186046513,
            "velocity": 0.12598425196850394
          },
          {
            "duration": 0.1046511627906952,
            "durationTicks": 9,
            "midi": 101,
            "name": "F7",
            "ticks": 1503,
            "time": 17.476744186046513,
            "velocity": 0.11811023622047244
          },
          {
            "duration": 0.05813953488372192,
            "durationTicks": 5,
            "midi": 70,
            "name": "A#4",
            "ticks": 1504,
            "time": 17.488372093023255,
            "velocity": 0.14173228346456693
          },
          {
            "duration": 0.09302325581395365,
            "durationTicks": 8,
            "midi": 98,
            "name": "D7",
            "ticks": 1504,
            "time": 17.488372093023255,
            "velocity": 0.11811023622047244
          },
          {
            "duration": 0.05813953488372192,
            "durationTicks": 5,
            "midi": 74,
            "name": "D5",
            "ticks": 1505,
            "time": 17.5,
            "velocity": 0.12598425196850394
          },
          {
            "duration": 0.04651162790697683,
            "durationTicks": 4,
            "midi": 92,
            "name": "G#6",
            "ticks": 1505,
            "time": 17.5,
            "velocity": 0.11023622047244094
          },
          {
            "duration": 0.03488372093023173,
            "durationTicks": 3,
            "midi": 66,
            "name": "F#4",
            "ticks": 1506,
            "time": 17.511627906976745,
            "velocity": 0.11023622047244094
          },
          {
            "duration": 0.03488372093023173,
            "durationTicks": 3,
            "midi": 77,
            "name": "F5",
            "ticks": 1506,
            "time": 17.511627906976745,
            "velocity": 0.11811023622047244
          },
          {
            "duration": 0.04651162790697683,
            "durationTicks": 4,
            "midi": 80,
            "name": "G#5",
            "ticks": 1506,
            "time": 17.511627906976745,
            "velocity": 0.14173228346456693
          },
          {
            "duration": 0.03488372093023173,
            "durationTicks": 3,
            "midi": 81,
            "name": "A5",
            "ticks": 1506,
            "time": 17.511627906976745,
            "velocity": 0.12598425196850394
          },
          {
            "duration": 0.06976744186046346,
            "durationTicks": 6,
            "midi": 88,
            "name": "E6",
            "ticks": 1506,
            "time": 17.511627906976745,
            "velocity": 0.1732283464566929
          },
          {
            "duration": 0.06976744186046346,
            "durationTicks": 6,
            "midi": 90,
            "name": "F#6",
            "ticks": 1506,
            "time": 17.511627906976745,
            "velocity": 0.08661417322834646
          },
          {
            "duration": 0.03488372093023173,
            "durationTicks": 3,
            "midi": 67,
            "name": "G4",
            "ticks": 1510,
            "time": 17.558139534883722,
            "velocity": 0.11811023622047244
          },
          {
            "duration": 0.03488372093023173,
            "durationTicks": 3,
            "midi": 81,
            "name": "A5",
            "ticks": 1510,
            "time": 17.558139534883722,
            "velocity": 0.11811023622047244
          },
          {
            "duration": 0.04651162790697683,
            "durationTicks": 4,
            "midi": 89,
            "name": "F6",
            "ticks": 1510,
            "time": 17.558139534883722,
            "velocity": 0.08661417322834646
          },
          {
            "duration": 0.04651162790697683,
            "durationTicks": 4,
            "midi": 93,
            "name": "A6",
            "ticks": 1510,
            "time": 17.558139534883722,
            "velocity": 0.18110236220472442
          },
          {
            "duration": 0.12790697674418539,
            "durationTicks": 11,
            "midi": 95,
            "name": "B6",
            "ticks": 1510,
            "time": 17.558139534883722,
            "velocity": 0.10236220472440945
          },
          {
            "duration": 0.03488372093023173,
            "durationTicks": 3,
            "midi": 85,
            "name": "C#6",
            "ticks": 1513,
            "time": 17.593023255813954,
            "velocity": 0.07086614173228346
          },
          {
            "duration": 0.03488372093023173,
            "durationTicks": 3,
            "midi": 87,
            "name": "D#6",
            "ticks": 1513,
            "time": 17.593023255813954,
            "velocity": 0.07086614173228346
          },
          {
            "duration": 0.06976744186046346,
            "durationTicks": 6,
            "midi": 88,
            "name": "E6",
            "ticks": 1513,
            "time": 17.593023255813954,
            "velocity": 0.15748031496062992
          },
          {
            "duration": 0.03488372093023173,
            "durationTicks": 3,
            "midi": 94,
            "name": "A#6",
            "ticks": 1513,
            "time": 17.593023255813954,
            "velocity": 0.11023622047244094
          },
          {
            "duration": 0.08139534883720856,
            "durationTicks": 7,
            "midi": 100,
            "name": "E7",
            "ticks": 1513,
            "time": 17.593023255813954,
            "velocity": 0.15748031496062992
          },
          {
            "duration": 0.03488372093023173,
            "durationTicks": 3,
            "midi": 66,
            "name": "F#4",
            "ticks": 1514,
            "time": 17.6046511627907,
            "velocity": 0.09448818897637795
          },
          {
            "duration": 0.03488372093023173,
            "durationTicks": 3,
            "midi": 74,
            "name": "D5",
            "ticks": 1514,
            "time": 17.6046511627907,
            "velocity": 0.14960629921259844
          },
          {
            "duration": 0.04651162790697683,
            "durationTicks": 4,
            "midi": 90,
            "name": "F#6",
            "ticks": 1514,
            "time": 17.6046511627907,
            "velocity": 0.11023622047244094
          },
          {
            "duration": 0.04651162790697683,
            "durationTicks": 4,
            "midi": 92,
            "name": "G#6",
            "ticks": 1514,
            "time": 17.6046511627907,
            "velocity": 0.11811023622047244
          },
          {
            "duration": 0.03488372093023173,
            "durationTicks": 3,
            "midi": 101,
            "name": "F7",
            "ticks": 1514,
            "time": 17.6046511627907,
            "velocity": 0.11811023622047244
          },
          {
            "duration": 0.034883720930235285,
            "durationTicks": 3,
            "midi": 79,
            "name": "G5",
            "ticks": 1515,
            "time": 17.61627906976744,
            "velocity": 0.10236220472440945
          },
          {
            "duration": 0.05813953488372192,
            "durationTicks": 5,
            "midi": 96,
            "name": "C7",
            "ticks": 1515,
            "time": 17.61627906976744,
            "velocity": 0.16535433070866143
          },
          {
            "duration": 0.03488372093023173,
            "durationTicks": 3,
            "midi": 77,
            "name": "F5",
            "ticks": 1516,
            "time": 17.627906976744185,
            "velocity": 0.11023622047244094
          },
          {
            "duration": 0.04651162790697683,
            "durationTicks": 4,
            "midi": 97,
            "name": "C#7",
            "ticks": 1516,
            "time": 17.627906976744185,
            "velocity": 0.09448818897637795
          },
          {
            "duration": 0.08139534883720856,
            "durationTicks": 7,
            "midi": 82,
            "name": "A#5",
            "ticks": 1517,
            "time": 17.63953488372093,
            "velocity": 0.13385826771653545
          },
          {
            "duration": 0.03488372093023173,
            "durationTicks": 3,
            "midi": 85,
            "name": "C#6",
            "ticks": 1517,
            "time": 17.63953488372093,
            "velocity": 0.1732283464566929
          },
          {
            "duration": 0.03488372093023173,
            "durationTicks": 3,
            "midi": 94,
            "name": "A#6",
            "ticks": 1517,
            "time": 17.63953488372093,
            "velocity": 0.13385826771653545
          },
          {
            "duration": 0.04651162790697683,
            "durationTicks": 4,
            "midi": 74,
            "name": "D5",
            "ticks": 1518,
            "time": 17.651162790697676,
            "velocity": 0.14173228346456693
          },
          {
            "duration": 0.034883720930235285,
            "durationTicks": 3,
            "midi": 49,
            "name": "C#3",
            "ticks": 1519,
            "time": 17.662790697674417,
            "velocity": 0.14173228346456693
          },
          {
            "duration": 0.13953488372093048,
            "durationTicks": 12,
            "midi": 90,
            "name": "F#6",
            "ticks": 1519,
            "time": 17.662790697674417,
            "velocity": 0.14960629921259844
          },
          {
            "duration": 0.05813953488372192,
            "durationTicks": 5,
            "midi": 98,
            "name": "D7",
            "ticks": 1519,
            "time": 17.662790697674417,
            "velocity": 0.09448818897637795
          },
          {
            "duration": 0.03488372093023173,
            "durationTicks": 3,
            "midi": 64,
            "name": "E4",
            "ticks": 1520,
            "time": 17.674418604651162,
            "velocity": 0.07874015748031496
          },
          {
            "duration": 0.03488372093023173,
            "durationTicks": 3,
            "midi": 68,
            "name": "G#4",
            "ticks": 1520,
            "time": 17.674418604651162,
            "velocity": 0.12598425196850394
          },
          {
            "duration": 0.04651162790697683,
            "durationTicks": 4,
            "midi": 92,
            "name": "G#6",
            "ticks": 1520,
            "time": 17.674418604651162,
            "velocity": 0.09448818897637795
          },
          {
            "duration": 0.04651162790697683,
            "durationTicks": 4,
            "midi": 99,
            "name": "D#7",
            "ticks": 1520,
            "time": 17.674418604651162,
            "velocity": 0.07874015748031496
          },
          {
            "duration": 0.03488372093023173,
            "durationTicks": 3,
            "midi": 103,
            "name": "G7",
            "ticks": 1520,
            "time": 17.674418604651162,
            "velocity": 0.11023622047244094
          },
          {
            "duration": 0.09302325581395365,
            "durationTicks": 8,
            "midi": 87,
            "name": "D#6",
            "ticks": 1521,
            "time": 17.686046511627907,
            "velocity": 0.11023622047244094
          },
          {
            "duration": 0.05813953488372192,
            "durationTicks": 5,
            "midi": 89,
            "name": "F6",
            "ticks": 1521,
            "time": 17.686046511627907,
            "velocity": 0.14960629921259844
          },
          {
            "duration": 0.08139534883720856,
            "durationTicks": 7,
            "midi": 91,
            "name": "G6",
            "ticks": 1521,
            "time": 17.686046511627907,
            "velocity": 0.11811023622047244
          },
          {
            "duration": 0.10465116279069875,
            "durationTicks": 9,
            "midi": 93,
            "name": "A6",
            "ticks": 1521,
            "time": 17.686046511627907,
            "velocity": 0.12598425196850394
          },
          {
            "duration": 0.06976744186046346,
            "durationTicks": 6,
            "midi": 76,
            "name": "E5",
            "ticks": 1522,
            "time": 17.697674418604652,
            "velocity": 0.16535433070866143
          },
          {
            "duration": 0.03488372093023173,
            "durationTicks": 3,
            "midi": 78,
            "name": "F#5",
            "ticks": 1522,
            "time": 17.697674418604652,
            "velocity": 0.11811023622047244
          },
          {
            "duration": 0.034883720930235285,
            "durationTicks": 3,
            "midi": 67,
            "name": "G4",
            "ticks": 1523,
            "time": 17.709302325581394,
            "velocity": 0.14173228346456693
          },
          {
            "duration": 0.04651162790697683,
            "durationTicks": 4,
            "midi": 84,
            "name": "C6",
            "ticks": 1523,
            "time": 17.709302325581394,
            "velocity": 0.14173228346456693
          },
          {
            "duration": 0.05813953488372192,
            "durationTicks": 5,
            "midi": 75,
            "name": "D#5",
            "ticks": 1524,
            "time": 17.72093023255814,
            "velocity": 0.11811023622047244
          },
          {
            "duration": 0.04651162790697683,
            "durationTicks": 4,
            "midi": 80,
            "name": "G#5",
            "ticks": 1524,
            "time": 17.72093023255814,
            "velocity": 0.1732283464566929
          },
          {
            "duration": 0.05813953488372192,
            "durationTicks": 5,
            "midi": 100,
            "name": "E7",
            "ticks": 1525,
            "time": 17.732558139534884,
            "velocity": 0.13385826771653545
          },
          {
            "duration": 0.034883720930235285,
            "durationTicks": 3,
            "midi": 47,
            "name": "B2",
            "ticks": 1527,
            "time": 17.75581395348837,
            "velocity": 0.11023622047244094
          },
          {
            "duration": 0.03488372093023173,
            "durationTicks": 3,
            "midi": 83,
            "name": "B5",
            "ticks": 1528,
            "time": 17.767441860465116,
            "velocity": 0.14173228346456693
          },
          {
            "duration": 0.04651162790697683,
            "durationTicks": 4,
            "midi": 84,
            "name": "C6",
            "ticks": 1529,
            "time": 17.77906976744186,
            "velocity": 0.11023622047244094
          },
          {
            "duration": 0.03488372093023173,
            "durationTicks": 3,
            "midi": 78,
            "name": "F#5",
            "ticks": 1530,
            "time": 17.790697674418606,
            "velocity": 0.13385826771653545
          },
          {
            "duration": 0.05813953488371837,
            "durationTicks": 5,
            "midi": 81,
            "name": "A5",
            "ticks": 1530,
            "time": 17.790697674418606,
            "velocity": 0.10236220472440945
          },
          {
            "duration": 0.15116279069767202,
            "durationTicks": 13,
            "midi": 98,
            "name": "D7",
            "ticks": 1530,
            "time": 17.790697674418606,
            "velocity": 0.11811023622047244
          },
          {
            "duration": 0.04651162790697683,
            "durationTicks": 4,
            "midi": 88,
            "name": "E6",
            "ticks": 1531,
            "time": 17.802325581395348,
            "velocity": 0.14173228346456693
          },
          {
            "duration": 0.08139534883721211,
            "durationTicks": 7,
            "midi": 89,
            "name": "F6",
            "ticks": 1531,
            "time": 17.802325581395348,
            "velocity": 0.11023622047244094
          },
          {
            "duration": 0.08139534883721211,
            "durationTicks": 7,
            "midi": 91,
            "name": "G6",
            "ticks": 1531,
            "time": 17.802325581395348,
            "velocity": 0.13385826771653545
          },
          {
            "duration": 0.05813953488372192,
            "durationTicks": 5,
            "midi": 97,
            "name": "C#7",
            "ticks": 1532,
            "time": 17.813953488372093,
            "velocity": 0.12598425196850394
          },
          {
            "duration": 0.03488372093023173,
            "durationTicks": 3,
            "midi": 71,
            "name": "B4",
            "ticks": 1534,
            "time": 17.837209302325583,
            "velocity": 0.16535433070866143
          },
          {
            "duration": 0.06976744186046346,
            "durationTicks": 6,
            "midi": 96,
            "name": "C7",
            "ticks": 1534,
            "time": 17.837209302325583,
            "velocity": 0.14173228346456693
          },
          {
            "duration": 0.04651162790697683,
            "durationTicks": 4,
            "midi": 76,
            "name": "E5",
            "ticks": 1536,
            "time": 17.86046511627907,
            "velocity": 0.14173228346456693
          },
          {
            "duration": 0.04651162790697683,
            "durationTicks": 4,
            "midi": 90,
            "name": "F#6",
            "ticks": 1536,
            "time": 17.86046511627907,
            "velocity": 0.12598425196850394
          },
          {
            "duration": 0.05813953488372192,
            "durationTicks": 5,
            "midi": 94,
            "name": "A#6",
            "ticks": 1536,
            "time": 17.86046511627907,
            "velocity": 0.11023622047244094
          },
          {
            "duration": 0.06976744186046702,
            "durationTicks": 6,
            "midi": 100,
            "name": "E7",
            "ticks": 1536,
            "time": 17.86046511627907,
            "velocity": 0.11811023622047244
          },
          {
            "duration": 0.03488372093023173,
            "durationTicks": 3,
            "midi": 62,
            "name": "D4",
            "ticks": 1537,
            "time": 17.872093023255815,
            "velocity": 0.11811023622047244
          },
          {
            "duration": 0.06976744186046346,
            "durationTicks": 6,
            "midi": 70,
            "name": "A#4",
            "ticks": 1537,
            "time": 17.872093023255815,
            "velocity": 0.10236220472440945
          },
          {
            "duration": 0.03488372093023173,
            "durationTicks": 3,
            "midi": 65,
            "name": "F4",
            "ticks": 1538,
            "time": 17.88372093023256,
            "velocity": 0.13385826771653545
          },
          {
            "duration": 0.03488372093023173,
            "durationTicks": 3,
            "midi": 78,
            "name": "F#5",
            "ticks": 1538,
            "time": 17.88372093023256,
            "velocity": 0.07086614173228346
          },
          {
            "duration": 0.05813953488371837,
            "durationTicks": 5,
            "midi": 83,
            "name": "B5",
            "ticks": 1538,
            "time": 17.88372093023256,
            "velocity": 0.12598425196850394
          },
          {
            "duration": 0.04651162790697683,
            "durationTicks": 4,
            "midi": 84,
            "name": "C6",
            "ticks": 1538,
            "time": 17.88372093023256,
            "velocity": 0.14960629921259844
          },
          {
            "duration": 0.05813953488372192,
            "durationTicks": 5,
            "midi": 80,
            "name": "G#5",
            "ticks": 1539,
            "time": 17.8953488372093,
            "velocity": 0.08661417322834646
          },
          {
            "duration": 0.06976744186046702,
            "durationTicks": 6,
            "midi": 82,
            "name": "A#5",
            "ticks": 1539,
            "time": 17.8953488372093,
            "velocity": 0.14173228346456693
          },
          {
            "duration": 0.04651162790697683,
            "durationTicks": 4,
            "midi": 87,
            "name": "D#6",
            "ticks": 1539,
            "time": 17.8953488372093,
            "velocity": 0.14960629921259844
          },
          {
            "duration": 0.04651162790697683,
            "durationTicks": 4,
            "midi": 92,
            "name": "G#6",
            "ticks": 1539,
            "time": 17.8953488372093,
            "velocity": 0.09448818897637795
          },
          {
            "duration": 0.12790697674418539,
            "durationTicks": 11,
            "midi": 89,
            "name": "F6",
            "ticks": 1540,
            "time": 17.906976744186046,
            "velocity": 0.11811023622047244
          },
          {
            "duration": 0.03488372093023173,
            "durationTicks": 3,
            "midi": 72,
            "name": "C5",
            "ticks": 1541,
            "time": 17.91860465116279,
            "velocity": 0.10236220472440945
          },
          {
            "duration": 0.05813953488372192,
            "durationTicks": 5,
            "midi": 85,
            "name": "C#6",
            "ticks": 1541,
            "time": 17.91860465116279,
            "velocity": 0.13385826771653545
          },
          {
            "duration": 0.06976744186046346,
            "durationTicks": 6,
            "midi": 93,
            "name": "A6",
            "ticks": 1541,
            "time": 17.91860465116279,
            "velocity": 0.13385826771653545
          },
          {
            "duration": 0.09302325581395365,
            "durationTicks": 8,
            "midi": 102,
            "name": "F#7",
            "ticks": 1541,
            "time": 17.91860465116279,
            "velocity": 0.09448818897637795
          },
          {
            "duration": 0.04651162790697683,
            "durationTicks": 4,
            "midi": 76,
            "name": "E5",
            "ticks": 1542,
            "time": 17.930232558139537,
            "velocity": 0.10236220472440945
          },
          {
            "duration": 0.08139534883720856,
            "durationTicks": 7,
            "midi": 88,
            "name": "E6",
            "ticks": 1542,
            "time": 17.930232558139537,
            "velocity": 0.15748031496062992
          },
          {
            "duration": 0.05813953488372192,
            "durationTicks": 5,
            "midi": 69,
            "name": "A4",
            "ticks": 1543,
            "time": 17.941860465116278,
            "velocity": 0.07874015748031496
          },
          {
            "duration": 0.034883720930235285,
            "durationTicks": 3,
            "midi": 86,
            "name": "D6",
            "ticks": 1543,
            "time": 17.941860465116278,
            "velocity": 0.1732283464566929
          },
          {
            "duration": 0.10465116279069875,
            "durationTicks": 9,
            "midi": 94,
            "name": "A#6",
            "ticks": 1543,
            "time": 17.941860465116278,
            "velocity": 0.14173228346456693
          },
          {
            "duration": 0.05813953488372192,
            "durationTicks": 5,
            "midi": 91,
            "name": "G6",
            "ticks": 1544,
            "time": 17.953488372093023,
            "velocity": 0.16535433070866143
          },
          {
            "duration": 0.15116279069767558,
            "durationTicks": 13,
            "midi": 96,
            "name": "C7",
            "ticks": 1544,
            "time": 17.953488372093023,
            "velocity": 0.11811023622047244
          },
          {
            "duration": 0.03488372093023173,
            "durationTicks": 3,
            "midi": 62,
            "name": "D4",
            "ticks": 1546,
            "time": 17.976744186046513,
            "velocity": 0.13385826771653545
          },
          {
            "duration": 0.05813953488371837,
            "durationTicks": 5,
            "midi": 72,
            "name": "C5",
            "ticks": 1546,
            "time": 17.976744186046513,
            "velocity": 0.13385826771653545
          },
          {
            "duration": 0.03488372093023173,
            "durationTicks": 3,
            "midi": 54,
            "name": "F#3",
            "ticks": 1547,
            "time": 17.988372093023255,
            "velocity": 0.09448818897637795
          },
          {
            "duration": 0.03488372093023173,
            "durationTicks": 3,
            "midi": 66,
            "name": "F#4",
            "ticks": 1547,
            "time": 17.988372093023255,
            "velocity": 0.16535433070866143
          },
          {
            "duration": 0.03488372093023173,
            "durationTicks": 3,
            "midi": 85,
            "name": "C#6",
            "ticks": 1547,
            "time": 17.988372093023255,
            "velocity": 0.10236220472440945
          },
          {
            "duration": 0.03488372093023173,
            "durationTicks": 3,
            "midi": 82,
            "name": "A#5",
            "ticks": 1548,
            "time": 18,
            "velocity": 0.10236220472440945
          },
          {
            "duration": 0.05813953488372192,
            "durationTicks": 5,
            "midi": 87,
            "name": "D#6",
            "ticks": 1548,
            "time": 18,
            "velocity": 0.11023622047244094
          },
          {
            "duration": 0.03488372093023173,
            "durationTicks": 3,
            "midi": 95,
            "name": "B6",
            "ticks": 1548,
            "time": 18,
            "velocity": 0.15748031496062992
          },
          {
            "duration": 0.03488372093023173,
            "durationTicks": 3,
            "midi": 92,
            "name": "G#6",
            "ticks": 1549,
            "time": 18.011627906976745,
            "velocity": 0.12598425196850394
          },
          {
            "duration": 0.1744186046511622,
            "durationTicks": 15,
            "midi": 98,
            "name": "D7",
            "ticks": 1549,
            "time": 18.011627906976745,
            "velocity": 0.13385826771653545
          },
          {
            "duration": 0.11627906976744029,
            "durationTicks": 10,
            "midi": 100,
            "name": "E7",
            "ticks": 1549,
            "time": 18.011627906976745,
            "velocity": 0.11811023622047244
          },
          {
            "duration": 0.1976744186046524,
            "durationTicks": 17,
            "midi": 91,
            "name": "G6",
            "ticks": 1550,
            "time": 18.023255813953487,
            "velocity": 0.14173228346456693
          },
          {
            "duration": 0.05813953488372192,
            "durationTicks": 5,
            "midi": 93,
            "name": "A6",
            "ticks": 1550,
            "time": 18.023255813953487,
            "velocity": 0.14173228346456693
          },
          {
            "duration": 0.04651162790697683,
            "durationTicks": 4,
            "midi": 88,
            "name": "E6",
            "ticks": 1551,
            "time": 18.03488372093023,
            "velocity": 0.10236220472440945
          },
          {
            "duration": 0.06976744186046346,
            "durationTicks": 6,
            "midi": 72,
            "name": "C5",
            "ticks": 1552,
            "time": 18.046511627906977,
            "velocity": 0.1968503937007874
          },
          {
            "duration": 0.08139534883720856,
            "durationTicks": 7,
            "midi": 82,
            "name": "A#5",
            "ticks": 1552,
            "time": 18.046511627906977,
            "velocity": 0.11023622047244094
          },
          {
            "duration": 0.12790697674418539,
            "durationTicks": 11,
            "midi": 95,
            "name": "B6",
            "ticks": 1552,
            "time": 18.046511627906977,
            "velocity": 0.14960629921259844
          },
          {
            "duration": 0.10465116279069875,
            "durationTicks": 9,
            "midi": 102,
            "name": "F#7",
            "ticks": 1552,
            "time": 18.046511627906977,
            "velocity": 0.07086614173228346
          },
          {
            "duration": 0.03488372093023173,
            "durationTicks": 3,
            "midi": 89,
            "name": "F6",
            "ticks": 1553,
            "time": 18.058139534883722,
            "velocity": 0.08661417322834646
          },
          {
            "duration": 0.09302325581395365,
            "durationTicks": 8,
            "midi": 99,
            "name": "D#7",
            "ticks": 1553,
            "time": 18.058139534883722,
            "velocity": 0.11023622047244094
          },
          {
            "duration": 0.034883720930235285,
            "durationTicks": 3,
            "midi": 67,
            "name": "G4",
            "ticks": 1554,
            "time": 18.069767441860463,
            "velocity": 0.14173228346456693
          },
          {
            "duration": 0.04651162790697683,
            "durationTicks": 4,
            "midi": 77,
            "name": "F5",
            "ticks": 1554,
            "time": 18.069767441860463,
            "velocity": 0.14173228346456693
          },
          {
            "duration": 0.034883720930235285,
            "durationTicks": 3,
            "midi": 83,
            "name": "B5",
            "ticks": 1554,
            "time": 18.069767441860463,
            "velocity": 0.08661417322834646
          },
          {
            "duration": 0.03488372093023173,
            "durationTicks": 3,
            "midi": 94,
            "name": "A#6",
            "ticks": 1555,
            "time": 18.08139534883721,
            "velocity": 0.18110236220472442
          },
          {
            "duration": 0.04651162790697683,
            "durationTicks": 4,
            "midi": 62,
            "name": "D4",
            "ticks": 1556,
            "time": 18.093023255813954,
            "velocity": 0.14173228346456693
          },
          {
            "duration": 0.04651162790697683,
            "durationTicks": 4,
            "midi": 90,
            "name": "F#6",
            "ticks": 1556,
            "time": 18.093023255813954,
            "velocity": 0.11811023622047244
          },
          {
            "duration": 0.08139534883721211,
            "durationTicks": 7,
            "midi": 81,
            "name": "A5",
            "ticks": 1558,
            "time": 18.11627906976744,
            "velocity": 0.16535433070866143
          },
          {
            "duration": 0.12790697674418894,
            "durationTicks": 11,
            "midi": 88,
            "name": "E6",
            "ticks": 1558,
            "time": 18.11627906976744,
            "velocity": 0.14173228346456693
          },
          {
            "duration": 0.034883720930235285,
            "durationTicks": 3,
            "midi": 89,
            "name": "F6",
            "ticks": 1558,
            "time": 18.11627906976744,
            "velocity": 0.14173228346456693
          },
          {
            "duration": 0.06976744186046702,
            "durationTicks": 6,
            "midi": 79,
            "name": "G5",
            "ticks": 1559,
            "time": 18.127906976744185,
            "velocity": 0.11023622047244094
          },
          {
            "duration": 0.04651162790697683,
            "durationTicks": 4,
            "midi": 84,
            "name": "C6",
            "ticks": 1559,
            "time": 18.127906976744185,
            "velocity": 0.11811023622047244
          },
          {
            "duration": 0.03488372093023173,
            "durationTicks": 3,
            "midi": 85,
            "name": "C#6",
            "ticks": 1559,
            "time": 18.127906976744185,
            "velocity": 0.09448818897637795
          },
          {
            "duration": 0.04651162790697683,
            "durationTicks": 4,
            "midi": 92,
            "name": "G#6",
            "ticks": 1559,
            "time": 18.127906976744185,
            "velocity": 0.10236220472440945
          },
          {
            "duration": 0.03488372093023173,
            "durationTicks": 3,
            "midi": 67,
            "name": "G4",
            "ticks": 1560,
            "time": 18.13953488372093,
            "velocity": 0.11023622047244094
          },
          {
            "duration": 0.03488372093023173,
            "durationTicks": 3,
            "midi": 71,
            "name": "B4",
            "ticks": 1560,
            "time": 18.13953488372093,
            "velocity": 0.1889763779527559
          },
          {
            "duration": 0.03488372093023173,
            "durationTicks": 3,
            "midi": 90,
            "name": "F#6",
            "ticks": 1561,
            "time": 18.151162790697676,
            "velocity": 0.11811023622047244
          },
          {
            "duration": 0.05813953488372192,
            "durationTicks": 5,
            "midi": 64,
            "name": "E4",
            "ticks": 1562,
            "time": 18.162790697674417,
            "velocity": 0.1889763779527559
          },
          {
            "duration": 0.11627906976744384,
            "durationTicks": 10,
            "midi": 89,
            "name": "F6",
            "ticks": 1562,
            "time": 18.162790697674417,
            "velocity": 0.14173228346456693
          },
          {
            "duration": 0.06976744186046702,
            "durationTicks": 6,
            "midi": 83,
            "name": "B5",
            "ticks": 1563,
            "time": 18.174418604651162,
            "velocity": 0.08661417322834646
          },
          {
            "duration": 0.03488372093023173,
            "durationTicks": 3,
            "midi": 96,
            "name": "C7",
            "ticks": 1563,
            "time": 18.174418604651162,
            "velocity": 0.08661417322834646
          },
          {
            "duration": 0.05813953488372192,
            "durationTicks": 5,
            "midi": 78,
            "name": "F#5",
            "ticks": 1564,
            "time": 18.186046511627907,
            "velocity": 0.13385826771653545
          },
          {
            "duration": 0.03488372093023173,
            "durationTicks": 3,
            "midi": 99,
            "name": "D#7",
            "ticks": 1565,
            "time": 18.197674418604652,
            "velocity": 0.07874015748031496
          },
          {
            "duration": 0.08139534883721211,
            "durationTicks": 7,
            "midi": 92,
            "name": "G#6",
            "ticks": 1566,
            "time": 18.209302325581394,
            "velocity": 0.12598425196850394
          },
          {
            "duration": 0.034883720930235285,
            "durationTicks": 3,
            "midi": 93,
            "name": "A6",
            "ticks": 1566,
            "time": 18.209302325581394,
            "velocity": 0.07874015748031496
          },
          {
            "duration": 0.05813953488372192,
            "durationTicks": 5,
            "midi": 97,
            "name": "C#7",
            "ticks": 1566,
            "time": 18.209302325581394,
            "velocity": 0.15748031496062992
          },
          {
            "duration": 0.06976744186046702,
            "durationTicks": 6,
            "midi": 86,
            "name": "D6",
            "ticks": 1567,
            "time": 18.22093023255814,
            "velocity": 0.10236220472440945
          },
          {
            "duration": 0.04651162790697683,
            "durationTicks": 4,
            "midi": 80,
            "name": "G#5",
            "ticks": 1568,
            "time": 18.232558139534884,
            "velocity": 0.12598425196850394
          },
          {
            "duration": 0.11627906976744029,
            "durationTicks": 10,
            "midi": 98,
            "name": "D7",
            "ticks": 1568,
            "time": 18.232558139534884,
            "velocity": 0.11811023622047244
          },
          {
            "duration": 0.12790697674418539,
            "durationTicks": 11,
            "midi": 102,
            "name": "F#7",
            "ticks": 1568,
            "time": 18.232558139534884,
            "velocity": 0.11023622047244094
          },
          {
            "duration": 0.06976744186046702,
            "durationTicks": 6,
            "midi": 96,
            "name": "C7",
            "ticks": 1570,
            "time": 18.25581395348837,
            "velocity": 0.14960629921259844
          },
          {
            "duration": 0.03488372093023173,
            "durationTicks": 3,
            "midi": 93,
            "name": "A6",
            "ticks": 1571,
            "time": 18.267441860465116,
            "velocity": 0.14960629921259844
          },
          {
            "duration": 0.04651162790697683,
            "durationTicks": 4,
            "midi": 81,
            "name": "A5",
            "ticks": 1572,
            "time": 18.27906976744186,
            "velocity": 0.16535433070866143
          },
          {
            "duration": 0.05813953488372192,
            "durationTicks": 5,
            "midi": 90,
            "name": "F#6",
            "ticks": 1572,
            "time": 18.27906976744186,
            "velocity": 0.14960629921259844
          },
          {
            "duration": 0.05813953488371837,
            "durationTicks": 5,
            "midi": 87,
            "name": "D#6",
            "ticks": 1573,
            "time": 18.290697674418606,
            "velocity": 0.12598425196850394
          },
          {
            "duration": 0.13953488372093048,
            "durationTicks": 12,
            "midi": 97,
            "name": "C#7",
            "ticks": 1573,
            "time": 18.290697674418606,
            "velocity": 0.11811023622047244
          },
          {
            "duration": 0.034883720930235285,
            "durationTicks": 3,
            "midi": 78,
            "name": "F#5",
            "ticks": 1574,
            "time": 18.302325581395348,
            "velocity": 0.14173228346456693
          },
          {
            "duration": 0.12790697674418894,
            "durationTicks": 11,
            "midi": 88,
            "name": "E6",
            "ticks": 1574,
            "time": 18.302325581395348,
            "velocity": 0.14173228346456693
          },
          {
            "duration": 0.03488372093023173,
            "durationTicks": 3,
            "midi": 61,
            "name": "C#4",
            "ticks": 1575,
            "time": 18.313953488372093,
            "velocity": 0.11811023622047244
          },
          {
            "duration": 0.10465116279069875,
            "durationTicks": 9,
            "midi": 92,
            "name": "G#6",
            "ticks": 1575,
            "time": 18.313953488372093,
            "velocity": 0.12598425196850394
          },
          {
            "duration": 0.11627906976744029,
            "durationTicks": 10,
            "midi": 91,
            "name": "G6",
            "ticks": 1577,
            "time": 18.337209302325583,
            "velocity": 0.15748031496062992
          },
          {
            "duration": 0.1046511627906952,
            "durationTicks": 9,
            "midi": 96,
            "name": "C7",
            "ticks": 1577,
            "time": 18.337209302325583,
            "velocity": 0.11811023622047244
          },
          {
            "duration": 0.04651162790697683,
            "durationTicks": 4,
            "midi": 82,
            "name": "A#5",
            "ticks": 1578,
            "time": 18.348837209302324,
            "velocity": 0.12598425196850394
          },
          {
            "duration": 0.05813953488372192,
            "durationTicks": 5,
            "midi": 89,
            "name": "F6",
            "ticks": 1578,
            "time": 18.348837209302324,
            "velocity": 0.11023622047244094
          },
          {
            "duration": 0.16279069767442067,
            "durationTicks": 14,
            "midi": 99,
            "name": "D#7",
            "ticks": 1578,
            "time": 18.348837209302324,
            "velocity": 0.14173228346456693
          },
          {
            "duration": 0.06976744186046702,
            "durationTicks": 6,
            "midi": 83,
            "name": "B5",
            "ticks": 1579,
            "time": 18.36046511627907,
            "velocity": 0.14173228346456693
          },
          {
            "duration": 0.03488372093023173,
            "durationTicks": 3,
            "midi": 75,
            "name": "D#5",
            "ticks": 1580,
            "time": 18.372093023255815,
            "velocity": 0.13385826771653545
          },
          {
            "duration": 0.05813953488372192,
            "durationTicks": 5,
            "midi": 81,
            "name": "A5",
            "ticks": 1580,
            "time": 18.372093023255815,
            "velocity": 0.14960629921259844
          },
          {
            "duration": 0.06976744186046346,
            "durationTicks": 6,
            "midi": 102,
            "name": "F#7",
            "ticks": 1580,
            "time": 18.372093023255815,
            "velocity": 0.11023622047244094
          },
          {
            "duration": 0.13953488372092693,
            "durationTicks": 12,
            "midi": 79,
            "name": "G5",
            "ticks": 1581,
            "time": 18.38372093023256,
            "velocity": 0.14960629921259844
          },
          {
            "duration": 0.1976744186046524,
            "durationTicks": 17,
            "midi": 90,
            "name": "F#6",
            "ticks": 1583,
            "time": 18.406976744186046,
            "velocity": 0.16535433070866143
          },
          {
            "duration": 0.06976744186046702,
            "durationTicks": 6,
            "midi": 101,
            "name": "F7",
            "ticks": 1583,
            "time": 18.406976744186046,
            "velocity": 0.09448818897637795
          },
          {
            "duration": 0.08139534883720856,
            "durationTicks": 7,
            "midi": 95,
            "name": "B6",
            "ticks": 1584,
            "time": 18.41860465116279,
            "velocity": 0.1732283464566929
          },
          {
            "duration": 0.0930232558139501,
            "durationTicks": 8,
            "midi": 84,
            "name": "C6",
            "ticks": 1585,
            "time": 18.430232558139537,
            "velocity": 0.1889763779527559
          },
          {
            "duration": 0.13953488372092693,
            "durationTicks": 12,
            "midi": 92,
            "name": "G#6",
            "ticks": 1585,
            "time": 18.430232558139537,
            "velocity": 0.14173228346456693
          },
          {
            "duration": 0.03488372093023173,
            "durationTicks": 3,
            "midi": 98,
            "name": "D7",
            "ticks": 1585,
            "time": 18.430232558139537,
            "velocity": 0.11023622047244094
          },
          {
            "duration": 0.04651162790697683,
            "durationTicks": 4,
            "midi": 93,
            "name": "A6",
            "ticks": 1586,
            "time": 18.441860465116278,
            "velocity": 0.13385826771653545
          },
          {
            "duration": 0.05813953488372192,
            "durationTicks": 5,
            "midi": 87,
            "name": "D#6",
            "ticks": 1587,
            "time": 18.453488372093023,
            "velocity": 0.1732283464566929
          },
          {
            "duration": 0.05813953488372192,
            "durationTicks": 5,
            "midi": 89,
            "name": "F6",
            "ticks": 1587,
            "time": 18.453488372093023,
            "velocity": 0.13385826771653545
          },
          {
            "duration": 0.11627906976744029,
            "durationTicks": 10,
            "midi": 97,
            "name": "C#7",
            "ticks": 1587,
            "time": 18.453488372093023,
            "velocity": 0.10236220472440945
          },
          {
            "duration": 0.03488372093023173,
            "durationTicks": 3,
            "midi": 75,
            "name": "D#5",
            "ticks": 1588,
            "time": 18.46511627906977,
            "velocity": 0.07086614173228346
          },
          {
            "duration": 0.06976744186046346,
            "durationTicks": 6,
            "midi": 94,
            "name": "A#6",
            "ticks": 1589,
            "time": 18.476744186046513,
            "velocity": 0.13385826771653545
          },
          {
            "duration": 0.06976744186046346,
            "durationTicks": 6,
            "midi": 100,
            "name": "E7",
            "ticks": 1589,
            "time": 18.476744186046513,
            "velocity": 0.10236220472440945
          },
          {
            "duration": 0.06976744186046346,
            "durationTicks": 6,
            "midi": 64,
            "name": "E4",
            "ticks": 1591,
            "time": 18.5,
            "velocity": 0.13385826771653545
          },
          {
            "duration": 0.03488372093023173,
            "durationTicks": 3,
            "midi": 74,
            "name": "D5",
            "ticks": 1591,
            "time": 18.5,
            "velocity": 0.13385826771653545
          },
          {
            "duration": 0.04651162790697683,
            "durationTicks": 4,
            "midi": 81,
            "name": "A5",
            "ticks": 1591,
            "time": 18.5,
            "velocity": 0.07086614173228346
          },
          {
            "duration": 0.08139534883720856,
            "durationTicks": 7,
            "midi": 83,
            "name": "B5",
            "ticks": 1591,
            "time": 18.5,
            "velocity": 0.14960629921259844
          },
          {
            "duration": 0.04651162790697683,
            "durationTicks": 4,
            "midi": 98,
            "name": "D7",
            "ticks": 1591,
            "time": 18.5,
            "velocity": 0.07874015748031496
          },
          {
            "duration": 0.05813953488371837,
            "durationTicks": 5,
            "midi": 71,
            "name": "B4",
            "ticks": 1592,
            "time": 18.511627906976745,
            "velocity": 0.13385826771653545
          },
          {
            "duration": 0.05813953488372192,
            "durationTicks": 5,
            "midi": 80,
            "name": "G#5",
            "ticks": 1593,
            "time": 18.523255813953487,
            "velocity": 0.18110236220472442
          },
          {
            "duration": 0.2093023255813975,
            "durationTicks": 18,
            "midi": 99,
            "name": "D#7",
            "ticks": 1593,
            "time": 18.523255813953487,
            "velocity": 0.14960629921259844
          },
          {
            "duration": 0.06976744186046702,
            "durationTicks": 6,
            "midi": 101,
            "name": "F7",
            "ticks": 1593,
            "time": 18.523255813953487,
            "velocity": 0.11023622047244094
          },
          {
            "duration": 0.04651162790697683,
            "durationTicks": 4,
            "midi": 84,
            "name": "C6",
            "ticks": 1595,
            "time": 18.546511627906977,
            "velocity": 0.08661417322834646
          },
          {
            "duration": 0.06976744186046346,
            "durationTicks": 6,
            "midi": 88,
            "name": "E6",
            "ticks": 1595,
            "time": 18.546511627906977,
            "velocity": 0.11811023622047244
          },
          {
            "duration": 0.04651162790697683,
            "durationTicks": 4,
            "midi": 91,
            "name": "G6",
            "ticks": 1595,
            "time": 18.546511627906977,
            "velocity": 0.1732283464566929
          },
          {
            "duration": 0.04651162790697683,
            "durationTicks": 4,
            "midi": 93,
            "name": "A6",
            "ticks": 1596,
            "time": 18.558139534883722,
            "velocity": 0.11023622047244094
          },
          {
            "duration": 0.04651162790697683,
            "durationTicks": 4,
            "midi": 81,
            "name": "A5",
            "ticks": 1597,
            "time": 18.569767441860463,
            "velocity": 0.1732283464566929
          },
          {
            "duration": 0.08139534883721211,
            "durationTicks": 7,
            "midi": 94,
            "name": "A#6",
            "ticks": 1597,
            "time": 18.569767441860463,
            "velocity": 0.07874015748031496
          },
          {
            "duration": 0.15116279069767558,
            "durationTicks": 13,
            "midi": 96,
            "name": "C7",
            "ticks": 1597,
            "time": 18.569767441860463,
            "velocity": 0.13385826771653545
          },
          {
            "duration": 0.03488372093023173,
            "durationTicks": 3,
            "midi": 72,
            "name": "C5",
            "ticks": 1598,
            "time": 18.58139534883721,
            "velocity": 0.16535433070866143
          },
          {
            "duration": 0.09302325581395365,
            "durationTicks": 8,
            "midi": 95,
            "name": "B6",
            "ticks": 1598,
            "time": 18.58139534883721,
            "velocity": 0.13385826771653545
          },
          {
            "duration": 0.05813953488372192,
            "durationTicks": 5,
            "midi": 92,
            "name": "G#6",
            "ticks": 1599,
            "time": 18.593023255813954,
            "velocity": 0.15748031496062992
          },
          {
            "duration": 0.04651162790697683,
            "durationTicks": 4,
            "midi": 85,
            "name": "C#6",
            "ticks": 1600,
            "time": 18.6046511627907,
            "velocity": 0.12598425196850394
          },
          {
            "duration": 0.03488372093023173,
            "durationTicks": 3,
            "midi": 86,
            "name": "D6",
            "ticks": 1600,
            "time": 18.6046511627907,
            "velocity": 0.1968503937007874
          },
          {
            "duration": 0.04651162790697683,
            "durationTicks": 4,
            "midi": 70,
            "name": "A#4",
            "ticks": 1601,
            "time": 18.61627906976744,
            "velocity": 0.11811023622047244
          },
          {
            "duration": 0.04651162790697683,
            "durationTicks": 4,
            "midi": 77,
            "name": "F5",
            "ticks": 1602,
            "time": 18.627906976744185,
            "velocity": 0.13385826771653545
          },
          {
            "duration": 0.03488372093023173,
            "durationTicks": 3,
            "midi": 55,
            "name": "G3",
            "ticks": 1603,
            "time": 18.63953488372093,
            "velocity": 0.12598425196850394
          },
          {
            "duration": 0.03488372093023173,
            "durationTicks": 3,
            "midi": 84,
            "name": "C6",
            "ticks": 1603,
            "time": 18.63953488372093,
            "velocity": 0.08661417322834646
          },
          {
            "duration": 0.04651162790697683,
            "durationTicks": 4,
            "midi": 87,
            "name": "D#6",
            "ticks": 1604,
            "time": 18.651162790697676,
            "velocity": 0.16535433070866143
          },
          {
            "duration": 0.04651162790697683,
            "durationTicks": 4,
            "midi": 90,
            "name": "F#6",
            "ticks": 1604,
            "time": 18.651162790697676,
            "velocity": 0.11023622047244094
          },
          {
            "duration": 0.03488372093023173,
            "durationTicks": 3,
            "midi": 97,
            "name": "C#7",
            "ticks": 1604,
            "time": 18.651162790697676,
            "velocity": 0.09448818897637795
          },
          {
            "duration": 0.034883720930235285,
            "durationTicks": 3,
            "midi": 78,
            "name": "F#5",
            "ticks": 1605,
            "time": 18.662790697674417,
            "velocity": 0.16535433070866143
          },
          {
            "duration": 0.05813953488372192,
            "durationTicks": 5,
            "midi": 86,
            "name": "D6",
            "ticks": 1605,
            "time": 18.662790697674417,
            "velocity": 0.10236220472440945
          },
          {
            "duration": 0.09302325581395365,
            "durationTicks": 8,
            "midi": 82,
            "name": "A#5",
            "ticks": 1607,
            "time": 18.686046511627907,
            "velocity": 0.14960629921259844
          },
          {
            "duration": 0.04651162790697683,
            "durationTicks": 4,
            "midi": 85,
            "name": "C#6",
            "ticks": 1607,
            "time": 18.686046511627907,
            "velocity": 0.14173228346456693
          },
          {
            "duration": 0.04651162790697683,
            "durationTicks": 4,
            "midi": 81,
            "name": "A5",
            "ticks": 1609,
            "time": 18.709302325581394,
            "velocity": 0.12598425196850394
          },
          {
            "duration": 0.05813953488372192,
            "durationTicks": 5,
            "midi": 95,
            "name": "B6",
            "ticks": 1609,
            "time": 18.709302325581394,
            "velocity": 0.11811023622047244
          },
          {
            "duration": 0.04651162790697683,
            "durationTicks": 4,
            "midi": 88,
            "name": "E6",
            "ticks": 1610,
            "time": 18.72093023255814,
            "velocity": 0.18110236220472442
          },
          {
            "duration": 0.10465116279069875,
            "durationTicks": 9,
            "midi": 90,
            "name": "F#6",
            "ticks": 1610,
            "time": 18.72093023255814,
            "velocity": 0.10236220472440945
          },
          {
            "duration": 0.08139534883720856,
            "durationTicks": 7,
            "midi": 101,
            "name": "F7",
            "ticks": 1610,
            "time": 18.72093023255814,
            "velocity": 0.07874015748031496
          },
          {
            "duration": 0.03488372093023173,
            "durationTicks": 3,
            "midi": 76,
            "name": "E5",
            "ticks": 1611,
            "time": 18.732558139534884,
            "velocity": 0.1732283464566929
          },
          {
            "duration": 0.03488372093023173,
            "durationTicks": 3,
            "midi": 92,
            "name": "G#6",
            "ticks": 1611,
            "time": 18.732558139534884,
            "velocity": 0.07086614173228346
          },
          {
            "duration": 0.04651162790697683,
            "durationTicks": 4,
            "midi": 79,
            "name": "G5",
            "ticks": 1613,
            "time": 18.75581395348837,
            "velocity": 0.14173228346456693
          },
          {
            "duration": 0.11627906976744384,
            "durationTicks": 10,
            "midi": 84,
            "name": "C6",
            "ticks": 1613,
            "time": 18.75581395348837,
            "velocity": 0.13385826771653545
          },
          {
            "duration": 0.04651162790697683,
            "durationTicks": 4,
            "midi": 93,
            "name": "A6",
            "ticks": 1613,
            "time": 18.75581395348837,
            "velocity": 0.10236220472440945
          },
          {
            "duration": 0.09302325581395365,
            "durationTicks": 8,
            "midi": 77,
            "name": "F5",
            "ticks": 1614,
            "time": 18.767441860465116,
            "velocity": 0.13385826771653545
          },
          {
            "duration": 0.03488372093023173,
            "durationTicks": 3,
            "midi": 85,
            "name": "C#6",
            "ticks": 1614,
            "time": 18.767441860465116,
            "velocity": 0.14173228346456693
          },
          {
            "duration": 0.04651162790697683,
            "durationTicks": 4,
            "midi": 87,
            "name": "D#6",
            "ticks": 1614,
            "time": 18.767441860465116,
            "velocity": 0.09448818897637795
          },
          {
            "duration": 0.09302325581395365,
            "durationTicks": 8,
            "midi": 99,
            "name": "D#7",
            "ticks": 1615,
            "time": 18.77906976744186,
            "velocity": 0.09448818897637795
          },
          {
            "duration": 0.03488372093023173,
            "durationTicks": 3,
            "midi": 75,
            "name": "D#5",
            "ticks": 1616,
            "time": 18.790697674418606,
            "velocity": 0.14173228346456693
          },
          {
            "duration": 0.12790697674418539,
            "durationTicks": 11,
            "midi": 98,
            "name": "D7",
            "ticks": 1616,
            "time": 18.790697674418606,
            "velocity": 0.11023622047244094
          },
          {
            "duration": 0.05813953488372192,
            "durationTicks": 5,
            "midi": 80,
            "name": "G#5",
            "ticks": 1617,
            "time": 18.802325581395348,
            "velocity": 0.15748031496062992
          },
          {
            "duration": 0.05813953488372192,
            "durationTicks": 5,
            "midi": 88,
            "name": "E6",
            "ticks": 1617,
            "time": 18.802325581395348,
            "velocity": 0.13385826771653545
          },
          {
            "duration": 0.03488372093023173,
            "durationTicks": 3,
            "midi": 63,
            "name": "D#4",
            "ticks": 1618,
            "time": 18.813953488372093,
            "velocity": 0.12598425196850394
          },
          {
            "duration": 0.04651162790697683,
            "durationTicks": 4,
            "midi": 83,
            "name": "B5",
            "ticks": 1618,
            "time": 18.813953488372093,
            "velocity": 0.16535433070866143
          },
          {
            "duration": 0.06976744186046702,
            "durationTicks": 6,
            "midi": 94,
            "name": "A#6",
            "ticks": 1618,
            "time": 18.813953488372093,
            "velocity": 0.10236220472440945
          },
          {
            "duration": 0.03488372093023173,
            "durationTicks": 3,
            "midi": 91,
            "name": "G6",
            "ticks": 1620,
            "time": 18.837209302325583,
            "velocity": 0.11023622047244094
          },
          {
            "duration": 0.1046511627906952,
            "durationTicks": 9,
            "midi": 96,
            "name": "C7",
            "ticks": 1620,
            "time": 18.837209302325583,
            "velocity": 0.13385826771653545
          },
          {
            "duration": 0.06976744186046346,
            "durationTicks": 6,
            "midi": 97,
            "name": "C#7",
            "ticks": 1620,
            "time": 18.837209302325583,
            "velocity": 0.07874015748031496
          },
          {
            "duration": 0.034883720930235285,
            "durationTicks": 3,
            "midi": 55,
            "name": "G3",
            "ticks": 1621,
            "time": 18.848837209302324,
            "velocity": 0.14960629921259844
          },
          {
            "duration": 0.04651162790697683,
            "durationTicks": 4,
            "midi": 71,
            "name": "B4",
            "ticks": 1621,
            "time": 18.848837209302324,
            "velocity": 0.08661417322834646
          },
          {
            "duration": 0.12790697674418894,
            "durationTicks": 11,
            "midi": 93,
            "name": "A6",
            "ticks": 1621,
            "time": 18.848837209302324,
            "velocity": 0.13385826771653545
          },
          {
            "duration": 0.04651162790697683,
            "durationTicks": 4,
            "midi": 87,
            "name": "D#6",
            "ticks": 1622,
            "time": 18.86046511627907,
            "velocity": 0.14960629921259844
          },
          {
            "duration": 0.05813953488372192,
            "durationTicks": 5,
            "midi": 90,
            "name": "F#6",
            "ticks": 1622,
            "time": 18.86046511627907,
            "velocity": 0.11811023622047244
          },
          {
            "duration": 0.09302325581395365,
            "durationTicks": 8,
            "midi": 100,
            "name": "E7",
            "ticks": 1622,
            "time": 18.86046511627907,
            "velocity": 0.07874015748031496
          },
          {
            "duration": 0.04651162790697683,
            "durationTicks": 4,
            "midi": 78,
            "name": "F#5",
            "ticks": 1623,
            "time": 18.872093023255815,
            "velocity": 0.12598425196850394
          },
          {
            "duration": 0.16279069767441712,
            "durationTicks": 14,
            "midi": 89,
            "name": "F6",
            "ticks": 1624,
            "time": 18.88372093023256,
            "velocity": 0.14173228346456693
          },
          {
            "duration": 0.03488372093023173,
            "durationTicks": 3,
            "midi": 103,
            "name": "G7",
            "ticks": 1624,
            "time": 18.88372093023256,
            "velocity": 0.07086614173228346
          },
          {
            "duration": 0.08139534883721211,
            "durationTicks": 7,
            "midi": 86,
            "name": "D6",
            "ticks": 1625,
            "time": 18.8953488372093,
            "velocity": 0.13385826771653545
          },
          {
            "duration": 0.04651162790697683,
            "durationTicks": 4,
            "midi": 67,
            "name": "G4",
            "ticks": 1627,
            "time": 18.91860465116279,
            "velocity": 0.13385826771653545
          },
          {
            "duration": 0.03488372093023173,
            "durationTicks": 3,
            "midi": 94,
            "name": "A#6",
            "ticks": 1627,
            "time": 18.91860465116279,
            "velocity": 0.12598425196850394
          },
          {
            "duration": 0.03488372093023173,
            "durationTicks": 3,
            "midi": 102,
            "name": "F#7",
            "ticks": 1627,
            "time": 18.91860465116279,
            "velocity": 0.09448818897637795
          },
          {
            "duration": 0.03488372093023173,
            "durationTicks": 3,
            "midi": 74,
            "name": "D5",
            "ticks": 1628,
            "time": 18.930232558139537,
            "velocity": 0.15748031496062992
          },
          {
            "duration": 0.034883720930235285,
            "durationTicks": 3,
            "midi": 80,
            "name": "G#5",
            "ticks": 1629,
            "time": 18.941860465116278,
            "velocity": 0.08661417322834646
          },
          {
            "duration": 0.04651162790697683,
            "durationTicks": 4,
            "midi": 84,
            "name": "C6",
            "ticks": 1629,
            "time": 18.941860465116278,
            "velocity": 0.13385826771653545
          },
          {
            "duration": 0.034883720930235285,
            "durationTicks": 3,
            "midi": 91,
            "name": "G6",
            "ticks": 1629,
            "time": 18.941860465116278,
            "velocity": 0.08661417322834646
          },
          {
            "duration": 0.03488372093023173,
            "durationTicks": 3,
            "midi": 60,
            "name": "C4",
            "ticks": 1631,
            "time": 18.96511627906977,
            "velocity": 0.14173228346456693
          },
          {
            "duration": 0.03488372093023173,
            "durationTicks": 3,
            "midi": 79,
            "name": "G5",
            "ticks": 1631,
            "time": 18.96511627906977,
            "velocity": 0.11023622047244094
          },
          {
            "duration": 0.08139534883720856,
            "durationTicks": 7,
            "midi": 81,
            "name": "A5",
            "ticks": 1631,
            "time": 18.96511627906977,
            "velocity": 0.14960629921259844
          },
          {
            "duration": 0.03488372093023173,
            "durationTicks": 3,
            "midi": 74,
            "name": "D5",
            "ticks": 1632,
            "time": 18.976744186046513,
            "velocity": 0.12598425196850394
          },
          {
            "duration": 0.13953488372092693,
            "durationTicks": 12,
            "midi": 88,
            "name": "E6",
            "ticks": 1632,
            "time": 18.976744186046513,
            "velocity": 0.12598425196850394
          },
          {
            "duration": 0.1046511627906952,
            "durationTicks": 9,
            "midi": 92,
            "name": "G#6",
            "ticks": 1632,
            "time": 18.976744186046513,
            "velocity": 0.16535433070866143
          },
          {
            "duration": 0.03488372093023173,
            "durationTicks": 3,
            "midi": 77,
            "name": "F5",
            "ticks": 1633,
            "time": 18.988372093023255,
            "velocity": 0.08661417322834646
          },
          {
            "duration": 0.22093023255813904,
            "durationTicks": 19,
            "midi": 97,
            "name": "C#7",
            "ticks": 1633,
            "time": 18.988372093023255,
            "velocity": 0.11811023622047244
          },
          {
            "duration": 0.05813953488372192,
            "durationTicks": 5,
            "midi": 102,
            "name": "F#7",
            "ticks": 1633,
            "time": 18.988372093023255,
            "velocity": 0.07086614173228346
          },
          {
            "duration": 0.06976744186046346,
            "durationTicks": 6,
            "midi": 80,
            "name": "G#5",
            "ticks": 1634,
            "time": 19,
            "velocity": 0.11811023622047244
          },
          {
            "duration": 0.06976744186046346,
            "durationTicks": 6,
            "midi": 91,
            "name": "G6",
            "ticks": 1634,
            "time": 19,
            "velocity": 0.10236220472440945
          },
          {
            "duration": 0.3604651162790695,
            "durationTicks": 31,
            "midi": 94,
            "name": "A#6",
            "ticks": 1635,
            "time": 19.011627906976745,
            "velocity": 0.13385826771653545
          },
          {
            "duration": 0.034883720930235285,
            "durationTicks": 3,
            "midi": 68,
            "name": "G#4",
            "ticks": 1636,
            "time": 19.023255813953487,
            "velocity": 0.13385826771653545
          },
          {
            "duration": 0.08139534883721211,
            "durationTicks": 7,
            "midi": 83,
            "name": "B5",
            "ticks": 1636,
            "time": 19.023255813953487,
            "velocity": 0.14173228346456693
          },
          {
            "duration": 0.04651162790697683,
            "durationTicks": 4,
            "midi": 99,
            "name": "D#7",
            "ticks": 1638,
            "time": 19.046511627906977,
            "velocity": 0.09448818897637795
          },
          {
            "duration": 0.16279069767441712,
            "durationTicks": 14,
            "midi": 101,
            "name": "F7",
            "ticks": 1638,
            "time": 19.046511627906977,
            "velocity": 0.11811023622047244
          },
          {
            "duration": 0.05813953488371837,
            "durationTicks": 5,
            "midi": 103,
            "name": "G7",
            "ticks": 1639,
            "time": 19.058139534883722,
            "velocity": 0.15748031496062992
          },
          {
            "duration": 0.034883720930235285,
            "durationTicks": 3,
            "midi": 73,
            "name": "C#5",
            "ticks": 1640,
            "time": 19.069767441860463,
            "velocity": 0.12598425196850394
          },
          {
            "duration": 0.034883720930235285,
            "durationTicks": 3,
            "midi": 96,
            "name": "C7",
            "ticks": 1640,
            "time": 19.069767441860463,
            "velocity": 0.07874015748031496
          },
          {
            "duration": 0.03488372093023173,
            "durationTicks": 3,
            "midi": 78,
            "name": "F#5",
            "ticks": 1641,
            "time": 19.08139534883721,
            "velocity": 0.16535433070866143
          },
          {
            "duration": 0.03488372093023173,
            "durationTicks": 3,
            "midi": 86,
            "name": "D6",
            "ticks": 1641,
            "time": 19.08139534883721,
            "velocity": 0.08661417322834646
          },
          {
            "duration": 0.2558139534883743,
            "durationTicks": 22,
            "midi": 90,
            "name": "F#6",
            "ticks": 1641,
            "time": 19.08139534883721,
            "velocity": 0.16535433070866143
          },
          {
            "duration": 0.03488372093023173,
            "durationTicks": 3,
            "midi": 81,
            "name": "A5",
            "ticks": 1642,
            "time": 19.093023255813954,
            "velocity": 0.13385826771653545
          },
          {
            "duration": 0.03488372093023173,
            "durationTicks": 3,
            "midi": 68,
            "name": "G#4",
            "ticks": 1643,
            "time": 19.1046511627907,
            "velocity": 0.12598425196850394
          },
          {
            "duration": 0.04651162790697683,
            "durationTicks": 4,
            "midi": 84,
            "name": "C6",
            "ticks": 1643,
            "time": 19.1046511627907,
            "velocity": 0.18110236220472442
          },
          {
            "duration": 0.04651162790697683,
            "durationTicks": 4,
            "midi": 99,
            "name": "D#7",
            "ticks": 1643,
            "time": 19.1046511627907,
            "velocity": 0.14960629921259844
          },
          {
            "duration": 0.034883720930235285,
            "durationTicks": 3,
            "midi": 73,
            "name": "C#5",
            "ticks": 1644,
            "time": 19.11627906976744,
            "velocity": 0.14173228346456693
          },
          {
            "duration": 0.034883720930235285,
            "durationTicks": 3,
            "midi": 75,
            "name": "D#5",
            "ticks": 1644,
            "time": 19.11627906976744,
            "velocity": 0.11811023622047244
          },
          {
            "duration": 0.04651162790697683,
            "durationTicks": 4,
            "midi": 95,
            "name": "B6",
            "ticks": 1644,
            "time": 19.11627906976744,
            "velocity": 0.10236220472440945
          },
          {
            "duration": 0.04651162790697683,
            "durationTicks": 4,
            "midi": 62,
            "name": "D4",
            "ticks": 1645,
            "time": 19.127906976744185,
            "velocity": 0.1732283464566929
          },
          {
            "duration": 0.03488372093023173,
            "durationTicks": 3,
            "midi": 70,
            "name": "A#4",
            "ticks": 1645,
            "time": 19.127906976744185,
            "velocity": 0.13385826771653545
          },
          {
            "duration": 0.05813953488372192,
            "durationTicks": 5,
            "midi": 80,
            "name": "G#5",
            "ticks": 1645,
            "time": 19.127906976744185,
            "velocity": 0.12598425196850394
          },
          {
            "duration": 0.05813953488371837,
            "durationTicks": 5,
            "midi": 69,
            "name": "A4",
            "ticks": 1647,
            "time": 19.151162790697676,
            "velocity": 0.11811023622047244
          },
          {
            "duration": 0.04651162790697683,
            "durationTicks": 4,
            "midi": 91,
            "name": "G6",
            "ticks": 1648,
            "time": 19.162790697674417,
            "velocity": 0.14173228346456693
          },
          {
            "duration": 0.2209302325581426,
            "durationTicks": 19,
            "midi": 96,
            "name": "C7",
            "ticks": 1648,
            "time": 19.162790697674417,
            "velocity": 0.12598425196850394
          },
          {
            "duration": 0.06976744186046702,
            "durationTicks": 6,
            "midi": 76,
            "name": "E5",
            "ticks": 1649,
            "time": 19.174418604651162,
            "velocity": 0.15748031496062992
          },
          {
            "duration": 0.06976744186046702,
            "durationTicks": 6,
            "midi": 85,
            "name": "C#6",
            "ticks": 1649,
            "time": 19.174418604651162,
            "velocity": 0.11811023622047244
          },
          {
            "duration": 0.05813953488372192,
            "durationTicks": 5,
            "midi": 87,
            "name": "D#6",
            "ticks": 1649,
            "time": 19.174418604651162,
            "velocity": 0.14173228346456693
          },
          {
            "duration": 0.08139534883720856,
            "durationTicks": 7,
            "midi": 92,
            "name": "G#6",
            "ticks": 1650,
            "time": 19.186046511627907,
            "velocity": 0.09448818897637795
          },
          {
            "duration": 0.03488372093023173,
            "durationTicks": 3,
            "midi": 80,
            "name": "G#5",
            "ticks": 1651,
            "time": 19.197674418604652,
            "velocity": 0.14173228346456693
          },
          {
            "duration": 0.05813953488371837,
            "durationTicks": 5,
            "midi": 83,
            "name": "B5",
            "ticks": 1651,
            "time": 19.197674418604652,
            "velocity": 0.13385826771653545
          },
          {
            "duration": 0.034883720930235285,
            "durationTicks": 3,
            "midi": 68,
            "name": "G#4",
            "ticks": 1652,
            "time": 19.209302325581394,
            "velocity": 0.12598425196850394
          },
          {
            "duration": 0.10465116279069875,
            "durationTicks": 9,
            "midi": 98,
            "name": "D7",
            "ticks": 1652,
            "time": 19.209302325581394,
            "velocity": 0.12598425196850394
          },
          {
            "duration": 0.10465116279069875,
            "durationTicks": 9,
            "midi": 79,
            "name": "G5",
            "ticks": 1653,
            "time": 19.22093023255814,
            "velocity": 0.15748031496062992
          },
          {
            "duration": 0.03488372093023173,
            "durationTicks": 3,
            "midi": 73,
            "name": "C#5",
            "ticks": 1654,
            "time": 19.232558139534884,
            "velocity": 0.11023622047244094
          },
          {
            "duration": 0.10465116279069875,
            "durationTicks": 9,
            "midi": 101,
            "name": "F7",
            "ticks": 1654,
            "time": 19.232558139534884,
            "velocity": 0.13385826771653545
          },
          {
            "duration": 0.06976744186046346,
            "durationTicks": 6,
            "midi": 89,
            "name": "F6",
            "ticks": 1655,
            "time": 19.24418604651163,
            "velocity": 0.15748031496062992
          },
          {
            "duration": 0.11627906976744029,
            "durationTicks": 10,
            "midi": 99,
            "name": "D#7",
            "ticks": 1655,
            "time": 19.24418604651163,
            "velocity": 0.09448818897637795
          },
          {
            "duration": 0.034883720930235285,
            "durationTicks": 3,
            "midi": 82,
            "name": "A#5",
            "ticks": 1656,
            "time": 19.25581395348837,
            "velocity": 0.14960629921259844
          },
          {
            "duration": 0.04651162790697683,
            "durationTicks": 4,
            "midi": 74,
            "name": "D5",
            "ticks": 1657,
            "time": 19.267441860465116,
            "velocity": 0.14173228346456693
          },
          {
            "duration": 0.06976744186046702,
            "durationTicks": 6,
            "midi": 77,
            "name": "F5",
            "ticks": 1657,
            "time": 19.267441860465116,
            "velocity": 0.13385826771653545
          },
          {
            "duration": 0.03488372093023173,
            "durationTicks": 3,
            "midi": 55,
            "name": "G3",
            "ticks": 1658,
            "time": 19.27906976744186,
            "velocity": 0.14173228346456693
          },
          {
            "duration": 0.03488372093023173,
            "durationTicks": 3,
            "midi": 69,
            "name": "A4",
            "ticks": 1658,
            "time": 19.27906976744186,
            "velocity": 0.09448818897637795
          },
          {
            "duration": 0.22093023255813904,
            "durationTicks": 19,
            "midi": 81,
            "name": "A5",
            "ticks": 1658,
            "time": 19.27906976744186,
            "velocity": 0.16535433070866143
          },
          {
            "duration": 0.04651162790697683,
            "durationTicks": 4,
            "midi": 100,
            "name": "E7",
            "ticks": 1658,
            "time": 19.27906976744186,
            "velocity": 0.07086614173228346
          },
          {
            "duration": 0.04651162790697683,
            "durationTicks": 4,
            "midi": 85,
            "name": "C#6",
            "ticks": 1659,
            "time": 19.290697674418606,
            "velocity": 0.14173228346456693
          },
          {
            "duration": 0.03488372093023173,
            "durationTicks": 3,
            "midi": 87,
            "name": "D#6",
            "ticks": 1661,
            "time": 19.313953488372093,
            "velocity": 0.12598425196850394
          },
          {
            "duration": 0.04651162790697683,
            "durationTicks": 4,
            "midi": 88,
            "name": "E6",
            "ticks": 1661,
            "time": 19.313953488372093,
            "velocity": 0.14173228346456693
          },
          {
            "duration": 0.10465116279069875,
            "durationTicks": 9,
            "midi": 91,
            "name": "G6",
            "ticks": 1661,
            "time": 19.313953488372093,
            "velocity": 0.15748031496062992
          },
          {
            "duration": 0.03488372093023173,
            "durationTicks": 3,
            "midi": 84,
            "name": "C6",
            "ticks": 1662,
            "time": 19.325581395348838,
            "velocity": 0.10236220472440945
          },
          {
            "duration": 0.03488372093023173,
            "durationTicks": 3,
            "midi": 74,
            "name": "D5",
            "ticks": 1663,
            "time": 19.337209302325583,
            "velocity": 0.10236220472440945
          },
          {
            "duration": 0.04651162790697683,
            "durationTicks": 4,
            "midi": 77,
            "name": "F5",
            "ticks": 1664,
            "time": 19.348837209302324,
            "velocity": 0.16535433070866143
          },
          {
            "duration": 0.06976744186046702,
            "durationTicks": 6,
            "midi": 83,
            "name": "B5",
            "ticks": 1664,
            "time": 19.348837209302324,
            "velocity": 0.13385826771653545
          },
          {
            "duration": 0.04651162790697683,
            "durationTicks": 4,
            "midi": 63,
            "name": "D#4",
            "ticks": 1665,
            "time": 19.36046511627907,
            "velocity": 0.15748031496062992
          },
          {
            "duration": 0.03488372093023173,
            "durationTicks": 3,
            "midi": 80,
            "name": "G#5",
            "ticks": 1665,
            "time": 19.36046511627907,
            "velocity": 0.14173228346456693
          },
          {
            "duration": 0.16279069767441712,
            "durationTicks": 14,
            "midi": 101,
            "name": "F7",
            "ticks": 1665,
            "time": 19.36046511627907,
            "velocity": 0.13385826771653545
          },
          {
            "duration": 0.1860465116279073,
            "durationTicks": 16,
            "midi": 102,
            "name": "F#7",
            "ticks": 1665,
            "time": 19.36046511627907,
            "velocity": 0.09448818897637795
          },
          {
            "duration": 0.04651162790697683,
            "durationTicks": 4,
            "midi": 87,
            "name": "D#6",
            "ticks": 1666,
            "time": 19.372093023255815,
            "velocity": 0.14960629921259844
          },
          {
            "duration": 0.03488372093023173,
            "durationTicks": 3,
            "midi": 72,
            "name": "C5",
            "ticks": 1667,
            "time": 19.38372093023256,
            "velocity": 0.11023622047244094
          },
          {
            "duration": 0.03488372093023173,
            "durationTicks": 3,
            "midi": 90,
            "name": "F#6",
            "ticks": 1667,
            "time": 19.38372093023256,
            "velocity": 0.10236220472440945
          },
          {
            "duration": 0.04651162790697683,
            "durationTicks": 4,
            "midi": 86,
            "name": "D6",
            "ticks": 1668,
            "time": 19.3953488372093,
            "velocity": 0.14960629921259844
          },
          {
            "duration": 0.034883720930235285,
            "durationTicks": 3,
            "midi": 100,
            "name": "E7",
            "ticks": 1668,
            "time": 19.3953488372093,
            "velocity": 0.10236220472440945
          },
          {
            "duration": 0.04651162790697683,
            "durationTicks": 4,
            "midi": 69,
            "name": "A4",
            "ticks": 1669,
            "time": 19.406976744186046,
            "velocity": 0.14960629921259844
          },
          {
            "duration": 0.05813953488372192,
            "durationTicks": 5,
            "midi": 77,
            "name": "F5",
            "ticks": 1669,
            "time": 19.406976744186046,
            "velocity": 0.11023622047244094
          },
          {
            "duration": 0.03488372093023173,
            "durationTicks": 3,
            "midi": 58,
            "name": "A#3",
            "ticks": 1670,
            "time": 19.41860465116279,
            "velocity": 0.11023622047244094
          },
          {
            "duration": 0.05813953488372192,
            "durationTicks": 5,
            "midi": 84,
            "name": "C6",
            "ticks": 1670,
            "time": 19.41860465116279,
            "velocity": 0.11811023622047244
          },
          {
            "duration": 0.04651162790697683,
            "durationTicks": 4,
            "midi": 89,
            "name": "F6",
            "ticks": 1670,
            "time": 19.41860465116279,
            "velocity": 0.11811023622047244
          },
          {
            "duration": 0.03488372093023173,
            "durationTicks": 3,
            "midi": 92,
            "name": "G#6",
            "ticks": 1670,
            "time": 19.41860465116279,
            "velocity": 0.12598425196850394
          },
          {
            "duration": 0.0930232558139501,
            "durationTicks": 8,
            "midi": 90,
            "name": "F#6",
            "ticks": 1671,
            "time": 19.430232558139537,
            "velocity": 0.12598425196850394
          },
          {
            "duration": 0.1046511627906952,
            "durationTicks": 9,
            "midi": 91,
            "name": "G6",
            "ticks": 1671,
            "time": 19.430232558139537,
            "velocity": 0.13385826771653545
          },
          {
            "duration": 0.03488372093023173,
            "durationTicks": 3,
            "midi": 72,
            "name": "C5",
            "ticks": 1673,
            "time": 19.453488372093023,
            "velocity": 0.14173228346456693
          },
          {
            "duration": 0.03488372093023173,
            "durationTicks": 3,
            "midi": 88,
            "name": "E6",
            "ticks": 1673,
            "time": 19.453488372093023,
            "velocity": 0.10236220472440945
          },
          {
            "duration": 0.04651162790697683,
            "durationTicks": 4,
            "midi": 94,
            "name": "A#6",
            "ticks": 1673,
            "time": 19.453488372093023,
            "velocity": 0.1732283464566929
          },
          {
            "duration": 0.08139534883720856,
            "durationTicks": 7,
            "midi": 97,
            "name": "C#7",
            "ticks": 1673,
            "time": 19.453488372093023,
            "velocity": 0.09448818897637795
          },
          {
            "duration": 0.06976744186046346,
            "durationTicks": 6,
            "midi": 78,
            "name": "F#5",
            "ticks": 1674,
            "time": 19.46511627906977,
            "velocity": 0.12598425196850394
          },
          {
            "duration": 0.09302325581395365,
            "durationTicks": 8,
            "midi": 99,
            "name": "D#7",
            "ticks": 1674,
            "time": 19.46511627906977,
            "velocity": 0.08661417322834646
          },
          {
            "duration": 0.03488372093023173,
            "durationTicks": 3,
            "midi": 71,
            "name": "B4",
            "ticks": 1676,
            "time": 19.488372093023255,
            "velocity": 0.07874015748031496
          },
          {
            "duration": 0.03488372093023173,
            "durationTicks": 3,
            "midi": 84,
            "name": "C6",
            "ticks": 1676,
            "time": 19.488372093023255,
            "velocity": 0.08661417322834646
          },
          {
            "duration": 0.09302325581395365,
            "durationTicks": 8,
            "midi": 87,
            "name": "D#6",
            "ticks": 1676,
            "time": 19.488372093023255,
            "velocity": 0.13385826771653545
          },
          {
            "duration": 0.04651162790697683,
            "durationTicks": 4,
            "midi": 95,
            "name": "B6",
            "ticks": 1676,
            "time": 19.488372093023255,
            "velocity": 0.09448818897637795
          },
          {
            "duration": 0.03488372093023173,
            "durationTicks": 3,
            "midi": 98,
            "name": "D7",
            "ticks": 1676,
            "time": 19.488372093023255,
            "velocity": 0.14173228346456693
          },
          {
            "duration": 0.06976744186046346,
            "durationTicks": 6,
            "midi": 92,
            "name": "G#6",
            "ticks": 1677,
            "time": 19.5,
            "velocity": 0.16535433070866143
          },
          {
            "duration": 0.04651162790697683,
            "durationTicks": 4,
            "midi": 96,
            "name": "C7",
            "ticks": 1677,
            "time": 19.5,
            "velocity": 0.11811023622047244
          },
          {
            "duration": 0.06976744186046702,
            "durationTicks": 6,
            "midi": 80,
            "name": "G#5",
            "ticks": 1679,
            "time": 19.523255813953487,
            "velocity": 0.15748031496062992
          },
          {
            "duration": 0.05813953488372192,
            "durationTicks": 5,
            "midi": 94,
            "name": "A#6",
            "ticks": 1679,
            "time": 19.523255813953487,
            "velocity": 0.11811023622047244
          },
          {
            "duration": 0.034883720930235285,
            "durationTicks": 3,
            "midi": 100,
            "name": "E7",
            "ticks": 1679,
            "time": 19.523255813953487,
            "velocity": 0.09448818897637795
          },
          {
            "duration": 0.03488372093023173,
            "durationTicks": 3,
            "midi": 83,
            "name": "B5",
            "ticks": 1680,
            "time": 19.53488372093023,
            "velocity": 0.15748031496062992
          },
          {
            "duration": 0.03488372093023173,
            "durationTicks": 3,
            "midi": 86,
            "name": "D6",
            "ticks": 1680,
            "time": 19.53488372093023,
            "velocity": 0.10236220472440945
          },
          {
            "duration": 0.06976744186046702,
            "durationTicks": 6,
            "midi": 93,
            "name": "A6",
            "ticks": 1680,
            "time": 19.53488372093023,
            "velocity": 0.13385826771653545
          },
          {
            "duration": 0.04651162790697683,
            "durationTicks": 4,
            "midi": 90,
            "name": "F#6",
            "ticks": 1681,
            "time": 19.546511627906977,
            "velocity": 0.07874015748031496
          },
          {
            "duration": 0.05813953488371837,
            "durationTicks": 5,
            "midi": 91,
            "name": "G6",
            "ticks": 1682,
            "time": 19.558139534883722,
            "velocity": 0.14960629921259844
          },
          {
            "duration": 0.034883720930235285,
            "durationTicks": 3,
            "midi": 79,
            "name": "G5",
            "ticks": 1683,
            "time": 19.569767441860463,
            "velocity": 0.13385826771653545
          },
          {
            "duration": 0.04651162790697683,
            "durationTicks": 4,
            "midi": 89,
            "name": "F6",
            "ticks": 1683,
            "time": 19.569767441860463,
            "velocity": 0.14173228346456693
          },
          {
            "duration": 0.11627906976744384,
            "durationTicks": 10,
            "midi": 96,
            "name": "C7",
            "ticks": 1683,
            "time": 19.569767441860463,
            "velocity": 0.13385826771653545
          },
          {
            "duration": 0.03488372093023173,
            "durationTicks": 3,
            "midi": 81,
            "name": "A5",
            "ticks": 1684,
            "time": 19.58139534883721,
            "velocity": 0.15748031496062992
          },
          {
            "duration": 0.03488372093023173,
            "durationTicks": 3,
            "midi": 99,
            "name": "D#7",
            "ticks": 1684,
            "time": 19.58139534883721,
            "velocity": 0.13385826771653545
          },
          {
            "duration": 0.09302325581395365,
            "durationTicks": 8,
            "midi": 83,
            "name": "B5",
            "ticks": 1685,
            "time": 19.593023255813954,
            "velocity": 0.16535433070866143
          },
          {
            "duration": 0.12790697674418539,
            "durationTicks": 11,
            "midi": 85,
            "name": "C#6",
            "ticks": 1685,
            "time": 19.593023255813954,
            "velocity": 0.14173228346456693
          },
          {
            "duration": 0.03488372093023173,
            "durationTicks": 3,
            "midi": 61,
            "name": "C#4",
            "ticks": 1686,
            "time": 19.6046511627907,
            "velocity": 0.13385826771653545
          },
          {
            "duration": 0.03488372093023173,
            "durationTicks": 3,
            "midi": 71,
            "name": "B4",
            "ticks": 1686,
            "time": 19.6046511627907,
            "velocity": 0.11811023622047244
          },
          {
            "duration": 0.08139534883720856,
            "durationTicks": 7,
            "midi": 87,
            "name": "D#6",
            "ticks": 1686,
            "time": 19.6046511627907,
            "velocity": 0.14173228346456693
          },
          {
            "duration": 0.08139534883720856,
            "durationTicks": 7,
            "midi": 100,
            "name": "E7",
            "ticks": 1686,
            "time": 19.6046511627907,
            "velocity": 0.12598425196850394
          },
          {
            "duration": 0.17441860465116577,
            "durationTicks": 15,
            "midi": 78,
            "name": "F#5",
            "ticks": 1687,
            "time": 19.61627906976744,
            "velocity": 0.14173228346456693
          },
          {
            "duration": 0.034883720930235285,
            "durationTicks": 3,
            "midi": 86,
            "name": "D6",
            "ticks": 1687,
            "time": 19.61627906976744,
            "velocity": 0.07874015748031496
          },
          {
            "duration": 0.04651162790697683,
            "durationTicks": 4,
            "midi": 70,
            "name": "A#4",
            "ticks": 1689,
            "time": 19.63953488372093,
            "velocity": 0.07086614173228346
          },
          {
            "duration": 0.05813953488372192,
            "durationTicks": 5,
            "midi": 93,
            "name": "A6",
            "ticks": 1689,
            "time": 19.63953488372093,
            "velocity": 0.11811023622047244
          },
          {
            "duration": 0.03488372093023173,
            "durationTicks": 3,
            "midi": 73,
            "name": "C#5",
            "ticks": 1690,
            "time": 19.651162790697676,
            "velocity": 0.09448818897637795
          },
          {
            "duration": 0.1744186046511622,
            "durationTicks": 15,
            "midi": 98,
            "name": "D7",
            "ticks": 1690,
            "time": 19.651162790697676,
            "velocity": 0.07874015748031496
          },
          {
            "duration": 0.034883720930235285,
            "durationTicks": 3,
            "midi": 61,
            "name": "C#4",
            "ticks": 1691,
            "time": 19.662790697674417,
            "velocity": 0.11811023622047244
          },
          {
            "duration": 0.04651162790697683,
            "durationTicks": 4,
            "midi": 101,
            "name": "F7",
            "ticks": 1691,
            "time": 19.662790697674417,
            "velocity": 0.11023622047244094
          },
          {
            "duration": 0.03488372093023173,
            "durationTicks": 3,
            "midi": 84,
            "name": "C6",
            "ticks": 1692,
            "time": 19.674418604651162,
            "velocity": 0.13385826771653545
          },
          {
            "duration": 0.03488372093023173,
            "durationTicks": 3,
            "midi": 89,
            "name": "F6",
            "ticks": 1692,
            "time": 19.674418604651162,
            "velocity": 0.09448818897637795
          },
          {
            "duration": 0.06976744186046346,
            "durationTicks": 6,
            "midi": 88,
            "name": "E6",
            "ticks": 1693,
            "time": 19.686046511627907,
            "velocity": 0.13385826771653545
          },
          {
            "duration": 0.10465116279069875,
            "durationTicks": 9,
            "midi": 94,
            "name": "A#6",
            "ticks": 1693,
            "time": 19.686046511627907,
            "velocity": 0.11811023622047244
          },
          {
            "duration": 0.03488372093023173,
            "durationTicks": 3,
            "midi": 74,
            "name": "D5",
            "ticks": 1694,
            "time": 19.697674418604652,
            "velocity": 0.2283464566929134
          },
          {
            "duration": 0.04651162790697683,
            "durationTicks": 4,
            "midi": 83,
            "name": "B5",
            "ticks": 1695,
            "time": 19.709302325581394,
            "velocity": 0.14173228346456693
          },
          {
            "duration": 0.03488372093023173,
            "durationTicks": 3,
            "midi": 63,
            "name": "D#4",
            "ticks": 1696,
            "time": 19.72093023255814,
            "velocity": 0.1732283464566929
          },
          {
            "duration": 0.03488372093023173,
            "durationTicks": 3,
            "midi": 77,
            "name": "F5",
            "ticks": 1697,
            "time": 19.732558139534884,
            "velocity": 0.16535433070866143
          },
          {
            "duration": 0.13953488372093048,
            "durationTicks": 12,
            "midi": 91,
            "name": "G6",
            "ticks": 1697,
            "time": 19.732558139534884,
            "velocity": 0.09448818897637795
          },
          {
            "duration": 0.06976744186046346,
            "durationTicks": 6,
            "midi": 85,
            "name": "C#6",
            "ticks": 1698,
            "time": 19.74418604651163,
            "velocity": 0.13385826771653545
          },
          {
            "duration": 0.03488372093023173,
            "durationTicks": 3,
            "midi": 96,
            "name": "C7",
            "ticks": 1698,
            "time": 19.74418604651163,
            "velocity": 0.16535433070866143
          },
          {
            "duration": 0.09302325581395365,
            "durationTicks": 8,
            "midi": 102,
            "name": "F#7",
            "ticks": 1698,
            "time": 19.74418604651163,
            "velocity": 0.11023622047244094
          },
          {
            "duration": 0.09302325581395365,
            "durationTicks": 8,
            "midi": 87,
            "name": "D#6",
            "ticks": 1699,
            "time": 19.75581395348837,
            "velocity": 0.13385826771653545
          },
          {
            "duration": 0.034883720930235285,
            "durationTicks": 3,
            "midi": 93,
            "name": "A6",
            "ticks": 1699,
            "time": 19.75581395348837,
            "velocity": 0.10236220472440945
          },
          {
            "duration": 0.04651162790697683,
            "durationTicks": 4,
            "midi": 61,
            "name": "C#4",
            "ticks": 1700,
            "time": 19.767441860465116,
            "velocity": 0.14960629921259844
          },
          {
            "duration": 0.03488372093023173,
            "durationTicks": 3,
            "midi": 76,
            "name": "E5",
            "ticks": 1700,
            "time": 19.767441860465116,
            "velocity": 0.15748031496062992
          },
          {
            "duration": 0.03488372093023173,
            "durationTicks": 3,
            "midi": 83,
            "name": "B5",
            "ticks": 1701,
            "time": 19.77906976744186,
            "velocity": 0.14960629921259844
          },
          {
            "duration": 0.04651162790697683,
            "durationTicks": 4,
            "midi": 80,
            "name": "G#5",
            "ticks": 1702,
            "time": 19.790697674418606,
            "velocity": 0.10236220472440945
          },
          {
            "duration": 0.03488372093023173,
            "durationTicks": 3,
            "midi": 96,
            "name": "C7",
            "ticks": 1702,
            "time": 19.790697674418606,
            "velocity": 0.08661417322834646
          },
          {
            "duration": 0.03488372093023173,
            "durationTicks": 3,
            "midi": 55,
            "name": "G3",
            "ticks": 1704,
            "time": 19.813953488372093,
            "velocity": 0.13385826771653545
          },
          {
            "duration": 0.06976744186046702,
            "durationTicks": 6,
            "midi": 97,
            "name": "C#7",
            "ticks": 1704,
            "time": 19.813953488372093,
            "velocity": 0.10236220472440945
          },
          {
            "duration": 0.03488372093023173,
            "durationTicks": 3,
            "midi": 93,
            "name": "A6",
            "ticks": 1705,
            "time": 19.825581395348838,
            "velocity": 0.16535433070866143
          },
          {
            "duration": 0.04651162790697683,
            "durationTicks": 4,
            "midi": 103,
            "name": "G7",
            "ticks": 1705,
            "time": 19.825581395348838,
            "velocity": 0.14173228346456693
          },
          {
            "duration": 0.034883720930235285,
            "durationTicks": 3,
            "midi": 73,
            "name": "C#5",
            "ticks": 1707,
            "time": 19.848837209302324,
            "velocity": 0.14960629921259844
          },
          {
            "duration": 0.12790697674418894,
            "durationTicks": 11,
            "midi": 94,
            "name": "A#6",
            "ticks": 1707,
            "time": 19.848837209302324,
            "velocity": 0.12598425196850394
          },
          {
            "duration": 0.1744186046511622,
            "durationTicks": 15,
            "midi": 96,
            "name": "C7",
            "ticks": 1707,
            "time": 19.848837209302324,
            "velocity": 0.14960629921259844
          },
          {
            "duration": 0.04651162790697683,
            "durationTicks": 4,
            "midi": 71,
            "name": "B4",
            "ticks": 1708,
            "time": 19.86046511627907,
            "velocity": 0.11811023622047244
          },
          {
            "duration": 0.03488372093023173,
            "durationTicks": 3,
            "midi": 98,
            "name": "D7",
            "ticks": 1708,
            "time": 19.86046511627907,
            "velocity": 0.09448818897637795
          },
          {
            "duration": 0.05813953488372192,
            "durationTicks": 5,
            "midi": 100,
            "name": "E7",
            "ticks": 1708,
            "time": 19.86046511627907,
            "velocity": 0.07874015748031496
          },
          {
            "duration": 0.08139534883720856,
            "durationTicks": 7,
            "midi": 87,
            "name": "D#6",
            "ticks": 1709,
            "time": 19.872093023255815,
            "velocity": 0.14173228346456693
          },
          {
            "duration": 0.06976744186046346,
            "durationTicks": 6,
            "midi": 90,
            "name": "F#6",
            "ticks": 1709,
            "time": 19.872093023255815,
            "velocity": 0.09448818897637795
          },
          {
            "duration": 0.08139534883720856,
            "durationTicks": 7,
            "midi": 77,
            "name": "F5",
            "ticks": 1710,
            "time": 19.88372093023256,
            "velocity": 0.13385826771653545
          },
          {
            "duration": 0.03488372093023173,
            "durationTicks": 3,
            "midi": 81,
            "name": "A5",
            "ticks": 1710,
            "time": 19.88372093023256,
            "velocity": 0.15748031496062992
          },
          {
            "duration": 0.03488372093023173,
            "durationTicks": 3,
            "midi": 85,
            "name": "C#6",
            "ticks": 1710,
            "time": 19.88372093023256,
            "velocity": 0.1732283464566929
          },
          {
            "duration": 0.08139534883721211,
            "durationTicks": 7,
            "midi": 82,
            "name": "A#5",
            "ticks": 1711,
            "time": 19.8953488372093,
            "velocity": 0.14960629921259844
          },
          {
            "duration": 0.08139534883721211,
            "durationTicks": 7,
            "midi": 102,
            "name": "F#7",
            "ticks": 1711,
            "time": 19.8953488372093,
            "velocity": 0.12598425196850394
          },
          {
            "duration": 0.04651162790697683,
            "durationTicks": 4,
            "midi": 83,
            "name": "B5",
            "ticks": 1712,
            "time": 19.906976744186046,
            "velocity": 0.14173228346456693
          },
          {
            "duration": 0.04651162790697683,
            "durationTicks": 4,
            "midi": 101,
            "name": "F7",
            "ticks": 1712,
            "time": 19.906976744186046,
            "velocity": 0.08661417322834646
          },
          {
            "duration": 0.03488372093023173,
            "durationTicks": 3,
            "midi": 61,
            "name": "C#4",
            "ticks": 1713,
            "time": 19.91860465116279,
            "velocity": 0.13385826771653545
          },
          {
            "duration": 0.03488372093023173,
            "durationTicks": 3,
            "midi": 80,
            "name": "G#5",
            "ticks": 1713,
            "time": 19.91860465116279,
            "velocity": 0.09448818897637795
          },
          {
            "duration": 0.03488372093023173,
            "durationTicks": 3,
            "midi": 68,
            "name": "G#4",
            "ticks": 1714,
            "time": 19.930232558139537,
            "velocity": 0.10236220472440945
          },
          {
            "duration": 0.05813953488371837,
            "durationTicks": 5,
            "midi": 88,
            "name": "E6",
            "ticks": 1714,
            "time": 19.930232558139537,
            "velocity": 0.12598425196850394
          },
          {
            "duration": 0.04651162790697683,
            "durationTicks": 4,
            "midi": 81,
            "name": "A5",
            "ticks": 1716,
            "time": 19.953488372093023,
            "velocity": 0.14960629921259844
          },
          {
            "duration": 0.04651162790697683,
            "durationTicks": 4,
            "midi": 90,
            "name": "F#6",
            "ticks": 1716,
            "time": 19.953488372093023,
            "velocity": 0.10236220472440945
          },
          {
            "duration": 0.04651162790697683,
            "durationTicks": 4,
            "midi": 91,
            "name": "G6",
            "ticks": 1716,
            "time": 19.953488372093023,
            "velocity": 0.11023622047244094
          },
          {
            "duration": 0.03488372093023173,
            "durationTicks": 3,
            "midi": 76,
            "name": "E5",
            "ticks": 1717,
            "time": 19.96511627906977,
            "velocity": 0.14960629921259844
          },
          {
            "duration": 0.03488372093023173,
            "durationTicks": 3,
            "midi": 83,
            "name": "B5",
            "ticks": 1717,
            "time": 19.96511627906977,
            "velocity": 0.14173228346456693
          },
          {
            "duration": 0.33720930232557933,
            "durationTicks": 29,
            "midi": 97,
            "name": "C#7",
            "ticks": 1717,
            "time": 19.96511627906977,
            "velocity": 0.12598425196850394
          },
          {
            "duration": 0.12790697674418539,
            "durationTicks": 11,
            "midi": 86,
            "name": "D6",
            "ticks": 1718,
            "time": 19.976744186046513,
            "velocity": 0.18110236220472442
          },
          {
            "duration": 0.08139534883720856,
            "durationTicks": 7,
            "midi": 89,
            "name": "F6",
            "ticks": 1719,
            "time": 19.988372093023255,
            "velocity": 0.11811023622047244
          },
          {
            "duration": 0.12790697674418539,
            "durationTicks": 11,
            "midi": 77,
            "name": "F5",
            "ticks": 1720,
            "time": 20,
            "velocity": 0.14173228346456693
          },
          {
            "duration": 0.04651162790697683,
            "durationTicks": 4,
            "midi": 88,
            "name": "E6",
            "ticks": 1720,
            "time": 20,
            "velocity": 0.11023622047244094
          },
          {
            "duration": 0.11627906976744029,
            "durationTicks": 10,
            "midi": 94,
            "name": "A#6",
            "ticks": 1720,
            "time": 20,
            "velocity": 0.14173228346456693
          },
          {
            "duration": 0.05813953488371837,
            "durationTicks": 5,
            "midi": 87,
            "name": "D#6",
            "ticks": 1721,
            "time": 20.011627906976745,
            "velocity": 0.09448818897637795
          },
          {
            "duration": 0.08139534883720856,
            "durationTicks": 7,
            "midi": 91,
            "name": "G6",
            "ticks": 1721,
            "time": 20.011627906976745,
            "velocity": 0.10236220472440945
          },
          {
            "duration": 0.034883720930235285,
            "durationTicks": 3,
            "midi": 76,
            "name": "E5",
            "ticks": 1722,
            "time": 20.023255813953487,
            "velocity": 0.14960629921259844
          },
          {
            "duration": 0.03488372093023173,
            "durationTicks": 3,
            "midi": 55,
            "name": "G3",
            "ticks": 1723,
            "time": 20.03488372093023,
            "velocity": 0.11023622047244094
          },
          {
            "duration": 0.06976744186046702,
            "durationTicks": 6,
            "midi": 83,
            "name": "B5",
            "ticks": 1723,
            "time": 20.03488372093023,
            "velocity": 0.15748031496062992
          },
          {
            "duration": 0.05813953488372192,
            "durationTicks": 5,
            "midi": 85,
            "name": "C#6",
            "ticks": 1723,
            "time": 20.03488372093023,
            "velocity": 0.11811023622047244
          },
          {
            "duration": 0.03488372093023173,
            "durationTicks": 3,
            "midi": 72,
            "name": "C5",
            "ticks": 1724,
            "time": 20.046511627906977,
            "velocity": 0.13385826771653545
          },
          {
            "duration": 0.06976744186046346,
            "durationTicks": 6,
            "midi": 70,
            "name": "A#4",
            "ticks": 1725,
            "time": 20.058139534883722,
            "velocity": 0.14173228346456693
          },
          {
            "duration": 0.034883720930235285,
            "durationTicks": 3,
            "midi": 39,
            "name": "D#2",
            "ticks": 1726,
            "time": 20.069767441860463,
            "velocity": 0.12598425196850394
          },
          {
            "duration": 0.034883720930235285,
            "durationTicks": 3,
            "midi": 96,
            "name": "C7",
            "ticks": 1726,
            "time": 20.069767441860463,
            "velocity": 0.08661417322834646
          },
          {
            "duration": 0.05813953488372192,
            "durationTicks": 5,
            "midi": 79,
            "name": "G5",
            "ticks": 1727,
            "time": 20.08139534883721,
            "velocity": 0.11023622047244094
          },
          {
            "duration": 0.03488372093023173,
            "durationTicks": 3,
            "midi": 92,
            "name": "G#6",
            "ticks": 1727,
            "time": 20.08139534883721,
            "velocity": 0.11811023622047244
          },
          {
            "duration": 0.13953488372093048,
            "durationTicks": 12,
            "midi": 93,
            "name": "A6",
            "ticks": 1727,
            "time": 20.08139534883721,
            "velocity": 0.2047244094488189
          },
          {
            "duration": 0.04651162790697683,
            "durationTicks": 4,
            "midi": 84,
            "name": "C6",
            "ticks": 1729,
            "time": 20.1046511627907,
            "velocity": 0.10236220472440945
          },
          {
            "duration": 0.034883720930235285,
            "durationTicks": 3,
            "midi": 52,
            "name": "E3",
            "ticks": 1730,
            "time": 20.11627906976744,
            "velocity": 0.16535433070866143
          },
          {
            "duration": 0.04651162790697683,
            "durationTicks": 4,
            "midi": 102,
            "name": "F#7",
            "ticks": 1730,
            "time": 20.11627906976744,
            "velocity": 0.14173228346456693
          },
          {
            "duration": 0.10465116279069875,
            "durationTicks": 9,
            "midi": 78,
            "name": "F#5",
            "ticks": 1731,
            "time": 20.127906976744185,
            "velocity": 0.14960629921259844
          },
          {
            "duration": 0.03488372093023173,
            "durationTicks": 3,
            "midi": 83,
            "name": "B5",
            "ticks": 1731,
            "time": 20.127906976744185,
            "velocity": 0.15748031496062992
          },
          {
            "duration": 0.04651162790697683,
            "durationTicks": 4,
            "midi": 88,
            "name": "E6",
            "ticks": 1731,
            "time": 20.127906976744185,
            "velocity": 0.15748031496062992
          },
          {
            "duration": 0.03488372093023173,
            "durationTicks": 3,
            "midi": 101,
            "name": "F7",
            "ticks": 1731,
            "time": 20.127906976744185,
            "velocity": 0.14173228346456693
          },
          {
            "duration": 0.03488372093023173,
            "durationTicks": 3,
            "midi": 86,
            "name": "D6",
            "ticks": 1732,
            "time": 20.13953488372093,
            "velocity": 0.13385826771653545
          },
          {
            "duration": 0.05813953488371837,
            "durationTicks": 5,
            "midi": 69,
            "name": "A4",
            "ticks": 1733,
            "time": 20.151162790697676,
            "velocity": 0.09448818897637795
          },
          {
            "duration": 0.03488372093023173,
            "durationTicks": 3,
            "midi": 92,
            "name": "G#6",
            "ticks": 1733,
            "time": 20.151162790697676,
            "velocity": 0.14173228346456693
          },
          {
            "duration": 0.034883720930235285,
            "durationTicks": 3,
            "midi": 81,
            "name": "A5",
            "ticks": 1734,
            "time": 20.162790697674417,
            "velocity": 0.12598425196850394
          },
          {
            "duration": 0.08139534883721211,
            "durationTicks": 7,
            "midi": 84,
            "name": "C6",
            "ticks": 1734,
            "time": 20.162790697674417,
            "velocity": 0.10236220472440945
          },
          {
            "duration": 0.04651162790697683,
            "durationTicks": 4,
            "midi": 89,
            "name": "F6",
            "ticks": 1734,
            "time": 20.162790697674417,
            "velocity": 0.11811023622047244
          },
          {
            "duration": 0.16279069767442067,
            "durationTicks": 14,
            "midi": 91,
            "name": "G6",
            "ticks": 1734,
            "time": 20.162790697674417,
            "velocity": 0.13385826771653545
          },
          {
            "duration": 0.05813953488372192,
            "durationTicks": 5,
            "midi": 87,
            "name": "D#6",
            "ticks": 1735,
            "time": 20.174418604651162,
            "velocity": 0.11023622047244094
          },
          {
            "duration": 0.03488372093023173,
            "durationTicks": 3,
            "midi": 100,
            "name": "E7",
            "ticks": 1735,
            "time": 20.174418604651162,
            "velocity": 0.08661417322834646
          },
          {
            "duration": 0.05813953488372192,
            "durationTicks": 5,
            "midi": 85,
            "name": "C#6",
            "ticks": 1736,
            "time": 20.186046511627907,
            "velocity": 0.16535433070866143
          },
          {
            "duration": 0.03488372093023173,
            "durationTicks": 3,
            "midi": 86,
            "name": "D6",
            "ticks": 1736,
            "time": 20.186046511627907,
            "velocity": 0.11811023622047244
          },
          {
            "duration": 0.04651162790697683,
            "durationTicks": 4,
            "midi": 95,
            "name": "B6",
            "ticks": 1736,
            "time": 20.186046511627907,
            "velocity": 0.08661417322834646
          },
          {
            "duration": 0.03488372093023173,
            "durationTicks": 3,
            "midi": 61,
            "name": "C#4",
            "ticks": 1737,
            "time": 20.197674418604652,
            "velocity": 0.07874015748031496
          },
          {
            "duration": 0.27906976744186096,
            "durationTicks": 24,
            "midi": 96,
            "name": "C7",
            "ticks": 1737,
            "time": 20.197674418604652,
            "velocity": 0.14960629921259844
          },
          {
            "duration": 0.034883720930235285,
            "durationTicks": 3,
            "midi": 101,
            "name": "F7",
            "ticks": 1738,
            "time": 20.209302325581394,
            "velocity": 0.07874015748031496
          },
          {
            "duration": 0.05813953488372192,
            "durationTicks": 5,
            "midi": 58,
            "name": "A#3",
            "ticks": 1739,
            "time": 20.22093023255814,
            "velocity": 0.1889763779527559
          },
          {
            "duration": 0.04651162790697683,
            "durationTicks": 4,
            "midi": 81,
            "name": "A5",
            "ticks": 1739,
            "time": 20.22093023255814,
            "velocity": 0.14960629921259844
          },
          {
            "duration": 0.05813953488372192,
            "durationTicks": 5,
            "midi": 88,
            "name": "E6",
            "ticks": 1739,
            "time": 20.22093023255814,
            "velocity": 0.14173228346456693
          },
          {
            "duration": 0.04651162790697683,
            "durationTicks": 4,
            "midi": 92,
            "name": "G#6",
            "ticks": 1739,
            "time": 20.22093023255814,
            "velocity": 0.07874015748031496
          },
          {
            "duration": 0.03488372093023173,
            "durationTicks": 3,
            "midi": 62,
            "name": "D4",
            "ticks": 1740,
            "time": 20.232558139534884,
            "velocity": 0.11023622047244094
          },
          {
            "duration": 0.04651162790697683,
            "durationTicks": 4,
            "midi": 72,
            "name": "C5",
            "ticks": 1740,
            "time": 20.232558139534884,
            "velocity": 0.09448818897637795
          },
          {
            "duration": 0.03488372093023173,
            "durationTicks": 3,
            "midi": 86,
            "name": "D6",
            "ticks": 1740,
            "time": 20.232558139534884,
            "velocity": 0.11811023622047244
          },
          {
            "duration": 0.03488372093023173,
            "durationTicks": 3,
            "midi": 94,
            "name": "A#6",
            "ticks": 1740,
            "time": 20.232558139534884,
            "velocity": 0.07086614173228346
          },
          {
            "duration": 0.04651162790697683,
            "durationTicks": 4,
            "midi": 78,
            "name": "F#5",
            "ticks": 1741,
            "time": 20.24418604651163,
            "velocity": 0.16535433070866143
          },
          {
            "duration": 0.06976744186046702,
            "durationTicks": 6,
            "midi": 85,
            "name": "C#6",
            "ticks": 1743,
            "time": 20.267441860465116,
            "velocity": 0.14173228346456693
          },
          {
            "duration": 0.05813953488372192,
            "durationTicks": 5,
            "midi": 95,
            "name": "B6",
            "ticks": 1743,
            "time": 20.267441860465116,
            "velocity": 0.11811023622047244
          },
          {
            "duration": 0.09302325581395365,
            "durationTicks": 8,
            "midi": 98,
            "name": "D7",
            "ticks": 1743,
            "time": 20.267441860465116,
            "velocity": 0.10236220472440945
          },
          {
            "duration": 0.1860465116279073,
            "durationTicks": 16,
            "midi": 102,
            "name": "F#7",
            "ticks": 1743,
            "time": 20.267441860465116,
            "velocity": 0.12598425196850394
          },
          {
            "duration": 0.04651162790697683,
            "durationTicks": 4,
            "midi": 73,
            "name": "C#5",
            "ticks": 1744,
            "time": 20.27906976744186,
            "velocity": 0.14173228346456693
          },
          {
            "duration": 0.04651162790697683,
            "durationTicks": 4,
            "midi": 100,
            "name": "E7",
            "ticks": 1744,
            "time": 20.27906976744186,
            "velocity": 0.09448818897637795
          },
          {
            "duration": 0.05813953488371837,
            "durationTicks": 5,
            "midi": 77,
            "name": "F5",
            "ticks": 1745,
            "time": 20.290697674418606,
            "velocity": 0.13385826771653545
          },
          {
            "duration": 0.06976744186046346,
            "durationTicks": 6,
            "midi": 90,
            "name": "F#6",
            "ticks": 1745,
            "time": 20.290697674418606,
            "velocity": 0.11023622047244094
          },
          {
            "duration": 0.08139534883721211,
            "durationTicks": 7,
            "midi": 86,
            "name": "D6",
            "ticks": 1746,
            "time": 20.302325581395348,
            "velocity": 0.15748031496062992
          },
          {
            "duration": 0.05813953488372192,
            "durationTicks": 5,
            "midi": 75,
            "name": "D#5",
            "ticks": 1747,
            "time": 20.313953488372093,
            "velocity": 0.12598425196850394
          },
          {
            "duration": 0.09302325581395365,
            "durationTicks": 8,
            "midi": 97,
            "name": "C#7",
            "ticks": 1747,
            "time": 20.313953488372093,
            "velocity": 0.16535433070866143
          },
          {
            "duration": 0.03488372093023173,
            "durationTicks": 3,
            "midi": 83,
            "name": "B5",
            "ticks": 1748,
            "time": 20.325581395348838,
            "velocity": 0.11023622047244094
          },
          {
            "duration": 0.10465116279069875,
            "durationTicks": 9,
            "midi": 103,
            "name": "G7",
            "ticks": 1748,
            "time": 20.325581395348838,
            "velocity": 0.11811023622047244
          },
          {
            "duration": 0.16279069767442067,
            "durationTicks": 14,
            "midi": 94,
            "name": "A#6",
            "ticks": 1750,
            "time": 20.348837209302324,
            "velocity": 0.2992125984251969
          },
          {
            "duration": 0.02325581395349019,
            "durationTicks": 2,
            "midi": 59,
            "name": "B3",
            "ticks": 1751,
            "time": 20.36046511627907,
            "velocity": 0.2440944881889764
          },
          {
            "duration": 0.04651162790697683,
            "durationTicks": 4,
            "midi": 79,
            "name": "G5",
            "ticks": 1751,
            "time": 20.36046511627907,
            "velocity": 0.14960629921259844
          },
          {
            "duration": 0.09302325581395365,
            "durationTicks": 8,
            "midi": 82,
            "name": "A#5",
            "ticks": 1751,
            "time": 20.36046511627907,
            "velocity": 0.12598425196850394
          },
          {
            "duration": 0.06976744186046346,
            "durationTicks": 6,
            "midi": 76,
            "name": "E5",
            "ticks": 1752,
            "time": 20.372093023255815,
            "velocity": 0.1889763779527559
          },
          {
            "duration": 0.06976744186046346,
            "durationTicks": 6,
            "midi": 84,
            "name": "C6",
            "ticks": 1752,
            "time": 20.372093023255815,
            "velocity": 0.13385826771653545
          },
          {
            "duration": 3.8488372093023244,
            "durationTicks": 331,
            "midi": 99,
            "name": "D#7",
            "ticks": 1752,
            "time": 20.372093023255815,
            "velocity": 0.31496062992125984
          },
          {
            "duration": 0.06976744186046346,
            "durationTicks": 6,
            "midi": 58,
            "name": "A#3",
            "ticks": 1753,
            "time": 20.38372093023256,
            "velocity": 0.1889763779527559
          },
          {
            "duration": 0.09302325581395365,
            "durationTicks": 8,
            "midi": 92,
            "name": "G#6",
            "ticks": 1753,
            "time": 20.38372093023256,
            "velocity": 0.13385826771653545
          },
          {
            "duration": 0.08139534883721211,
            "durationTicks": 7,
            "midi": 98,
            "name": "D7",
            "ticks": 1754,
            "time": 20.3953488372093,
            "velocity": 0.11023622047244094
          },
          {
            "duration": 0.03488372093023173,
            "durationTicks": 3,
            "midi": 89,
            "name": "F6",
            "ticks": 1755,
            "time": 20.406976744186046,
            "velocity": 0.08661417322834646
          },
          {
            "duration": 0.1046511627906952,
            "durationTicks": 9,
            "midi": 97,
            "name": "C#7",
            "ticks": 1756,
            "time": 20.41860465116279,
            "velocity": 0.14173228346456693
          },
          {
            "duration": 0.034883720930235285,
            "durationTicks": 3,
            "midi": 91,
            "name": "G6",
            "ticks": 1758,
            "time": 20.441860465116278,
            "velocity": 0.11023622047244094
          },
          {
            "duration": 0.034883720930235285,
            "durationTicks": 3,
            "midi": 95,
            "name": "B6",
            "ticks": 1758,
            "time": 20.441860465116278,
            "velocity": 0.11023622047244094
          },
          {
            "duration": 0.03488372093023173,
            "durationTicks": 3,
            "midi": 71,
            "name": "B4",
            "ticks": 1759,
            "time": 20.453488372093023,
            "velocity": 0.10236220472440945
          },
          {
            "duration": 0.08139534883720856,
            "durationTicks": 7,
            "midi": 75,
            "name": "D#5",
            "ticks": 1759,
            "time": 20.453488372093023,
            "velocity": 0.10236220472440945
          },
          {
            "duration": 0.06976744186046346,
            "durationTicks": 6,
            "midi": 90,
            "name": "F#6",
            "ticks": 1760,
            "time": 20.46511627906977,
            "velocity": 0.08661417322834646
          },
          {
            "duration": 0.03488372093023173,
            "durationTicks": 3,
            "midi": 102,
            "name": "F#7",
            "ticks": 1760,
            "time": 20.46511627906977,
            "velocity": 0.08661417322834646
          },
          {
            "duration": 1.8953488372093013,
            "durationTicks": 163,
            "midi": 82,
            "name": "A#5",
            "ticks": 1761,
            "time": 20.476744186046513,
            "velocity": 0.14960629921259844
          },
          {
            "duration": 1.8837209302325562,
            "durationTicks": 162,
            "midi": 93,
            "name": "A6",
            "ticks": 1761,
            "time": 20.476744186046513,
            "velocity": 0.13385826771653545
          },
          {
            "duration": 0.05813953488371837,
            "durationTicks": 5,
            "midi": 83,
            "name": "B5",
            "ticks": 1768,
            "time": 20.558139534883722,
            "velocity": 0.07086614173228346
          },
          {
            "duration": 2.1395348837209305,
            "durationTicks": 184,
            "midi": 92,
            "name": "G#6",
            "ticks": 1768,
            "time": 20.558139534883722,
            "velocity": 0.13385826771653545
          },
          {
            "duration": 0.04651162790697683,
            "durationTicks": 4,
            "midi": 83,
            "name": "B5",
            "ticks": 1775,
            "time": 20.63953488372093,
            "velocity": 0.08661417322834646
          },
          {
            "duration": 0.05813953488372192,
            "durationTicks": 5,
            "midi": 83,
            "name": "B5",
            "ticks": 1781,
            "time": 20.709302325581394,
            "velocity": 0.10236220472440945
          },
          {
            "duration": 0.05813953488372192,
            "durationTicks": 5,
            "midi": 69,
            "name": "A4",
            "ticks": 1787,
            "time": 20.77906976744186,
            "velocity": 0.07086614173228346
          },
          {
            "duration": 0.04651162790697683,
            "durationTicks": 4,
            "midi": 83,
            "name": "B5",
            "ticks": 1788,
            "time": 20.790697674418606,
            "velocity": 0.08661417322834646
          },
          {
            "duration": 0.05813953488372192,
            "durationTicks": 5,
            "midi": 83,
            "name": "B5",
            "ticks": 1795,
            "time": 20.872093023255815,
            "velocity": 0.09448818897637795
          },
          {
            "duration": 0.05813953488372192,
            "durationTicks": 5,
            "midi": 83,
            "name": "B5",
            "ticks": 1802,
            "time": 20.953488372093023,
            "velocity": 0.09448818897637795
          },
          {
            "duration": 0.03488372093023173,
            "durationTicks": 3,
            "midi": 69,
            "name": "A4",
            "ticks": 1807,
            "time": 21.011627906976745,
            "velocity": 0.07086614173228346
          },
          {
            "duration": 0.05813953488372192,
            "durationTicks": 5,
            "midi": 83,
            "name": "B5",
            "ticks": 1808,
            "time": 21.023255813953487,
            "velocity": 0.11811023622047244
          },
          {
            "duration": 0.03488372093023173,
            "durationTicks": 3,
            "midi": 87,
            "name": "D#6",
            "ticks": 1814,
            "time": 21.093023255813954,
            "velocity": 0.10236220472440945
          },
          {
            "duration": 0.05813953488371837,
            "durationTicks": 5,
            "midi": 83,
            "name": "B5",
            "ticks": 1815,
            "time": 21.1046511627907,
            "velocity": 0.07874015748031496
          },
          {
            "duration": 0.05813953488372192,
            "durationTicks": 5,
            "midi": 83,
            "name": "B5",
            "ticks": 1822,
            "time": 21.186046511627907,
            "velocity": 0.09448818897637795
          },
          {
            "duration": 0.03488372093023173,
            "durationTicks": 3,
            "midi": 69,
            "name": "A4",
            "ticks": 1827,
            "time": 21.24418604651163,
            "velocity": 0.07086614173228346
          },
          {
            "duration": 0.034883720930235285,
            "durationTicks": 3,
            "midi": 81,
            "name": "A5",
            "ticks": 1828,
            "time": 21.25581395348837,
            "velocity": 0.08661417322834646
          },
          {
            "duration": 0.05813953488372192,
            "durationTicks": 5,
            "midi": 83,
            "name": "B5",
            "ticks": 1829,
            "time": 21.267441860465116,
            "velocity": 0.07874015748031496
          },
          {
            "duration": 0.1046511627906952,
            "durationTicks": 9,
            "midi": 87,
            "name": "D#6",
            "ticks": 1835,
            "time": 21.337209302325583,
            "velocity": 0.07086614173228346
          },
          {
            "duration": 1.4186046511627879,
            "durationTicks": 122,
            "midi": 94,
            "name": "A#6",
            "ticks": 1835,
            "time": 21.337209302325583,
            "velocity": 0.28346456692913385
          },
          {
            "duration": 0.04651162790697683,
            "durationTicks": 4,
            "midi": 83,
            "name": "B5",
            "ticks": 1836,
            "time": 21.348837209302324,
            "velocity": 0.08661417322834646
          },
          {
            "duration": 0.03488372093023173,
            "durationTicks": 3,
            "midi": 71,
            "name": "B4",
            "ticks": 1838,
            "time": 21.372093023255815,
            "velocity": 0.08661417322834646
          },
          {
            "duration": 0.03488372093023173,
            "durationTicks": 3,
            "midi": 69,
            "name": "A4",
            "ticks": 1841,
            "time": 21.406976744186046,
            "velocity": 0.07086614173228346
          },
          {
            "duration": 0.1744186046511622,
            "durationTicks": 15,
            "midi": 81,
            "name": "A5",
            "ticks": 1842,
            "time": 21.41860465116279,
            "velocity": 0.07874015748031496
          },
          {
            "duration": 0.05813953488372192,
            "durationTicks": 5,
            "midi": 83,
            "name": "B5",
            "ticks": 1842,
            "time": 21.41860465116279,
            "velocity": 0.11023622047244094
          },
          {
            "duration": 0.05813953488372192,
            "durationTicks": 5,
            "midi": 102,
            "name": "F#7",
            "ticks": 1842,
            "time": 21.41860465116279,
            "velocity": 0.07086614173228346
          },
          {
            "duration": 0.10465116279069875,
            "durationTicks": 9,
            "midi": 69,
            "name": "A4",
            "ticks": 1848,
            "time": 21.488372093023255,
            "velocity": 0.07874015748031496
          },
          {
            "duration": 0.9883720930232585,
            "durationTicks": 85,
            "midi": 87,
            "name": "D#6",
            "ticks": 1848,
            "time": 21.488372093023255,
            "velocity": 0.2440944881889764
          },
          {
            "duration": 0.05813953488372192,
            "durationTicks": 5,
            "midi": 83,
            "name": "B5",
            "ticks": 1849,
            "time": 21.5,
            "velocity": 0.11023622047244094
          },
          {
            "duration": 0.8139534883720962,
            "durationTicks": 70,
            "midi": 86,
            "name": "D6",
            "ticks": 1855,
            "time": 21.569767441860463,
            "velocity": 0.2283464566929134
          },
          {
            "duration": 0.034883720930235285,
            "durationTicks": 3,
            "midi": 101,
            "name": "F7",
            "ticks": 1855,
            "time": 21.569767441860463,
            "velocity": 0.07086614173228346
          },
          {
            "duration": 0.05813953488372192,
            "durationTicks": 5,
            "midi": 83,
            "name": "B5",
            "ticks": 1856,
            "time": 21.58139534883721,
            "velocity": 0.10236220472440945
          },
          {
            "duration": 0.04651162790697683,
            "durationTicks": 4,
            "midi": 71,
            "name": "B4",
            "ticks": 1858,
            "time": 21.6046511627907,
            "velocity": 0.10236220472440945
          },
          {
            "duration": 0.03488372093023173,
            "durationTicks": 3,
            "midi": 97,
            "name": "C#7",
            "ticks": 1862,
            "time": 21.651162790697676,
            "velocity": 0.07874015748031496
          },
          {
            "duration": 1.0116279069767415,
            "durationTicks": 87,
            "midi": 101,
            "name": "F7",
            "ticks": 1862,
            "time": 21.651162790697676,
            "velocity": 0.2440944881889764
          },
          {
            "duration": 0.05813953488372192,
            "durationTicks": 5,
            "midi": 83,
            "name": "B5",
            "ticks": 1863,
            "time": 21.662790697674417,
            "velocity": 0.11023622047244094
          },
          {
            "duration": 0.04651162790697683,
            "durationTicks": 4,
            "midi": 71,
            "name": "B4",
            "ticks": 1864,
            "time": 21.674418604651162,
            "velocity": 0.07086614173228346
          },
          {
            "duration": 0.9418604651162781,
            "durationTicks": 81,
            "midi": 69,
            "name": "A4",
            "ticks": 1868,
            "time": 21.72093023255814,
            "velocity": 0.3228346456692913
          },
          {
            "duration": 0.10465116279069875,
            "durationTicks": 9,
            "midi": 102,
            "name": "F#7",
            "ticks": 1869,
            "time": 21.732558139534884,
            "velocity": 0.07086614173228346
          },
          {
            "duration": 0.03488372093023173,
            "durationTicks": 3,
            "midi": 83,
            "name": "B5",
            "ticks": 1870,
            "time": 21.74418604651163,
            "velocity": 0.08661417322834646
          },
          {
            "duration": 0.06976744186046702,
            "durationTicks": 6,
            "midi": 71,
            "name": "B4",
            "ticks": 1872,
            "time": 21.767441860465116,
            "velocity": 0.07874015748031496
          },
          {
            "duration": 0.569767441860467,
            "durationTicks": 49,
            "midi": 89,
            "name": "F6",
            "ticks": 1875,
            "time": 21.802325581395348,
            "velocity": 0.2047244094488189
          },
          {
            "duration": 0.8604651162790695,
            "durationTicks": 74,
            "midi": 97,
            "name": "C#7",
            "ticks": 1875,
            "time": 21.802325581395348,
            "velocity": 0.2677165354330709
          },
          {
            "duration": 0.8488372093023244,
            "durationTicks": 73,
            "midi": 95,
            "name": "B6",
            "ticks": 1876,
            "time": 21.813953488372093,
            "velocity": 0.23622047244094488
          },
          {
            "duration": 0.04651162790697683,
            "durationTicks": 4,
            "midi": 60,
            "name": "C4",
            "ticks": 1879,
            "time": 21.848837209302324,
            "velocity": 0.09448818897637795
          },
          {
            "duration": 0.034883720930235285,
            "durationTicks": 3,
            "midi": 83,
            "name": "B5",
            "ticks": 1879,
            "time": 21.848837209302324,
            "velocity": 0.11811023622047244
          },
          {
            "duration": 0.04651162790697683,
            "durationTicks": 4,
            "midi": 67,
            "name": "G4",
            "ticks": 1882,
            "time": 21.88372093023256,
            "velocity": 0.08661417322834646
          },
          {
            "duration": 0.16279069767442067,
            "durationTicks": 14,
            "midi": 83,
            "name": "B5",
            "ticks": 1883,
            "time": 21.8953488372093,
            "velocity": 0.14173228346456693
          },
          {
            "duration": 0.03488372093023173,
            "durationTicks": 3,
            "midi": 71,
            "name": "B4",
            "ticks": 1884,
            "time": 21.906976744186046,
            "velocity": 0.09448818897637795
          },
          {
            "duration": 0.04651162790697683,
            "durationTicks": 4,
            "midi": 60,
            "name": "C4",
            "ticks": 1886,
            "time": 21.930232558139537,
            "velocity": 0.11023622047244094
          },
          {
            "duration": 0.08139534883720856,
            "durationTicks": 7,
            "midi": 35,
            "name": "B1",
            "ticks": 1889,
            "time": 21.96511627906977,
            "velocity": 0.10236220472440945
          },
          {
            "duration": 0.39534883720930125,
            "durationTicks": 34,
            "midi": 80,
            "name": "G#5",
            "ticks": 1890,
            "time": 21.976744186046513,
            "velocity": 0.2283464566929134
          },
          {
            "duration": 0.04651162790697683,
            "durationTicks": 4,
            "midi": 71,
            "name": "B4",
            "ticks": 1892,
            "time": 22,
            "velocity": 0.07086614173228346
          },
          {
            "duration": 0.6279069767441854,
            "durationTicks": 54,
            "midi": 91,
            "name": "G6",
            "ticks": 1895,
            "time": 22.03488372093023,
            "velocity": 0.25984251968503935
          },
          {
            "duration": 0.6279069767441854,
            "durationTicks": 54,
            "midi": 98,
            "name": "D7",
            "ticks": 1895,
            "time": 22.03488372093023,
            "velocity": 0.2677165354330709
          },
          {
            "duration": 0.03488372093023173,
            "durationTicks": 3,
            "midi": 36,
            "name": "C2",
            "ticks": 1896,
            "time": 22.046511627906977,
            "velocity": 0.11023622047244094
          },
          {
            "duration": 0.04651162790697683,
            "durationTicks": 4,
            "midi": 48,
            "name": "C3",
            "ticks": 1898,
            "time": 22.069767441860463,
            "velocity": 0.11023622047244094
          },
          {
            "duration": 0.2093023255813975,
            "durationTicks": 18,
            "midi": 63,
            "name": "D#4",
            "ticks": 1899,
            "time": 22.08139534883721,
            "velocity": 0.11023622047244094
          },
          {
            "duration": 0.03488372093023173,
            "durationTicks": 3,
            "midi": 71,
            "name": "B4",
            "ticks": 1899,
            "time": 22.08139534883721,
            "velocity": 0.11023622047244094
          },
          {
            "duration": 0.05813953488372192,
            "durationTicks": 5,
            "midi": 74,
            "name": "D5",
            "ticks": 1899,
            "time": 22.08139534883721,
            "velocity": 0.10236220472440945
          },
          {
            "duration": 0.29069767441860606,
            "durationTicks": 25,
            "midi": 77,
            "name": "F5",
            "ticks": 1899,
            "time": 22.08139534883721,
            "velocity": 0.15748031496062992
          },
          {
            "duration": 0.03488372093023173,
            "durationTicks": 3,
            "midi": 78,
            "name": "F#5",
            "ticks": 1899,
            "time": 22.08139534883721,
            "velocity": 0.08661417322834646
          },
          {
            "duration": 0.03488372093023173,
            "durationTicks": 3,
            "midi": 54,
            "name": "F#3",
            "ticks": 1900,
            "time": 22.093023255813954,
            "velocity": 0.11811023622047244
          },
          {
            "duration": 0.26744186046511587,
            "durationTicks": 23,
            "midi": 75,
            "name": "D#5",
            "ticks": 1900,
            "time": 22.093023255813954,
            "velocity": 0.16535433070866143
          },
          {
            "duration": 0.04651162790697683,
            "durationTicks": 4,
            "midi": 83,
            "name": "B5",
            "ticks": 1900,
            "time": 22.093023255813954,
            "velocity": 0.15748031496062992
          },
          {
            "duration": 0.6860465116279073,
            "durationTicks": 59,
            "midi": 102,
            "name": "F#7",
            "ticks": 1901,
            "time": 22.1046511627907,
            "velocity": 0.2440944881889764
          },
          {
            "duration": 0.04651162790697683,
            "durationTicks": 4,
            "midi": 47,
            "name": "B2",
            "ticks": 1902,
            "time": 22.11627906976744,
            "velocity": 0.15748031496062992
          },
          {
            "duration": 0.04651162790697683,
            "durationTicks": 4,
            "midi": 67,
            "name": "G4",
            "ticks": 1902,
            "time": 22.11627906976744,
            "velocity": 0.08661417322834646
          },
          {
            "duration": 0.03488372093023173,
            "durationTicks": 3,
            "midi": 35,
            "name": "B1",
            "ticks": 1903,
            "time": 22.127906976744185,
            "velocity": 0.14173228346456693
          },
          {
            "duration": 0.05813953488372192,
            "durationTicks": 5,
            "midi": 71,
            "name": "B4",
            "ticks": 1903,
            "time": 22.127906976744185,
            "velocity": 0.10236220472440945
          },
          {
            "duration": 0.08139534883720856,
            "durationTicks": 7,
            "midi": 85,
            "name": "C#6",
            "ticks": 1904,
            "time": 22.13953488372093,
            "velocity": 0.07874015748031496
          },
          {
            "duration": 0.24418604651162923,
            "durationTicks": 21,
            "midi": 100,
            "name": "E7",
            "ticks": 1904,
            "time": 22.13953488372093,
            "velocity": 0.14960629921259844
          },
          {
            "duration": 0.034883720930235285,
            "durationTicks": 3,
            "midi": 55,
            "name": "G3",
            "ticks": 1906,
            "time": 22.162790697674417,
            "velocity": 0.14173228346456693
          },
          {
            "duration": 0.05813953488372192,
            "durationTicks": 5,
            "midi": 59,
            "name": "B3",
            "ticks": 1906,
            "time": 22.162790697674417,
            "velocity": 0.14960629921259844
          },
          {
            "duration": 0.05813953488372192,
            "durationTicks": 5,
            "midi": 83,
            "name": "B5",
            "ticks": 1906,
            "time": 22.162790697674417,
            "velocity": 0.1732283464566929
          },
          {
            "duration": 0.03488372093023173,
            "durationTicks": 3,
            "midi": 78,
            "name": "F#5",
            "ticks": 1907,
            "time": 22.174418604651162,
            "velocity": 0.13385826771653545
          },
          {
            "duration": 0.03488372093023173,
            "durationTicks": 3,
            "midi": 35,
            "name": "B1",
            "ticks": 1908,
            "time": 22.186046511627907,
            "velocity": 0.14960629921259844
          },
          {
            "duration": 0.4767441860465098,
            "durationTicks": 41,
            "midi": 96,
            "name": "C7",
            "ticks": 1908,
            "time": 22.186046511627907,
            "velocity": 0.2047244094488189
          },
          {
            "duration": 0.06976744186046346,
            "durationTicks": 6,
            "midi": 74,
            "name": "D5",
            "ticks": 1909,
            "time": 22.197674418604652,
            "velocity": 0.15748031496062992
          },
          {
            "duration": 0.034883720930235285,
            "durationTicks": 3,
            "midi": 47,
            "name": "B2",
            "ticks": 1910,
            "time": 22.209302325581394,
            "velocity": 0.2047244094488189
          },
          {
            "duration": 0.04651162790697683,
            "durationTicks": 4,
            "midi": 60,
            "name": "C4",
            "ticks": 1911,
            "time": 22.22093023255814,
            "velocity": 0.1889763779527559
          },
          {
            "duration": 0.04651162790697683,
            "durationTicks": 4,
            "midi": 67,
            "name": "G4",
            "ticks": 1911,
            "time": 22.22093023255814,
            "velocity": 0.12598425196850394
          },
          {
            "duration": 0.09302325581395365,
            "durationTicks": 8,
            "midi": 83,
            "name": "B5",
            "ticks": 1912,
            "time": 22.232558139534884,
            "velocity": 0.2125984251968504
          },
          {
            "duration": 0.12790697674418539,
            "durationTicks": 11,
            "midi": 85,
            "name": "C#6",
            "ticks": 1912,
            "time": 22.232558139534884,
            "velocity": 0.11811023622047244
          },
          {
            "duration": 0.04651162790697683,
            "durationTicks": 4,
            "midi": 48,
            "name": "C3",
            "ticks": 1913,
            "time": 22.24418604651163,
            "velocity": 0.2047244094488189
          },
          {
            "duration": 0.12790697674418539,
            "durationTicks": 11,
            "midi": 90,
            "name": "F#6",
            "ticks": 1913,
            "time": 22.24418604651163,
            "velocity": 0.11023622047244094
          },
          {
            "duration": 0.034883720930235285,
            "durationTicks": 3,
            "midi": 71,
            "name": "B4",
            "ticks": 1914,
            "time": 22.25581395348837,
            "velocity": 0.07874015748031496
          },
          {
            "duration": 0.03488372093023173,
            "durationTicks": 3,
            "midi": 59,
            "name": "B3",
            "ticks": 1915,
            "time": 22.267441860465116,
            "velocity": 0.1732283464566929
          },
          {
            "duration": 0.04651162790697683,
            "durationTicks": 4,
            "midi": 74,
            "name": "D5",
            "ticks": 1916,
            "time": 22.27906976744186,
            "velocity": 0.13385826771653545
          },
          {
            "duration": 0.04651162790697683,
            "durationTicks": 4,
            "midi": 54,
            "name": "F#3",
            "ticks": 1917,
            "time": 22.290697674418606,
            "velocity": 0.1968503937007874
          },
          {
            "duration": 0.03488372093023173,
            "durationTicks": 3,
            "midi": 47,
            "name": "B2",
            "ticks": 1919,
            "time": 22.313953488372093,
            "velocity": 0.2283464566929134
          },
          {
            "duration": 0.04651162790697683,
            "durationTicks": 4,
            "midi": 63,
            "name": "D#4",
            "ticks": 1919,
            "time": 22.313953488372093,
            "velocity": 0.07874015748031496
          },
          {
            "duration": 0.37209302325581106,
            "durationTicks": 32,
            "midi": 83,
            "name": "B5",
            "ticks": 1921,
            "time": 22.337209302325583,
            "velocity": 0.2204724409448819
          },
          {
            "duration": 0.3023255813953476,
            "durationTicks": 26,
            "midi": 64,
            "name": "E4",
            "ticks": 1923,
            "time": 22.36046511627907,
            "velocity": 0.23622047244094488
          },
          {
            "duration": 0.3023255813953476,
            "durationTicks": 26,
            "midi": 79,
            "name": "G5",
            "ticks": 1923,
            "time": 22.36046511627907,
            "velocity": 0.2755905511811024
          },
          {
            "duration": 0.2906976744186025,
            "durationTicks": 25,
            "midi": 88,
            "name": "E6",
            "ticks": 1924,
            "time": 22.372093023255815,
            "velocity": 0.33070866141732286
          },
          {
            "duration": 0.2790697674418574,
            "durationTicks": 24,
            "midi": 73,
            "name": "C#5",
            "ticks": 1925,
            "time": 22.38372093023256,
            "velocity": 0.3464566929133858
          },
          {
            "duration": 0.13953488372092693,
            "durationTicks": 12,
            "midi": 90,
            "name": "F#6",
            "ticks": 1925,
            "time": 22.38372093023256,
            "velocity": 0.14173228346456693
          },
          {
            "duration": 0.03488372093023173,
            "durationTicks": 3,
            "midi": 57,
            "name": "A3",
            "ticks": 1929,
            "time": 22.430232558139537,
            "velocity": 0.1732283464566929
          },
          {
            "duration": 0.03488372093023173,
            "durationTicks": 3,
            "midi": 45,
            "name": "A2",
            "ticks": 1934,
            "time": 22.488372093023255,
            "velocity": 0.12598425196850394
          },
          {
            "duration": 0.1744186046511622,
            "durationTicks": 15,
            "midi": 87,
            "name": "D#6",
            "ticks": 1934,
            "time": 22.488372093023255,
            "velocity": 0.33070866141732286
          },
          {
            "duration": 0.03488372093023173,
            "durationTicks": 3,
            "midi": 57,
            "name": "A3",
            "ticks": 1938,
            "time": 22.53488372093023,
            "velocity": 0.2283464566929134
          },
          {
            "duration": 0.1860465116279073,
            "durationTicks": 16,
            "midi": 90,
            "name": "F#6",
            "ticks": 1938,
            "time": 22.53488372093023,
            "velocity": 0.1968503937007874
          },
          {
            "duration": 0.2093023255813975,
            "durationTicks": 18,
            "midi": 93,
            "name": "A6",
            "ticks": 1938,
            "time": 22.53488372093023,
            "velocity": 0.1889763779527559
          },
          {
            "duration": 0.03488372093023173,
            "durationTicks": 3,
            "midi": 45,
            "name": "A2",
            "ticks": 1943,
            "time": 22.593023255813954,
            "velocity": 0.1889763779527559
          },
          {
            "duration": 0.023255813953486637,
            "durationTicks": 2,
            "midi": 57,
            "name": "A3",
            "ticks": 1943,
            "time": 22.593023255813954,
            "velocity": 0.2440944881889764
          },
          {
            "duration": 0.03488372093023173,
            "durationTicks": 3,
            "midi": 57,
            "name": "A3",
            "ticks": 1947,
            "time": 22.63953488372093,
            "velocity": 0.2204724409448819
          },
          {
            "duration": 0.08139534883720856,
            "durationTicks": 7,
            "midi": 82,
            "name": "A#5",
            "ticks": 1948,
            "time": 22.651162790697676,
            "velocity": 0.10236220472440945
          },
          {
            "duration": 0.03488372093023173,
            "durationTicks": 3,
            "midi": 58,
            "name": "A#3",
            "ticks": 1950,
            "time": 22.674418604651162,
            "velocity": 0.1968503937007874
          },
          {
            "duration": 0.034883720930235285,
            "durationTicks": 3,
            "midi": 69,
            "name": "A4",
            "ticks": 1953,
            "time": 22.709302325581394,
            "velocity": 0.08661417322834646
          },
          {
            "duration": 0.09302325581395365,
            "durationTicks": 8,
            "midi": 96,
            "name": "C7",
            "ticks": 1953,
            "time": 22.709302325581394,
            "velocity": 0.14173228346456693
          },
          {
            "duration": 0.11627906976744384,
            "durationTicks": 10,
            "midi": 91,
            "name": "G6",
            "ticks": 1954,
            "time": 22.72093023255814,
            "velocity": 0.13385826771653545
          },
          {
            "duration": 0.08139534883720856,
            "durationTicks": 7,
            "midi": 92,
            "name": "G#6",
            "ticks": 1954,
            "time": 22.72093023255814,
            "velocity": 0.18110236220472442
          },
          {
            "duration": 0.11627906976744384,
            "durationTicks": 10,
            "midi": 95,
            "name": "B6",
            "ticks": 1954,
            "time": 22.72093023255814,
            "velocity": 0.14960629921259844
          },
          {
            "duration": 0.39534883720930125,
            "durationTicks": 34,
            "midi": 88,
            "name": "E6",
            "ticks": 1956,
            "time": 22.74418604651163,
            "velocity": 0.4330708661417323
          },
          {
            "duration": 0.05813953488371837,
            "durationTicks": 5,
            "midi": 90,
            "name": "F#6",
            "ticks": 1956,
            "time": 22.74418604651163,
            "velocity": 0.16535433070866143
          },
          {
            "duration": 0.04651162790697683,
            "durationTicks": 4,
            "midi": 98,
            "name": "D7",
            "ticks": 1956,
            "time": 22.74418604651163,
            "velocity": 0.14173228346456693
          },
          {
            "duration": 0.034883720930235285,
            "durationTicks": 3,
            "midi": 63,
            "name": "D#4",
            "ticks": 1957,
            "time": 22.75581395348837,
            "velocity": 0.14960629921259844
          },
          {
            "duration": 0.10465116279069875,
            "durationTicks": 9,
            "midi": 93,
            "name": "A6",
            "ticks": 1957,
            "time": 22.75581395348837,
            "velocity": 0.12598425196850394
          },
          {
            "duration": 0.03488372093023173,
            "durationTicks": 3,
            "midi": 81,
            "name": "A5",
            "ticks": 1958,
            "time": 22.767441860465116,
            "velocity": 0.08661417322834646
          },
          {
            "duration": 0.06976744186046702,
            "durationTicks": 6,
            "midi": 97,
            "name": "C#7",
            "ticks": 1958,
            "time": 22.767441860465116,
            "velocity": 0.09448818897637795
          },
          {
            "duration": 1.0697674418604635,
            "durationTicks": 92,
            "midi": 101,
            "name": "F7",
            "ticks": 1959,
            "time": 22.77906976744186,
            "velocity": 0.28346456692913385
          },
          {
            "duration": 0.034883720930235285,
            "durationTicks": 3,
            "midi": 98,
            "name": "D7",
            "ticks": 1961,
            "time": 22.802325581395348,
            "velocity": 0.13385826771653545
          },
          {
            "duration": 0.10465116279069875,
            "durationTicks": 9,
            "midi": 102,
            "name": "F#7",
            "ticks": 1962,
            "time": 22.813953488372093,
            "velocity": 0.12598425196850394
          },
          {
            "duration": 0.03488372093023173,
            "durationTicks": 3,
            "midi": 96,
            "name": "C7",
            "ticks": 1963,
            "time": 22.825581395348838,
            "velocity": 0.13385826771653545
          },
          {
            "duration": 0.26744186046511587,
            "durationTicks": 23,
            "midi": 103,
            "name": "G7",
            "ticks": 1965,
            "time": 22.848837209302324,
            "velocity": 0.2283464566929134
          },
          {
            "duration": 0.03488372093023173,
            "durationTicks": 3,
            "midi": 92,
            "name": "G#6",
            "ticks": 1966,
            "time": 22.86046511627907,
            "velocity": 0.08661417322834646
          },
          {
            "duration": 0.05813953488372192,
            "durationTicks": 5,
            "midi": 95,
            "name": "B6",
            "ticks": 1966,
            "time": 22.86046511627907,
            "velocity": 0.12598425196850394
          },
          {
            "duration": 0.03488372093023173,
            "durationTicks": 3,
            "midi": 93,
            "name": "A6",
            "ticks": 1968,
            "time": 22.88372093023256,
            "velocity": 0.07086614173228346
          },
          {
            "duration": 0.6046511627906987,
            "durationTicks": 52,
            "midi": 96,
            "name": "C7",
            "ticks": 1969,
            "time": 22.8953488372093,
            "velocity": 0.31496062992125984
          },
          {
            "duration": 3.5116279069767415,
            "durationTicks": 302,
            "midi": 102,
            "name": "F#7",
            "ticks": 1972,
            "time": 22.930232558139537,
            "velocity": 0.3464566929133858
          },
          {
            "duration": 0.13953488372093048,
            "durationTicks": 12,
            "midi": 80,
            "name": "G#5",
            "ticks": 1974,
            "time": 22.953488372093023,
            "velocity": 0.29133858267716534
          },
          {
            "duration": 0.05813953488372192,
            "durationTicks": 5,
            "midi": 89,
            "name": "F6",
            "ticks": 1974,
            "time": 22.953488372093023,
            "velocity": 0.18110236220472442
          },
          {
            "duration": 0.1744186046511622,
            "durationTicks": 15,
            "midi": 92,
            "name": "G#6",
            "ticks": 1974,
            "time": 22.953488372093023,
            "velocity": 0.2992125984251969
          },
          {
            "duration": 0.03488372093023173,
            "durationTicks": 3,
            "midi": 82,
            "name": "A#5",
            "ticks": 1975,
            "time": 22.96511627906977,
            "velocity": 0.1732283464566929
          },
          {
            "duration": 0.06976744186046346,
            "durationTicks": 6,
            "midi": 83,
            "name": "B5",
            "ticks": 1975,
            "time": 22.96511627906977,
            "velocity": 0.2204724409448819
          },
          {
            "duration": 0.13953488372093048,
            "durationTicks": 12,
            "midi": 86,
            "name": "D6",
            "ticks": 1975,
            "time": 22.96511627906977,
            "velocity": 0.30708661417322836
          },
          {
            "duration": 0.03488372093023173,
            "durationTicks": 3,
            "midi": 91,
            "name": "G6",
            "ticks": 1975,
            "time": 22.96511627906977,
            "velocity": 0.10236220472440945
          },
          {
            "duration": 0.03488372093023173,
            "durationTicks": 3,
            "midi": 93,
            "name": "A6",
            "ticks": 1975,
            "time": 22.96511627906977,
            "velocity": 0.2204724409448819
          },
          {
            "duration": 0.24418604651162568,
            "durationTicks": 21,
            "midi": 94,
            "name": "A#6",
            "ticks": 1975,
            "time": 22.96511627906977,
            "velocity": 0.25196850393700787
          },
          {
            "duration": 0.720930232558139,
            "durationTicks": 62,
            "midi": 97,
            "name": "C#7",
            "ticks": 1975,
            "time": 22.96511627906977,
            "velocity": 0.2992125984251969
          },
          {
            "duration": 0.05813953488371837,
            "durationTicks": 5,
            "midi": 67,
            "name": "G4",
            "ticks": 1976,
            "time": 22.976744186046513,
            "velocity": 0.2677165354330709
          },
          {
            "duration": 0.023255813953486637,
            "durationTicks": 2,
            "midi": 74,
            "name": "D5",
            "ticks": 1976,
            "time": 22.976744186046513,
            "velocity": 0.2440944881889764
          },
          {
            "duration": 0.03488372093023173,
            "durationTicks": 3,
            "midi": 76,
            "name": "E5",
            "ticks": 1976,
            "time": 22.976744186046513,
            "velocity": 0.2283464566929134
          },
          {
            "duration": 0.046511627906973274,
            "durationTicks": 4,
            "midi": 85,
            "name": "C#6",
            "ticks": 1976,
            "time": 22.976744186046513,
            "velocity": 0.2677165354330709
          },
          {
            "duration": 0.0930232558139501,
            "durationTicks": 8,
            "midi": 90,
            "name": "F#6",
            "ticks": 1976,
            "time": 22.976744186046513,
            "velocity": 0.2992125984251969
          },
          {
            "duration": 0.04651162790697683,
            "durationTicks": 4,
            "midi": 53,
            "name": "F3",
            "ticks": 1977,
            "time": 22.988372093023255,
            "velocity": 0.13385826771653545
          },
          {
            "duration": 0.02325581395349019,
            "durationTicks": 2,
            "midi": 64,
            "name": "E4",
            "ticks": 1977,
            "time": 22.988372093023255,
            "velocity": 0.2283464566929134
          },
          {
            "duration": 0.03488372093023173,
            "durationTicks": 3,
            "midi": 78,
            "name": "F#5",
            "ticks": 1977,
            "time": 22.988372093023255,
            "velocity": 0.13385826771653545
          },
          {
            "duration": 0.05813953488372192,
            "durationTicks": 5,
            "midi": 87,
            "name": "D#6",
            "ticks": 1977,
            "time": 22.988372093023255,
            "velocity": 0.1889763779527559
          },
          {
            "duration": 0.03488372093023173,
            "durationTicks": 3,
            "midi": 81,
            "name": "A5",
            "ticks": 1978,
            "time": 23,
            "velocity": 0.29133858267716534
          },
          {
            "duration": 0.3720930232558146,
            "durationTicks": 32,
            "midi": 95,
            "name": "B6",
            "ticks": 1978,
            "time": 23,
            "velocity": 0.30708661417322836
          },
          {
            "duration": 0.023255813953486637,
            "durationTicks": 2,
            "midi": 61,
            "name": "C#4",
            "ticks": 1979,
            "time": 23.011627906976745,
            "velocity": 0.2283464566929134
          },
          {
            "duration": 0.04651162790697683,
            "durationTicks": 4,
            "midi": 69,
            "name": "A4",
            "ticks": 1979,
            "time": 23.011627906976745,
            "velocity": 0.25196850393700787
          },
          {
            "duration": 0.08139534883720856,
            "durationTicks": 7,
            "midi": 75,
            "name": "D#5",
            "ticks": 1979,
            "time": 23.011627906976745,
            "velocity": 0.28346456692913385
          },
          {
            "duration": 0.24418604651162568,
            "durationTicks": 21,
            "midi": 91,
            "name": "G6",
            "ticks": 1979,
            "time": 23.011627906976745,
            "velocity": 0.28346456692913385
          },
          {
            "duration": 0.034883720930235285,
            "durationTicks": 3,
            "midi": 77,
            "name": "F5",
            "ticks": 1980,
            "time": 23.023255813953487,
            "velocity": 0.29133858267716534
          },
          {
            "duration": 0.02325581395349019,
            "durationTicks": 2,
            "midi": 62,
            "name": "D4",
            "ticks": 1981,
            "time": 23.03488372093023,
            "velocity": 0.25196850393700787
          },
          {
            "duration": 0.08139534883720856,
            "durationTicks": 7,
            "midi": 71,
            "name": "B4",
            "ticks": 1981,
            "time": 23.03488372093023,
            "velocity": 0.2992125984251969
          },
          {
            "duration": 0.04651162790697683,
            "durationTicks": 4,
            "midi": 82,
            "name": "A#5",
            "ticks": 1981,
            "time": 23.03488372093023,
            "velocity": 0.25984251968503935
          },
          {
            "duration": 0.03488372093023173,
            "durationTicks": 3,
            "midi": 68,
            "name": "G#4",
            "ticks": 1983,
            "time": 23.058139534883722,
            "velocity": 0.2125984251968504
          },
          {
            "duration": 0.06976744186046346,
            "durationTicks": 6,
            "midi": 76,
            "name": "E5",
            "ticks": 1983,
            "time": 23.058139534883722,
            "velocity": 0.25196850393700787
          },
          {
            "duration": 0.03488372093023173,
            "durationTicks": 3,
            "midi": 78,
            "name": "F#5",
            "ticks": 1983,
            "time": 23.058139534883722,
            "velocity": 0.2755905511811024
          },
          {
            "duration": 0.04651162790697683,
            "durationTicks": 4,
            "midi": 81,
            "name": "A5",
            "ticks": 1983,
            "time": 23.058139534883722,
            "velocity": 0.2677165354330709
          },
          {
            "duration": 0.02325581395349019,
            "durationTicks": 2,
            "midi": 65,
            "name": "F4",
            "ticks": 1984,
            "time": 23.069767441860463,
            "velocity": 0.2677165354330709
          },
          {
            "duration": 0.03488372093023173,
            "durationTicks": 3,
            "midi": 84,
            "name": "C6",
            "ticks": 1985,
            "time": 23.08139534883721,
            "velocity": 0.16535433070866143
          },
          {
            "duration": 0.09302325581395365,
            "durationTicks": 8,
            "midi": 85,
            "name": "C#6",
            "ticks": 1985,
            "time": 23.08139534883721,
            "velocity": 0.28346456692913385
          },
          {
            "duration": 0.023255813953486637,
            "durationTicks": 2,
            "midi": 79,
            "name": "G5",
            "ticks": 1986,
            "time": 23.093023255813954,
            "velocity": 0.2440944881889764
          },
          {
            "duration": 0.03488372093023173,
            "durationTicks": 3,
            "midi": 82,
            "name": "A#5",
            "ticks": 1986,
            "time": 23.093023255813954,
            "velocity": 0.2755905511811024
          },
          {
            "duration": 0.06976744186046346,
            "durationTicks": 6,
            "midi": 90,
            "name": "F#6",
            "ticks": 1986,
            "time": 23.093023255813954,
            "velocity": 0.2047244094488189
          },
          {
            "duration": 0.06976744186046346,
            "durationTicks": 6,
            "midi": 78,
            "name": "F#5",
            "ticks": 1987,
            "time": 23.1046511627907,
            "velocity": 0.2440944881889764
          },
          {
            "duration": 0.06976744186046346,
            "durationTicks": 6,
            "midi": 80,
            "name": "G#5",
            "ticks": 1987,
            "time": 23.1046511627907,
            "velocity": 0.23622047244094488
          },
          {
            "duration": 0.11627906976744029,
            "durationTicks": 10,
            "midi": 87,
            "name": "D#6",
            "ticks": 1987,
            "time": 23.1046511627907,
            "velocity": 0.33070866141732286
          },
          {
            "duration": 0.13953488372093048,
            "durationTicks": 12,
            "midi": 89,
            "name": "F6",
            "ticks": 1987,
            "time": 23.1046511627907,
            "velocity": 0.29133858267716534
          },
          {
            "duration": 0.04651162790697683,
            "durationTicks": 4,
            "midi": 68,
            "name": "G#4",
            "ticks": 1988,
            "time": 23.11627906976744,
            "velocity": 0.28346456692913385
          },
          {
            "duration": 0.04651162790697683,
            "durationTicks": 4,
            "midi": 73,
            "name": "C#5",
            "ticks": 1988,
            "time": 23.11627906976744,
            "velocity": 0.3228346456692913
          },
          {
            "duration": 0.05813953488372192,
            "durationTicks": 5,
            "midi": 83,
            "name": "B5",
            "ticks": 1988,
            "time": 23.11627906976744,
            "velocity": 0.2125984251968504
          },
          {
            "duration": 0.13953488372093048,
            "durationTicks": 12,
            "midi": 86,
            "name": "D6",
            "ticks": 1988,
            "time": 23.11627906976744,
            "velocity": 0.25196850393700787
          },
          {
            "duration": 0.03488372093023173,
            "durationTicks": 3,
            "midi": 61,
            "name": "C#4",
            "ticks": 1989,
            "time": 23.127906976744185,
            "velocity": 0.28346456692913385
          },
          {
            "duration": 0.02325581395349019,
            "durationTicks": 2,
            "midi": 75,
            "name": "D#5",
            "ticks": 1989,
            "time": 23.127906976744185,
            "velocity": 0.2283464566929134
          },
          {
            "duration": 0.03488372093023173,
            "durationTicks": 3,
            "midi": 81,
            "name": "A5",
            "ticks": 1989,
            "time": 23.127906976744185,
            "velocity": 0.31496062992125984
          },
          {
            "duration": 0.06976744186046346,
            "durationTicks": 6,
            "midi": 84,
            "name": "C6",
            "ticks": 1990,
            "time": 23.13953488372093,
            "velocity": 0.29133858267716534
          },
          {
            "duration": 0.25581395348837077,
            "durationTicks": 22,
            "midi": 92,
            "name": "G#6",
            "ticks": 1990,
            "time": 23.13953488372093,
            "velocity": 0.29133858267716534
          },
          {
            "duration": 0.1046511627906952,
            "durationTicks": 9,
            "midi": 71,
            "name": "B4",
            "ticks": 1991,
            "time": 23.151162790697676,
            "velocity": 0.31496062992125984
          },
          {
            "duration": 0.04651162790697683,
            "durationTicks": 4,
            "midi": 67,
            "name": "G4",
            "ticks": 1992,
            "time": 23.162790697674417,
            "velocity": 0.23622047244094488
          },
          {
            "duration": 0.034883720930235285,
            "durationTicks": 3,
            "midi": 70,
            "name": "A#4",
            "ticks": 1992,
            "time": 23.162790697674417,
            "velocity": 0.2440944881889764
          },
          {
            "duration": 0.02325581395349019,
            "durationTicks": 2,
            "midi": 76,
            "name": "E5",
            "ticks": 1992,
            "time": 23.162790697674417,
            "velocity": 0.25196850393700787
          },
          {
            "duration": 0.03488372093023173,
            "durationTicks": 3,
            "midi": 61,
            "name": "C#4",
            "ticks": 1993,
            "time": 23.174418604651162,
            "velocity": 0.2440944881889764
          },
          {
            "duration": 0.05813953488372192,
            "durationTicks": 5,
            "midi": 81,
            "name": "A5",
            "ticks": 1993,
            "time": 23.174418604651162,
            "velocity": 0.28346456692913385
          },
          {
            "duration": 0.1976744186046524,
            "durationTicks": 17,
            "midi": 90,
            "name": "F#6",
            "ticks": 1993,
            "time": 23.174418604651162,
            "velocity": 0.25984251968503935
          },
          {
            "duration": 0.2093023255813975,
            "durationTicks": 18,
            "midi": 103,
            "name": "G7",
            "ticks": 1993,
            "time": 23.174418604651162,
            "velocity": 0.28346456692913385
          },
          {
            "duration": 0.09302325581395365,
            "durationTicks": 8,
            "midi": 75,
            "name": "D#5",
            "ticks": 1994,
            "time": 23.186046511627907,
            "velocity": 0.25196850393700787
          },
          {
            "duration": 0.22093023255813904,
            "durationTicks": 19,
            "midi": 93,
            "name": "A6",
            "ticks": 1994,
            "time": 23.186046511627907,
            "velocity": 0.29133858267716534
          },
          {
            "duration": 0.05813953488371837,
            "durationTicks": 5,
            "midi": 79,
            "name": "G5",
            "ticks": 1995,
            "time": 23.197674418604652,
            "velocity": 0.2440944881889764
          },
          {
            "duration": 0.08139534883720856,
            "durationTicks": 7,
            "midi": 85,
            "name": "C#6",
            "ticks": 1995,
            "time": 23.197674418604652,
            "velocity": 0.25196850393700787
          },
          {
            "duration": 0.03488372093023173,
            "durationTicks": 3,
            "midi": 77,
            "name": "F5",
            "ticks": 1997,
            "time": 23.22093023255814,
            "velocity": 0.1889763779527559
          },
          {
            "duration": 0.06976744186046702,
            "durationTicks": 6,
            "midi": 80,
            "name": "G#5",
            "ticks": 1997,
            "time": 23.22093023255814,
            "velocity": 0.25196850393700787
          },
          {
            "duration": 0.06976744186046702,
            "durationTicks": 6,
            "midi": 88,
            "name": "E6",
            "ticks": 1997,
            "time": 23.22093023255814,
            "velocity": 0.2755905511811024
          },
          {
            "duration": 0.03488372093023173,
            "durationTicks": 3,
            "midi": 94,
            "name": "A#6",
            "ticks": 1997,
            "time": 23.22093023255814,
            "velocity": 0.15748031496062992
          },
          {
            "duration": 0.023255813953486637,
            "durationTicks": 2,
            "midi": 65,
            "name": "F4",
            "ticks": 1998,
            "time": 23.232558139534884,
            "velocity": 0.23622047244094488
          },
          {
            "duration": 0.04651162790697683,
            "durationTicks": 4,
            "midi": 82,
            "name": "A#5",
            "ticks": 1998,
            "time": 23.232558139534884,
            "velocity": 0.18110236220472442
          },
          {
            "duration": 0.06976744186046346,
            "durationTicks": 6,
            "midi": 87,
            "name": "D#6",
            "ticks": 1998,
            "time": 23.232558139534884,
            "velocity": 0.29133858267716534
          },
          {
            "duration": 0.4534883720930232,
            "durationTicks": 39,
            "midi": 98,
            "name": "D7",
            "ticks": 1998,
            "time": 23.232558139534884,
            "velocity": 0.28346456692913385
          },
          {
            "duration": 0.03488372093023173,
            "durationTicks": 3,
            "midi": 60,
            "name": "C4",
            "ticks": 1999,
            "time": 23.24418604651163,
            "velocity": 0.1889763779527559
          },
          {
            "duration": 0.034883720930235285,
            "durationTicks": 3,
            "midi": 64,
            "name": "E4",
            "ticks": 2000,
            "time": 23.25581395348837,
            "velocity": 0.23622047244094488
          },
          {
            "duration": 0.02325581395349019,
            "durationTicks": 2,
            "midi": 67,
            "name": "G4",
            "ticks": 2000,
            "time": 23.25581395348837,
            "velocity": 0.2440944881889764
          },
          {
            "duration": 0.04651162790697683,
            "durationTicks": 4,
            "midi": 72,
            "name": "C5",
            "ticks": 2000,
            "time": 23.25581395348837,
            "velocity": 0.3228346456692913
          },
          {
            "duration": 0.06976744186046702,
            "durationTicks": 6,
            "midi": 86,
            "name": "D6",
            "ticks": 2001,
            "time": 23.267441860465116,
            "velocity": 0.2440944881889764
          },
          {
            "duration": 0.1744186046511622,
            "durationTicks": 15,
            "midi": 89,
            "name": "F6",
            "ticks": 2001,
            "time": 23.267441860465116,
            "velocity": 0.2677165354330709
          },
          {
            "duration": 0.03488372093023173,
            "durationTicks": 3,
            "midi": 91,
            "name": "G6",
            "ticks": 2001,
            "time": 23.267441860465116,
            "velocity": 0.2204724409448819
          },
          {
            "duration": 0.4883720930232549,
            "durationTicks": 42,
            "midi": 94,
            "name": "A#6",
            "ticks": 2001,
            "time": 23.267441860465116,
            "velocity": 0.3700787401574803
          },
          {
            "duration": 0.04651162790697683,
            "durationTicks": 4,
            "midi": 68,
            "name": "G#4",
            "ticks": 2002,
            "time": 23.27906976744186,
            "velocity": 0.2755905511811024
          },
          {
            "duration": 0.03488372093023173,
            "durationTicks": 3,
            "midi": 63,
            "name": "D#4",
            "ticks": 2003,
            "time": 23.290697674418606,
            "velocity": 0.2755905511811024
          },
          {
            "duration": 0.06976744186046346,
            "durationTicks": 6,
            "midi": 77,
            "name": "F5",
            "ticks": 2003,
            "time": 23.290697674418606,
            "velocity": 0.18110236220472442
          },
          {
            "duration": 0.023255813953486637,
            "durationTicks": 2,
            "midi": 79,
            "name": "G5",
            "ticks": 2003,
            "time": 23.290697674418606,
            "velocity": 0.28346456692913385
          },
          {
            "duration": 0.023255813953486637,
            "durationTicks": 2,
            "midi": 81,
            "name": "A5",
            "ticks": 2003,
            "time": 23.290697674418606,
            "velocity": 0.23622047244094488
          },
          {
            "duration": 0.03488372093023173,
            "durationTicks": 3,
            "midi": 85,
            "name": "C#6",
            "ticks": 2003,
            "time": 23.290697674418606,
            "velocity": 0.14960629921259844
          },
          {
            "duration": 0.04651162790697683,
            "durationTicks": 4,
            "midi": 73,
            "name": "C#5",
            "ticks": 2004,
            "time": 23.302325581395348,
            "velocity": 0.25196850393700787
          },
          {
            "duration": 0.034883720930235285,
            "durationTicks": 3,
            "midi": 78,
            "name": "F#5",
            "ticks": 2004,
            "time": 23.302325581395348,
            "velocity": 0.2047244094488189
          },
          {
            "duration": 0.05813953488372192,
            "durationTicks": 5,
            "midi": 88,
            "name": "E6",
            "ticks": 2004,
            "time": 23.302325581395348,
            "velocity": 0.2283464566929134
          },
          {
            "duration": 0.09302325581395365,
            "durationTicks": 8,
            "midi": 80,
            "name": "G#5",
            "ticks": 2005,
            "time": 23.313953488372093,
            "velocity": 0.28346456692913385
          },
          {
            "duration": 0.02325581395349019,
            "durationTicks": 2,
            "midi": 82,
            "name": "A#5",
            "ticks": 2005,
            "time": 23.313953488372093,
            "velocity": 0.25984251968503935
          },
          {
            "duration": 0.15116279069767558,
            "durationTicks": 13,
            "midi": 87,
            "name": "D#6",
            "ticks": 2005,
            "time": 23.313953488372093,
            "velocity": 0.2992125984251969
          },
          {
            "duration": 0.023255813953486637,
            "durationTicks": 2,
            "midi": 66,
            "name": "F#4",
            "ticks": 2006,
            "time": 23.325581395348838,
            "velocity": 0.25984251968503935
          },
          {
            "duration": 0.08139534883720856,
            "durationTicks": 7,
            "midi": 84,
            "name": "C6",
            "ticks": 2006,
            "time": 23.325581395348838,
            "velocity": 0.2755905511811024
          },
          {
            "duration": 0.06976744186046346,
            "durationTicks": 6,
            "midi": 69,
            "name": "A4",
            "ticks": 2007,
            "time": 23.337209302325583,
            "velocity": 0.23622047244094488
          },
          {
            "duration": 0.16279069767441712,
            "durationTicks": 14,
            "midi": 81,
            "name": "A5",
            "ticks": 2007,
            "time": 23.337209302325583,
            "velocity": 0.33858267716535434
          },
          {
            "duration": 0.05813953488371837,
            "durationTicks": 5,
            "midi": 83,
            "name": "B5",
            "ticks": 2007,
            "time": 23.337209302325583,
            "velocity": 0.25196850393700787
          },
          {
            "duration": 0.034883720930235285,
            "durationTicks": 3,
            "midi": 63,
            "name": "D#4",
            "ticks": 2008,
            "time": 23.348837209302324,
            "velocity": 0.25196850393700787
          },
          {
            "duration": 0.348837209302328,
            "durationTicks": 30,
            "midi": 91,
            "name": "G6",
            "ticks": 2008,
            "time": 23.348837209302324,
            "velocity": 0.30708661417322836
          },
          {
            "duration": 0.02325581395349019,
            "durationTicks": 2,
            "midi": 73,
            "name": "C#5",
            "ticks": 2009,
            "time": 23.36046511627907,
            "velocity": 0.25984251968503935
          },
          {
            "duration": 0.03488372093023173,
            "durationTicks": 3,
            "midi": 75,
            "name": "D#5",
            "ticks": 2009,
            "time": 23.36046511627907,
            "velocity": 0.25984251968503935
          },
          {
            "duration": 0.03488372093023173,
            "durationTicks": 3,
            "midi": 85,
            "name": "C#6",
            "ticks": 2009,
            "time": 23.36046511627907,
            "velocity": 0.31496062992125984
          },
          {
            "duration": 0.1046511627906952,
            "durationTicks": 9,
            "midi": 72,
            "name": "C5",
            "ticks": 2011,
            "time": 23.38372093023256,
            "velocity": 0.28346456692913385
          },
          {
            "duration": 0.05813953488371837,
            "durationTicks": 5,
            "midi": 74,
            "name": "D5",
            "ticks": 2011,
            "time": 23.38372093023256,
            "velocity": 0.25196850393700787
          },
          {
            "duration": 0.1744186046511622,
            "durationTicks": 15,
            "midi": 88,
            "name": "E6",
            "ticks": 2011,
            "time": 23.38372093023256,
            "velocity": 0.33070866141732286
          },
          {
            "duration": 0.15116279069767202,
            "durationTicks": 13,
            "midi": 95,
            "name": "B6",
            "ticks": 2011,
            "time": 23.38372093023256,
            "velocity": 0.2992125984251969
          },
          {
            "duration": 0.06976744186046702,
            "durationTicks": 6,
            "midi": 76,
            "name": "E5",
            "ticks": 2012,
            "time": 23.3953488372093,
            "velocity": 0.2755905511811024
          },
          {
            "duration": 0.02325581395349019,
            "durationTicks": 2,
            "midi": 82,
            "name": "A#5",
            "ticks": 2012,
            "time": 23.3953488372093,
            "velocity": 0.25984251968503935
          },
          {
            "duration": 0.09302325581395365,
            "durationTicks": 8,
            "midi": 90,
            "name": "F#6",
            "ticks": 2012,
            "time": 23.3953488372093,
            "velocity": 0.1889763779527559
          },
          {
            "duration": 0.03488372093023173,
            "durationTicks": 3,
            "midi": 70,
            "name": "A#4",
            "ticks": 2013,
            "time": 23.406976744186046,
            "velocity": 0.2047244094488189
          },
          {
            "duration": 0.03488372093023173,
            "durationTicks": 3,
            "midi": 83,
            "name": "B5",
            "ticks": 2013,
            "time": 23.406976744186046,
            "velocity": 0.1968503937007874
          },
          {
            "duration": 0.13953488372093048,
            "durationTicks": 12,
            "midi": 92,
            "name": "G#6",
            "ticks": 2013,
            "time": 23.406976744186046,
            "velocity": 0.2755905511811024
          },
          {
            "duration": 0.023255813953486637,
            "durationTicks": 2,
            "midi": 67,
            "name": "G4",
            "ticks": 2014,
            "time": 23.41860465116279,
            "velocity": 0.25196850393700787
          },
          {
            "duration": 0.04651162790697683,
            "durationTicks": 4,
            "midi": 79,
            "name": "G5",
            "ticks": 2015,
            "time": 23.430232558139537,
            "velocity": 0.25984251968503935
          },
          {
            "duration": 0.02325581395349019,
            "durationTicks": 2,
            "midi": 69,
            "name": "A4",
            "ticks": 2017,
            "time": 23.453488372093023,
            "velocity": 0.2440944881889764
          },
          {
            "duration": 0.09302325581395365,
            "durationTicks": 8,
            "midi": 83,
            "name": "B5",
            "ticks": 2017,
            "time": 23.453488372093023,
            "velocity": 0.2204724409448819
          },
          {
            "duration": 0.02325581395349019,
            "durationTicks": 2,
            "midi": 89,
            "name": "F6",
            "ticks": 2017,
            "time": 23.453488372093023,
            "velocity": 0.29133858267716534
          },
          {
            "duration": 0.03488372093023173,
            "durationTicks": 3,
            "midi": 57,
            "name": "A3",
            "ticks": 2018,
            "time": 23.46511627906977,
            "velocity": 0.14173228346456693
          },
          {
            "duration": 0.023255813953486637,
            "durationTicks": 2,
            "midi": 70,
            "name": "A#4",
            "ticks": 2018,
            "time": 23.46511627906977,
            "velocity": 0.2440944881889764
          },
          {
            "duration": 0.08139534883720856,
            "durationTicks": 7,
            "midi": 75,
            "name": "D#5",
            "ticks": 2018,
            "time": 23.46511627906977,
            "velocity": 0.2440944881889764
          },
          {
            "duration": 0.05813953488371837,
            "durationTicks": 5,
            "midi": 77,
            "name": "F5",
            "ticks": 2018,
            "time": 23.46511627906977,
            "velocity": 0.2283464566929134
          },
          {
            "duration": 0.03488372093023173,
            "durationTicks": 3,
            "midi": 78,
            "name": "F#5",
            "ticks": 2019,
            "time": 23.476744186046513,
            "velocity": 0.2440944881889764
          },
          {
            "duration": 0.08139534883720856,
            "durationTicks": 7,
            "midi": 86,
            "name": "D6",
            "ticks": 2019,
            "time": 23.476744186046513,
            "velocity": 0.2283464566929134
          },
          {
            "duration": 0.04651162790697683,
            "durationTicks": 4,
            "midi": 68,
            "name": "G#4",
            "ticks": 2020,
            "time": 23.488372093023255,
            "velocity": 0.28346456692913385
          },
          {
            "duration": 0.05813953488372192,
            "durationTicks": 5,
            "midi": 73,
            "name": "C#5",
            "ticks": 2020,
            "time": 23.488372093023255,
            "velocity": 0.2440944881889764
          },
          {
            "duration": 0.09302325581395365,
            "durationTicks": 8,
            "midi": 84,
            "name": "C6",
            "ticks": 2020,
            "time": 23.488372093023255,
            "velocity": 0.2992125984251969
          },
          {
            "duration": 0.1744186046511622,
            "durationTicks": 15,
            "midi": 89,
            "name": "F6",
            "ticks": 2020,
            "time": 23.488372093023255,
            "velocity": 0.33070866141732286
          },
          {
            "duration": 0.11627906976744029,
            "durationTicks": 10,
            "midi": 80,
            "name": "G#5",
            "ticks": 2021,
            "time": 23.5,
            "velocity": 0.29133858267716534
          },
          {
            "duration": 0.03488372093023173,
            "durationTicks": 3,
            "midi": 85,
            "name": "C#6",
            "ticks": 2021,
            "time": 23.5,
            "velocity": 0.31496062992125984
          },
          {
            "duration": 0.05813953488371837,
            "durationTicks": 5,
            "midi": 71,
            "name": "B4",
            "ticks": 2022,
            "time": 23.511627906976745,
            "velocity": 0.2677165354330709
          },
          {
            "duration": 0.02325581395349019,
            "durationTicks": 2,
            "midi": 60,
            "name": "C4",
            "ticks": 2024,
            "time": 23.53488372093023,
            "velocity": 0.23622047244094488
          },
          {
            "duration": 0.04651162790697683,
            "durationTicks": 4,
            "midi": 69,
            "name": "A4",
            "ticks": 2024,
            "time": 23.53488372093023,
            "velocity": 0.23622047244094488
          },
          {
            "duration": 0.03488372093023173,
            "durationTicks": 3,
            "midi": 76,
            "name": "E5",
            "ticks": 2024,
            "time": 23.53488372093023,
            "velocity": 0.23622047244094488
          },
          {
            "duration": 0.03488372093023173,
            "durationTicks": 3,
            "midi": 79,
            "name": "G5",
            "ticks": 2024,
            "time": 23.53488372093023,
            "velocity": 0.29133858267716534
          },
          {
            "duration": 0.023255813953486637,
            "durationTicks": 2,
            "midi": 74,
            "name": "D5",
            "ticks": 2025,
            "time": 23.546511627906977,
            "velocity": 0.28346456692913385
          },
          {
            "duration": 0.03488372093023173,
            "durationTicks": 3,
            "midi": 87,
            "name": "D#6",
            "ticks": 2025,
            "time": 23.546511627906977,
            "velocity": 0.2440944881889764
          },
          {
            "duration": 0.4418604651162781,
            "durationTicks": 38,
            "midi": 95,
            "name": "B6",
            "ticks": 2025,
            "time": 23.546511627906977,
            "velocity": 0.31496062992125984
          },
          {
            "duration": 0.03488372093023173,
            "durationTicks": 3,
            "midi": 61,
            "name": "C#4",
            "ticks": 2026,
            "time": 23.558139534883722,
            "velocity": 0.15748031496062992
          },
          {
            "duration": 0.03488372093023173,
            "durationTicks": 3,
            "midi": 78,
            "name": "F#5",
            "ticks": 2026,
            "time": 23.558139534883722,
            "velocity": 0.2283464566929134
          },
          {
            "duration": 0.06976744186046346,
            "durationTicks": 6,
            "midi": 81,
            "name": "A5",
            "ticks": 2026,
            "time": 23.558139534883722,
            "velocity": 0.25984251968503935
          },
          {
            "duration": 0.1046511627906952,
            "durationTicks": 9,
            "midi": 83,
            "name": "B5",
            "ticks": 2026,
            "time": 23.558139534883722,
            "velocity": 0.29133858267716534
          },
          {
            "duration": 0.15116279069767202,
            "durationTicks": 13,
            "midi": 85,
            "name": "C#6",
            "ticks": 2026,
            "time": 23.558139534883722,
            "velocity": 0.29133858267716534
          },
          {
            "duration": 0.27906976744186096,
            "durationTicks": 24,
            "midi": 90,
            "name": "F#6",
            "ticks": 2026,
            "time": 23.558139534883722,
            "velocity": 0.33858267716535434
          },
          {
            "duration": 0.04651162790697683,
            "durationTicks": 4,
            "midi": 96,
            "name": "C7",
            "ticks": 2026,
            "time": 23.558139534883722,
            "velocity": 0.3228346456692913
          },
          {
            "duration": 0.02325581395349019,
            "durationTicks": 2,
            "midi": 67,
            "name": "G4",
            "ticks": 2027,
            "time": 23.569767441860463,
            "velocity": 0.2283464566929134
          },
          {
            "duration": 0.02325581395349019,
            "durationTicks": 2,
            "midi": 72,
            "name": "C5",
            "ticks": 2027,
            "time": 23.569767441860463,
            "velocity": 0.25196850393700787
          },
          {
            "duration": 0.09302325581395365,
            "durationTicks": 8,
            "midi": 86,
            "name": "D6",
            "ticks": 2027,
            "time": 23.569767441860463,
            "velocity": 0.23622047244094488
          },
          {
            "duration": 0.09302325581395365,
            "durationTicks": 8,
            "midi": 73,
            "name": "C#5",
            "ticks": 2028,
            "time": 23.58139534883721,
            "velocity": 0.25984251968503935
          },
          {
            "duration": 0.023255813953486637,
            "durationTicks": 2,
            "midi": 71,
            "name": "B4",
            "ticks": 2029,
            "time": 23.593023255813954,
            "velocity": 0.23622047244094488
          },
          {
            "duration": 0.04651162790697683,
            "durationTicks": 4,
            "midi": 87,
            "name": "D#6",
            "ticks": 2029,
            "time": 23.593023255813954,
            "velocity": 0.1889763779527559
          },
          {
            "duration": 0.05813953488371837,
            "durationTicks": 5,
            "midi": 78,
            "name": "F#5",
            "ticks": 2030,
            "time": 23.6046511627907,
            "velocity": 0.25984251968503935
          },
          {
            "duration": 0.06976744186046346,
            "durationTicks": 6,
            "midi": 88,
            "name": "E6",
            "ticks": 2030,
            "time": 23.6046511627907,
            "velocity": 0.2283464566929134
          },
          {
            "duration": 0.034883720930235285,
            "durationTicks": 3,
            "midi": 74,
            "name": "D5",
            "ticks": 2031,
            "time": 23.61627906976744,
            "velocity": 0.3228346456692913
          },
          {
            "duration": 0.02325581395349019,
            "durationTicks": 2,
            "midi": 80,
            "name": "G#5",
            "ticks": 2032,
            "time": 23.627906976744185,
            "velocity": 0.28346456692913385
          },
          {
            "duration": 0.3372093023255829,
            "durationTicks": 29,
            "midi": 96,
            "name": "C7",
            "ticks": 2032,
            "time": 23.627906976744185,
            "velocity": 0.2992125984251969
          },
          {
            "duration": 0.04651162790697683,
            "durationTicks": 4,
            "midi": 68,
            "name": "G#4",
            "ticks": 2033,
            "time": 23.63953488372093,
            "velocity": 0.2992125984251969
          },
          {
            "duration": 0.04651162790697683,
            "durationTicks": 4,
            "midi": 81,
            "name": "A5",
            "ticks": 2033,
            "time": 23.63953488372093,
            "velocity": 0.25984251968503935
          },
          {
            "duration": 0.04651162790697683,
            "durationTicks": 4,
            "midi": 63,
            "name": "D#4",
            "ticks": 2034,
            "time": 23.651162790697676,
            "velocity": 0.1968503937007874
          },
          {
            "duration": 0.03488372093023173,
            "durationTicks": 3,
            "midi": 76,
            "name": "E5",
            "ticks": 2034,
            "time": 23.651162790697676,
            "velocity": 0.2047244094488189
          },
          {
            "duration": 0.03488372093023173,
            "durationTicks": 3,
            "midi": 79,
            "name": "G5",
            "ticks": 2034,
            "time": 23.651162790697676,
            "velocity": 0.23622047244094488
          },
          {
            "duration": 0.12790697674418539,
            "durationTicks": 11,
            "midi": 87,
            "name": "D#6",
            "ticks": 2034,
            "time": 23.651162790697676,
            "velocity": 0.30708661417322836
          },
          {
            "duration": 0.08139534883720856,
            "durationTicks": 7,
            "midi": 72,
            "name": "C5",
            "ticks": 2036,
            "time": 23.674418604651162,
            "velocity": 0.29133858267716534
          },
          {
            "duration": 0.04651162790697683,
            "durationTicks": 4,
            "midi": 74,
            "name": "D5",
            "ticks": 2036,
            "time": 23.674418604651162,
            "velocity": 0.2283464566929134
          },
          {
            "duration": 0.03488372093023173,
            "durationTicks": 3,
            "midi": 77,
            "name": "F5",
            "ticks": 2037,
            "time": 23.686046511627907,
            "velocity": 0.2204724409448819
          },
          {
            "duration": 0.03488372093023173,
            "durationTicks": 3,
            "midi": 80,
            "name": "G#5",
            "ticks": 2037,
            "time": 23.686046511627907,
            "velocity": 0.2677165354330709
          },
          {
            "duration": 0.10465116279069875,
            "durationTicks": 9,
            "midi": 92,
            "name": "G#6",
            "ticks": 2037,
            "time": 23.686046511627907,
            "velocity": 0.30708661417322836
          },
          {
            "duration": 0.04651162790697683,
            "durationTicks": 4,
            "midi": 79,
            "name": "G5",
            "ticks": 2038,
            "time": 23.697674418604652,
            "velocity": 0.3228346456692913
          },
          {
            "duration": 0.38372093023255616,
            "durationTicks": 33,
            "midi": 98,
            "name": "D7",
            "ticks": 2038,
            "time": 23.697674418604652,
            "velocity": 0.25196850393700787
          },
          {
            "duration": 0.034883720930235285,
            "durationTicks": 3,
            "midi": 63,
            "name": "D#4",
            "ticks": 2039,
            "time": 23.709302325581394,
            "velocity": 0.16535433070866143
          },
          {
            "duration": 0.02325581395349019,
            "durationTicks": 2,
            "midi": 67,
            "name": "G4",
            "ticks": 2039,
            "time": 23.709302325581394,
            "velocity": 0.29133858267716534
          },
          {
            "duration": 0.034883720930235285,
            "durationTicks": 3,
            "midi": 75,
            "name": "D#5",
            "ticks": 2039,
            "time": 23.709302325581394,
            "velocity": 0.2283464566929134
          },
          {
            "duration": 0.06976744186046702,
            "durationTicks": 6,
            "midi": 82,
            "name": "A#5",
            "ticks": 2039,
            "time": 23.709302325581394,
            "velocity": 0.28346456692913385
          },
          {
            "duration": 0.034883720930235285,
            "durationTicks": 3,
            "midi": 86,
            "name": "D6",
            "ticks": 2039,
            "time": 23.709302325581394,
            "velocity": 0.25196850393700787
          },
          {
            "duration": 0.05813953488372192,
            "durationTicks": 5,
            "midi": 76,
            "name": "E5",
            "ticks": 2040,
            "time": 23.72093023255814,
            "velocity": 0.29133858267716534
          },
          {
            "duration": 0.04651162790697683,
            "durationTicks": 4,
            "midi": 78,
            "name": "F#5",
            "ticks": 2040,
            "time": 23.72093023255814,
            "velocity": 0.2440944881889764
          },
          {
            "duration": 0.03488372093023173,
            "durationTicks": 3,
            "midi": 58,
            "name": "A#3",
            "ticks": 2041,
            "time": 23.732558139534884,
            "velocity": 0.1889763779527559
          },
          {
            "duration": 0.03488372093023173,
            "durationTicks": 3,
            "midi": 68,
            "name": "G#4",
            "ticks": 2041,
            "time": 23.732558139534884,
            "velocity": 0.25984251968503935
          },
          {
            "duration": 0.03488372093023173,
            "durationTicks": 3,
            "midi": 80,
            "name": "G#5",
            "ticks": 2041,
            "time": 23.732558139534884,
            "velocity": 0.25984251968503935
          },
          {
            "duration": 0.03488372093023173,
            "durationTicks": 3,
            "midi": 83,
            "name": "B5",
            "ticks": 2041,
            "time": 23.732558139534884,
            "velocity": 0.23622047244094488
          },
          {
            "duration": 1.7906976744186025,
            "durationTicks": 154,
            "midi": 100,
            "name": "E7",
            "ticks": 2041,
            "time": 23.732558139534884,
            "velocity": 0.2992125984251969
          },
          {
            "duration": 0.04651162790697683,
            "durationTicks": 4,
            "midi": 70,
            "name": "A#4",
            "ticks": 2042,
            "time": 23.74418604651163,
            "velocity": 0.3228346456692913
          },
          {
            "duration": 0.034883720930235285,
            "durationTicks": 3,
            "midi": 85,
            "name": "C#6",
            "ticks": 2043,
            "time": 23.75581395348837,
            "velocity": 0.10236220472440945
          },
          {
            "duration": 0.04651162790697683,
            "durationTicks": 4,
            "midi": 73,
            "name": "C#5",
            "ticks": 2044,
            "time": 23.767441860465116,
            "velocity": 0.28346456692913385
          },
          {
            "duration": 0.04651162790697683,
            "durationTicks": 4,
            "midi": 79,
            "name": "G5",
            "ticks": 2044,
            "time": 23.767441860465116,
            "velocity": 0.30708661417322836
          },
          {
            "duration": 0.09302325581395365,
            "durationTicks": 8,
            "midi": 84,
            "name": "C6",
            "ticks": 2044,
            "time": 23.767441860465116,
            "velocity": 0.2283464566929134
          },
          {
            "duration": 0.023255813953486637,
            "durationTicks": 2,
            "midi": 75,
            "name": "D#5",
            "ticks": 2045,
            "time": 23.77906976744186,
            "velocity": 0.25984251968503935
          },
          {
            "duration": 0.023255813953486637,
            "durationTicks": 2,
            "midi": 77,
            "name": "F5",
            "ticks": 2045,
            "time": 23.77906976744186,
            "velocity": 0.25984251968503935
          },
          {
            "duration": 0.11627906976744029,
            "durationTicks": 10,
            "midi": 80,
            "name": "G#5",
            "ticks": 2045,
            "time": 23.77906976744186,
            "velocity": 0.33070866141732286
          },
          {
            "duration": 0.04651162790697683,
            "durationTicks": 4,
            "midi": 86,
            "name": "D6",
            "ticks": 2045,
            "time": 23.77906976744186,
            "velocity": 0.33858267716535434
          },
          {
            "duration": 0.03488372093023173,
            "durationTicks": 3,
            "midi": 71,
            "name": "B4",
            "ticks": 2046,
            "time": 23.790697674418606,
            "velocity": 0.25196850393700787
          },
          {
            "duration": 0.1046511627906952,
            "durationTicks": 9,
            "midi": 89,
            "name": "F6",
            "ticks": 2046,
            "time": 23.790697674418606,
            "velocity": 0.25984251968503935
          },
          {
            "duration": 0.05813953488372192,
            "durationTicks": 5,
            "midi": 61,
            "name": "C#4",
            "ticks": 2047,
            "time": 23.802325581395348,
            "velocity": 0.25984251968503935
          },
          {
            "duration": 0.09302325581395365,
            "durationTicks": 8,
            "midi": 78,
            "name": "F#5",
            "ticks": 2047,
            "time": 23.802325581395348,
            "velocity": 0.3228346456692913
          },
          {
            "duration": 0.2093023255813975,
            "durationTicks": 18,
            "midi": 94,
            "name": "A#6",
            "ticks": 2047,
            "time": 23.802325581395348,
            "velocity": 0.25196850393700787
          },
          {
            "duration": 0.02325581395349019,
            "durationTicks": 2,
            "midi": 72,
            "name": "C5",
            "ticks": 2048,
            "time": 23.813953488372093,
            "velocity": 0.2440944881889764
          },
          {
            "duration": 0.03488372093023173,
            "durationTicks": 3,
            "midi": 82,
            "name": "A#5",
            "ticks": 2048,
            "time": 23.813953488372093,
            "velocity": 0.2677165354330709
          },
          {
            "duration": 0.03488372093023173,
            "durationTicks": 3,
            "midi": 75,
            "name": "D#5",
            "ticks": 2049,
            "time": 23.825581395348838,
            "velocity": 0.33070866141732286
          },
          {
            "duration": 0.023255813953486637,
            "durationTicks": 2,
            "midi": 83,
            "name": "B5",
            "ticks": 2049,
            "time": 23.825581395348838,
            "velocity": 0.25196850393700787
          },
          {
            "duration": 0.05813953488372192,
            "durationTicks": 5,
            "midi": 85,
            "name": "C#6",
            "ticks": 2049,
            "time": 23.825581395348838,
            "velocity": 0.28346456692913385
          },
          {
            "duration": 0.13953488372093048,
            "durationTicks": 12,
            "midi": 88,
            "name": "E6",
            "ticks": 2049,
            "time": 23.825581395348838,
            "velocity": 0.29133858267716534
          },
          {
            "duration": 1,
            "durationTicks": 86,
            "midi": 97,
            "name": "C#7",
            "ticks": 2049,
            "time": 23.825581395348838,
            "velocity": 0.29133858267716534
          },
          {
            "duration": 0.11627906976744029,
            "durationTicks": 10,
            "midi": 86,
            "name": "D6",
            "ticks": 2050,
            "time": 23.837209302325583,
            "velocity": 0.31496062992125984
          },
          {
            "duration": 0.06976744186046702,
            "durationTicks": 6,
            "midi": 68,
            "name": "G#4",
            "ticks": 2051,
            "time": 23.848837209302324,
            "velocity": 0.31496062992125984
          },
          {
            "duration": 0.02325581395349019,
            "durationTicks": 2,
            "midi": 76,
            "name": "E5",
            "ticks": 2052,
            "time": 23.86046511627907,
            "velocity": 0.25984251968503935
          },
          {
            "duration": 1.2674418604651159,
            "durationTicks": 109,
            "midi": 101,
            "name": "F7",
            "ticks": 2052,
            "time": 23.86046511627907,
            "velocity": 0.28346456692913385
          },
          {
            "duration": 0.023255813953486637,
            "durationTicks": 2,
            "midi": 82,
            "name": "A#5",
            "ticks": 2053,
            "time": 23.872093023255815,
            "velocity": 0.2677165354330709
          },
          {
            "duration": 0.10465116279069875,
            "durationTicks": 9,
            "midi": 84,
            "name": "C6",
            "ticks": 2053,
            "time": 23.872093023255815,
            "velocity": 0.2677165354330709
          },
          {
            "duration": 0.05813953488372192,
            "durationTicks": 5,
            "midi": 87,
            "name": "D#6",
            "ticks": 2053,
            "time": 23.872093023255815,
            "velocity": 0.2755905511811024
          },
          {
            "duration": 0.3604651162790695,
            "durationTicks": 31,
            "midi": 103,
            "name": "G7",
            "ticks": 2053,
            "time": 23.872093023255815,
            "velocity": 0.2677165354330709
          },
          {
            "duration": 0.05813953488371837,
            "durationTicks": 5,
            "midi": 75,
            "name": "D#5",
            "ticks": 2054,
            "time": 23.88372093023256,
            "velocity": 0.29133858267716534
          },
          {
            "duration": 0.02325581395349019,
            "durationTicks": 2,
            "midi": 79,
            "name": "G5",
            "ticks": 2055,
            "time": 23.8953488372093,
            "velocity": 0.28346456692913385
          },
          {
            "duration": 0.04651162790697683,
            "durationTicks": 4,
            "midi": 83,
            "name": "B5",
            "ticks": 2055,
            "time": 23.8953488372093,
            "velocity": 0.28346456692913385
          },
          {
            "duration": 0.034883720930235285,
            "durationTicks": 3,
            "midi": 85,
            "name": "C#6",
            "ticks": 2055,
            "time": 23.8953488372093,
            "velocity": 0.1732283464566929
          },
          {
            "duration": 0.04651162790697683,
            "durationTicks": 4,
            "midi": 69,
            "name": "A4",
            "ticks": 2056,
            "time": 23.906976744186046,
            "velocity": 0.2204724409448819
          },
          {
            "duration": 0.03488372093023173,
            "durationTicks": 3,
            "midi": 89,
            "name": "F6",
            "ticks": 2056,
            "time": 23.906976744186046,
            "velocity": 0.25984251968503935
          },
          {
            "duration": 0.03488372093023173,
            "durationTicks": 3,
            "midi": 66,
            "name": "F#4",
            "ticks": 2057,
            "time": 23.91860465116279,
            "velocity": 0.2677165354330709
          },
          {
            "duration": 0.03488372093023173,
            "durationTicks": 3,
            "midi": 80,
            "name": "G#5",
            "ticks": 2057,
            "time": 23.91860465116279,
            "velocity": 0.2677165354330709
          },
          {
            "duration": 0.1860465116279073,
            "durationTicks": 16,
            "midi": 90,
            "name": "F#6",
            "ticks": 2057,
            "time": 23.91860465116279,
            "velocity": 0.2440944881889764
          },
          {
            "duration": 0.02325581395349019,
            "durationTicks": 2,
            "midi": 72,
            "name": "C5",
            "ticks": 2059,
            "time": 23.941860465116278,
            "velocity": 0.2283464566929134
          },
          {
            "duration": 0.04651162790697683,
            "durationTicks": 4,
            "midi": 78,
            "name": "F#5",
            "ticks": 2059,
            "time": 23.941860465116278,
            "velocity": 0.2755905511811024
          },
          {
            "duration": 0.09302325581395365,
            "durationTicks": 8,
            "midi": 87,
            "name": "D#6",
            "ticks": 2059,
            "time": 23.941860465116278,
            "velocity": 0.30708661417322836
          },
          {
            "duration": 0.12790697674418539,
            "durationTicks": 11,
            "midi": 91,
            "name": "G6",
            "ticks": 2059,
            "time": 23.941860465116278,
            "velocity": 0.31496062992125984
          },
          {
            "duration": 0.04651162790697683,
            "durationTicks": 4,
            "midi": 75,
            "name": "D#5",
            "ticks": 2060,
            "time": 23.953488372093023,
            "velocity": 0.2204724409448819
          },
          {
            "duration": 0.04651162790697683,
            "durationTicks": 4,
            "midi": 81,
            "name": "A5",
            "ticks": 2060,
            "time": 23.953488372093023,
            "velocity": 0.3228346456692913
          },
          {
            "duration": 0.05813953488372192,
            "durationTicks": 5,
            "midi": 85,
            "name": "C#6",
            "ticks": 2060,
            "time": 23.953488372093023,
            "velocity": 0.2440944881889764
          },
          {
            "duration": 0.03488372093023173,
            "durationTicks": 3,
            "midi": 71,
            "name": "B4",
            "ticks": 2061,
            "time": 23.96511627906977,
            "velocity": 0.2755905511811024
          },
          {
            "duration": 0.04651162790697683,
            "durationTicks": 4,
            "midi": 80,
            "name": "G#5",
            "ticks": 2061,
            "time": 23.96511627906977,
            "velocity": 0.2125984251968504
          },
          {
            "duration": 0.1744186046511622,
            "durationTicks": 15,
            "midi": 89,
            "name": "F6",
            "ticks": 2061,
            "time": 23.96511627906977,
            "velocity": 0.2992125984251969
          },
          {
            "duration": 0.11627906976744029,
            "durationTicks": 10,
            "midi": 77,
            "name": "F5",
            "ticks": 2062,
            "time": 23.976744186046513,
            "velocity": 0.2992125984251969
          },
          {
            "duration": 0.0930232558139501,
            "durationTicks": 8,
            "midi": 83,
            "name": "B5",
            "ticks": 2062,
            "time": 23.976744186046513,
            "velocity": 0.31496062992125984
          },
          {
            "duration": 0.04651162790697683,
            "durationTicks": 4,
            "midi": 72,
            "name": "C5",
            "ticks": 2063,
            "time": 23.988372093023255,
            "velocity": 0.2283464566929134
          },
          {
            "duration": 0.03488372093023173,
            "durationTicks": 3,
            "midi": 82,
            "name": "A#5",
            "ticks": 2063,
            "time": 23.988372093023255,
            "velocity": 0.28346456692913385
          },
          {
            "duration": 0.03488372093023173,
            "durationTicks": 3,
            "midi": 84,
            "name": "C6",
            "ticks": 2063,
            "time": 23.988372093023255,
            "velocity": 0.25196850393700787
          },
          {
            "duration": 0.11627906976744384,
            "durationTicks": 10,
            "midi": 92,
            "name": "G#6",
            "ticks": 2063,
            "time": 23.988372093023255,
            "velocity": 0.31496062992125984
          },
          {
            "duration": 0.023255813953486637,
            "durationTicks": 2,
            "midi": 70,
            "name": "A#4",
            "ticks": 2064,
            "time": 24,
            "velocity": 0.23622047244094488
          },
          {
            "duration": 0.023255813953486637,
            "durationTicks": 2,
            "midi": 79,
            "name": "G5",
            "ticks": 2065,
            "time": 24.011627906976745,
            "velocity": 0.25196850393700787
          },
          {
            "duration": 0.023255813953486637,
            "durationTicks": 2,
            "midi": 81,
            "name": "A5",
            "ticks": 2065,
            "time": 24.011627906976745,
            "velocity": 0.2755905511811024
          },
          {
            "duration": 0.05813953488372192,
            "durationTicks": 5,
            "midi": 50,
            "name": "D3",
            "ticks": 2066,
            "time": 24.023255813953487,
            "velocity": 0.14173228346456693
          },
          {
            "duration": 0.034883720930235285,
            "durationTicks": 3,
            "midi": 58,
            "name": "A#3",
            "ticks": 2066,
            "time": 24.023255813953487,
            "velocity": 0.2047244094488189
          },
          {
            "duration": 0.034883720930235285,
            "durationTicks": 3,
            "midi": 75,
            "name": "D#5",
            "ticks": 2066,
            "time": 24.023255813953487,
            "velocity": 0.2440944881889764
          },
          {
            "duration": 0.05813953488372192,
            "durationTicks": 5,
            "midi": 85,
            "name": "C#6",
            "ticks": 2066,
            "time": 24.023255813953487,
            "velocity": 0.2677165354330709
          },
          {
            "duration": 1.4186046511627914,
            "durationTicks": 122,
            "midi": 94,
            "name": "A#6",
            "ticks": 2066,
            "time": 24.023255813953487,
            "velocity": 0.31496062992125984
          },
          {
            "duration": 0.02325581395349019,
            "durationTicks": 2,
            "midi": 71,
            "name": "B4",
            "ticks": 2067,
            "time": 24.03488372093023,
            "velocity": 0.2440944881889764
          },
          {
            "duration": 0.02325581395349019,
            "durationTicks": 2,
            "midi": 82,
            "name": "A#5",
            "ticks": 2067,
            "time": 24.03488372093023,
            "velocity": 0.28346456692913385
          },
          {
            "duration": 0.05813953488372192,
            "durationTicks": 5,
            "midi": 86,
            "name": "D6",
            "ticks": 2067,
            "time": 24.03488372093023,
            "velocity": 0.2440944881889764
          },
          {
            "duration": 0.4534883720930232,
            "durationTicks": 39,
            "midi": 96,
            "name": "C7",
            "ticks": 2067,
            "time": 24.03488372093023,
            "velocity": 0.30708661417322836
          },
          {
            "duration": 0.023255813953486637,
            "durationTicks": 2,
            "midi": 66,
            "name": "F#4",
            "ticks": 2069,
            "time": 24.058139534883722,
            "velocity": 0.25196850393700787
          },
          {
            "duration": 0.023255813953486637,
            "durationTicks": 2,
            "midi": 70,
            "name": "A#4",
            "ticks": 2069,
            "time": 24.058139534883722,
            "velocity": 0.2755905511811024
          },
          {
            "duration": 0.04651162790697683,
            "durationTicks": 4,
            "midi": 80,
            "name": "G#5",
            "ticks": 2069,
            "time": 24.058139534883722,
            "velocity": 0.2440944881889764
          },
          {
            "duration": 0.03488372093023173,
            "durationTicks": 3,
            "midi": 88,
            "name": "E6",
            "ticks": 2069,
            "time": 24.058139534883722,
            "velocity": 0.2440944881889764
          },
          {
            "duration": 0.034883720930235285,
            "durationTicks": 3,
            "midi": 60,
            "name": "C4",
            "ticks": 2070,
            "time": 24.069767441860463,
            "velocity": 0.2440944881889764
          },
          {
            "duration": 0.06976744186046702,
            "durationTicks": 6,
            "midi": 72,
            "name": "C5",
            "ticks": 2070,
            "time": 24.069767441860463,
            "velocity": 0.2755905511811024
          },
          {
            "duration": 0.2093023255813975,
            "durationTicks": 18,
            "midi": 87,
            "name": "D#6",
            "ticks": 2070,
            "time": 24.069767441860463,
            "velocity": 0.2755905511811024
          },
          {
            "duration": 0.03488372093023173,
            "durationTicks": 3,
            "midi": 69,
            "name": "A4",
            "ticks": 2071,
            "time": 24.08139534883721,
            "velocity": 0.2755905511811024
          },
          {
            "duration": 0.05813953488372192,
            "durationTicks": 5,
            "midi": 81,
            "name": "A5",
            "ticks": 2071,
            "time": 24.08139534883721,
            "velocity": 0.30708661417322836
          },
          {
            "duration": 0.03488372093023173,
            "durationTicks": 3,
            "midi": 62,
            "name": "D4",
            "ticks": 2072,
            "time": 24.093023255813954,
            "velocity": 0.23622047244094488
          },
          {
            "duration": 0.06976744186046346,
            "durationTicks": 6,
            "midi": 66,
            "name": "F#4",
            "ticks": 2072,
            "time": 24.093023255813954,
            "velocity": 0.2440944881889764
          },
          {
            "duration": 0.03488372093023173,
            "durationTicks": 3,
            "midi": 75,
            "name": "D#5",
            "ticks": 2072,
            "time": 24.093023255813954,
            "velocity": 0.2125984251968504
          },
          {
            "duration": 0.03488372093023173,
            "durationTicks": 3,
            "midi": 83,
            "name": "B5",
            "ticks": 2072,
            "time": 24.093023255813954,
            "velocity": 0.2440944881889764
          },
          {
            "duration": 0.09302325581395365,
            "durationTicks": 8,
            "midi": 85,
            "name": "C#6",
            "ticks": 2072,
            "time": 24.093023255813954,
            "velocity": 0.28346456692913385
          },
          {
            "duration": 0.04651162790697683,
            "durationTicks": 4,
            "midi": 91,
            "name": "G6",
            "ticks": 2072,
            "time": 24.093023255813954,
            "velocity": 0.2755905511811024
          },
          {
            "duration": 0.4767441860465098,
            "durationTicks": 41,
            "midi": 98,
            "name": "D7",
            "ticks": 2072,
            "time": 24.093023255813954,
            "velocity": 0.2992125984251969
          },
          {
            "duration": 0.04651162790697683,
            "durationTicks": 4,
            "midi": 77,
            "name": "F5",
            "ticks": 2074,
            "time": 24.11627906976744,
            "velocity": 0.1968503937007874
          },
          {
            "duration": 0.02325581395349019,
            "durationTicks": 2,
            "midi": 80,
            "name": "G#5",
            "ticks": 2074,
            "time": 24.11627906976744,
            "velocity": 0.2677165354330709
          },
          {
            "duration": 0.06976744186046702,
            "durationTicks": 6,
            "midi": 88,
            "name": "E6",
            "ticks": 2074,
            "time": 24.11627906976744,
            "velocity": 0.2283464566929134
          },
          {
            "duration": 0.03488372093023173,
            "durationTicks": 3,
            "midi": 63,
            "name": "D#4",
            "ticks": 2075,
            "time": 24.127906976744185,
            "velocity": 0.2125984251968504
          },
          {
            "duration": 0.03488372093023173,
            "durationTicks": 3,
            "midi": 82,
            "name": "A#5",
            "ticks": 2075,
            "time": 24.127906976744185,
            "velocity": 0.2125984251968504
          },
          {
            "duration": 0.06976744186046702,
            "durationTicks": 6,
            "midi": 86,
            "name": "D6",
            "ticks": 2075,
            "time": 24.127906976744185,
            "velocity": 0.2677165354330709
          },
          {
            "duration": 0.04651162790697683,
            "durationTicks": 4,
            "midi": 70,
            "name": "A#4",
            "ticks": 2076,
            "time": 24.13953488372093,
            "velocity": 0.2677165354330709
          },
          {
            "duration": 0.03488372093023173,
            "durationTicks": 3,
            "midi": 73,
            "name": "C#5",
            "ticks": 2076,
            "time": 24.13953488372093,
            "velocity": 0.2440944881889764
          },
          {
            "duration": 0.3255813953488378,
            "durationTicks": 28,
            "midi": 90,
            "name": "F#6",
            "ticks": 2076,
            "time": 24.13953488372093,
            "velocity": 0.33070866141732286
          },
          {
            "duration": 0.15116279069767558,
            "durationTicks": 13,
            "midi": 92,
            "name": "G#6",
            "ticks": 2076,
            "time": 24.13953488372093,
            "velocity": 0.31496062992125984
          },
          {
            "duration": 0.22093023255813904,
            "durationTicks": 19,
            "midi": 95,
            "name": "B6",
            "ticks": 2076,
            "time": 24.13953488372093,
            "velocity": 0.30708661417322836
          },
          {
            "duration": 0.04651162790697683,
            "durationTicks": 4,
            "midi": 53,
            "name": "F3",
            "ticks": 2077,
            "time": 24.151162790697676,
            "velocity": 0.15748031496062992
          },
          {
            "duration": 0.04651162790697683,
            "durationTicks": 4,
            "midi": 59,
            "name": "B3",
            "ticks": 2077,
            "time": 24.151162790697676,
            "velocity": 0.2283464566929134
          },
          {
            "duration": 0.04651162790697683,
            "durationTicks": 4,
            "midi": 75,
            "name": "D#5",
            "ticks": 2077,
            "time": 24.151162790697676,
            "velocity": 0.2755905511811024
          },
          {
            "duration": 0.03488372093023173,
            "durationTicks": 3,
            "midi": 80,
            "name": "G#5",
            "ticks": 2077,
            "time": 24.151162790697676,
            "velocity": 0.3228346456692913
          },
          {
            "duration": 0.08139534883720856,
            "durationTicks": 7,
            "midi": 83,
            "name": "B5",
            "ticks": 2077,
            "time": 24.151162790697676,
            "velocity": 0.2755905511811024
          },
          {
            "duration": 0.04651162790697683,
            "durationTicks": 4,
            "midi": 89,
            "name": "F6",
            "ticks": 2077,
            "time": 24.151162790697676,
            "velocity": 0.28346456692913385
          },
          {
            "duration": 0.06976744186046346,
            "durationTicks": 6,
            "midi": 91,
            "name": "G6",
            "ticks": 2077,
            "time": 24.151162790697676,
            "velocity": 0.29133858267716534
          },
          {
            "duration": 0.12790697674418894,
            "durationTicks": 11,
            "midi": 72,
            "name": "C5",
            "ticks": 2078,
            "time": 24.162790697674417,
            "velocity": 0.28346456692913385
          },
          {
            "duration": 0.04651162790697683,
            "durationTicks": 4,
            "midi": 64,
            "name": "E4",
            "ticks": 2079,
            "time": 24.174418604651162,
            "velocity": 0.2047244094488189
          },
          {
            "duration": 0.02325581395349019,
            "durationTicks": 2,
            "midi": 68,
            "name": "G#4",
            "ticks": 2079,
            "time": 24.174418604651162,
            "velocity": 0.2440944881889764
          },
          {
            "duration": 0.02325581395349019,
            "durationTicks": 2,
            "midi": 76,
            "name": "E5",
            "ticks": 2079,
            "time": 24.174418604651162,
            "velocity": 0.30708661417322836
          },
          {
            "duration": 0.03488372093023173,
            "durationTicks": 3,
            "midi": 79,
            "name": "G5",
            "ticks": 2079,
            "time": 24.174418604651162,
            "velocity": 0.3464566929133858
          },
          {
            "duration": 0.03488372093023173,
            "durationTicks": 3,
            "midi": 78,
            "name": "F#5",
            "ticks": 2080,
            "time": 24.186046511627907,
            "velocity": 0.25196850393700787
          },
          {
            "duration": 0.03488372093023173,
            "durationTicks": 3,
            "midi": 82,
            "name": "A#5",
            "ticks": 2080,
            "time": 24.186046511627907,
            "velocity": 0.23622047244094488
          },
          {
            "duration": 0.023255813953486637,
            "durationTicks": 2,
            "midi": 74,
            "name": "D5",
            "ticks": 2081,
            "time": 24.197674418604652,
            "velocity": 0.23622047244094488
          },
          {
            "duration": 0.04651162790697683,
            "durationTicks": 4,
            "midi": 85,
            "name": "C#6",
            "ticks": 2081,
            "time": 24.197674418604652,
            "velocity": 0.2440944881889764
          },
          {
            "duration": 0.22093023255813904,
            "durationTicks": 19,
            "midi": 88,
            "name": "E6",
            "ticks": 2081,
            "time": 24.197674418604652,
            "velocity": 0.25196850393700787
          },
          {
            "duration": 0.08139534883721211,
            "durationTicks": 7,
            "midi": 80,
            "name": "G#5",
            "ticks": 2082,
            "time": 24.209302325581394,
            "velocity": 0.3464566929133858
          },
          {
            "duration": 0.03488372093023173,
            "durationTicks": 3,
            "midi": 75,
            "name": "D#5",
            "ticks": 2083,
            "time": 24.22093023255814,
            "velocity": 0.2283464566929134
          },
          {
            "duration": 0.04651162790697683,
            "durationTicks": 4,
            "midi": 66,
            "name": "F#4",
            "ticks": 2084,
            "time": 24.232558139534884,
            "velocity": 0.23622047244094488
          },
          {
            "duration": 0.09302325581395365,
            "durationTicks": 8,
            "midi": 77,
            "name": "F5",
            "ticks": 2084,
            "time": 24.232558139534884,
            "velocity": 0.2677165354330709
          },
          {
            "duration": 0.03488372093023173,
            "durationTicks": 3,
            "midi": 82,
            "name": "A#5",
            "ticks": 2084,
            "time": 24.232558139534884,
            "velocity": 0.31496062992125984
          },
          {
            "duration": 0.10465116279069875,
            "durationTicks": 9,
            "midi": 86,
            "name": "D6",
            "ticks": 2084,
            "time": 24.232558139534884,
            "velocity": 0.2755905511811024
          },
          {
            "duration": 0.6627906976744171,
            "durationTicks": 57,
            "midi": 99,
            "name": "D#7",
            "ticks": 2084,
            "time": 24.232558139534884,
            "velocity": 0.31496062992125984
          },
          {
            "duration": 0.05813953488371837,
            "durationTicks": 5,
            "midi": 53,
            "name": "F3",
            "ticks": 2085,
            "time": 24.24418604651163,
            "velocity": 0.2125984251968504
          },
          {
            "duration": 0.04651162790697683,
            "durationTicks": 4,
            "midi": 83,
            "name": "B5",
            "ticks": 2086,
            "time": 24.25581395348837,
            "velocity": 0.28346456692913385
          },
          {
            "duration": 0.09302325581395365,
            "durationTicks": 8,
            "midi": 85,
            "name": "C#6",
            "ticks": 2086,
            "time": 24.25581395348837,
            "velocity": 0.2204724409448819
          },
          {
            "duration": 0.06976744186046702,
            "durationTicks": 6,
            "midi": 89,
            "name": "F6",
            "ticks": 2086,
            "time": 24.25581395348837,
            "velocity": 0.2677165354330709
          },
          {
            "duration": 0.03488372093023173,
            "durationTicks": 3,
            "midi": 69,
            "name": "A4",
            "ticks": 2088,
            "time": 24.27906976744186,
            "velocity": 0.2755905511811024
          },
          {
            "duration": 0.09302325581395365,
            "durationTicks": 8,
            "midi": 81,
            "name": "A5",
            "ticks": 2088,
            "time": 24.27906976744186,
            "velocity": 0.2755905511811024
          },
          {
            "duration": 0.10465116279069875,
            "durationTicks": 9,
            "midi": 91,
            "name": "G6",
            "ticks": 2088,
            "time": 24.27906976744186,
            "velocity": 0.2204724409448819
          },
          {
            "duration": 0.023255813953486637,
            "durationTicks": 2,
            "midi": 65,
            "name": "F4",
            "ticks": 2089,
            "time": 24.290697674418606,
            "velocity": 0.31496062992125984
          },
          {
            "duration": 0.05813953488372192,
            "durationTicks": 5,
            "midi": 74,
            "name": "D5",
            "ticks": 2090,
            "time": 24.302325581395348,
            "velocity": 0.33858267716535434
          },
          {
            "duration": 0.05813953488372192,
            "durationTicks": 5,
            "midi": 76,
            "name": "E5",
            "ticks": 2090,
            "time": 24.302325581395348,
            "velocity": 0.23622047244094488
          },
          {
            "duration": 0.02325581395349019,
            "durationTicks": 2,
            "midi": 87,
            "name": "D#6",
            "ticks": 2090,
            "time": 24.302325581395348,
            "velocity": 0.2283464566929134
          },
          {
            "duration": 0.10465116279069875,
            "durationTicks": 9,
            "midi": 92,
            "name": "G#6",
            "ticks": 2090,
            "time": 24.302325581395348,
            "velocity": 0.3543307086614173
          },
          {
            "duration": 0.03488372093023173,
            "durationTicks": 3,
            "midi": 64,
            "name": "E4",
            "ticks": 2091,
            "time": 24.313953488372093,
            "velocity": 0.25196850393700787
          },
          {
            "duration": 0.02325581395349019,
            "durationTicks": 2,
            "midi": 68,
            "name": "G#4",
            "ticks": 2091,
            "time": 24.313953488372093,
            "velocity": 0.33070866141732286
          },
          {
            "duration": 0.03488372093023173,
            "durationTicks": 3,
            "midi": 71,
            "name": "B4",
            "ticks": 2091,
            "time": 24.313953488372093,
            "velocity": 0.25196850393700787
          },
          {
            "duration": 0.05813953488372192,
            "durationTicks": 5,
            "midi": 79,
            "name": "G5",
            "ticks": 2091,
            "time": 24.313953488372093,
            "velocity": 0.2125984251968504
          },
          {
            "duration": 0.13953488372093048,
            "durationTicks": 12,
            "midi": 83,
            "name": "B5",
            "ticks": 2091,
            "time": 24.313953488372093,
            "velocity": 0.29133858267716534
          },
          {
            "duration": 0.03488372093023173,
            "durationTicks": 3,
            "midi": 78,
            "name": "F#5",
            "ticks": 2092,
            "time": 24.325581395348838,
            "velocity": 0.25984251968503935
          },
          {
            "duration": 1.9651162790697683,
            "durationTicks": 169,
            "midi": 103,
            "name": "G7",
            "ticks": 2092,
            "time": 24.325581395348838,
            "velocity": 0.28346456692913385
          },
          {
            "duration": 0.06976744186046346,
            "durationTicks": 6,
            "midi": 84,
            "name": "C6",
            "ticks": 2093,
            "time": 24.337209302325583,
            "velocity": 0.25984251968503935
          },
          {
            "duration": 0.05813953488371837,
            "durationTicks": 5,
            "midi": 87,
            "name": "D#6",
            "ticks": 2093,
            "time": 24.337209302325583,
            "velocity": 0.2283464566929134
          },
          {
            "duration": 0.02325581395349019,
            "durationTicks": 2,
            "midi": 61,
            "name": "C#4",
            "ticks": 2094,
            "time": 24.348837209302324,
            "velocity": 0.25984251968503935
          },
          {
            "duration": 0.034883720930235285,
            "durationTicks": 3,
            "midi": 65,
            "name": "F4",
            "ticks": 2094,
            "time": 24.348837209302324,
            "velocity": 0.25196850393700787
          },
          {
            "duration": 0.03488372093023173,
            "durationTicks": 3,
            "midi": 75,
            "name": "D#5",
            "ticks": 2095,
            "time": 24.36046511627907,
            "velocity": 0.28346456692913385
          },
          {
            "duration": 0.02325581395349019,
            "durationTicks": 2,
            "midi": 77,
            "name": "F5",
            "ticks": 2095,
            "time": 24.36046511627907,
            "velocity": 0.30708661417322836
          },
          {
            "duration": 0.06976744186046702,
            "durationTicks": 6,
            "midi": 80,
            "name": "G#5",
            "ticks": 2095,
            "time": 24.36046511627907,
            "velocity": 0.25984251968503935
          },
          {
            "duration": 0.023255813953486637,
            "durationTicks": 2,
            "midi": 73,
            "name": "C#5",
            "ticks": 2096,
            "time": 24.372093023255815,
            "velocity": 0.28346456692913385
          },
          {
            "duration": 0.5697674418604635,
            "durationTicks": 49,
            "midi": 95,
            "name": "B6",
            "ticks": 2096,
            "time": 24.372093023255815,
            "velocity": 0.3228346456692913
          },
          {
            "duration": 0.05813953488371837,
            "durationTicks": 5,
            "midi": 78,
            "name": "F#5",
            "ticks": 2097,
            "time": 24.38372093023256,
            "velocity": 0.2440944881889764
          },
          {
            "duration": 0.11627906976744029,
            "durationTicks": 10,
            "midi": 89,
            "name": "F6",
            "ticks": 2097,
            "time": 24.38372093023256,
            "velocity": 0.25984251968503935
          },
          {
            "duration": 0.02325581395349019,
            "durationTicks": 2,
            "midi": 72,
            "name": "C5",
            "ticks": 2098,
            "time": 24.3953488372093,
            "velocity": 0.23622047244094488
          },
          {
            "duration": 0.034883720930235285,
            "durationTicks": 3,
            "midi": 74,
            "name": "D5",
            "ticks": 2098,
            "time": 24.3953488372093,
            "velocity": 0.2283464566929134
          },
          {
            "duration": 0.02325581395349019,
            "durationTicks": 2,
            "midi": 76,
            "name": "E5",
            "ticks": 2098,
            "time": 24.3953488372093,
            "velocity": 0.25196850393700787
          },
          {
            "duration": 0.04651162790697683,
            "durationTicks": 4,
            "midi": 91,
            "name": "G6",
            "ticks": 2099,
            "time": 24.406976744186046,
            "velocity": 0.1889763779527559
          },
          {
            "duration": 0.03488372093023173,
            "durationTicks": 3,
            "midi": 58,
            "name": "A#3",
            "ticks": 2100,
            "time": 24.41860465116279,
            "velocity": 0.2125984251968504
          },
          {
            "duration": 0.04651162790697683,
            "durationTicks": 4,
            "midi": 63,
            "name": "D#4",
            "ticks": 2100,
            "time": 24.41860465116279,
            "velocity": 0.2125984251968504
          },
          {
            "duration": 0.03488372093023173,
            "durationTicks": 3,
            "midi": 81,
            "name": "A5",
            "ticks": 2100,
            "time": 24.41860465116279,
            "velocity": 0.2283464566929134
          },
          {
            "duration": 0.06976744186046346,
            "durationTicks": 6,
            "midi": 82,
            "name": "A#5",
            "ticks": 2100,
            "time": 24.41860465116279,
            "velocity": 0.2283464566929134
          },
          {
            "duration": 0.11627906976744029,
            "durationTicks": 10,
            "midi": 92,
            "name": "G#6",
            "ticks": 2100,
            "time": 24.41860465116279,
            "velocity": 0.30708661417322836
          },
          {
            "duration": 0.04651162790697683,
            "durationTicks": 4,
            "midi": 88,
            "name": "E6",
            "ticks": 2101,
            "time": 24.430232558139537,
            "velocity": 0.25984251968503935
          },
          {
            "duration": 0.034883720930235285,
            "durationTicks": 3,
            "midi": 74,
            "name": "D5",
            "ticks": 2102,
            "time": 24.441860465116278,
            "velocity": 0.25984251968503935
          },
          {
            "duration": 0.02325581395349019,
            "durationTicks": 2,
            "midi": 77,
            "name": "F5",
            "ticks": 2102,
            "time": 24.441860465116278,
            "velocity": 0.28346456692913385
          },
          {
            "duration": 0.034883720930235285,
            "durationTicks": 3,
            "midi": 80,
            "name": "G#5",
            "ticks": 2102,
            "time": 24.441860465116278,
            "velocity": 0.2677165354330709
          },
          {
            "duration": 0.05813953488372192,
            "durationTicks": 5,
            "midi": 72,
            "name": "C5",
            "ticks": 2103,
            "time": 24.453488372093023,
            "velocity": 0.33858267716535434
          },
          {
            "duration": 0.06976744186046346,
            "durationTicks": 6,
            "midi": 79,
            "name": "G5",
            "ticks": 2103,
            "time": 24.453488372093023,
            "velocity": 0.29133858267716534
          },
          {
            "duration": 0.1046511627906952,
            "durationTicks": 9,
            "midi": 76,
            "name": "E5",
            "ticks": 2104,
            "time": 24.46511627906977,
            "velocity": 0.3228346456692913
          },
          {
            "duration": 0.03488372093023173,
            "durationTicks": 3,
            "midi": 81,
            "name": "A5",
            "ticks": 2104,
            "time": 24.46511627906977,
            "velocity": 0.25984251968503935
          },
          {
            "duration": 0.03488372093023173,
            "durationTicks": 3,
            "midi": 87,
            "name": "D#6",
            "ticks": 2104,
            "time": 24.46511627906977,
            "velocity": 0.2283464566929134
          },
          {
            "duration": 0.24418604651162568,
            "durationTicks": 21,
            "midi": 90,
            "name": "F#6",
            "ticks": 2105,
            "time": 24.476744186046513,
            "velocity": 0.2992125984251969
          },
          {
            "duration": 0.02325581395349019,
            "durationTicks": 2,
            "midi": 67,
            "name": "G4",
            "ticks": 2106,
            "time": 24.488372093023255,
            "velocity": 0.28346456692913385
          },
          {
            "duration": 0.05813953488372192,
            "durationTicks": 5,
            "midi": 83,
            "name": "B5",
            "ticks": 2106,
            "time": 24.488372093023255,
            "velocity": 0.2440944881889764
          },
          {
            "duration": 0.03488372093023173,
            "durationTicks": 3,
            "midi": 80,
            "name": "G#5",
            "ticks": 2107,
            "time": 24.5,
            "velocity": 0.14173228346456693
          },
          {
            "duration": 1.5232558139534866,
            "durationTicks": 131,
            "midi": 96,
            "name": "C7",
            "ticks": 2107,
            "time": 24.5,
            "velocity": 0.3228346456692913
          },
          {
            "duration": 0.03488372093023173,
            "durationTicks": 3,
            "midi": 62,
            "name": "D4",
            "ticks": 2108,
            "time": 24.511627906976745,
            "velocity": 0.08661417322834646
          },
          {
            "duration": 0.03488372093023173,
            "durationTicks": 3,
            "midi": 71,
            "name": "B4",
            "ticks": 2108,
            "time": 24.511627906976745,
            "velocity": 0.2755905511811024
          },
          {
            "duration": 0.023255813953486637,
            "durationTicks": 2,
            "midi": 78,
            "name": "F#5",
            "ticks": 2108,
            "time": 24.511627906976745,
            "velocity": 0.30708661417322836
          },
          {
            "duration": 0.12790697674418539,
            "durationTicks": 11,
            "midi": 89,
            "name": "F6",
            "ticks": 2108,
            "time": 24.511627906976745,
            "velocity": 0.25196850393700787
          },
          {
            "duration": 0.034883720930235285,
            "durationTicks": 3,
            "midi": 66,
            "name": "F#4",
            "ticks": 2109,
            "time": 24.523255813953487,
            "velocity": 0.2204724409448819
          },
          {
            "duration": 0.10465116279069875,
            "durationTicks": 9,
            "midi": 84,
            "name": "C6",
            "ticks": 2109,
            "time": 24.523255813953487,
            "velocity": 0.2755905511811024
          },
          {
            "duration": 0.04651162790697683,
            "durationTicks": 4,
            "midi": 87,
            "name": "D#6",
            "ticks": 2109,
            "time": 24.523255813953487,
            "velocity": 0.2992125984251969
          },
          {
            "duration": 0.02325581395349019,
            "durationTicks": 2,
            "midi": 79,
            "name": "G5",
            "ticks": 2110,
            "time": 24.53488372093023,
            "velocity": 0.3228346456692913
          },
          {
            "duration": 0.04651162790697683,
            "durationTicks": 4,
            "midi": 82,
            "name": "A#5",
            "ticks": 2110,
            "time": 24.53488372093023,
            "velocity": 0.2047244094488189
          },
          {
            "duration": 0.11627906976744029,
            "durationTicks": 10,
            "midi": 78,
            "name": "F#5",
            "ticks": 2111,
            "time": 24.546511627906977,
            "velocity": 0.31496062992125984
          },
          {
            "duration": 0.08139534883720856,
            "durationTicks": 7,
            "midi": 80,
            "name": "G#5",
            "ticks": 2111,
            "time": 24.546511627906977,
            "velocity": 0.28346456692913385
          },
          {
            "duration": 0.03488372093023173,
            "durationTicks": 3,
            "midi": 71,
            "name": "B4",
            "ticks": 2112,
            "time": 24.558139534883722,
            "velocity": 0.2440944881889764
          },
          {
            "duration": 0.1046511627906952,
            "durationTicks": 9,
            "midi": 91,
            "name": "G6",
            "ticks": 2112,
            "time": 24.558139534883722,
            "velocity": 0.23622047244094488
          },
          {
            "duration": 0.02325581395349019,
            "durationTicks": 2,
            "midi": 66,
            "name": "F#4",
            "ticks": 2113,
            "time": 24.569767441860463,
            "velocity": 0.23622047244094488
          },
          {
            "duration": 0.02325581395349019,
            "durationTicks": 2,
            "midi": 74,
            "name": "D5",
            "ticks": 2113,
            "time": 24.569767441860463,
            "velocity": 0.29133858267716534
          },
          {
            "duration": 0.034883720930235285,
            "durationTicks": 3,
            "midi": 75,
            "name": "D#5",
            "ticks": 2113,
            "time": 24.569767441860463,
            "velocity": 0.11023622047244094
          },
          {
            "duration": 0.04651162790697683,
            "durationTicks": 4,
            "midi": 85,
            "name": "C#6",
            "ticks": 2113,
            "time": 24.569767441860463,
            "velocity": 0.2677165354330709
          },
          {
            "duration": 0.43023255813953654,
            "durationTicks": 37,
            "midi": 98,
            "name": "D7",
            "ticks": 2114,
            "time": 24.58139534883721,
            "velocity": 0.2677165354330709
          },
          {
            "duration": 0.05813953488372192,
            "durationTicks": 5,
            "midi": 72,
            "name": "C5",
            "ticks": 2115,
            "time": 24.593023255813954,
            "velocity": 0.28346456692913385
          },
          {
            "duration": 0.04651162790697683,
            "durationTicks": 4,
            "midi": 76,
            "name": "E5",
            "ticks": 2115,
            "time": 24.593023255813954,
            "velocity": 0.2677165354330709
          },
          {
            "duration": 0.04651162790697683,
            "durationTicks": 4,
            "midi": 86,
            "name": "D6",
            "ticks": 2115,
            "time": 24.593023255813954,
            "velocity": 0.29133858267716534
          },
          {
            "duration": 0.03488372093023173,
            "durationTicks": 3,
            "midi": 55,
            "name": "G3",
            "ticks": 2116,
            "time": 24.6046511627907,
            "velocity": 0.2283464566929134
          },
          {
            "duration": 0.06976744186046346,
            "durationTicks": 6,
            "midi": 69,
            "name": "A4",
            "ticks": 2116,
            "time": 24.6046511627907,
            "velocity": 0.2047244094488189
          },
          {
            "duration": 0.02325581395349019,
            "durationTicks": 2,
            "midi": 74,
            "name": "D5",
            "ticks": 2117,
            "time": 24.61627906976744,
            "velocity": 0.2992125984251969
          },
          {
            "duration": 0.11627906976744384,
            "durationTicks": 10,
            "midi": 81,
            "name": "A5",
            "ticks": 2117,
            "time": 24.61627906976744,
            "velocity": 0.2755905511811024
          },
          {
            "duration": 0.09302325581395365,
            "durationTicks": 8,
            "midi": 87,
            "name": "D#6",
            "ticks": 2118,
            "time": 24.627906976744185,
            "velocity": 0.29133858267716534
          },
          {
            "duration": 0.03488372093023173,
            "durationTicks": 3,
            "midi": 73,
            "name": "C#5",
            "ticks": 2119,
            "time": 24.63953488372093,
            "velocity": 0.15748031496062992
          },
          {
            "duration": 0.023255813953486637,
            "durationTicks": 2,
            "midi": 77,
            "name": "F5",
            "ticks": 2119,
            "time": 24.63953488372093,
            "velocity": 0.25984251968503935
          },
          {
            "duration": 0.09302325581395365,
            "durationTicks": 8,
            "midi": 85,
            "name": "C#6",
            "ticks": 2119,
            "time": 24.63953488372093,
            "velocity": 0.2992125984251969
          },
          {
            "duration": 0.023255813953486637,
            "durationTicks": 2,
            "midi": 71,
            "name": "B4",
            "ticks": 2120,
            "time": 24.651162790697676,
            "velocity": 0.23622047244094488
          },
          {
            "duration": 0.023255813953486637,
            "durationTicks": 2,
            "midi": 79,
            "name": "G5",
            "ticks": 2120,
            "time": 24.651162790697676,
            "velocity": 0.2755905511811024
          },
          {
            "duration": 0.02325581395349019,
            "durationTicks": 2,
            "midi": 67,
            "name": "G4",
            "ticks": 2121,
            "time": 24.662790697674417,
            "velocity": 0.2992125984251969
          },
          {
            "duration": 0.12790697674418894,
            "durationTicks": 11,
            "midi": 80,
            "name": "G#5",
            "ticks": 2121,
            "time": 24.662790697674417,
            "velocity": 0.29133858267716534
          },
          {
            "duration": 0.05813953488372192,
            "durationTicks": 5,
            "midi": 86,
            "name": "D6",
            "ticks": 2121,
            "time": 24.662790697674417,
            "velocity": 0.18110236220472442
          },
          {
            "duration": 0.10465116279069875,
            "durationTicks": 9,
            "midi": 89,
            "name": "F6",
            "ticks": 2121,
            "time": 24.662790697674417,
            "velocity": 0.29133858267716534
          },
          {
            "duration": 0.03488372093023173,
            "durationTicks": 3,
            "midi": 78,
            "name": "F#5",
            "ticks": 2122,
            "time": 24.674418604651162,
            "velocity": 0.28346456692913385
          },
          {
            "duration": 0.10465116279069875,
            "durationTicks": 9,
            "midi": 83,
            "name": "B5",
            "ticks": 2122,
            "time": 24.674418604651162,
            "velocity": 0.2204724409448819
          },
          {
            "duration": 0.11627906976744384,
            "durationTicks": 10,
            "midi": 88,
            "name": "E6",
            "ticks": 2122,
            "time": 24.674418604651162,
            "velocity": 0.2755905511811024
          },
          {
            "duration": 0.03488372093023173,
            "durationTicks": 3,
            "midi": 58,
            "name": "A#3",
            "ticks": 2123,
            "time": 24.686046511627907,
            "velocity": 0.1968503937007874
          },
          {
            "duration": 0.023255813953486637,
            "durationTicks": 2,
            "midi": 76,
            "name": "E5",
            "ticks": 2123,
            "time": 24.686046511627907,
            "velocity": 0.2992125984251969
          },
          {
            "duration": 0.04651162790697683,
            "durationTicks": 4,
            "midi": 65,
            "name": "F4",
            "ticks": 2124,
            "time": 24.697674418604652,
            "velocity": 0.23622047244094488
          },
          {
            "duration": 0.03488372093023173,
            "durationTicks": 3,
            "midi": 69,
            "name": "A4",
            "ticks": 2124,
            "time": 24.697674418604652,
            "velocity": 0.2125984251968504
          },
          {
            "duration": 0.04651162790697683,
            "durationTicks": 4,
            "midi": 75,
            "name": "D#5",
            "ticks": 2125,
            "time": 24.709302325581394,
            "velocity": 0.2755905511811024
          },
          {
            "duration": 0.05813953488372192,
            "durationTicks": 5,
            "midi": 77,
            "name": "F5",
            "ticks": 2125,
            "time": 24.709302325581394,
            "velocity": 0.23622047244094488
          },
          {
            "duration": 0.04651162790697683,
            "durationTicks": 4,
            "midi": 79,
            "name": "G5",
            "ticks": 2125,
            "time": 24.709302325581394,
            "velocity": 0.25196850393700787
          },
          {
            "duration": 0.2093023255813975,
            "durationTicks": 18,
            "midi": 91,
            "name": "G6",
            "ticks": 2125,
            "time": 24.709302325581394,
            "velocity": 0.30708661417322836
          },
          {
            "duration": 0.06976744186046346,
            "durationTicks": 6,
            "midi": 82,
            "name": "A#5",
            "ticks": 2127,
            "time": 24.732558139534884,
            "velocity": 0.3228346456692913
          },
          {
            "duration": 0.03488372093023173,
            "durationTicks": 3,
            "midi": 84,
            "name": "C6",
            "ticks": 2127,
            "time": 24.732558139534884,
            "velocity": 0.25196850393700787
          },
          {
            "duration": 0.03488372093023173,
            "durationTicks": 3,
            "midi": 63,
            "name": "D#4",
            "ticks": 2128,
            "time": 24.74418604651163,
            "velocity": 0.2047244094488189
          },
          {
            "duration": 0.09302325581395365,
            "durationTicks": 8,
            "midi": 76,
            "name": "E5",
            "ticks": 2128,
            "time": 24.74418604651163,
            "velocity": 0.3543307086614173
          },
          {
            "duration": 0.04651162790697683,
            "durationTicks": 4,
            "midi": 85,
            "name": "C#6",
            "ticks": 2128,
            "time": 24.74418604651163,
            "velocity": 0.25196850393700787
          },
          {
            "duration": 0.034883720930235285,
            "durationTicks": 3,
            "midi": 67,
            "name": "G4",
            "ticks": 2129,
            "time": 24.75581395348837,
            "velocity": 0.10236220472440945
          },
          {
            "duration": 0.034883720930235285,
            "durationTicks": 3,
            "midi": 78,
            "name": "F#5",
            "ticks": 2129,
            "time": 24.75581395348837,
            "velocity": 0.2125984251968504
          },
          {
            "duration": 0.05813953488372192,
            "durationTicks": 5,
            "midi": 90,
            "name": "F#6",
            "ticks": 2129,
            "time": 24.75581395348837,
            "velocity": 0.25196850393700787
          },
          {
            "duration": 0.02325581395349019,
            "durationTicks": 2,
            "midi": 72,
            "name": "C5",
            "ticks": 2130,
            "time": 24.767441860465116,
            "velocity": 0.30708661417322836
          },
          {
            "duration": 0.03488372093023173,
            "durationTicks": 3,
            "midi": 57,
            "name": "A3",
            "ticks": 2131,
            "time": 24.77906976744186,
            "velocity": 0.2125984251968504
          },
          {
            "duration": 0.03488372093023173,
            "durationTicks": 3,
            "midi": 81,
            "name": "A5",
            "ticks": 2131,
            "time": 24.77906976744186,
            "velocity": 0.2755905511811024
          },
          {
            "duration": 0.05813953488372192,
            "durationTicks": 5,
            "midi": 87,
            "name": "D#6",
            "ticks": 2131,
            "time": 24.77906976744186,
            "velocity": 0.2755905511811024
          },
          {
            "duration": 0.023255813953486637,
            "durationTicks": 2,
            "midi": 89,
            "name": "F6",
            "ticks": 2131,
            "time": 24.77906976744186,
            "velocity": 0.25196850393700787
          },
          {
            "duration": 0.03488372093023173,
            "durationTicks": 3,
            "midi": 61,
            "name": "C#4",
            "ticks": 2132,
            "time": 24.790697674418606,
            "velocity": 0.2440944881889764
          },
          {
            "duration": 0.03488372093023173,
            "durationTicks": 3,
            "midi": 75,
            "name": "D#5",
            "ticks": 2132,
            "time": 24.790697674418606,
            "velocity": 0.25196850393700787
          },
          {
            "duration": 0.15116279069767202,
            "durationTicks": 13,
            "midi": 86,
            "name": "D6",
            "ticks": 2132,
            "time": 24.790697674418606,
            "velocity": 0.28346456692913385
          },
          {
            "duration": 0.05813953488372192,
            "durationTicks": 5,
            "midi": 78,
            "name": "F#5",
            "ticks": 2133,
            "time": 24.802325581395348,
            "velocity": 0.31496062992125984
          },
          {
            "duration": 0.02325581395349019,
            "durationTicks": 2,
            "midi": 83,
            "name": "B5",
            "ticks": 2133,
            "time": 24.802325581395348,
            "velocity": 0.2440944881889764
          },
          {
            "duration": 0.1860465116279073,
            "durationTicks": 16,
            "midi": 92,
            "name": "G#6",
            "ticks": 2133,
            "time": 24.802325581395348,
            "velocity": 0.33070866141732286
          },
          {
            "duration": 0.02325581395349019,
            "durationTicks": 2,
            "midi": 70,
            "name": "A#4",
            "ticks": 2134,
            "time": 24.813953488372093,
            "velocity": 0.28346456692913385
          },
          {
            "duration": 0.02325581395349019,
            "durationTicks": 2,
            "midi": 80,
            "name": "G#5",
            "ticks": 2134,
            "time": 24.813953488372093,
            "velocity": 0.25196850393700787
          },
          {
            "duration": 0.1860465116279073,
            "durationTicks": 16,
            "midi": 85,
            "name": "C#6",
            "ticks": 2134,
            "time": 24.813953488372093,
            "velocity": 0.33858267716535434
          },
          {
            "duration": 0.09302325581395365,
            "durationTicks": 8,
            "midi": 89,
            "name": "F6",
            "ticks": 2134,
            "time": 24.813953488372093,
            "velocity": 0.2755905511811024
          },
          {
            "duration": 0.11627906976744384,
            "durationTicks": 10,
            "midi": 93,
            "name": "A6",
            "ticks": 2134,
            "time": 24.813953488372093,
            "velocity": 0.25984251968503935
          },
          {
            "duration": 0.03488372093023173,
            "durationTicks": 3,
            "midi": 81,
            "name": "A5",
            "ticks": 2135,
            "time": 24.825581395348838,
            "velocity": 0.25984251968503935
          },
          {
            "duration": 0.03488372093023173,
            "durationTicks": 3,
            "midi": 71,
            "name": "B4",
            "ticks": 2136,
            "time": 24.837209302325583,
            "velocity": 0.2440944881889764
          },
          {
            "duration": 0.04651162790697683,
            "durationTicks": 4,
            "midi": 73,
            "name": "C#5",
            "ticks": 2136,
            "time": 24.837209302325583,
            "velocity": 0.2047244094488189
          },
          {
            "duration": 0.034883720930235285,
            "durationTicks": 3,
            "midi": 68,
            "name": "G#4",
            "ticks": 2137,
            "time": 24.848837209302324,
            "velocity": 0.1889763779527559
          },
          {
            "duration": 0.02325581395349019,
            "durationTicks": 2,
            "midi": 80,
            "name": "G#5",
            "ticks": 2137,
            "time": 24.848837209302324,
            "velocity": 0.2283464566929134
          },
          {
            "duration": 0.04651162790697683,
            "durationTicks": 4,
            "midi": 83,
            "name": "B5",
            "ticks": 2137,
            "time": 24.848837209302324,
            "velocity": 0.2677165354330709
          },
          {
            "duration": 0.06976744186046702,
            "durationTicks": 6,
            "midi": 84,
            "name": "C6",
            "ticks": 2137,
            "time": 24.848837209302324,
            "velocity": 0.23622047244094488
          },
          {
            "duration": 0.03488372093023173,
            "durationTicks": 3,
            "midi": 77,
            "name": "F5",
            "ticks": 2138,
            "time": 24.86046511627907,
            "velocity": 0.25196850393700787
          },
          {
            "duration": 0.03488372093023173,
            "durationTicks": 3,
            "midi": 79,
            "name": "G5",
            "ticks": 2138,
            "time": 24.86046511627907,
            "velocity": 0.25196850393700787
          },
          {
            "duration": 0.1976744186046524,
            "durationTicks": 17,
            "midi": 87,
            "name": "D#6",
            "ticks": 2138,
            "time": 24.86046511627907,
            "velocity": 0.29133858267716534
          },
          {
            "duration": 0.20930232558139394,
            "durationTicks": 18,
            "midi": 90,
            "name": "F#6",
            "ticks": 2138,
            "time": 24.86046511627907,
            "velocity": 0.2992125984251969
          },
          {
            "duration": 0.03488372093023173,
            "durationTicks": 3,
            "midi": 66,
            "name": "F#4",
            "ticks": 2139,
            "time": 24.872093023255815,
            "velocity": 0.16535433070866143
          },
          {
            "duration": 0.03488372093023173,
            "durationTicks": 3,
            "midi": 81,
            "name": "A5",
            "ticks": 2139,
            "time": 24.872093023255815,
            "velocity": 0.2125984251968504
          },
          {
            "duration": 0.03488372093023173,
            "durationTicks": 3,
            "midi": 69,
            "name": "A4",
            "ticks": 2140,
            "time": 24.88372093023256,
            "velocity": 0.2125984251968504
          },
          {
            "duration": 0.05813953488371837,
            "durationTicks": 5,
            "midi": 74,
            "name": "D5",
            "ticks": 2140,
            "time": 24.88372093023256,
            "velocity": 0.2755905511811024
          },
          {
            "duration": 0.023255813953486637,
            "durationTicks": 2,
            "midi": 78,
            "name": "F#5",
            "ticks": 2140,
            "time": 24.88372093023256,
            "velocity": 0.23622047244094488
          },
          {
            "duration": 0.03488372093023173,
            "durationTicks": 3,
            "midi": 82,
            "name": "A#5",
            "ticks": 2140,
            "time": 24.88372093023256,
            "velocity": 0.2677165354330709
          },
          {
            "duration": 0.15116279069767202,
            "durationTicks": 13,
            "midi": 88,
            "name": "E6",
            "ticks": 2140,
            "time": 24.88372093023256,
            "velocity": 0.3228346456692913
          },
          {
            "duration": 0.034883720930235285,
            "durationTicks": 3,
            "midi": 80,
            "name": "G#5",
            "ticks": 2141,
            "time": 24.8953488372093,
            "velocity": 0.2755905511811024
          },
          {
            "duration": 0.02325581395349019,
            "durationTicks": 2,
            "midi": 72,
            "name": "C5",
            "ticks": 2142,
            "time": 24.906976744186046,
            "velocity": 0.2283464566929134
          },
          {
            "duration": 0.03488372093023173,
            "durationTicks": 3,
            "midi": 76,
            "name": "E5",
            "ticks": 2142,
            "time": 24.906976744186046,
            "velocity": 0.2992125984251969
          },
          {
            "duration": 0.5930232558139537,
            "durationTicks": 51,
            "midi": 99,
            "name": "D#7",
            "ticks": 2142,
            "time": 24.906976744186046,
            "velocity": 0.29133858267716534
          },
          {
            "duration": 0.05813953488372192,
            "durationTicks": 5,
            "midi": 78,
            "name": "F#5",
            "ticks": 2143,
            "time": 24.91860465116279,
            "velocity": 0.2755905511811024
          },
          {
            "duration": 0.06976744186046346,
            "durationTicks": 6,
            "midi": 81,
            "name": "A5",
            "ticks": 2143,
            "time": 24.91860465116279,
            "velocity": 0.23622047244094488
          },
          {
            "duration": 0.06976744186046346,
            "durationTicks": 6,
            "midi": 83,
            "name": "B5",
            "ticks": 2143,
            "time": 24.91860465116279,
            "velocity": 0.3228346456692913
          },
          {
            "duration": 0.023255813953486637,
            "durationTicks": 2,
            "midi": 77,
            "name": "F5",
            "ticks": 2144,
            "time": 24.930232558139537,
            "velocity": 0.2440944881889764
          },
          {
            "duration": 0.034883720930235285,
            "durationTicks": 3,
            "midi": 75,
            "name": "D#5",
            "ticks": 2145,
            "time": 24.941860465116278,
            "velocity": 0.23622047244094488
          },
          {
            "duration": 0.1976744186046524,
            "durationTicks": 17,
            "midi": 89,
            "name": "F6",
            "ticks": 2145,
            "time": 24.941860465116278,
            "velocity": 0.2755905511811024
          },
          {
            "duration": 0.09302325581395365,
            "durationTicks": 8,
            "midi": 93,
            "name": "A6",
            "ticks": 2145,
            "time": 24.941860465116278,
            "velocity": 0.2677165354330709
          },
          {
            "duration": 0.05813953488372192,
            "durationTicks": 5,
            "midi": 68,
            "name": "G#4",
            "ticks": 2146,
            "time": 24.953488372093023,
            "velocity": 0.18110236220472442
          },
          {
            "duration": 0.06976744186046346,
            "durationTicks": 6,
            "midi": 72,
            "name": "C5",
            "ticks": 2146,
            "time": 24.953488372093023,
            "velocity": 0.29133858267716534
          },
          {
            "duration": 0.04651162790697683,
            "durationTicks": 4,
            "midi": 86,
            "name": "D6",
            "ticks": 2146,
            "time": 24.953488372093023,
            "velocity": 0.2677165354330709
          },
          {
            "duration": 0.06976744186046346,
            "durationTicks": 6,
            "midi": 91,
            "name": "G6",
            "ticks": 2146,
            "time": 24.953488372093023,
            "velocity": 0.29133858267716534
          },
          {
            "duration": 0.08139534883720856,
            "durationTicks": 7,
            "midi": 77,
            "name": "F5",
            "ticks": 2147,
            "time": 24.96511627906977,
            "velocity": 0.25196850393700787
          },
          {
            "duration": 0.04651162790697683,
            "durationTicks": 4,
            "midi": 82,
            "name": "A#5",
            "ticks": 2147,
            "time": 24.96511627906977,
            "velocity": 0.2992125984251969
          },
          {
            "duration": 0.03488372093023173,
            "durationTicks": 3,
            "midi": 55,
            "name": "G3",
            "ticks": 2148,
            "time": 24.976744186046513,
            "velocity": 0.1889763779527559
          },
          {
            "duration": 0.046511627906973274,
            "durationTicks": 4,
            "midi": 64,
            "name": "E4",
            "ticks": 2148,
            "time": 24.976744186046513,
            "velocity": 0.2283464566929134
          },
          {
            "duration": 0.09302325581395365,
            "durationTicks": 8,
            "midi": 75,
            "name": "D#5",
            "ticks": 2149,
            "time": 24.988372093023255,
            "velocity": 0.23622047244094488
          },
          {
            "duration": 0.023255813953486637,
            "durationTicks": 2,
            "midi": 80,
            "name": "G#5",
            "ticks": 2150,
            "time": 25,
            "velocity": 0.2283464566929134
          },
          {
            "duration": 0.04651162790697683,
            "durationTicks": 4,
            "midi": 83,
            "name": "B5",
            "ticks": 2150,
            "time": 25,
            "velocity": 0.2125984251968504
          },
          {
            "duration": 0.22093023255813904,
            "durationTicks": 19,
            "midi": 92,
            "name": "G#6",
            "ticks": 2150,
            "time": 25,
            "velocity": 0.2992125984251969
          },
          {
            "duration": 0.22093023255813904,
            "durationTicks": 19,
            "midi": 97,
            "name": "C#7",
            "ticks": 2150,
            "time": 25,
            "velocity": 0.2677165354330709
          },
          {
            "duration": 0.034883720930235285,
            "durationTicks": 3,
            "midi": 73,
            "name": "C#5",
            "ticks": 2152,
            "time": 25.023255813953487,
            "velocity": 0.14960629921259844
          },
          {
            "duration": 0.034883720930235285,
            "durationTicks": 3,
            "midi": 82,
            "name": "A#5",
            "ticks": 2152,
            "time": 25.023255813953487,
            "velocity": 0.2677165354330709
          },
          {
            "duration": 1.0465116279069768,
            "durationTicks": 90,
            "midi": 98,
            "name": "D7",
            "ticks": 2152,
            "time": 25.023255813953487,
            "velocity": 0.31496062992125984
          },
          {
            "duration": 0.02325581395349019,
            "durationTicks": 2,
            "midi": 61,
            "name": "C#4",
            "ticks": 2153,
            "time": 25.03488372093023,
            "velocity": 0.2677165354330709
          },
          {
            "duration": 0.02325581395349019,
            "durationTicks": 2,
            "midi": 64,
            "name": "E4",
            "ticks": 2153,
            "time": 25.03488372093023,
            "velocity": 0.25984251968503935
          },
          {
            "duration": 0.04651162790697683,
            "durationTicks": 4,
            "midi": 81,
            "name": "A5",
            "ticks": 2153,
            "time": 25.03488372093023,
            "velocity": 0.30708661417322836
          },
          {
            "duration": 0.12790697674418539,
            "durationTicks": 11,
            "midi": 85,
            "name": "C#6",
            "ticks": 2153,
            "time": 25.03488372093023,
            "velocity": 0.25196850393700787
          },
          {
            "duration": 0.10465116279069875,
            "durationTicks": 9,
            "midi": 86,
            "name": "D6",
            "ticks": 2153,
            "time": 25.03488372093023,
            "velocity": 0.29133858267716534
          },
          {
            "duration": 0.05813953488372192,
            "durationTicks": 5,
            "midi": 91,
            "name": "G6",
            "ticks": 2153,
            "time": 25.03488372093023,
            "velocity": 0.29133858267716534
          },
          {
            "duration": 0.03488372093023173,
            "durationTicks": 3,
            "midi": 65,
            "name": "F4",
            "ticks": 2155,
            "time": 25.058139534883722,
            "velocity": 0.2677165354330709
          },
          {
            "duration": 0.03488372093023173,
            "durationTicks": 3,
            "midi": 77,
            "name": "F5",
            "ticks": 2155,
            "time": 25.058139534883722,
            "velocity": 0.3464566929133858
          },
          {
            "duration": 0.023255813953486637,
            "durationTicks": 2,
            "midi": 83,
            "name": "B5",
            "ticks": 2155,
            "time": 25.058139534883722,
            "velocity": 0.2440944881889764
          },
          {
            "duration": 0.023255813953486637,
            "durationTicks": 2,
            "midi": 88,
            "name": "E6",
            "ticks": 2155,
            "time": 25.058139534883722,
            "velocity": 0.2283464566929134
          },
          {
            "duration": 0.02325581395349019,
            "durationTicks": 2,
            "midi": 72,
            "name": "C5",
            "ticks": 2156,
            "time": 25.069767441860463,
            "velocity": 0.31496062992125984
          },
          {
            "duration": 0.09302325581395365,
            "durationTicks": 8,
            "midi": 74,
            "name": "D5",
            "ticks": 2156,
            "time": 25.069767441860463,
            "velocity": 0.3464566929133858
          },
          {
            "duration": 0.05813953488372192,
            "durationTicks": 5,
            "midi": 82,
            "name": "A#5",
            "ticks": 2156,
            "time": 25.069767441860463,
            "velocity": 0.2677165354330709
          },
          {
            "duration": 0.02325581395349019,
            "durationTicks": 2,
            "midi": 87,
            "name": "D#6",
            "ticks": 2156,
            "time": 25.069767441860463,
            "velocity": 0.25196850393700787
          },
          {
            "duration": 0.02325581395349019,
            "durationTicks": 2,
            "midi": 95,
            "name": "B6",
            "ticks": 2156,
            "time": 25.069767441860463,
            "velocity": 0.30708661417322836
          },
          {
            "duration": 0.02325581395349019,
            "durationTicks": 2,
            "midi": 68,
            "name": "G#4",
            "ticks": 2157,
            "time": 25.08139534883721,
            "velocity": 0.29133858267716534
          },
          {
            "duration": 0.04651162790697683,
            "durationTicks": 4,
            "midi": 80,
            "name": "G#5",
            "ticks": 2157,
            "time": 25.08139534883721,
            "velocity": 0.2992125984251969
          },
          {
            "duration": 0.03488372093023173,
            "durationTicks": 3,
            "midi": 90,
            "name": "F#6",
            "ticks": 2157,
            "time": 25.08139534883721,
            "velocity": 0.25984251968503935
          },
          {
            "duration": 0.04651162790697683,
            "durationTicks": 4,
            "midi": 61,
            "name": "C#4",
            "ticks": 2158,
            "time": 25.093023255813954,
            "velocity": 0.2047244094488189
          },
          {
            "duration": 0.023255813953486637,
            "durationTicks": 2,
            "midi": 71,
            "name": "B4",
            "ticks": 2158,
            "time": 25.093023255813954,
            "velocity": 0.2283464566929134
          },
          {
            "duration": 0.03488372093023173,
            "durationTicks": 3,
            "midi": 78,
            "name": "F#5",
            "ticks": 2158,
            "time": 25.093023255813954,
            "velocity": 0.11811023622047244
          },
          {
            "duration": 0.023255813953486637,
            "durationTicks": 2,
            "midi": 70,
            "name": "A#4",
            "ticks": 2159,
            "time": 25.1046511627907,
            "velocity": 0.25196850393700787
          },
          {
            "duration": 0.04651162790697683,
            "durationTicks": 4,
            "midi": 91,
            "name": "G6",
            "ticks": 2159,
            "time": 25.1046511627907,
            "velocity": 0.2204724409448819
          },
          {
            "duration": 0.5581395348837184,
            "durationTicks": 48,
            "midi": 95,
            "name": "B6",
            "ticks": 2159,
            "time": 25.1046511627907,
            "velocity": 0.2992125984251969
          },
          {
            "duration": 0.034883720930235285,
            "durationTicks": 3,
            "midi": 77,
            "name": "F5",
            "ticks": 2160,
            "time": 25.11627906976744,
            "velocity": 0.1889763779527559
          },
          {
            "duration": 0.02325581395349019,
            "durationTicks": 2,
            "midi": 81,
            "name": "A5",
            "ticks": 2160,
            "time": 25.11627906976744,
            "velocity": 0.2283464566929134
          },
          {
            "duration": 0.05813953488372192,
            "durationTicks": 5,
            "midi": 58,
            "name": "A#3",
            "ticks": 2161,
            "time": 25.127906976744185,
            "velocity": 0.25984251968503935
          },
          {
            "duration": 0.03488372093023173,
            "durationTicks": 3,
            "midi": 71,
            "name": "B4",
            "ticks": 2161,
            "time": 25.127906976744185,
            "velocity": 0.23622047244094488
          },
          {
            "duration": 0.05813953488372192,
            "durationTicks": 5,
            "midi": 79,
            "name": "G5",
            "ticks": 2161,
            "time": 25.127906976744185,
            "velocity": 0.31496062992125984
          },
          {
            "duration": 0.08139534883720856,
            "durationTicks": 7,
            "midi": 90,
            "name": "F#6",
            "ticks": 2161,
            "time": 25.127906976744185,
            "velocity": 0.2440944881889764
          },
          {
            "duration": 0.06976744186046346,
            "durationTicks": 6,
            "midi": 80,
            "name": "G#5",
            "ticks": 2162,
            "time": 25.13953488372093,
            "velocity": 0.2440944881889764
          },
          {
            "duration": 0.03488372093023173,
            "durationTicks": 3,
            "midi": 82,
            "name": "A#5",
            "ticks": 2162,
            "time": 25.13953488372093,
            "velocity": 0.1732283464566929
          },
          {
            "duration": 0.04651162790697683,
            "durationTicks": 4,
            "midi": 84,
            "name": "C6",
            "ticks": 2162,
            "time": 25.13953488372093,
            "velocity": 0.30708661417322836
          },
          {
            "duration": 0.09302325581395365,
            "durationTicks": 8,
            "midi": 87,
            "name": "D#6",
            "ticks": 2162,
            "time": 25.13953488372093,
            "velocity": 0.25196850393700787
          },
          {
            "duration": 1.3023255813953476,
            "durationTicks": 112,
            "midi": 101,
            "name": "F7",
            "ticks": 2162,
            "time": 25.13953488372093,
            "velocity": 0.2992125984251969
          },
          {
            "duration": 0.04651162790697683,
            "durationTicks": 4,
            "midi": 70,
            "name": "A#4",
            "ticks": 2163,
            "time": 25.151162790697676,
            "velocity": 0.29133858267716534
          },
          {
            "duration": 0.04651162790697683,
            "durationTicks": 4,
            "midi": 76,
            "name": "E5",
            "ticks": 2163,
            "time": 25.151162790697676,
            "velocity": 0.3228346456692913
          },
          {
            "duration": 0.08139534883721211,
            "durationTicks": 7,
            "midi": 83,
            "name": "B5",
            "ticks": 2164,
            "time": 25.162790697674417,
            "velocity": 0.33858267716535434
          },
          {
            "duration": 0.06976744186046702,
            "durationTicks": 6,
            "midi": 89,
            "name": "F6",
            "ticks": 2164,
            "time": 25.162790697674417,
            "velocity": 0.28346456692913385
          },
          {
            "duration": 0.03488372093023173,
            "durationTicks": 3,
            "midi": 73,
            "name": "C#5",
            "ticks": 2165,
            "time": 25.174418604651162,
            "velocity": 0.1732283464566929
          },
          {
            "duration": 0.04651162790697683,
            "durationTicks": 4,
            "midi": 85,
            "name": "C#6",
            "ticks": 2165,
            "time": 25.174418604651162,
            "velocity": 0.25196850393700787
          },
          {
            "duration": 0.04651162790697683,
            "durationTicks": 4,
            "midi": 78,
            "name": "F#5",
            "ticks": 2166,
            "time": 25.186046511627907,
            "velocity": 0.36220472440944884
          },
          {
            "duration": 0.023255813953486637,
            "durationTicks": 2,
            "midi": 69,
            "name": "A4",
            "ticks": 2167,
            "time": 25.197674418604652,
            "velocity": 0.2755905511811024
          },
          {
            "duration": 0.04651162790697683,
            "durationTicks": 4,
            "midi": 81,
            "name": "A5",
            "ticks": 2167,
            "time": 25.197674418604652,
            "velocity": 0.2992125984251969
          },
          {
            "duration": 0.1046511627906952,
            "durationTicks": 9,
            "midi": 88,
            "name": "E6",
            "ticks": 2167,
            "time": 25.197674418604652,
            "velocity": 0.28346456692913385
          },
          {
            "duration": 0.02325581395349019,
            "durationTicks": 2,
            "midi": 74,
            "name": "D5",
            "ticks": 2168,
            "time": 25.209302325581394,
            "velocity": 0.2677165354330709
          },
          {
            "duration": 0.02325581395349019,
            "durationTicks": 2,
            "midi": 64,
            "name": "E4",
            "ticks": 2169,
            "time": 25.22093023255814,
            "velocity": 0.2677165354330709
          },
          {
            "duration": 0.08139534883720856,
            "durationTicks": 7,
            "midi": 68,
            "name": "G#4",
            "ticks": 2169,
            "time": 25.22093023255814,
            "velocity": 0.25984251968503935
          },
          {
            "duration": 0.03488372093023173,
            "durationTicks": 3,
            "midi": 79,
            "name": "G5",
            "ticks": 2169,
            "time": 25.22093023255814,
            "velocity": 0.23622047244094488
          },
          {
            "duration": 0.11627906976744384,
            "durationTicks": 10,
            "midi": 86,
            "name": "D6",
            "ticks": 2169,
            "time": 25.22093023255814,
            "velocity": 0.31496062992125984
          },
          {
            "duration": 0.03488372093023173,
            "durationTicks": 3,
            "midi": 55,
            "name": "G3",
            "ticks": 2170,
            "time": 25.232558139534884,
            "velocity": 0.1889763779527559
          },
          {
            "duration": 0.023255813953486637,
            "durationTicks": 2,
            "midi": 71,
            "name": "B4",
            "ticks": 2170,
            "time": 25.232558139534884,
            "velocity": 0.2677165354330709
          },
          {
            "duration": 0.06976744186046346,
            "durationTicks": 6,
            "midi": 77,
            "name": "F5",
            "ticks": 2170,
            "time": 25.232558139534884,
            "velocity": 0.29133858267716534
          },
          {
            "duration": 0.4534883720930232,
            "durationTicks": 39,
            "midi": 92,
            "name": "G#6",
            "ticks": 2170,
            "time": 25.232558139534884,
            "velocity": 0.3228346456692913
          },
          {
            "duration": 0.06976744186046346,
            "durationTicks": 6,
            "midi": 97,
            "name": "C#7",
            "ticks": 2170,
            "time": 25.232558139534884,
            "velocity": 0.23622047244094488
          },
          {
            "duration": 0.06976744186046346,
            "durationTicks": 6,
            "midi": 74,
            "name": "D5",
            "ticks": 2171,
            "time": 25.24418604651163,
            "velocity": 0.29133858267716534
          },
          {
            "duration": 0.023255813953486637,
            "durationTicks": 2,
            "midi": 84,
            "name": "C6",
            "ticks": 2171,
            "time": 25.24418604651163,
            "velocity": 0.2677165354330709
          },
          {
            "duration": 0.06976744186046346,
            "durationTicks": 6,
            "midi": 87,
            "name": "D#6",
            "ticks": 2171,
            "time": 25.24418604651163,
            "velocity": 0.33858267716535434
          },
          {
            "duration": 0.034883720930235285,
            "durationTicks": 3,
            "midi": 80,
            "name": "G#5",
            "ticks": 2172,
            "time": 25.25581395348837,
            "velocity": 0.28346456692913385
          },
          {
            "duration": 0.05813953488372192,
            "durationTicks": 5,
            "midi": 83,
            "name": "B5",
            "ticks": 2172,
            "time": 25.25581395348837,
            "velocity": 0.2283464566929134
          },
          {
            "duration": 0.03488372093023173,
            "durationTicks": 3,
            "midi": 52,
            "name": "E3",
            "ticks": 2174,
            "time": 25.27906976744186,
            "velocity": 0.18110236220472442
          },
          {
            "duration": 0.03488372093023173,
            "durationTicks": 3,
            "midi": 79,
            "name": "G5",
            "ticks": 2174,
            "time": 25.27906976744186,
            "velocity": 0.25984251968503935
          },
          {
            "duration": 0.03488372093023173,
            "durationTicks": 3,
            "midi": 64,
            "name": "E4",
            "ticks": 2175,
            "time": 25.290697674418606,
            "velocity": 0.2440944881889764
          },
          {
            "duration": 0.03488372093023173,
            "durationTicks": 3,
            "midi": 69,
            "name": "A4",
            "ticks": 2175,
            "time": 25.290697674418606,
            "velocity": 0.1968503937007874
          },
          {
            "duration": 0.1744186046511622,
            "durationTicks": 15,
            "midi": 81,
            "name": "A5",
            "ticks": 2175,
            "time": 25.290697674418606,
            "velocity": 0.36220472440944884
          },
          {
            "duration": 0.1046511627906952,
            "durationTicks": 9,
            "midi": 84,
            "name": "C6",
            "ticks": 2175,
            "time": 25.290697674418606,
            "velocity": 0.2755905511811024
          },
          {
            "duration": 0.2790697674418574,
            "durationTicks": 24,
            "midi": 90,
            "name": "F#6",
            "ticks": 2175,
            "time": 25.290697674418606,
            "velocity": 0.33070866141732286
          },
          {
            "duration": 0.02325581395349019,
            "durationTicks": 2,
            "midi": 73,
            "name": "C#5",
            "ticks": 2176,
            "time": 25.302325581395348,
            "velocity": 0.29133858267716534
          },
          {
            "duration": 0.034883720930235285,
            "durationTicks": 3,
            "midi": 78,
            "name": "F#5",
            "ticks": 2176,
            "time": 25.302325581395348,
            "velocity": 0.2204724409448819
          },
          {
            "duration": 0.02325581395349019,
            "durationTicks": 2,
            "midi": 80,
            "name": "G#5",
            "ticks": 2176,
            "time": 25.302325581395348,
            "velocity": 0.2283464566929134
          },
          {
            "duration": 0.02325581395349019,
            "durationTicks": 2,
            "midi": 67,
            "name": "G4",
            "ticks": 2177,
            "time": 25.313953488372093,
            "velocity": 0.2677165354330709
          },
          {
            "duration": 0.03488372093023173,
            "durationTicks": 3,
            "midi": 88,
            "name": "E6",
            "ticks": 2177,
            "time": 25.313953488372093,
            "velocity": 0.2283464566929134
          },
          {
            "duration": 0.03488372093023173,
            "durationTicks": 3,
            "midi": 97,
            "name": "C#7",
            "ticks": 2177,
            "time": 25.313953488372093,
            "velocity": 0.1968503937007874
          },
          {
            "duration": 0.023255813953486637,
            "durationTicks": 2,
            "midi": 74,
            "name": "D5",
            "ticks": 2178,
            "time": 25.325581395348838,
            "velocity": 0.25196850393700787
          },
          {
            "duration": 0.09302325581395365,
            "durationTicks": 8,
            "midi": 83,
            "name": "B5",
            "ticks": 2178,
            "time": 25.325581395348838,
            "velocity": 0.25196850393700787
          },
          {
            "duration": 0.04651162790697683,
            "durationTicks": 4,
            "midi": 85,
            "name": "C#6",
            "ticks": 2178,
            "time": 25.325581395348838,
            "velocity": 0.2047244094488189
          },
          {
            "duration": 0.13953488372093048,
            "durationTicks": 12,
            "midi": 87,
            "name": "D#6",
            "ticks": 2178,
            "time": 25.325581395348838,
            "velocity": 0.25196850393700787
          },
          {
            "duration": 0.03488372093023173,
            "durationTicks": 3,
            "midi": 80,
            "name": "G#5",
            "ticks": 2179,
            "time": 25.337209302325583,
            "velocity": 0.25196850393700787
          },
          {
            "duration": 0.04651162790697683,
            "durationTicks": 4,
            "midi": 69,
            "name": "A4",
            "ticks": 2180,
            "time": 25.348837209302324,
            "velocity": 0.33070866141732286
          },
          {
            "duration": 0.02325581395349019,
            "durationTicks": 2,
            "midi": 78,
            "name": "F#5",
            "ticks": 2180,
            "time": 25.348837209302324,
            "velocity": 0.33858267716535434
          },
          {
            "duration": 0.24418604651162923,
            "durationTicks": 21,
            "midi": 86,
            "name": "D6",
            "ticks": 2180,
            "time": 25.348837209302324,
            "velocity": 0.28346456692913385
          },
          {
            "duration": 0.02325581395349019,
            "durationTicks": 2,
            "midi": 73,
            "name": "C#5",
            "ticks": 2181,
            "time": 25.36046511627907,
            "velocity": 0.2440944881889764
          },
          {
            "duration": 0.03488372093023173,
            "durationTicks": 3,
            "midi": 77,
            "name": "F5",
            "ticks": 2181,
            "time": 25.36046511627907,
            "velocity": 0.28346456692913385
          },
          {
            "duration": 0.09302325581395365,
            "durationTicks": 8,
            "midi": 91,
            "name": "G6",
            "ticks": 2181,
            "time": 25.36046511627907,
            "velocity": 0.2755905511811024
          },
          {
            "duration": 0.29069767441860606,
            "durationTicks": 25,
            "midi": 97,
            "name": "C#7",
            "ticks": 2181,
            "time": 25.36046511627907,
            "velocity": 0.2992125984251969
          },
          {
            "duration": 0.09302325581395365,
            "durationTicks": 8,
            "midi": 79,
            "name": "G5",
            "ticks": 2182,
            "time": 25.372093023255815,
            "velocity": 0.25984251968503935
          },
          {
            "duration": 0.03488372093023173,
            "durationTicks": 3,
            "midi": 89,
            "name": "F6",
            "ticks": 2182,
            "time": 25.372093023255815,
            "velocity": 0.29133858267716534
          },
          {
            "duration": 0.04651162790697683,
            "durationTicks": 4,
            "midi": 72,
            "name": "C5",
            "ticks": 2183,
            "time": 25.38372093023256,
            "velocity": 0.3228346456692913
          },
          {
            "duration": 0.09302325581395365,
            "durationTicks": 8,
            "midi": 85,
            "name": "C#6",
            "ticks": 2183,
            "time": 25.38372093023256,
            "velocity": 0.2047244094488189
          },
          {
            "duration": 0.02325581395349019,
            "durationTicks": 2,
            "midi": 60,
            "name": "C4",
            "ticks": 2185,
            "time": 25.406976744186046,
            "velocity": 0.28346456692913385
          },
          {
            "duration": 0.05813953488372192,
            "durationTicks": 5,
            "midi": 74,
            "name": "D5",
            "ticks": 2185,
            "time": 25.406976744186046,
            "velocity": 0.2047244094488189
          },
          {
            "duration": 0.04651162790697683,
            "durationTicks": 4,
            "midi": 77,
            "name": "F5",
            "ticks": 2185,
            "time": 25.406976744186046,
            "velocity": 0.23622047244094488
          },
          {
            "duration": 0.03488372093023173,
            "durationTicks": 3,
            "midi": 88,
            "name": "E6",
            "ticks": 2185,
            "time": 25.406976744186046,
            "velocity": 0.23622047244094488
          },
          {
            "duration": 0.023255813953486637,
            "durationTicks": 2,
            "midi": 66,
            "name": "F#4",
            "ticks": 2186,
            "time": 25.41860465116279,
            "velocity": 0.2992125984251969
          },
          {
            "duration": 0.0930232558139501,
            "durationTicks": 8,
            "midi": 89,
            "name": "F6",
            "ticks": 2187,
            "time": 25.430232558139537,
            "velocity": 0.28346456692913385
          },
          {
            "duration": 0.06976744186046702,
            "durationTicks": 6,
            "midi": 76,
            "name": "E5",
            "ticks": 2188,
            "time": 25.441860465116278,
            "velocity": 0.2755905511811024
          },
          {
            "duration": 0.04651162790697683,
            "durationTicks": 4,
            "midi": 83,
            "name": "B5",
            "ticks": 2188,
            "time": 25.441860465116278,
            "velocity": 0.2204724409448819
          },
          {
            "duration": 0.02325581395349019,
            "durationTicks": 2,
            "midi": 63,
            "name": "D#4",
            "ticks": 2189,
            "time": 25.453488372093023,
            "velocity": 0.2755905511811024
          },
          {
            "duration": 0.02325581395349019,
            "durationTicks": 2,
            "midi": 70,
            "name": "A#4",
            "ticks": 2189,
            "time": 25.453488372093023,
            "velocity": 0.2677165354330709
          },
          {
            "duration": 0.03488372093023173,
            "durationTicks": 3,
            "midi": 73,
            "name": "C#5",
            "ticks": 2190,
            "time": 25.46511627906977,
            "velocity": 0.2440944881889764
          },
          {
            "duration": 0.023255813953486637,
            "durationTicks": 2,
            "midi": 77,
            "name": "F5",
            "ticks": 2190,
            "time": 25.46511627906977,
            "velocity": 0.2440944881889764
          },
          {
            "duration": 0.04651162790697683,
            "durationTicks": 4,
            "midi": 80,
            "name": "G#5",
            "ticks": 2190,
            "time": 25.46511627906977,
            "velocity": 0.1889763779527559
          },
          {
            "duration": 0.16279069767441712,
            "durationTicks": 14,
            "midi": 91,
            "name": "G6",
            "ticks": 2190,
            "time": 25.46511627906977,
            "velocity": 0.33070866141732286
          },
          {
            "duration": 0.03488372093023173,
            "durationTicks": 3,
            "midi": 64,
            "name": "E4",
            "ticks": 2191,
            "time": 25.476744186046513,
            "velocity": 0.23622047244094488
          },
          {
            "duration": 0.4534883720930232,
            "durationTicks": 39,
            "midi": 94,
            "name": "A#6",
            "ticks": 2191,
            "time": 25.476744186046513,
            "velocity": 0.30708661417322836
          },
          {
            "duration": 0.023255813953486637,
            "durationTicks": 2,
            "midi": 72,
            "name": "C5",
            "ticks": 2193,
            "time": 25.5,
            "velocity": 0.2440944881889764
          },
          {
            "duration": 0.023255813953486637,
            "durationTicks": 2,
            "midi": 81,
            "name": "A5",
            "ticks": 2193,
            "time": 25.5,
            "velocity": 0.25984251968503935
          },
          {
            "duration": 0.08139534883720856,
            "durationTicks": 7,
            "midi": 83,
            "name": "B5",
            "ticks": 2193,
            "time": 25.5,
            "velocity": 0.2755905511811024
          },
          {
            "duration": 0.05813953488372192,
            "durationTicks": 5,
            "midi": 85,
            "name": "C#6",
            "ticks": 2193,
            "time": 25.5,
            "velocity": 0.3543307086614173
          },
          {
            "duration": 0.023255813953486637,
            "durationTicks": 2,
            "midi": 87,
            "name": "D#6",
            "ticks": 2193,
            "time": 25.5,
            "velocity": 0.23622047244094488
          },
          {
            "duration": 0.023255813953486637,
            "durationTicks": 2,
            "midi": 74,
            "name": "D5",
            "ticks": 2194,
            "time": 25.511627906976745,
            "velocity": 0.2440944881889764
          },
          {
            "duration": 0.03488372093023173,
            "durationTicks": 3,
            "midi": 75,
            "name": "D#5",
            "ticks": 2194,
            "time": 25.511627906976745,
            "velocity": 0.18110236220472442
          },
          {
            "duration": 0.04651162790697683,
            "durationTicks": 4,
            "midi": 77,
            "name": "F5",
            "ticks": 2194,
            "time": 25.511627906976745,
            "velocity": 0.2755905511811024
          },
          {
            "duration": 0.03488372093023173,
            "durationTicks": 3,
            "midi": 82,
            "name": "A#5",
            "ticks": 2194,
            "time": 25.511627906976745,
            "velocity": 0.25196850393700787
          },
          {
            "duration": 0.930232558139533,
            "durationTicks": 80,
            "midi": 99,
            "name": "D#7",
            "ticks": 2194,
            "time": 25.511627906976745,
            "velocity": 0.28346456692913385
          },
          {
            "duration": 0.034883720930235285,
            "durationTicks": 3,
            "midi": 51,
            "name": "D#3",
            "ticks": 2195,
            "time": 25.523255813953487,
            "velocity": 0.11023622047244094
          },
          {
            "duration": 0.05813953488372192,
            "durationTicks": 5,
            "midi": 69,
            "name": "A4",
            "ticks": 2195,
            "time": 25.523255813953487,
            "velocity": 0.31496062992125984
          },
          {
            "duration": 0.04651162790697683,
            "durationTicks": 4,
            "midi": 80,
            "name": "G#5",
            "ticks": 2195,
            "time": 25.523255813953487,
            "velocity": 0.28346456692913385
          },
          {
            "duration": 0.13953488372093048,
            "durationTicks": 12,
            "midi": 88,
            "name": "E6",
            "ticks": 2195,
            "time": 25.523255813953487,
            "velocity": 0.25984251968503935
          },
          {
            "duration": 0.03488372093023173,
            "durationTicks": 3,
            "midi": 62,
            "name": "D4",
            "ticks": 2196,
            "time": 25.53488372093023,
            "velocity": 0.23622047244094488
          },
          {
            "duration": 0.03488372093023173,
            "durationTicks": 3,
            "midi": 87,
            "name": "D#6",
            "ticks": 2196,
            "time": 25.53488372093023,
            "velocity": 0.1889763779527559
          },
          {
            "duration": 0.03488372093023173,
            "durationTicks": 3,
            "midi": 76,
            "name": "E5",
            "ticks": 2197,
            "time": 25.546511627906977,
            "velocity": 0.2047244094488189
          },
          {
            "duration": 0.3720930232558146,
            "durationTicks": 32,
            "midi": 100,
            "name": "E7",
            "ticks": 2197,
            "time": 25.546511627906977,
            "velocity": 0.25984251968503935
          },
          {
            "duration": 0.1046511627906952,
            "durationTicks": 9,
            "midi": 78,
            "name": "F#5",
            "ticks": 2198,
            "time": 25.558139534883722,
            "velocity": 0.31496062992125984
          },
          {
            "duration": 0.04651162790697683,
            "durationTicks": 4,
            "midi": 89,
            "name": "F6",
            "ticks": 2198,
            "time": 25.558139534883722,
            "velocity": 0.2125984251968504
          },
          {
            "duration": 0.02325581395349019,
            "durationTicks": 2,
            "midi": 73,
            "name": "C#5",
            "ticks": 2199,
            "time": 25.569767441860463,
            "velocity": 0.28346456692913385
          },
          {
            "duration": 0.02325581395349019,
            "durationTicks": 2,
            "midi": 75,
            "name": "D#5",
            "ticks": 2199,
            "time": 25.569767441860463,
            "velocity": 0.2992125984251969
          },
          {
            "duration": 0.22093023255813904,
            "durationTicks": 19,
            "midi": 80,
            "name": "G#5",
            "ticks": 2200,
            "time": 25.58139534883721,
            "velocity": 0.3228346456692913
          },
          {
            "duration": 0.02325581395349019,
            "durationTicks": 2,
            "midi": 84,
            "name": "C6",
            "ticks": 2200,
            "time": 25.58139534883721,
            "velocity": 0.25196850393700787
          },
          {
            "duration": 0.03488372093023173,
            "durationTicks": 3,
            "midi": 67,
            "name": "G4",
            "ticks": 2201,
            "time": 25.593023255813954,
            "velocity": 0.2440944881889764
          },
          {
            "duration": 0.023255813953486637,
            "durationTicks": 2,
            "midi": 72,
            "name": "C5",
            "ticks": 2201,
            "time": 25.593023255813954,
            "velocity": 0.2755905511811024
          },
          {
            "duration": 0.023255813953486637,
            "durationTicks": 2,
            "midi": 76,
            "name": "E5",
            "ticks": 2201,
            "time": 25.593023255813954,
            "velocity": 0.2677165354330709
          },
          {
            "duration": 0.27906976744186096,
            "durationTicks": 24,
            "midi": 87,
            "name": "D#6",
            "ticks": 2201,
            "time": 25.593023255813954,
            "velocity": 0.25984251968503935
          },
          {
            "duration": 0.04651162790697683,
            "durationTicks": 4,
            "midi": 93,
            "name": "A6",
            "ticks": 2201,
            "time": 25.593023255813954,
            "velocity": 0.2047244094488189
          },
          {
            "duration": 0.02325581395349019,
            "durationTicks": 2,
            "midi": 73,
            "name": "C#5",
            "ticks": 2203,
            "time": 25.61627906976744,
            "velocity": 0.29133858267716534
          },
          {
            "duration": 0.04651162790697683,
            "durationTicks": 4,
            "midi": 62,
            "name": "D4",
            "ticks": 2204,
            "time": 25.627906976744185,
            "velocity": 0.23622047244094488
          },
          {
            "duration": 0.02325581395349019,
            "durationTicks": 2,
            "midi": 68,
            "name": "G#4",
            "ticks": 2204,
            "time": 25.627906976744185,
            "velocity": 0.23622047244094488
          },
          {
            "duration": 0.03488372093023173,
            "durationTicks": 3,
            "midi": 74,
            "name": "D5",
            "ticks": 2204,
            "time": 25.627906976744185,
            "velocity": 0.3543307086614173
          },
          {
            "duration": 0.06976744186046702,
            "durationTicks": 6,
            "midi": 76,
            "name": "E5",
            "ticks": 2204,
            "time": 25.627906976744185,
            "velocity": 0.3700787401574803
          },
          {
            "duration": 0.05813953488372192,
            "durationTicks": 5,
            "midi": 83,
            "name": "B5",
            "ticks": 2205,
            "time": 25.63953488372093,
            "velocity": 0.2440944881889764
          },
          {
            "duration": 0.03488372093023173,
            "durationTicks": 3,
            "midi": 85,
            "name": "C#6",
            "ticks": 2205,
            "time": 25.63953488372093,
            "velocity": 0.2755905511811024
          },
          {
            "duration": 0.09302325581395365,
            "durationTicks": 8,
            "midi": 89,
            "name": "F6",
            "ticks": 2205,
            "time": 25.63953488372093,
            "velocity": 0.29133858267716534
          },
          {
            "duration": 0.04651162790697683,
            "durationTicks": 4,
            "midi": 69,
            "name": "A4",
            "ticks": 2206,
            "time": 25.651162790697676,
            "velocity": 0.2440944881889764
          },
          {
            "duration": 0.03488372093023173,
            "durationTicks": 3,
            "midi": 71,
            "name": "B4",
            "ticks": 2206,
            "time": 25.651162790697676,
            "velocity": 0.2677165354330709
          },
          {
            "duration": 0.25581395348837077,
            "durationTicks": 22,
            "midi": 91,
            "name": "G6",
            "ticks": 2206,
            "time": 25.651162790697676,
            "velocity": 0.2677165354330709
          },
          {
            "duration": 0.26744186046511587,
            "durationTicks": 23,
            "midi": 93,
            "name": "A6",
            "ticks": 2206,
            "time": 25.651162790697676,
            "velocity": 0.33858267716535434
          },
          {
            "duration": 0.04651162790697683,
            "durationTicks": 4,
            "midi": 82,
            "name": "A#5",
            "ticks": 2207,
            "time": 25.662790697674417,
            "velocity": 0.2204724409448819
          },
          {
            "duration": 0.05813953488372192,
            "durationTicks": 5,
            "midi": 90,
            "name": "F#6",
            "ticks": 2207,
            "time": 25.662790697674417,
            "velocity": 0.2047244094488189
          },
          {
            "duration": 0.46511627906976827,
            "durationTicks": 40,
            "midi": 97,
            "name": "C#7",
            "ticks": 2207,
            "time": 25.662790697674417,
            "velocity": 0.33858267716535434
          },
          {
            "duration": 0.03488372093023173,
            "durationTicks": 3,
            "midi": 66,
            "name": "F#4",
            "ticks": 2208,
            "time": 25.674418604651162,
            "velocity": 0.2755905511811024
          },
          {
            "duration": 0.04651162790697683,
            "durationTicks": 4,
            "midi": 84,
            "name": "C6",
            "ticks": 2208,
            "time": 25.674418604651162,
            "velocity": 0.25196850393700787
          },
          {
            "duration": 0.2093023255813975,
            "durationTicks": 18,
            "midi": 95,
            "name": "B6",
            "ticks": 2208,
            "time": 25.674418604651162,
            "velocity": 0.25196850393700787
          },
          {
            "duration": 0.04651162790697683,
            "durationTicks": 4,
            "midi": 62,
            "name": "D4",
            "ticks": 2209,
            "time": 25.686046511627907,
            "velocity": 0.2125984251968504
          },
          {
            "duration": 0.03488372093023173,
            "durationTicks": 3,
            "midi": 79,
            "name": "G5",
            "ticks": 2209,
            "time": 25.686046511627907,
            "velocity": 0.2755905511811024
          },
          {
            "duration": 0.05813953488371837,
            "durationTicks": 5,
            "midi": 74,
            "name": "D5",
            "ticks": 2210,
            "time": 25.697674418604652,
            "velocity": 0.28346456692913385
          },
          {
            "duration": 0.04651162790697683,
            "durationTicks": 4,
            "midi": 67,
            "name": "G4",
            "ticks": 2211,
            "time": 25.709302325581394,
            "velocity": 0.30708661417322836
          },
          {
            "duration": 0.034883720930235285,
            "durationTicks": 3,
            "midi": 72,
            "name": "C5",
            "ticks": 2211,
            "time": 25.709302325581394,
            "velocity": 0.2047244094488189
          },
          {
            "duration": 0.034883720930235285,
            "durationTicks": 3,
            "midi": 81,
            "name": "A5",
            "ticks": 2211,
            "time": 25.709302325581394,
            "velocity": 0.2283464566929134
          },
          {
            "duration": 0.3372093023255829,
            "durationTicks": 29,
            "midi": 83,
            "name": "B5",
            "ticks": 2211,
            "time": 25.709302325581394,
            "velocity": 0.3464566929133858
          },
          {
            "duration": 0.06976744186046702,
            "durationTicks": 6,
            "midi": 69,
            "name": "A4",
            "ticks": 2212,
            "time": 25.72093023255814,
            "velocity": 0.2992125984251969
          },
          {
            "duration": 0.11627906976744384,
            "durationTicks": 10,
            "midi": 86,
            "name": "D6",
            "ticks": 2212,
            "time": 25.72093023255814,
            "velocity": 0.30708661417322836
          },
          {
            "duration": 0.10465116279069875,
            "durationTicks": 9,
            "midi": 88,
            "name": "E6",
            "ticks": 2212,
            "time": 25.72093023255814,
            "velocity": 0.25984251968503935
          },
          {
            "duration": 0.06976744186046346,
            "durationTicks": 6,
            "midi": 82,
            "name": "A#5",
            "ticks": 2213,
            "time": 25.732558139534884,
            "velocity": 0.28346456692913385
          },
          {
            "duration": 0.06976744186046346,
            "durationTicks": 6,
            "midi": 90,
            "name": "F#6",
            "ticks": 2213,
            "time": 25.732558139534884,
            "velocity": 0.25196850393700787
          },
          {
            "duration": 0.03488372093023173,
            "durationTicks": 3,
            "midi": 78,
            "name": "F#5",
            "ticks": 2214,
            "time": 25.74418604651163,
            "velocity": 0.2204724409448819
          },
          {
            "duration": 0.13953488372093048,
            "durationTicks": 12,
            "midi": 89,
            "name": "F6",
            "ticks": 2214,
            "time": 25.74418604651163,
            "velocity": 0.3228346456692913
          },
          {
            "duration": 0.02325581395349019,
            "durationTicks": 2,
            "midi": 73,
            "name": "C#5",
            "ticks": 2215,
            "time": 25.75581395348837,
            "velocity": 0.2677165354330709
          },
          {
            "duration": 0.04651162790697683,
            "durationTicks": 4,
            "midi": 76,
            "name": "E5",
            "ticks": 2215,
            "time": 25.75581395348837,
            "velocity": 0.29133858267716534
          },
          {
            "duration": 0.04651162790697683,
            "durationTicks": 4,
            "midi": 66,
            "name": "F#4",
            "ticks": 2216,
            "time": 25.767441860465116,
            "velocity": 0.2125984251968504
          },
          {
            "duration": 0.06976744186046702,
            "durationTicks": 6,
            "midi": 72,
            "name": "C5",
            "ticks": 2216,
            "time": 25.767441860465116,
            "velocity": 0.18110236220472442
          },
          {
            "duration": 0.06976744186046346,
            "durationTicks": 6,
            "midi": 77,
            "name": "F5",
            "ticks": 2217,
            "time": 25.77906976744186,
            "velocity": 0.2204724409448819
          },
          {
            "duration": 0.10465116279069875,
            "durationTicks": 9,
            "midi": 79,
            "name": "G5",
            "ticks": 2217,
            "time": 25.77906976744186,
            "velocity": 0.29133858267716534
          },
          {
            "duration": 0.034883720930235285,
            "durationTicks": 3,
            "midi": 62,
            "name": "D4",
            "ticks": 2219,
            "time": 25.802325581395348,
            "velocity": 0.13385826771653545
          },
          {
            "duration": 0.034883720930235285,
            "durationTicks": 3,
            "midi": 70,
            "name": "A#4",
            "ticks": 2219,
            "time": 25.802325581395348,
            "velocity": 0.23622047244094488
          },
          {
            "duration": 0.06976744186046702,
            "durationTicks": 6,
            "midi": 75,
            "name": "D#5",
            "ticks": 2219,
            "time": 25.802325581395348,
            "velocity": 0.1968503937007874
          },
          {
            "duration": 0.06976744186046702,
            "durationTicks": 6,
            "midi": 81,
            "name": "A5",
            "ticks": 2219,
            "time": 25.802325581395348,
            "velocity": 0.33070866141732286
          },
          {
            "duration": 0.08139534883721211,
            "durationTicks": 7,
            "midi": 84,
            "name": "C6",
            "ticks": 2219,
            "time": 25.802325581395348,
            "velocity": 0.25196850393700787
          },
          {
            "duration": 0.03488372093023173,
            "durationTicks": 3,
            "midi": 51,
            "name": "D#3",
            "ticks": 2220,
            "time": 25.813953488372093,
            "velocity": 0.13385826771653545
          },
          {
            "duration": 0.023255813953486637,
            "durationTicks": 2,
            "midi": 67,
            "name": "G4",
            "ticks": 2221,
            "time": 25.825581395348838,
            "velocity": 0.25196850393700787
          },
          {
            "duration": 0.13953488372093048,
            "durationTicks": 12,
            "midi": 85,
            "name": "C#6",
            "ticks": 2221,
            "time": 25.825581395348838,
            "velocity": 0.33070866141732286
          },
          {
            "duration": 0.6162790697674403,
            "durationTicks": 53,
            "midi": 92,
            "name": "G#6",
            "ticks": 2221,
            "time": 25.825581395348838,
            "velocity": 0.30708661417322836
          },
          {
            "duration": 0.03488372093023173,
            "durationTicks": 3,
            "midi": 76,
            "name": "E5",
            "ticks": 2222,
            "time": 25.837209302325583,
            "velocity": 0.2047244094488189
          },
          {
            "duration": 0.1744186046511622,
            "durationTicks": 15,
            "midi": 88,
            "name": "E6",
            "ticks": 2222,
            "time": 25.837209302325583,
            "velocity": 0.29133858267716534
          },
          {
            "duration": 0.02325581395349019,
            "durationTicks": 2,
            "midi": 70,
            "name": "A#4",
            "ticks": 2223,
            "time": 25.848837209302324,
            "velocity": 0.29133858267716534
          },
          {
            "duration": 0.02325581395349019,
            "durationTicks": 2,
            "midi": 80,
            "name": "G#5",
            "ticks": 2224,
            "time": 25.86046511627907,
            "velocity": 0.25984251968503935
          },
          {
            "duration": 0.03488372093023173,
            "durationTicks": 3,
            "midi": 86,
            "name": "D6",
            "ticks": 2224,
            "time": 25.86046511627907,
            "velocity": 0.2440944881889764
          },
          {
            "duration": 0.023255813953486637,
            "durationTicks": 2,
            "midi": 65,
            "name": "F4",
            "ticks": 2225,
            "time": 25.872093023255815,
            "velocity": 0.2755905511811024
          },
          {
            "duration": 0.023255813953486637,
            "durationTicks": 2,
            "midi": 82,
            "name": "A#5",
            "ticks": 2225,
            "time": 25.872093023255815,
            "velocity": 0.2755905511811024
          },
          {
            "duration": 0.03488372093023173,
            "durationTicks": 3,
            "midi": 73,
            "name": "C#5",
            "ticks": 2226,
            "time": 25.88372093023256,
            "velocity": 0.33858267716535434
          },
          {
            "duration": 0.08139534883720856,
            "durationTicks": 7,
            "midi": 78,
            "name": "F#5",
            "ticks": 2226,
            "time": 25.88372093023256,
            "velocity": 0.2677165354330709
          },
          {
            "duration": 0.26744186046511587,
            "durationTicks": 23,
            "midi": 87,
            "name": "D#6",
            "ticks": 2226,
            "time": 25.88372093023256,
            "velocity": 0.3228346456692913
          },
          {
            "duration": 0.02325581395349019,
            "durationTicks": 2,
            "midi": 64,
            "name": "E4",
            "ticks": 2227,
            "time": 25.8953488372093,
            "velocity": 0.23622047244094488
          },
          {
            "duration": 0.16279069767442067,
            "durationTicks": 14,
            "midi": 81,
            "name": "A5",
            "ticks": 2227,
            "time": 25.8953488372093,
            "velocity": 0.30708661417322836
          },
          {
            "duration": 0.04651162790697683,
            "durationTicks": 4,
            "midi": 69,
            "name": "A4",
            "ticks": 2229,
            "time": 25.91860465116279,
            "velocity": 0.2125984251968504
          },
          {
            "duration": 0.03488372093023173,
            "durationTicks": 3,
            "midi": 72,
            "name": "C5",
            "ticks": 2229,
            "time": 25.91860465116279,
            "velocity": 0.28346456692913385
          },
          {
            "duration": 0.03488372093023173,
            "durationTicks": 3,
            "midi": 66,
            "name": "F#4",
            "ticks": 2230,
            "time": 25.930232558139537,
            "velocity": 0.23622047244094488
          },
          {
            "duration": 0.03488372093023173,
            "durationTicks": 3,
            "midi": 76,
            "name": "E5",
            "ticks": 2230,
            "time": 25.930232558139537,
            "velocity": 0.2440944881889764
          },
          {
            "duration": 0.04651162790697683,
            "durationTicks": 4,
            "midi": 79,
            "name": "G5",
            "ticks": 2230,
            "time": 25.930232558139537,
            "velocity": 0.2677165354330709
          },
          {
            "duration": 0.11627906976744384,
            "durationTicks": 10,
            "midi": 77,
            "name": "F5",
            "ticks": 2231,
            "time": 25.941860465116278,
            "velocity": 0.3464566929133858
          },
          {
            "duration": 0.09302325581395365,
            "durationTicks": 8,
            "midi": 86,
            "name": "D6",
            "ticks": 2231,
            "time": 25.941860465116278,
            "velocity": 0.29133858267716534
          },
          {
            "duration": 0.48837209302325846,
            "durationTicks": 42,
            "midi": 94,
            "name": "A#6",
            "ticks": 2231,
            "time": 25.941860465116278,
            "velocity": 0.3464566929133858
          },
          {
            "duration": 0.03488372093023173,
            "durationTicks": 3,
            "midi": 74,
            "name": "D5",
            "ticks": 2232,
            "time": 25.953488372093023,
            "velocity": 0.25196850393700787
          },
          {
            "duration": 0.04651162790697683,
            "durationTicks": 4,
            "midi": 82,
            "name": "A#5",
            "ticks": 2232,
            "time": 25.953488372093023,
            "velocity": 0.18110236220472442
          },
          {
            "duration": 0.03488372093023173,
            "durationTicks": 3,
            "midi": 75,
            "name": "D#5",
            "ticks": 2234,
            "time": 25.976744186046513,
            "velocity": 0.23622047244094488
          },
          {
            "duration": 0.023255813953486637,
            "durationTicks": 2,
            "midi": 78,
            "name": "F#5",
            "ticks": 2234,
            "time": 25.976744186046513,
            "velocity": 0.31496062992125984
          },
          {
            "duration": 0.046511627906973274,
            "durationTicks": 4,
            "midi": 80,
            "name": "G#5",
            "ticks": 2234,
            "time": 25.976744186046513,
            "velocity": 0.25196850393700787
          },
          {
            "duration": 0.1744186046511622,
            "durationTicks": 15,
            "midi": 85,
            "name": "C#6",
            "ticks": 2234,
            "time": 25.976744186046513,
            "velocity": 0.31496062992125984
          },
          {
            "duration": 0.03488372093023173,
            "durationTicks": 3,
            "midi": 71,
            "name": "B4",
            "ticks": 2235,
            "time": 25.988372093023255,
            "velocity": 0.1968503937007874
          },
          {
            "duration": 0.04651162790697683,
            "durationTicks": 4,
            "midi": 73,
            "name": "C#5",
            "ticks": 2235,
            "time": 25.988372093023255,
            "velocity": 0.2204724409448819
          },
          {
            "duration": 0.03488372093023173,
            "durationTicks": 3,
            "midi": 78,
            "name": "F#5",
            "ticks": 2237,
            "time": 26.011627906976745,
            "velocity": 0.14173228346456693
          },
          {
            "duration": 0.034883720930235285,
            "durationTicks": 3,
            "midi": 72,
            "name": "C5",
            "ticks": 2238,
            "time": 26.023255813953487,
            "velocity": 0.2204724409448819
          },
          {
            "duration": 0.06976744186046702,
            "durationTicks": 6,
            "midi": 91,
            "name": "G6",
            "ticks": 2238,
            "time": 26.023255813953487,
            "velocity": 0.2204724409448819
          },
          {
            "duration": 0.03488372093023173,
            "durationTicks": 3,
            "midi": 79,
            "name": "G5",
            "ticks": 2239,
            "time": 26.03488372093023,
            "velocity": 0.33858267716535434
          },
          {
            "duration": 0.08139534883720856,
            "durationTicks": 7,
            "midi": 96,
            "name": "C7",
            "ticks": 2239,
            "time": 26.03488372093023,
            "velocity": 0.2992125984251969
          },
          {
            "duration": 0.023255813953486637,
            "durationTicks": 2,
            "midi": 64,
            "name": "E4",
            "ticks": 2240,
            "time": 26.046511627906977,
            "velocity": 0.31496062992125984
          },
          {
            "duration": 0.023255813953486637,
            "durationTicks": 2,
            "midi": 68,
            "name": "G#4",
            "ticks": 2240,
            "time": 26.046511627906977,
            "velocity": 0.30708661417322836
          },
          {
            "duration": 0.03488372093023173,
            "durationTicks": 3,
            "midi": 75,
            "name": "D#5",
            "ticks": 2240,
            "time": 26.046511627906977,
            "velocity": 0.1968503937007874
          },
          {
            "duration": 0.08139534883720856,
            "durationTicks": 7,
            "midi": 88,
            "name": "E6",
            "ticks": 2240,
            "time": 26.046511627906977,
            "velocity": 0.23622047244094488
          },
          {
            "duration": 0.023255813953486637,
            "durationTicks": 2,
            "midi": 54,
            "name": "F#3",
            "ticks": 2241,
            "time": 26.058139534883722,
            "velocity": 0.23622047244094488
          },
          {
            "duration": 0.023255813953486637,
            "durationTicks": 2,
            "midi": 80,
            "name": "G#5",
            "ticks": 2241,
            "time": 26.058139534883722,
            "velocity": 0.33858267716535434
          },
          {
            "duration": 0.04651162790697683,
            "durationTicks": 4,
            "midi": 83,
            "name": "B5",
            "ticks": 2241,
            "time": 26.058139534883722,
            "velocity": 0.29133858267716534
          },
          {
            "duration": 0.034883720930235285,
            "durationTicks": 3,
            "midi": 62,
            "name": "D4",
            "ticks": 2242,
            "time": 26.069767441860463,
            "velocity": 0.2125984251968504
          },
          {
            "duration": 0.02325581395349019,
            "durationTicks": 2,
            "midi": 67,
            "name": "G4",
            "ticks": 2242,
            "time": 26.069767441860463,
            "velocity": 0.2677165354330709
          },
          {
            "duration": 0.034883720930235285,
            "durationTicks": 3,
            "midi": 72,
            "name": "C5",
            "ticks": 2242,
            "time": 26.069767441860463,
            "velocity": 0.25984251968503935
          },
          {
            "duration": 0.04651162790697683,
            "durationTicks": 4,
            "midi": 78,
            "name": "F#5",
            "ticks": 2242,
            "time": 26.069767441860463,
            "velocity": 0.31496062992125984
          },
          {
            "duration": 0.034883720930235285,
            "durationTicks": 3,
            "midi": 81,
            "name": "A5",
            "ticks": 2242,
            "time": 26.069767441860463,
            "velocity": 0.11023622047244094
          },
          {
            "duration": 0.348837209302328,
            "durationTicks": 30,
            "midi": 98,
            "name": "D7",
            "ticks": 2243,
            "time": 26.08139534883721,
            "velocity": 0.31496062992125984
          },
          {
            "duration": 0.3604651162790695,
            "durationTicks": 31,
            "midi": 100,
            "name": "E7",
            "ticks": 2243,
            "time": 26.08139534883721,
            "velocity": 0.2992125984251969
          },
          {
            "duration": 0.23255813953488413,
            "durationTicks": 20,
            "midi": 86,
            "name": "D6",
            "ticks": 2244,
            "time": 26.093023255813954,
            "velocity": 0.30708661417322836
          },
          {
            "duration": 0.04651162790697683,
            "durationTicks": 4,
            "midi": 69,
            "name": "A4",
            "ticks": 2245,
            "time": 26.1046511627907,
            "velocity": 0.1968503937007874
          },
          {
            "duration": 0.09302325581395365,
            "durationTicks": 8,
            "midi": 73,
            "name": "C#5",
            "ticks": 2245,
            "time": 26.1046511627907,
            "velocity": 0.2755905511811024
          },
          {
            "duration": 0.03488372093023173,
            "durationTicks": 3,
            "midi": 77,
            "name": "F5",
            "ticks": 2245,
            "time": 26.1046511627907,
            "velocity": 0.18110236220472442
          },
          {
            "duration": 0.09302325581395365,
            "durationTicks": 8,
            "midi": 80,
            "name": "G#5",
            "ticks": 2245,
            "time": 26.1046511627907,
            "velocity": 0.29133858267716534
          },
          {
            "duration": 0.05813953488371837,
            "durationTicks": 5,
            "midi": 82,
            "name": "A#5",
            "ticks": 2245,
            "time": 26.1046511627907,
            "velocity": 0.2204724409448819
          },
          {
            "duration": 0.03488372093023173,
            "durationTicks": 3,
            "midi": 84,
            "name": "C6",
            "ticks": 2245,
            "time": 26.1046511627907,
            "velocity": 0.25196850393700787
          },
          {
            "duration": 0.06976744186046702,
            "durationTicks": 6,
            "midi": 67,
            "name": "G4",
            "ticks": 2246,
            "time": 26.11627906976744,
            "velocity": 0.2204724409448819
          },
          {
            "duration": 0.034883720930235285,
            "durationTicks": 3,
            "midi": 74,
            "name": "D5",
            "ticks": 2246,
            "time": 26.11627906976744,
            "velocity": 0.2125984251968504
          },
          {
            "duration": 0.10465116279069875,
            "durationTicks": 9,
            "midi": 83,
            "name": "B5",
            "ticks": 2246,
            "time": 26.11627906976744,
            "velocity": 0.30708661417322836
          },
          {
            "duration": 0.17441860465116577,
            "durationTicks": 15,
            "midi": 89,
            "name": "F6",
            "ticks": 2246,
            "time": 26.11627906976744,
            "velocity": 0.3228346456692913
          },
          {
            "duration": 0.03488372093023173,
            "durationTicks": 3,
            "midi": 58,
            "name": "A#3",
            "ticks": 2248,
            "time": 26.13953488372093,
            "velocity": 0.2677165354330709
          },
          {
            "duration": 0.03488372093023173,
            "durationTicks": 3,
            "midi": 71,
            "name": "B4",
            "ticks": 2248,
            "time": 26.13953488372093,
            "velocity": 0.1968503937007874
          },
          {
            "duration": 0.11627906976744029,
            "durationTicks": 10,
            "midi": 91,
            "name": "G6",
            "ticks": 2248,
            "time": 26.13953488372093,
            "velocity": 0.25196850393700787
          },
          {
            "duration": 0.3139534883720927,
            "durationTicks": 27,
            "midi": 96,
            "name": "C7",
            "ticks": 2248,
            "time": 26.13953488372093,
            "velocity": 0.28346456692913385
          },
          {
            "duration": 0.04651162790697683,
            "durationTicks": 4,
            "midi": 77,
            "name": "F5",
            "ticks": 2249,
            "time": 26.151162790697676,
            "velocity": 0.30708661417322836
          },
          {
            "duration": 0.27906976744186096,
            "durationTicks": 24,
            "midi": 88,
            "name": "E6",
            "ticks": 2249,
            "time": 26.151162790697676,
            "velocity": 0.28346456692913385
          },
          {
            "duration": 0.3023255813953476,
            "durationTicks": 26,
            "midi": 97,
            "name": "C#7",
            "ticks": 2249,
            "time": 26.151162790697676,
            "velocity": 0.2992125984251969
          },
          {
            "duration": 0.03488372093023173,
            "durationTicks": 3,
            "midi": 72,
            "name": "C5",
            "ticks": 2252,
            "time": 26.186046511627907,
            "velocity": 0.14960629921259844
          },
          {
            "duration": 0.04651162790697683,
            "durationTicks": 4,
            "midi": 76,
            "name": "E5",
            "ticks": 2252,
            "time": 26.186046511627907,
            "velocity": 0.30708661417322836
          },
          {
            "duration": 0.16279069767441712,
            "durationTicks": 14,
            "midi": 87,
            "name": "D#6",
            "ticks": 2252,
            "time": 26.186046511627907,
            "velocity": 0.29133858267716534
          },
          {
            "duration": 0.023255813953486637,
            "durationTicks": 2,
            "midi": 79,
            "name": "G5",
            "ticks": 2253,
            "time": 26.197674418604652,
            "velocity": 0.23622047244094488
          },
          {
            "duration": 0.04651162790697683,
            "durationTicks": 4,
            "midi": 81,
            "name": "A5",
            "ticks": 2253,
            "time": 26.197674418604652,
            "velocity": 0.30708661417322836
          },
          {
            "duration": 0.1046511627906952,
            "durationTicks": 9,
            "midi": 90,
            "name": "F#6",
            "ticks": 2253,
            "time": 26.197674418604652,
            "velocity": 0.3464566929133858
          },
          {
            "duration": 0.034883720930235285,
            "durationTicks": 3,
            "midi": 61,
            "name": "C#4",
            "ticks": 2254,
            "time": 26.209302325581394,
            "velocity": 0.2283464566929134
          },
          {
            "duration": 0.034883720930235285,
            "durationTicks": 3,
            "midi": 75,
            "name": "D#5",
            "ticks": 2254,
            "time": 26.209302325581394,
            "velocity": 0.25196850393700787
          },
          {
            "duration": 0.04651162790697683,
            "durationTicks": 4,
            "midi": 80,
            "name": "G#5",
            "ticks": 2255,
            "time": 26.22093023255814,
            "velocity": 0.2047244094488189
          },
          {
            "duration": 0.02325581395349019,
            "durationTicks": 2,
            "midi": 84,
            "name": "C6",
            "ticks": 2255,
            "time": 26.22093023255814,
            "velocity": 0.2755905511811024
          },
          {
            "duration": 0.03488372093023173,
            "durationTicks": 3,
            "midi": 70,
            "name": "A#4",
            "ticks": 2256,
            "time": 26.232558139534884,
            "velocity": 0.2204724409448819
          },
          {
            "duration": 0.03488372093023173,
            "durationTicks": 3,
            "midi": 83,
            "name": "B5",
            "ticks": 2256,
            "time": 26.232558139534884,
            "velocity": 0.25196850393700787
          },
          {
            "duration": 0.03488372093023173,
            "durationTicks": 3,
            "midi": 76,
            "name": "E5",
            "ticks": 2257,
            "time": 26.24418604651163,
            "velocity": 0.2440944881889764
          },
          {
            "duration": 0.06976744186046346,
            "durationTicks": 6,
            "midi": 82,
            "name": "A#5",
            "ticks": 2257,
            "time": 26.24418604651163,
            "velocity": 0.23622047244094488
          },
          {
            "duration": 0.04651162790697683,
            "durationTicks": 4,
            "midi": 85,
            "name": "C#6",
            "ticks": 2257,
            "time": 26.24418604651163,
            "velocity": 0.25196850393700787
          },
          {
            "duration": 0.09302325581395365,
            "durationTicks": 8,
            "midi": 73,
            "name": "C#5",
            "ticks": 2258,
            "time": 26.25581395348837,
            "velocity": 0.2283464566929134
          },
          {
            "duration": 0.09302325581395365,
            "durationTicks": 8,
            "midi": 81,
            "name": "A5",
            "ticks": 2258,
            "time": 26.25581395348837,
            "velocity": 0.2755905511811024
          },
          {
            "duration": 0.05813953488372192,
            "durationTicks": 5,
            "midi": 77,
            "name": "F5",
            "ticks": 2259,
            "time": 26.267441860465116,
            "velocity": 0.2755905511811024
          },
          {
            "duration": 0.05813953488372192,
            "durationTicks": 5,
            "midi": 84,
            "name": "C6",
            "ticks": 2259,
            "time": 26.267441860465116,
            "velocity": 0.29133858267716534
          },
          {
            "duration": 0.08139534883720856,
            "durationTicks": 7,
            "midi": 91,
            "name": "G6",
            "ticks": 2259,
            "time": 26.267441860465116,
            "velocity": 0.31496062992125984
          },
          {
            "duration": 0.04651162790697683,
            "durationTicks": 4,
            "midi": 70,
            "name": "A#4",
            "ticks": 2260,
            "time": 26.27906976744186,
            "velocity": 0.1968503937007874
          },
          {
            "duration": 0.023255813953486637,
            "durationTicks": 2,
            "midi": 75,
            "name": "D#5",
            "ticks": 2260,
            "time": 26.27906976744186,
            "velocity": 0.2283464566929134
          },
          {
            "duration": 0.03488372093023173,
            "durationTicks": 3,
            "midi": 83,
            "name": "B5",
            "ticks": 2260,
            "time": 26.27906976744186,
            "velocity": 0.2125984251968504
          },
          {
            "duration": 0.03488372093023173,
            "durationTicks": 3,
            "midi": 63,
            "name": "D#4",
            "ticks": 2261,
            "time": 26.290697674418606,
            "velocity": 0.25984251968503935
          },
          {
            "duration": 0.15116279069767202,
            "durationTicks": 13,
            "midi": 93,
            "name": "A6",
            "ticks": 2261,
            "time": 26.290697674418606,
            "velocity": 0.2992125984251969
          },
          {
            "duration": 0.04651162790697683,
            "durationTicks": 4,
            "midi": 75,
            "name": "D#5",
            "ticks": 2263,
            "time": 26.313953488372093,
            "velocity": 0.29133858267716534
          },
          {
            "duration": 0.12790697674418539,
            "durationTicks": 11,
            "midi": 85,
            "name": "C#6",
            "ticks": 2263,
            "time": 26.313953488372093,
            "velocity": 0.29133858267716534
          },
          {
            "duration": 0.04651162790697683,
            "durationTicks": 4,
            "midi": 58,
            "name": "A#3",
            "ticks": 2264,
            "time": 26.325581395348838,
            "velocity": 0.18110236220472442
          },
          {
            "duration": 0.03488372093023173,
            "durationTicks": 3,
            "midi": 69,
            "name": "A4",
            "ticks": 2264,
            "time": 26.325581395348838,
            "velocity": 0.29133858267716534
          },
          {
            "duration": 0.03488372093023173,
            "durationTicks": 3,
            "midi": 79,
            "name": "G5",
            "ticks": 2264,
            "time": 26.325581395348838,
            "velocity": 0.25196850393700787
          },
          {
            "duration": 0.06976744186046346,
            "durationTicks": 6,
            "midi": 83,
            "name": "B5",
            "ticks": 2264,
            "time": 26.325581395348838,
            "velocity": 0.2047244094488189
          },
          {
            "duration": 0.09302325581395365,
            "durationTicks": 8,
            "midi": 90,
            "name": "F#6",
            "ticks": 2264,
            "time": 26.325581395348838,
            "velocity": 0.2992125984251969
          },
          {
            "duration": 0.05813953488371837,
            "durationTicks": 5,
            "midi": 68,
            "name": "G#4",
            "ticks": 2265,
            "time": 26.337209302325583,
            "velocity": 0.2755905511811024
          },
          {
            "duration": 0.1046511627906952,
            "durationTicks": 9,
            "midi": 86,
            "name": "D6",
            "ticks": 2265,
            "time": 26.337209302325583,
            "velocity": 0.29133858267716534
          },
          {
            "duration": 0.034883720930235285,
            "durationTicks": 3,
            "midi": 72,
            "name": "C5",
            "ticks": 2266,
            "time": 26.348837209302324,
            "velocity": 0.25984251968503935
          },
          {
            "duration": 0.034883720930235285,
            "durationTicks": 3,
            "midi": 89,
            "name": "F6",
            "ticks": 2266,
            "time": 26.348837209302324,
            "velocity": 0.25984251968503935
          },
          {
            "duration": 0.02325581395349019,
            "durationTicks": 2,
            "midi": 76,
            "name": "E5",
            "ticks": 2267,
            "time": 26.36046511627907,
            "velocity": 0.29133858267716534
          },
          {
            "duration": 0.08139534883720856,
            "durationTicks": 7,
            "midi": 78,
            "name": "F#5",
            "ticks": 2267,
            "time": 26.36046511627907,
            "velocity": 0.28346456692913385
          },
          {
            "duration": 0.06976744186046702,
            "durationTicks": 6,
            "midi": 81,
            "name": "A5",
            "ticks": 2267,
            "time": 26.36046511627907,
            "velocity": 0.2677165354330709
          },
          {
            "duration": 0.08139534883720856,
            "durationTicks": 7,
            "midi": 82,
            "name": "A#5",
            "ticks": 2267,
            "time": 26.36046511627907,
            "velocity": 0.2677165354330709
          },
          {
            "duration": 0.03488372093023173,
            "durationTicks": 3,
            "midi": 91,
            "name": "G6",
            "ticks": 2267,
            "time": 26.36046511627907,
            "velocity": 0.2283464566929134
          },
          {
            "duration": 0.03488372093023173,
            "durationTicks": 3,
            "midi": 71,
            "name": "B4",
            "ticks": 2269,
            "time": 26.38372093023256,
            "velocity": 0.18110236220472442
          },
          {
            "duration": 0.023255813953486637,
            "durationTicks": 2,
            "midi": 73,
            "name": "C#5",
            "ticks": 2269,
            "time": 26.38372093023256,
            "velocity": 0.2755905511811024
          },
          {
            "duration": 0.05813953488371837,
            "durationTicks": 5,
            "midi": 75,
            "name": "D#5",
            "ticks": 2269,
            "time": 26.38372093023256,
            "velocity": 0.2677165354330709
          },
          {
            "duration": 0.023255813953486637,
            "durationTicks": 2,
            "midi": 79,
            "name": "G5",
            "ticks": 2269,
            "time": 26.38372093023256,
            "velocity": 0.2440944881889764
          },
          {
            "duration": 0.02325581395349019,
            "durationTicks": 2,
            "midi": 69,
            "name": "A4",
            "ticks": 2270,
            "time": 26.3953488372093,
            "velocity": 0.2677165354330709
          },
          {
            "duration": 0.034883720930235285,
            "durationTicks": 3,
            "midi": 89,
            "name": "F6",
            "ticks": 2270,
            "time": 26.3953488372093,
            "velocity": 0.2992125984251969
          },
          {
            "duration": 0.03488372093023173,
            "durationTicks": 3,
            "midi": 64,
            "name": "E4",
            "ticks": 2271,
            "time": 26.406976744186046,
            "velocity": 0.2204724409448819
          },
          {
            "duration": 0.023255813953486637,
            "durationTicks": 2,
            "midi": 73,
            "name": "C#5",
            "ticks": 2272,
            "time": 26.41860465116279,
            "velocity": 0.2677165354330709
          }
        ]
      }
    ]
  }
